  0
SECTION
  2
HEADER
  9
$ACADVER
  1
AC1006
  9
$DWGCODEPAGE
  3
ansi_1252
  9
$INSBASE
 10
0.0
 20
0.0
 30
0.0
  9
$EXTMIN
 10
-34.30629605602093
 20
-49.03480558574333
  9
$EXTMAX
 10
63.25226761064571
 20
34.21317731936528
  9
$LIMMIN
 10
0.0
 20
0.0
  9
$LIMMAX
 10
420.0
 20
297.0
  9
$ORTHOMODE
 70
     0
  9
$REGENMODE
 70
     1
  9
$FILLMODE
 70
     1
  9
$QTEXTMODE
 70
     0
  9
$MIRRTEXT
 70
     1
  9
$DRAGMODE
 70
     2
  9
$LTSCALE
 40
1.0
  9
$OSMODE
 70
    37
  9
$ATTMODE
 70
     1
  9
$TEXTSIZE
 40
3.5
  9
$TRACEWID
 40
1.0
  9
$TEXTSTYLE
  7
STANDARD
  9
$CLAYER
  8
0
  9
$CELTYPE
  6
BYLAYER
  9
$CECOLOR
 62
   256
  9
$DIMSCALE
 40
1.0
  9
$DIMASZ
 40
3.556
  9
$DIMEXO
 40
0.0
  9
$DIMDLI
 40
3.75
  9
$DIMRND
 40
0.0
  9
$DIMDLE
 40
0.0
  9
$DIMEXE
 40
1.0
  9
$DIMTP
 40
0.0
  9
$DIMTM
 40
0.0
  9
$DIMTXT
 40
3.5
  9
$DIMCEN
 40
2.5
  9
$DIMTSZ
 40
0.0
  9
$DIMTOL
 70
     0
  9
$DIMLIM
 70
     0
  9
$DIMTIH
 70
     1
  9
$DIMTOH
 70
     1
  9
$DIMSE1
 70
     0
  9
$DIMSE2
 70
     0
  9
$DIMTAD
 70
     1
  9
$DIMZIN
 70
     1
  9
$DIMBLK
  1

  9
$DIMASO
 70
     1
  9
$DIMSHO
 70
     1
  9
$DIMPOST
  1

  9
$DIMAPOST
  1

  9
$DIMALT
 70
     0
  9
$DIMALTD
 70
     3
  9
$DIMALTF
 40
0.0393700787401575
  9
$DIMLFAC
 40
1.0
  9
$DIMTOFL
 70
     1
  9
$DIMTVP
 40
0.0
  9
$DIMTIX
 70
     0
  9
$DIMSOXD
 70
     0
  9
$DIMSAH
 70
     0
  9
$DIMBLK1
  1

  9
$DIMBLK2
  1

  9
$LUNITS
 70
     2
  9
$LUPREC
 70
     2
  9
$SKETCHINC
 40
1.0
  9
$FILLETRAD
 40
0.0
  9
$AUNITS
 70
     0
  9
$AUPREC
 70
     2
  9
$MENU
  1
.
  9
$ELEVATION
 40
0.0
  9
$THICKNESS
 40
0.0
  9
$LIMCHECK
 70
     0
  9
$CHAMFERA
 40
0.0
  9
$CHAMFERB
 40
0.0
  9
$SKPOLY
 70
     0
  9
$TDCREATE
 40
2460780.06017404
  9
$TDUPDATE
 40
2460780.069666551
  9
$TDINDWG
 40
0.0004976968
  9
$TDUSRTIMER
 40
0.0004976968
  9
$USRTIMER
 70
     1
  9
$ANGBASE
 50
0.0
  9
$ANGDIR
 70
     0
  9
$PDMODE
 70
     0
  9
$PDSIZE
 40
-1.0
  9
$PLINEWID
 40
0.0
  9
$COORDS
 70
     1
  9
$SPLFRAME
 70
     0
  9
$SPLINETYPE
 70
     6
  9
$SPLINESEGS
 70
     8
  9
$ATTDIA
 70
     0
  9
$ATTREQ
 70
     1
  9
$HANDLING
 70
     1
  9
$HANDSEED
  5
9E4
  9
$SURFTAB1
 70
     6
  9
$SURFTAB2
 70
     6
  9
$SURFTYPE
 70
     6
  9
$SURFU
 70
     6
  9
$SURFV
 70
     6
  9
$UCSNAME
  2

  9
$UCSORG
 10
0.0
 20
0.0
 30
0.0
  9
$UCSXDIR
 10
1.0
 20
0.0
 30
0.0
  9
$UCSYDIR
 10
0.0
 20
1.0
 30
0.0
  9
$USERI1
 70
     0
  9
$USERI2
 70
     0
  9
$USERI3
 70
     0
  9
$USERI4
 70
     0
  9
$USERI5
 70
     0
  9
$USERR1
 40
0.0
  9
$USERR2
 40
0.0
  9
$USERR3
 40
0.0
  9
$USERR4
 40
0.0
  9
$USERR5
 40
0.0
  9
$WORLDVIEW
 70
     1
  0
ENDSEC
  0
SECTION
  2
TABLES
  0
TABLE
  2
VPORT
 70
     1
  0
VPORT
  2
*ACTIVE
 70
     0
 10
0.0
 20
0.0
 11
1.0
 21
1.0
 12
31.86460584476706
 22
-21.74032801566588
 13
0.0
 23
0.0
 14
10.0
 24
10.0
 15
10.0
 25
10.0
 16
0.0
 26
0.0
 36
1.0
 17
0.0
 27
0.0
 37
0.0
 40
154.3072474970142
 41
2.632616487455197
 42
50.0
 43
0.0
 44
0.0
 50
0.0
 51
0.0
 71
     0
 72
   100
 73
     1
 74
     3
 75
     0
 76
     0
 77
     0
 78
     0
  0
ENDTAB
  0
TABLE
  2
LTYPE
 70
     6
  0
LTYPE
  2
CONTINUOUS
 70
     0
  3
Solid line
 72
    65
 73
     0
 40
0.0
  0
LTYPE
  2
HIDDEN
 70
     0
  3
Hidden __ __ __ __ __ __ __ __ __ __ __ __ __ __
 72
    65
 73
     2
 40
1.905
 49
1.27
 49
-0.635
  0
LTYPE
  2
PHANTOM
 70
     0
  3
Phantom ______  __  __  ______  __  __  ______
 72
    65
 73
     6
 40
12.7
 49
6.35
 49
-1.27
 49
1.27
 49
-1.27
 49
1.27
 49
-1.27
  0
LTYPE
  2
CENTER
 70
     0
  3
Center ____ _ ____ _ ____ _ ____ _ ____ _ ____
 72
    65
 73
     4
 40
10.16
 49
6.35
 49
-1.27
 49
1.27
 49
-1.27
  0
LTYPE
  2
CENTERX2
 70
     0
  3
Center (2x) ________  __  ________  __  _____
 72
    65
 73
     4
 40
20.32
 49
12.7
 49
-2.54
 49
2.54
 49
-2.54
  0
LTYPE
  2
DOT2
 70
     0
  3
Dot (.5x) ........................................
 72
    65
 73
     2
 40
0.635
 49
0.0
 49
-0.635
  0
ENDTAB
  0
TABLE
  2
LAYER
 70
     1
  0
LAYER
  2
0
 70
     0
 62
     7
  6
CONTINUOUS
  0
ENDTAB
  0
TABLE
  2
STYLE
 70
     3
  0
STYLE
  2
STANDARD
 70
     0
 40
0.0
 41
1.0
 50
0.0
 71
     0
 42
3.5
  3
txt
  4

  0
STYLE
  2
SLDTEXTSTYLE0
 70
     0
 40
0.0
 41
0.7
 50
0.0
 71
     0
 42
3.5
  3
TXT
  4

  0
STYLE
  2
SLDTEXTSTYLE1
 70
     0
 40
0.0
 41
0.7
 50
0.0
 71
     0
 42
3.5
  3
TXT
  4
bigfont
  0
ENDTAB
  0
TABLE
  2
VIEW
 70
     0
  0
ENDTAB
  0
TABLE
  2
UCS
 70
     0
  0
ENDTAB
  0
ENDSEC
  0
SECTION
  2
BLOCKS
  0
ENDSEC
  0
SECTION
  2
ENTITIES
  0
LINE
  5
4E2
  8
0
  6
CONTINUOUS
 62
     7
 10
-4.120487343385294
 20
3.17200000054979
 30
0.0
 11
4.120487356248246
 21
3.17200000054979
 31
0.0
  0
LINE
  5
4E3
  8
0
  6
CONTINUOUS
 62
     7
 10
4.120451603065911
 20
-3.172046442961519
 30
0.0
 11
-4.120523096044134
 21
-3.171953555535921
 31
0.0
  0
LINE
  5
4E4
  8
0
  6
CONTINUOUS
 62
     7
 10
-14.23818156183206
 20
-31.22715792929653
 30
0.0
 11
-14.26364866556852
 21
-30.63254729545021
 31
0.0
  0
LINE
  5
4E5
  8
0
  6
CONTINUOUS
 62
     7
 10
-14.26364866556852
 20
-30.63254729545021
 30
0.0
 11
-14.26507315356852
 21
-30.03117478345021
 31
0.0
  0
LINE
  5
4E6
  8
0
  6
CONTINUOUS
 62
     7
 10
-14.26507315356852
 20
-30.03117478345021
 30
0.0
 11
-14.24347027356852
 21
-29.48485675145022
 31
0.0
  0
LINE
  5
4E7
  8
0
  6
CONTINUOUS
 62
     7
 10
-14.24347027356852
 20
-29.48485675145022
 30
0.0
 11
-14.20323995356852
 21
-28.99176976745021
 31
0.0
  0
LINE
  5
4E8
  8
0
  6
CONTINUOUS
 62
     7
 10
-14.20323995356852
 20
-28.99176976745021
 30
0.0
 11
-14.14907415356852
 21
-28.55460264745021
 31
0.0
  0
LINE
  5
4E9
  8
0
  6
CONTINUOUS
 62
     7
 10
-14.14907415356852
 20
-28.55460264745021
 30
0.0
 11
-14.08551060156852
 21
-28.17300147945021
 31
0.0
  0
LINE
  5
4EA
  8
0
  6
CONTINUOUS
 62
     7
 10
-14.08551060156852
 20
-28.17300147945021
 30
0.0
 11
-14.01682265756852
 21
-27.84566491145021
 31
0.0
  0
LINE
  5
4EB
  8
0
  6
CONTINUOUS
 62
     7
 10
-14.01682265756852
 20
-27.84566491145021
 30
0.0
 11
-13.94776052156852
 21
-27.57360798345021
 31
0.0
  0
LINE
  5
4EC
  8
0
  6
CONTINUOUS
 62
     7
 10
-13.94776052156852
 20
-27.57360798345021
 30
0.0
 11
-13.84238844956853
 21
-27.21515295145022
 31
0.0
  0
LINE
  5
4ED
  8
0
  6
CONTINUOUS
 62
     7
 10
-13.84238844956853
 20
-27.21515295145022
 30
0.0
 11
-13.82026463356852
 21
-27.10858186345022
 31
0.0
  0
LINE
  5
4EE
  8
0
  6
CONTINUOUS
 62
     7
 10
-13.82026463356852
 20
-27.10858186345022
 30
0.0
 11
-13.80843577756852
 21
-27.01318703145021
 31
0.0
  0
LINE
  5
4EF
  8
0
  6
CONTINUOUS
 62
     7
 10
-13.80843577756852
 20
-27.01318703145021
 30
0.0
 11
-13.80641578556852
 21
-26.92935689545021
 31
0.0
  0
LINE
  5
4F0
  8
0
  6
CONTINUOUS
 62
     7
 10
-13.80641578556852
 20
-26.92935689545021
 30
0.0
 11
-13.81371284156852
 21
-26.85744807145022
 31
0.0
  0
LINE
  5
4F1
  8
0
  6
CONTINUOUS
 62
     7
 10
-13.81371284156852
 20
-26.85744807145022
 30
0.0
 11
-13.82983460956852
 21
-26.79781686345021
 31
0.0
  0
LINE
  5
4F2
  8
0
  6
CONTINUOUS
 62
     7
 10
-13.82983460956852
 20
-26.79781686345021
 30
0.0
 11
-13.85425079356852
 21
-26.75079336745021
 31
0.0
  0
LINE
  5
4F3
  8
0
  6
CONTINUOUS
 62
     7
 10
-13.85425079356852
 20
-26.75079336745021
 30
0.0
 11
-13.88644409756852
 21
-26.71668854345021
 31
0.0
  0
LINE
  5
4F4
  8
0
  6
CONTINUOUS
 62
     7
 10
-13.88644409756852
 20
-26.71668854345021
 30
0.0
 11
-13.98720740956852
 21
-26.66187835945021
 31
0.0
  0
LINE
  5
4F5
  8
0
  6
CONTINUOUS
 62
     7
 10
-13.98720740956852
 20
-26.66187835945021
 30
0.0
 11
-14.61147146556852
 21
-26.32482787945021
 31
0.0
  0
LINE
  5
4F6
  8
0
  6
CONTINUOUS
 62
     7
 10
-14.61147146556852
 20
-26.32482787945021
 30
0.0
 11
-15.22772065756852
 21
-25.97333741545021
 31
0.0
  0
LINE
  5
4F7
  8
0
  6
CONTINUOUS
 62
     7
 10
-15.22772065756852
 20
-25.97333741545021
 30
0.0
 11
-15.32753517756853
 21
-25.91681778345021
 31
0.0
  0
LINE
  5
4F8
  8
0
  6
CONTINUOUS
 62
     7
 10
-15.32753517756853
 20
-25.91681778345021
 30
0.0
 11
-15.37350712956853
 21
-25.90753734345022
 31
0.0
  0
LINE
  5
4F9
  8
0
  6
CONTINUOUS
 62
     7
 10
-15.37350712956853
 20
-25.90753734345022
 30
0.0
 11
-15.42632862556852
 21
-25.91169047945021
 31
0.0
  0
LINE
  5
4FA
  8
0
  6
CONTINUOUS
 62
     7
 10
-15.42632862556852
 20
-25.91169047945021
 30
0.0
 11
-15.48546219356853
 21
-25.92955154345021
 31
0.0
  0
LINE
  5
4FB
  8
0
  6
CONTINUOUS
 62
     7
 10
-15.48546219356853
 20
-25.92955154345021
 30
0.0
 11
-15.55034706556853
 21
-25.96139613545022
 31
0.0
  0
LINE
  5
4FC
  8
0
  6
CONTINUOUS
 62
     7
 10
-15.55034706556853
 20
-25.96139613545022
 30
0.0
 11
-15.62042049756852
 21
-26.00745336745021
 31
0.0
  0
LINE
  5
4FD
  8
0
  6
CONTINUOUS
 62
     7
 10
-15.62042049756852
 20
-26.00745336745021
 30
0.0
 11
-15.69511974556852
 21
-26.06795235145021
 31
0.0
  0
LINE
  5
4FE
  8
0
  6
CONTINUOUS
 62
     7
 10
-15.69511974556852
 20
-26.06795235145021
 30
0.0
 11
-15.77385793756853
 21
-26.14309994345021
 31
0.0
  0
LINE
  5
4FF
  8
0
  6
CONTINUOUS
 62
     7
 10
-15.77385793756853
 20
-26.14309994345021
 30
0.0
 11
-16.02232069756852
 21
-26.42213319145021
 31
0.0
  0
LINE
  5
500
  8
0
  6
CONTINUOUS
 62
     7
 10
-16.02232069756852
 20
-26.42213319145021
 30
0.0
 11
-16.21666892956852
 21
-26.62465062345021
 31
0.0
  0
LINE
  5
501
  8
0
  6
CONTINUOUS
 62
     7
 10
-16.21666892956852
 20
-26.62465062345021
 30
0.0
 11
-16.45812770556852
 21
-26.85609149545022
 31
0.0
  0
LINE
  5
502
  8
0
  6
CONTINUOUS
 62
     7
 10
-16.45812770556852
 20
-26.85609149545022
 30
0.0
 11
-16.74834854556853
 21
-27.11188760745021
 31
0.0
  0
LINE
  5
503
  8
0
  6
CONTINUOUS
 62
     7
 10
-16.74834854556853
 20
-27.11188760745021
 30
0.0
 11
-17.09069616156852
 21
-27.38910075145021
 31
0.0
  0
LINE
  5
504
  8
0
  6
CONTINUOUS
 62
     7
 10
-17.09069616156852
 20
-27.38910075145021
 30
0.0
 11
-17.48787122556853
 21
-27.68406731945021
 31
0.0
  0
LINE
  5
505
  8
0
  6
CONTINUOUS
 62
     7
 10
-17.48787122556853
 20
-27.68406731945021
 30
0.0
 11
-17.94007362556852
 21
-27.99138305545021
 31
0.0
  0
LINE
  5
506
  8
0
  6
CONTINUOUS
 62
     7
 10
-17.94007362556852
 20
-27.99138305545021
 30
0.0
 11
-18.45117860956852
 21
-28.30827864745022
 31
0.0
  0
LINE
  5
507
  8
0
  6
CONTINUOUS
 62
     7
 10
-18.45117860956852
 20
-28.30827864745022
 30
0.0
 11
-18.96926263628052
 21
-28.60119372894324
 31
0.0
  0
LINE
  5
508
  8
0
  6
CONTINUOUS
 62
     7
 10
-20.23270589273683
 20
-27.72181133109789
 30
0.0
 11
-20.13795741756852
 21
-27.13424594345021
 31
0.0
  0
LINE
  5
509
  8
0
  6
CONTINUOUS
 62
     7
 10
-20.13795741756852
 20
-27.13424594345021
 30
0.0
 11
-20.01829730556852
 21
-26.54489666345021
 31
0.0
  0
LINE
  5
50A
  8
0
  6
CONTINUOUS
 62
     7
 10
-20.01829730556852
 20
-26.54489666345021
 30
0.0
 11
-19.88716360156853
 21
-26.01411051145021
 31
0.0
  0
LINE
  5
50B
  8
0
  6
CONTINUOUS
 62
     7
 10
-19.88716360156853
 20
-26.01411051145021
 30
0.0
 11
-19.74849915356852
 21
-25.53921531145021
 31
0.0
  0
LINE
  5
50C
  8
0
  6
CONTINUOUS
 62
     7
 10
-19.74849915356852
 20
-25.53921531145021
 30
0.0
 11
-19.60744093756852
 21
-25.12190054345021
 31
0.0
  0
LINE
  5
50D
  8
0
  6
CONTINUOUS
 62
     7
 10
-19.60744093756852
 20
-25.12190054345021
 30
0.0
 11
-19.46836277756853
 21
-24.76090603945021
 31
0.0
  0
LINE
  5
50E
  8
0
  6
CONTINUOUS
 62
     7
 10
-19.46836277756853
 20
-24.76090603945021
 30
0.0
 11
-19.33518859356852
 21
-24.45409688745021
 31
0.0
  0
LINE
  5
50F
  8
0
  6
CONTINUOUS
 62
     7
 10
-19.33518859356852
 20
-24.45409688745021
 30
0.0
 11
-19.21277560156853
 21
-24.20151104745021
 31
0.0
  0
LINE
  5
510
  8
0
  6
CONTINUOUS
 62
     7
 10
-19.21277560156853
 20
-24.20151104745021
 30
0.0
 11
-19.03740404156853
 21
-23.87160484745021
 31
0.0
  0
LINE
  5
511
  8
0
  6
CONTINUOUS
 62
     7
 10
-19.03740404156853
 20
-23.87160484745021
 30
0.0
 11
-18.99428044156852
 21
-23.77166885545021
 31
0.0
  0
LINE
  5
512
  8
0
  6
CONTINUOUS
 62
     7
 10
-18.99428044156852
 20
-23.77166885545021
 30
0.0
 11
-18.96349082556853
 21
-23.68060780745022
 31
0.0
  0
LINE
  5
513
  8
0
  6
CONTINUOUS
 62
     7
 10
-18.96349082556853
 20
-23.68060780745022
 30
0.0
 11
-18.94463739356852
 21
-23.59890031145021
 31
0.0
  0
LINE
  5
514
  8
0
  6
CONTINUOUS
 62
     7
 10
-18.94463739356852
 20
-23.59890031145021
 30
0.0
 11
-18.93730986556853
 21
-23.52699460745021
 31
0.0
  0
LINE
  5
515
  8
0
  6
CONTINUOUS
 62
     7
 10
-18.93730986556853
 20
-23.52699460745021
 30
0.0
 11
-18.94109796156853
 21
-23.46533872745021
 31
0.0
  0
LINE
  5
516
  8
0
  6
CONTINUOUS
 62
     7
 10
-18.94109796156853
 20
-23.46533872745021
 30
0.0
 11
-18.95554865756852
 21
-23.41436291945021
 31
0.0
  0
LINE
  5
517
  8
0
  6
CONTINUOUS
 62
     7
 10
-18.95554865756852
 20
-23.41436291945021
 30
0.0
 11
-18.98021766556852
 21
-23.37447569545022
 31
0.0
  0
LINE
  5
518
  8
0
  6
CONTINUOUS
 62
     7
 10
-18.98021766556852
 20
-23.37447569545022
 30
0.0
 11
-19.06788519356853
 21
-23.30050403145021
 31
0.0
  0
LINE
  5
519
  8
0
  6
CONTINUOUS
 62
     7
 10
-19.06788519356853
 20
-23.30050403145021
 30
0.0
 11
-19.61152272956852
 21
-22.84468960745021
 31
0.0
  0
LINE
  5
51A
  8
0
  6
CONTINUOUS
 62
     7
 10
-19.61152272956852
 20
-22.84468960745021
 30
0.0
 11
-20.14440271356852
 21
-22.37634401545021
 31
0.0
  0
LINE
  5
51B
  8
0
  6
CONTINUOUS
 62
     7
 10
-20.14440271356852
 20
-22.37634401545021
 30
0.0
 11
-20.23079665756852
 21
-22.30088879145021
 31
0.0
  0
LINE
  5
51C
  8
0
  6
CONTINUOUS
 62
     7
 10
-20.23079665756852
 20
-22.30088879145021
 30
0.0
 11
-20.27395946556853
 21
-22.28254433545021
 31
0.0
  0
LINE
  5
51D
  8
0
  6
CONTINUOUS
 62
     7
 10
-20.27395946556853
 20
-22.28254433545021
 30
0.0
 11
-20.32653572956852
 21
-22.27597943945021
 31
0.0
  0
LINE
  5
51E
  8
0
  6
CONTINUOUS
 62
     7
 10
-20.32653572956852
 20
-22.27597943945021
 30
0.0
 11
-20.38805422556852
 21
-22.28157141545021
 31
0.0
  0
LINE
  5
51F
  8
0
  6
CONTINUOUS
 62
     7
 10
-20.38805422556852
 20
-22.28157141545021
 30
0.0
 11
-20.45802116156852
 21
-22.29970298345021
 31
0.0
  0
LINE
  5
520
  8
0
  6
CONTINUOUS
 62
     7
 10
-20.45802116156852
 20
-22.29970298345021
 30
0.0
 11
-20.53593140956853
 21
-22.33071183145021
 31
0.0
  0
LINE
  5
521
  8
0
  6
CONTINUOUS
 62
     7
 10
-20.53593140956853
 20
-22.33071183145021
 30
0.0
 11
-20.62127994556852
 21
-22.37493554345021
 31
0.0
  0
LINE
  5
522
  8
0
  6
CONTINUOUS
 62
     7
 10
-20.62127994556852
 20
-22.37493554345021
 30
0.0
 11
-20.71353345756852
 21
-22.43269485545022
 31
0.0
  0
LINE
  5
523
  8
0
  6
CONTINUOUS
 62
     7
 10
-20.71353345756852
 20
-22.43269485545022
 30
0.0
 11
-21.01307914556852
 21
-22.65600105545021
 31
0.0
  0
LINE
  5
524
  8
0
  6
CONTINUOUS
 62
     7
 10
-21.01307914556852
 20
-22.65600105545021
 30
0.0
 11
-21.24421550556852
 21
-22.81525095145021
 31
0.0
  0
LINE
  5
525
  8
0
  6
CONTINUOUS
 62
     7
 10
-21.24421550556852
 20
-22.81525095145021
 30
0.0
 11
-21.52732035356852
 21
-22.99334897545021
 31
0.0
  0
LINE
  5
526
  8
0
  6
CONTINUOUS
 62
     7
 10
-21.52732035356852
 20
-22.99334897545021
 30
0.0
 11
-21.86309173756852
 21
-23.18548793545021
 31
0.0
  0
LINE
  5
527
  8
0
  6
CONTINUOUS
 62
     7
 10
-21.86309173756852
 20
-23.18548793545021
 30
0.0
 11
-22.25423407356853
 21
-23.38811248745021
 31
0.0
  0
LINE
  5
528
  8
0
  6
CONTINUOUS
 62
     7
 10
-22.25423407356853
 20
-23.38811248745021
 30
0.0
 11
-22.70265524156853
 21
-23.59709029545022
 31
0.0
  0
LINE
  5
529
  8
0
  6
CONTINUOUS
 62
     7
 10
-22.70265524156853
 20
-23.59709029545022
 30
0.0
 11
-23.20746333756852
 21
-23.80708751145021
 31
0.0
  0
LINE
  5
52A
  8
0
  6
CONTINUOUS
 62
     7
 10
-23.20746333756852
 20
-23.80708751145021
 30
0.0
 11
-23.77189650556852
 21
-24.01461150345022
 31
0.0
  0
LINE
  5
52B
  8
0
  6
CONTINUOUS
 62
     7
 10
-23.77189650556852
 20
-24.01461150345022
 30
0.0
 11
-24.33833877846826
 21
-24.19724114134186
 31
0.0
  0
LINE
  5
52C
  8
0
  6
CONTINUOUS
 62
     7
 10
-25.39890080350264
 20
-23.08153049763866
 30
0.0
 11
-25.18781573756853
 21
-22.52506526345021
 31
0.0
  0
LINE
  5
52D
  8
0
  6
CONTINUOUS
 62
     7
 10
-25.18781573756853
 20
-22.52506526345021
 30
0.0
 11
-24.95196994556852
 21
-21.97186752745021
 31
0.0
  0
LINE
  5
52E
  8
0
  6
CONTINUOUS
 62
     7
 10
-24.95196994556852
 20
-21.97186752745021
 30
0.0
 11
-24.71667420956853
 21
-21.47834353545021
 31
0.0
  0
LINE
  5
52F
  8
0
  6
CONTINUOUS
 62
     7
 10
-24.71667420956853
 20
-21.47834353545021
 30
0.0
 11
-24.48525247356852
 21
-21.04108250345021
 31
0.0
  0
LINE
  5
530
  8
0
  6
CONTINUOUS
 62
     7
 10
-24.48525247356852
 20
-21.04108250345021
 30
0.0
 11
-24.26307696156852
 21
-20.66070489545021
 31
0.0
  0
LINE
  5
531
  8
0
  6
CONTINUOUS
 62
     7
 10
-24.26307696156852
 20
-20.66070489545021
 30
0.0
 11
-24.05417798556852
 21
-20.33509618345022
 31
0.0
  0
LINE
  5
532
  8
0
  6
CONTINUOUS
 62
     7
 10
-24.05417798556852
 20
-20.33509618345022
 30
0.0
 11
-23.86196965756852
 21
-20.06137525545021
 31
0.0
  0
LINE
  5
533
  8
0
  6
CONTINUOUS
 62
     7
 10
-23.86196965756852
 20
-20.06137525545021
 30
0.0
 11
-23.69121725756852
 21
-19.83860143145022
 31
0.0
  0
LINE
  5
534
  8
0
  6
CONTINUOUS
 62
     7
 10
-23.69121725756852
 20
-19.83860143145022
 30
0.0
 11
-23.45302595356852
 21
-19.55075043945022
 31
0.0
  0
LINE
  5
535
  8
0
  6
CONTINUOUS
 62
     7
 10
-23.45302595356852
 20
-19.55075043945022
 30
0.0
 11
-23.39066807356852
 21
-19.46154079945021
 31
0.0
  0
LINE
  5
536
  8
0
  6
CONTINUOUS
 62
     7
 10
-23.39066807356852
 20
-19.46154079945021
 30
0.0
 11
-23.34217838556852
 21
-19.37854172745021
 31
0.0
  0
LINE
  5
537
  8
0
  6
CONTINUOUS
 62
     7
 10
-23.34217838556852
 20
-19.37854172745021
 30
0.0
 11
-23.30726329756853
 21
-19.30230203145021
 31
0.0
  0
LINE
  5
538
  8
0
  6
CONTINUOUS
 62
     7
 10
-23.30726329756853
 20
-19.30230203145021
 30
0.0
 11
-23.28561122556852
 21
-19.23334316745022
 31
0.0
  0
LINE
  5
539
  8
0
  6
CONTINUOUS
 62
     7
 10
-23.28561122556852
 20
-19.23334316745022
 30
0.0
 11
-23.27691058556852
 21
-19.17218690345021
 31
0.0
  0
LINE
  5
53A
  8
0
  6
CONTINUOUS
 62
     7
 10
-23.27691058556852
 20
-19.17218690345021
 30
0.0
 11
-23.28080403356852
 21
-19.11934564745021
 31
0.0
  0
LINE
  5
53B
  8
0
  6
CONTINUOUS
 62
     7
 10
-23.28080403356852
 20
-19.11934564745021
 30
0.0
 11
-23.29693880156852
 21
-19.07530913545021
 31
0.0
  0
LINE
  5
53C
  8
0
  6
CONTINUOUS
 62
     7
 10
-23.29693880156852
 20
-19.07530913545021
 30
0.0
 11
-23.36792140156852
 21
-18.98520426345021
 31
0.0
  0
LINE
  5
53D
  8
0
  6
CONTINUOUS
 62
     7
 10
-23.36792140156852
 20
-18.98520426345021
 30
0.0
 11
-23.80867589756852
 21
-18.42928692745021
 31
0.0
  0
LINE
  5
53E
  8
0
  6
CONTINUOUS
 62
     7
 10
-23.80867589756852
 20
-18.42928692745021
 30
0.0
 11
-24.23637048956853
 21
-17.86326047945021
 31
0.0
  0
LINE
  5
53F
  8
0
  6
CONTINUOUS
 62
     7
 10
-24.23637048956853
 20
-17.86326047945021
 30
0.0
 11
-24.30580702556853
 21
-17.77195887945021
 31
0.0
  0
LINE
  5
540
  8
0
  6
CONTINUOUS
 62
     7
 10
-24.30580702556853
 20
-17.77195887945021
 30
0.0
 11
-24.34439352156852
 21
-17.74530128745021
 31
0.0
  0
LINE
  5
541
  8
0
  6
CONTINUOUS
 62
     7
 10
-24.34439352156852
 20
-17.74530128745021
 30
0.0
 11
-24.39457206556852
 21
-17.72828730345021
 31
0.0
  0
LINE
  5
542
  8
0
  6
CONTINUOUS
 62
     7
 10
-24.39457206556852
 20
-17.72828730345021
 30
0.0
 11
-24.45595692156853
 21
-17.72138128745021
 31
0.0
  0
LINE
  5
543
  8
0
  6
CONTINUOUS
 62
     7
 10
-24.45595692156853
 20
-17.72138128745021
 30
0.0
 11
-24.52814144956853
 21
-17.72505737545021
 31
0.0
  0
LINE
  5
544
  8
0
  6
CONTINUOUS
 62
     7
 10
-24.52814144956853
 20
-17.72505737545021
 30
0.0
 11
-24.61069893756853
 21
-17.73974820745021
 31
0.0
  0
LINE
  5
545
  8
0
  6
CONTINUOUS
 62
     7
 10
-24.61069893756853
 20
-17.73974820745021
 30
0.0
 11
-24.70320256956852
 21
-17.76588611145021
 31
0.0
  0
LINE
  5
546
  8
0
  6
CONTINUOUS
 62
     7
 10
-24.70320256956852
 20
-17.76588611145021
 30
0.0
 11
-24.80519453756853
 21
-17.80389270345021
 31
0.0
  0
LINE
  5
547
  8
0
  6
CONTINUOUS
 62
     7
 10
-24.80519453756853
 20
-17.80389270345021
 30
0.0
 11
-25.14355968156852
 21
-17.96232973545021
 31
0.0
  0
LINE
  5
548
  8
0
  6
CONTINUOUS
 62
     7
 10
-25.14355968156852
 20
-17.96232973545021
 30
0.0
 11
-25.40202141756853
 21
-18.07179233545021
 31
0.0
  0
LINE
  5
549
  8
0
  6
CONTINUOUS
 62
     7
 10
-25.40202141756853
 20
-18.07179233545021
 30
0.0
 11
-25.71518195356852
 21
-18.18925596745021
 31
0.0
  0
LINE
  5
54A
  8
0
  6
CONTINUOUS
 62
     7
 10
-25.71518195356852
 20
-18.18925596745021
 30
0.0
 11
-26.08275736956852
 21
-18.30987163145021
 31
0.0
  0
LINE
  5
54B
  8
0
  6
CONTINUOUS
 62
     7
 10
-26.08275736956852
 20
-18.30987163145021
 30
0.0
 11
-26.50668102556853
 21
-18.42961203145021
 31
0.0
  0
LINE
  5
54C
  8
0
  6
CONTINUOUS
 62
     7
 10
-26.50668102556853
 20
-18.42961203145021
 30
0.0
 11
-26.98798990556852
 21
-18.54404551945021
 31
0.0
  0
LINE
  5
54D
  8
0
  6
CONTINUOUS
 62
     7
 10
-26.98798990556852
 20
-18.54404551945021
 30
0.0
 11
-27.52473660956852
 21
-18.64812695145022
 31
0.0
  0
LINE
  5
54E
  8
0
  6
CONTINUOUS
 62
     7
 10
-27.52473660956852
 20
-18.64812695145022
 30
0.0
 11
-28.11939009756852
 21
-18.73778347945021
 31
0.0
  0
LINE
  5
54F
  8
0
  6
CONTINUOUS
 62
     7
 10
-28.11939009756852
 20
-18.73778347945021
 30
0.0
 11
-28.71100021882728
 21
-18.80265057201437
 31
0.0
  0
LINE
  5
550
  8
0
  6
CONTINUOUS
 62
     7
 10
-29.52526167877139
 20
-17.4962889870404
 30
0.0
 11
-29.20648202556852
 21
-16.99370587145022
 31
0.0
  0
LINE
  5
551
  8
0
  6
CONTINUOUS
 62
     7
 10
-29.20648202556852
 20
-16.99370587145022
 30
0.0
 11
-28.86410612156852
 21
-16.49930744745021
 31
0.0
  0
LINE
  5
552
  8
0
  6
CONTINUOUS
 62
     7
 10
-28.86410612156852
 20
-16.49930744745021
 30
0.0
 11
-28.53428114556852
 21
-16.06325063145021
 31
0.0
  0
LINE
  5
553
  8
0
  6
CONTINUOUS
 62
     7
 10
-28.53428114556852
 20
-16.06325063145021
 30
0.0
 11
-28.21957662556853
 21
-15.68152518345021
 31
0.0
  0
LINE
  5
554
  8
0
  6
CONTINUOUS
 62
     7
 10
-28.21957662556853
 20
-15.68152518345021
 30
0.0
 11
-27.92537965756852
 21
-15.35365759145021
 31
0.0
  0
LINE
  5
555
  8
0
  6
CONTINUOUS
 62
     7
 10
-27.92537965756852
 20
-15.35365759145021
 30
0.0
 11
-27.65521240956852
 21
-15.07676518345021
 31
0.0
  0
LINE
  5
556
  8
0
  6
CONTINUOUS
 62
     7
 10
-27.65521240956852
 20
-15.07676518345021
 30
0.0
 11
-27.41183888956852
 21
-14.84733847945021
 31
0.0
  0
LINE
  5
557
  8
0
  6
CONTINUOUS
 62
     7
 10
-27.41183888956852
 20
-14.84733847945021
 30
0.0
 11
-27.19973775356852
 21
-14.66349705545021
 31
0.0
  0
LINE
  5
558
  8
0
  6
CONTINUOUS
 62
     7
 10
-27.19973775356852
 20
-14.66349705545021
 30
0.0
 11
-26.90847826556853
 21
-14.42948603145021
 31
0.0
  0
LINE
  5
559
  8
0
  6
CONTINUOUS
 62
     7
 10
-26.90847826556853
 20
-14.42948603145021
 30
0.0
 11
-26.82943909756852
 21
-14.35465511945021
 31
0.0
  0
LINE
  5
55A
  8
0
  6
CONTINUOUS
 62
     7
 10
-26.82943909756852
 20
-14.35465511945021
 30
0.0
 11
-26.76523438556852
 21
-14.28311591145022
 31
0.0
  0
LINE
  5
55B
  8
0
  6
CONTINUOUS
 62
     7
 10
-26.76523438556852
 20
-14.28311591145022
 30
0.0
 11
-26.71568701756852
 21
-14.21546515945021
 31
0.0
  0
LINE
  5
55C
  8
0
  6
CONTINUOUS
 62
     7
 10
-26.71568701756852
 20
-14.21546515945021
 30
0.0
 11
-26.68059689756852
 21
-14.15227642345021
 31
0.0
  0
LINE
  5
55D
  8
0
  6
CONTINUOUS
 62
     7
 10
-26.68059689756852
 20
-14.15227642345021
 30
0.0
 11
-26.65976372156852
 21
-14.09412347145021
 31
0.0
  0
LINE
  5
55E
  8
0
  6
CONTINUOUS
 62
     7
 10
-26.65976372156852
 20
-14.09412347145021
 30
0.0
 11
-26.65294059356852
 21
-14.04158007145021
 31
0.0
  0
LINE
  5
55F
  8
0
  6
CONTINUOUS
 62
     7
 10
-26.65294059356852
 20
-14.04158007145021
 30
0.0
 11
-26.65988061756853
 21
-13.99519711145021
 31
0.0
  0
LINE
  5
560
  8
0
  6
CONTINUOUS
 62
     7
 10
-26.65988061756853
 20
-13.99519711145021
 30
0.0
 11
-26.71127221756852
 21
-13.89264801545021
 31
0.0
  0
LINE
  5
561
  8
0
  6
CONTINUOUS
 62
     7
 10
-26.71127221756852
 20
-13.89264801545021
 30
0.0
 11
-27.03109904956852
 21
-13.25938712745021
 31
0.0
  0
LINE
  5
562
  8
0
  6
CONTINUOUS
 62
     7
 10
-27.03109904956852
 20
-13.25938712745021
 30
0.0
 11
-27.33609849756852
 21
-12.61885299945021
 31
0.0
  0
LINE
  5
563
  8
0
  6
CONTINUOUS
 62
     7
 10
-27.33609849756852
 20
-12.61885299945021
 30
0.0
 11
-27.38573468156852
 21
-12.51544288745021
 31
0.0
  0
LINE
  5
564
  8
0
  6
CONTINUOUS
 62
     7
 10
-27.38573468156852
 20
-12.51544288745021
 30
0.0
 11
-27.41816520956852
 21
-12.48156353545021
 31
0.0
  0
LINE
  5
565
  8
0
  6
CONTINUOUS
 62
     7
 10
-27.41816520956852
 20
-12.48156353545021
 30
0.0
 11
-27.46389172156853
 21
-12.45479695145021
 31
0.0
  0
LINE
  5
566
  8
0
  6
CONTINUOUS
 62
     7
 10
-27.46389172156853
 20
-12.45479695145021
 30
0.0
 11
-27.52262977756852
 21
-12.43567561545021
 31
0.0
  0
LINE
  5
567
  8
0
  6
CONTINUOUS
 62
     7
 10
-27.52262977756852
 20
-12.43567561545021
 30
0.0
 11
-27.59407673756852
 21
-12.42474583945021
 31
0.0
  0
LINE
  5
568
  8
0
  6
CONTINUOUS
 62
     7
 10
-27.59407673756852
 20
-12.42474583945021
 30
0.0
 11
-27.67790156956853
 21
-12.42251722345021
 31
0.0
  0
LINE
  5
569
  8
0
  6
CONTINUOUS
 62
     7
 10
-27.67790156956853
 20
-12.42251722345021
 30
0.0
 11
-27.77377313756853
 21
-12.42949926345021
 31
0.0
  0
LINE
  5
56A
  8
0
  6
CONTINUOUS
 62
     7
 10
-27.77377313756853
 20
-12.42949926345021
 30
0.0
 11
-27.88132796156853
 21
-12.44619698345021
 31
0.0
  0
LINE
  5
56B
  8
0
  6
CONTINUOUS
 62
     7
 10
-27.88132796156853
 20
-12.44619698345021
 30
0.0
 11
-28.24465986556853
 21
-12.53327836745021
 31
0.0
  0
LINE
  5
56C
  8
0
  6
CONTINUOUS
 62
     7
 10
-28.24465986556853
 20
-12.53327836745021
 30
0.0
 11
-28.51986560156852
 21
-12.58847231145021
 31
0.0
  0
LINE
  5
56D
  8
0
  6
CONTINUOUS
 62
     7
 10
-28.51986560156852
 20
-12.58847231145021
 30
0.0
 11
-28.85026101756852
 21
-12.64049279945021
 31
0.0
  0
LINE
  5
56E
  8
0
  6
CONTINUOUS
 62
     7
 10
-28.85026101756852
 20
-12.64049279945021
 30
0.0
 11
-29.23459176956852
 21
-12.68464703945021
 31
0.0
  0
LINE
  5
56F
  8
0
  6
CONTINUOUS
 62
     7
 10
-29.23459176956852
 20
-12.68464703945021
 30
0.0
 11
-29.67394132956852
 21
-12.71660114345021
 31
0.0
  0
LINE
  5
570
  8
0
  6
CONTINUOUS
 62
     7
 10
-29.67394132956852
 20
-12.71660114345021
 30
0.0
 11
-30.16843304156852
 21
-12.73180542345021
 31
0.0
  0
LINE
  5
571
  8
0
  6
CONTINUOUS
 62
     7
 10
-30.16843304156852
 20
-12.73180542345021
 30
0.0
 11
-30.71514398556852
 21
-12.72570998345021
 31
0.0
  0
LINE
  5
572
  8
0
  6
CONTINUOUS
 62
     7
 10
-30.71514398556852
 20
-12.72570998345021
 30
0.0
 11
-31.31567264156852
 21
-12.69382826345021
 31
0.0
  0
LINE
  5
573
  8
0
  6
CONTINUOUS
 62
     7
 10
-31.31567264156852
 20
-12.69382826345021
 30
0.0
 11
-31.90823008521543
 21
-12.63827739220151
 31
0.0
  0
LINE
  5
574
  8
0
  6
CONTINUOUS
 62
     7
 10
-32.44285489785465
 20
-11.19474750346197
 30
0.0
 11
-32.02943140156852
 21
-10.76662204745021
 31
0.0
  0
LINE
  5
575
  8
0
  6
CONTINUOUS
 62
     7
 10
-32.02943140156852
 20
-10.76662204745021
 30
0.0
 11
-31.59454229756852
 21
-10.35126383145021
 31
0.0
  0
LINE
  5
576
  8
0
  6
CONTINUOUS
 62
     7
 10
-31.59454229756852
 20
-10.35126383145021
 30
0.0
 11
-31.18369133756853
 21
-9.990526415450212
 31
0.0
  0
LINE
  5
577
  8
0
  6
CONTINUOUS
 62
     7
 10
-31.18369133756853
 20
-9.990526415450212
 30
0.0
 11
-30.79858807356852
 21
-9.679964423450214
 31
0.0
  0
LINE
  5
578
  8
0
  6
CONTINUOUS
 62
     7
 10
-30.79858807356852
 20
-9.679964423450214
 30
0.0
 11
-30.44441399356853
 21
-9.418029711450213
 31
0.0
  0
LINE
  5
579
  8
0
  6
CONTINUOUS
 62
     7
 10
-30.44441399356853
 20
-9.418029711450213
 30
0.0
 11
-30.12403908156853
 21
-9.201189503450212
 31
0.0
  0
LINE
  5
57A
  8
0
  6
CONTINUOUS
 62
     7
 10
-30.12403908156853
 20
-9.201189503450212
 30
0.0
 11
-29.83946419356852
 21
-9.02544999145021
 31
0.0
  0
LINE
  5
57B
  8
0
  6
CONTINUOUS
 62
     7
 10
-29.83946419356852
 20
-9.02544999145021
 30
0.0
 11
-29.59469780156852
 21
-8.888067447450211
 31
0.0
  0
LINE
  5
57C
  8
0
  6
CONTINUOUS
 62
     7
 10
-29.59469780156852
 20
-8.888067447450211
 30
0.0
 11
-29.26229435356853
 21
-8.717476767450213
 31
0.0
  0
LINE
  5
57D
  8
0
  6
CONTINUOUS
 62
     7
 10
-29.26229435356853
 20
-8.717476767450213
 30
0.0
 11
-29.16980975356853
 21
-8.660088007450215
 31
0.0
  0
LINE
  5
57E
  8
0
  6
CONTINUOUS
 62
     7
 10
-29.16980975356853
 20
-8.660088007450215
 30
0.0
 11
-29.09251851356852
 21
-8.602937615450212
 31
0.0
  0
LINE
  5
57F
  8
0
  6
CONTINUOUS
 62
     7
 10
-29.09251851356852
 20
-8.602937615450212
 30
0.0
 11
-29.03036738556852
 21
-8.54664543145021
 31
0.0
  0
LINE
  5
580
  8
0
  6
CONTINUOUS
 62
     7
 10
-29.03036738556852
 20
-8.54664543145021
 30
0.0
 11
-28.98327576956852
 21
-8.491813823450212
 31
0.0
  0
LINE
  5
581
  8
0
  6
CONTINUOUS
 62
     7
 10
-28.98327576956852
 20
-8.491813823450212
 30
0.0
 11
-28.95116296156852
 21
-8.439044951450212
 31
0.0
  0
LINE
  5
582
  8
0
  6
CONTINUOUS
 62
     7
 10
-28.95116296156852
 20
-8.439044951450212
 30
0.0
 11
-28.93390260156853
 21
-8.388950647450212
 31
0.0
  0
LINE
  5
583
  8
0
  6
CONTINUOUS
 62
     7
 10
-28.93390260156853
 20
-8.388950647450212
 30
0.0
 11
-28.93136375356853
 21
-8.342120071450212
 31
0.0
  0
LINE
  5
584
  8
0
  6
CONTINUOUS
 62
     7
 10
-28.93136375356853
 20
-8.342120071450212
 30
0.0
 11
-28.96106043356853
 21
-8.23132512745021
 31
0.0
  0
LINE
  5
585
  8
0
  6
CONTINUOUS
 62
     7
 10
-28.96106043356853
 20
-8.23132512745021
 30
0.0
 11
-29.14686589756853
 21
-7.546646431450212
 31
0.0
  0
LINE
  5
586
  8
0
  6
CONTINUOUS
 62
     7
 10
-29.14686589756853
 20
-7.546646431450212
 30
0.0
 11
-29.31668344156853
 21
-6.857828119450212
 31
0.0
  0
LINE
  5
587
  8
0
  6
CONTINUOUS
 62
     7
 10
-29.31668344156853
 20
-6.857828119450212
 30
0.0
 11
-29.34448721756852
 21
-6.746543127450211
 31
0.0
  0
LINE
  5
588
  8
0
  6
CONTINUOUS
 62
     7
 10
-29.34448721756852
 20
-6.746543127450211
 30
0.0
 11
-29.36943400956853
 21
-6.706829167450213
 31
0.0
  0
LINE
  5
589
  8
0
  6
CONTINUOUS
 62
     7
 10
-29.36943400956853
 20
-6.706829167450213
 30
0.0
 11
-29.40883638556853
 21
-6.671405831450212
 31
0.0
  0
LINE
  5
58A
  8
0
  6
CONTINUOUS
 62
     7
 10
-29.40883638556853
 20
-6.671405831450212
 30
0.0
 11
-29.46252305756853
 21
-6.640851983450212
 31
0.0
  0
LINE
  5
58B
  8
0
  6
CONTINUOUS
 62
     7
 10
-29.46252305756853
 20
-6.640851983450212
 30
0.0
 11
-29.53030734556852
 21
-6.615763751450213
 31
0.0
  0
LINE
  5
58C
  8
0
  6
CONTINUOUS
 62
     7
 10
-29.53030734556852
 20
-6.615763751450213
 30
0.0
 11
-29.61196762556853
 21
-6.596706999450212
 31
0.0
  0
LINE
  5
58D
  8
0
  6
CONTINUOUS
 62
     7
 10
-29.61196762556853
 20
-6.596706999450212
 30
0.0
 11
-29.70728216956853
 21
-6.584247279450211
 31
0.0
  0
LINE
  5
58E
  8
0
  6
CONTINUOUS
 62
     7
 10
-29.70728216956853
 20
-6.584247279450211
 30
0.0
 11
-29.81599659356852
 21
-6.578952535450211
 31
0.0
  0
LINE
  5
58F
  8
0
  6
CONTINUOUS
 62
     7
 10
-29.81599659356852
 20
-6.578952535450211
 30
0.0
 11
-30.18942044956853
 21
-6.591113255450211
 31
0.0
  0
LINE
  5
590
  8
0
  6
CONTINUOUS
 62
     7
 10
-30.18942044956853
 20
-6.591113255450211
 30
0.0
 11
-30.47010313756853
 21
-6.589778831450211
 31
0.0
  0
LINE
  5
591
  8
0
  6
CONTINUOUS
 62
     7
 10
-30.47010313756853
 20
-6.589778831450211
 30
0.0
 11
-30.80420698556852
 21
-6.574226359450211
 31
0.0
  0
LINE
  5
592
  8
0
  6
CONTINUOUS
 62
     7
 10
-30.80420698556852
 20
-6.574226359450211
 30
0.0
 11
-31.18955870556852
 21
-6.540111447450212
 31
0.0
  0
LINE
  5
593
  8
0
  6
CONTINUOUS
 62
     7
 10
-31.18955870556852
 20
-6.540111447450212
 30
0.0
 11
-31.62634695356852
 21
-6.482971039450211
 31
0.0
  0
LINE
  5
594
  8
0
  6
CONTINUOUS
 62
     7
 10
-31.62634695356852
 20
-6.482971039450211
 30
0.0
 11
-32.11377706556853
 21
-6.398323671450211
 31
0.0
  0
LINE
  5
595
  8
0
  6
CONTINUOUS
 62
     7
 10
-32.11377706556853
 20
-6.398323671450211
 30
0.0
 11
-32.64806978556853
 21
-6.282300959450211
 31
0.0
  0
LINE
  5
596
  8
0
  6
CONTINUOUS
 62
     7
 10
-32.64806978556853
 20
-6.282300959450211
 30
0.0
 11
-33.22988780156852
 21
-6.130186295450212
 31
0.0
  0
LINE
  5
597
  8
0
  6
CONTINUOUS
 62
     7
 10
-33.22988780156852
 20
-6.130186295450212
 30
0.0
 11
-33.79913339942513
 21
-5.956491662684029
 31
0.0
  0
LINE
  5
598
  8
0
  6
CONTINUOUS
 62
     7
 10
-34.03223390795477
 20
-4.434891684459589
 30
0.0
 11
-33.54109220156852
 21
-4.098751591450213
 31
0.0
  0
LINE
  5
599
  8
0
  6
CONTINUOUS
 62
     7
 10
-33.54109220156852
 20
-4.098751591450213
 30
0.0
 11
-33.03149428156853
 21
-3.779438207450212
 31
0.0
  0
LINE
  5
59A
  8
0
  6
CONTINUOUS
 62
     7
 10
-33.03149428156853
 20
-3.779438207450212
 30
0.0
 11
-32.55643746556853
 21
-3.508788815450212
 31
0.0
  0
LINE
  5
59B
  8
0
  6
CONTINUOUS
 62
     7
 10
-32.55643746556853
 20
-3.508788815450212
 30
0.0
 11
-32.11670164956852
 21
-3.282104799450211
 31
0.0
  0
LINE
  5
59C
  8
0
  6
CONTINUOUS
 62
     7
 10
-32.11670164956852
 20
-3.282104799450211
 30
0.0
 11
-31.71705055356853
 21
-3.096826615450211
 31
0.0
  0
LINE
  5
59D
  8
0
  6
CONTINUOUS
 62
     7
 10
-31.71705055356853
 20
-3.096826615450211
 30
0.0
 11
-31.35958404156852
 21
-2.948916151450211
 31
0.0
  0
LINE
  5
59E
  8
0
  6
CONTINUOUS
 62
     7
 10
-31.35958404156852
 20
-2.948916151450211
 30
0.0
 11
-31.04545828156853
 21
-2.834058551450211
 31
0.0
  0
LINE
  5
59F
  8
0
  6
CONTINUOUS
 62
     7
 10
-31.04545828156853
 20
-2.834058551450211
 30
0.0
 11
-30.77804744956853
 21
-2.748759311450211
 31
0.0
  0
LINE
  5
5A0
  8
0
  6
CONTINUOUS
 62
     7
 10
-30.77804744956853
 20
-2.748759311450211
 30
0.0
 11
-30.41810864956852
 21
-2.648572991450211
 31
0.0
  0
LINE
  5
5A1
  8
0
  6
CONTINUOUS
 62
     7
 10
-30.41810864956852
 20
-2.648572991450211
 30
0.0
 11
-30.31596494556852
 21
-2.610975951450211
 31
0.0
  0
LINE
  5
5A2
  8
0
  6
CONTINUOUS
 62
     7
 10
-30.31596494556852
 20
-2.610975951450211
 30
0.0
 11
-30.22875158556852
 21
-2.570554063450212
 31
0.0
  0
LINE
  5
5A3
  8
0
  6
CONTINUOUS
 62
     7
 10
-30.22875158556852
 20
-2.570554063450212
 30
0.0
 11
-30.15654116156852
 21
-2.527925087450212
 31
0.0
  0
LINE
  5
5A4
  8
0
  6
CONTINUOUS
 62
     7
 10
-30.15654116156852
 20
-2.527925087450212
 30
0.0
 11
-30.09937600156852
 21
-2.483695343450211
 31
0.0
  0
LINE
  5
5A5
  8
0
  6
CONTINUOUS
 62
     7
 10
-30.09937600156852
 20
-2.483695343450211
 30
0.0
 11
-30.05729822556853
 21
-2.438470943450211
 31
0.0
  0
LINE
  5
5A6
  8
0
  6
CONTINUOUS
 62
     7
 10
-30.05729822556853
 20
-2.438470943450211
 30
0.0
 11
-30.03030731356852
 21
-2.392876511450211
 31
0.0
  0
LINE
  5
5A7
  8
0
  6
CONTINUOUS
 62
     7
 10
-30.03030731356852
 20
-2.392876511450211
 30
0.0
 11
-30.01839348956852
 21
-2.347515663450211
 31
0.0
  0
LINE
  5
5A8
  8
0
  6
CONTINUOUS
 62
     7
 10
-30.01839348956852
 20
-2.347515663450211
 30
0.0
 11
-30.02517938556852
 21
-2.233010831450212
 31
0.0
  0
LINE
  5
5A9
  8
0
  6
CONTINUOUS
 62
     7
 10
-30.02517938556852
 20
-2.233010831450212
 30
0.0
 11
-30.06935660956852
 21
-1.524945135450211
 31
0.0
  0
LINE
  5
5AA
  8
0
  6
CONTINUOUS
 62
     7
 10
-30.06935660956852
 20
-1.524945135450211
 30
0.0
 11
-30.09703984956852
 21
-0.8160430714502108
 31
0.0
  0
LINE
  5
5AB
  8
0
  6
CONTINUOUS
 62
     7
 10
-30.09703984956852
 20
-0.8160430714502108
 30
0.0
 11
-30.10187304156852
 21
-0.7014391274502109
 31
0.0
  0
LINE
  5
5AC
  8
0
  6
CONTINUOUS
 62
     7
 10
-30.10187304156852
 20
-0.7014391274502109
 30
0.0
 11
-30.11831481756853
 21
-0.657516287450211
 31
0.0
  0
LINE
  5
5AD
  8
0
  6
CONTINUOUS
 62
     7
 10
-30.11831481756853
 20
-0.657516287450211
 30
0.0
 11
-30.14977991356852
 21
-0.6148864794502121
 31
0.0
  0
LINE
  5
5AE
  8
0
  6
CONTINUOUS
 62
     7
 10
-30.14977991356852
 20
-0.6148864794502121
 30
0.0
 11
-30.19621716156852
 21
-0.5741510314502116
 31
0.0
  0
LINE
  5
5AF
  8
0
  6
CONTINUOUS
 62
     7
 10
-30.19621716156852
 20
-0.5741510314502116
 30
0.0
 11
-30.25756364156852
 21
-0.5359315514502115
 31
0.0
  0
LINE
  5
5B0
  8
0
  6
CONTINUOUS
 62
     7
 10
-30.25756364156852
 20
-0.5359315514502115
 30
0.0
 11
-30.33371628956852
 21
-0.5008267674502114
 31
0.0
  0
LINE
  5
5B1
  8
0
  6
CONTINUOUS
 62
     7
 10
-30.33371628956852
 20
-0.5008267674502114
 30
0.0
 11
-30.42457162556853
 21
-0.4694354074502112
 31
0.0
  0
LINE
  5
5B2
  8
0
  6
CONTINUOUS
 62
     7
 10
-30.42457162556853
 20
-0.4694354074502112
 30
0.0
 11
-30.52999476156852
 21
-0.4423650394502111
 31
0.0
  0
LINE
  5
5B3
  8
0
  6
CONTINUOUS
 62
     7
 10
-30.52999476156852
 20
-0.4423650394502111
 30
0.0
 11
-30.89822256956852
 21
-0.3791070394502112
 31
0.0
  0
LINE
  5
5B4
  8
0
  6
CONTINUOUS
 62
     7
 10
-30.89822256956852
 20
-0.3791070394502112
 30
0.0
 11
-31.17289104156852
 21
-0.3212990554502112
 31
0.0
  0
LINE
  5
5B5
  8
0
  6
CONTINUOUS
 62
     7
 10
-31.17289104156852
 20
-0.3212990554502112
 30
0.0
 11
-31.49702503356852
 21
-0.2388102074502113
 31
0.0
  0
LINE
  5
5B6
  8
0
  6
CONTINUOUS
 62
     7
 10
-31.49702503356852
 20
-0.2388102074502113
 30
0.0
 11
-31.86762133756852
 21
-0.1278229674502113
 31
0.0
  0
LINE
  5
5B7
  8
0
  6
CONTINUOUS
 62
     7
 10
-31.86762133756852
 20
-0.1278229674502113
 30
0.0
 11
-32.28396630556853
 21
0.0160725765497886
 31
0.0
  0
LINE
  5
5B8
  8
0
  6
CONTINUOUS
 62
     7
 10
-32.28396630556853
 20
0.0160725765497886
 30
0.0
 11
-32.74437919356853
 21
0.1971062085497886
 31
0.0
  0
LINE
  5
5B9
  8
0
  6
CONTINUOUS
 62
     7
 10
-32.74437919356853
 20
0.1971062085497886
 30
0.0
 11
-33.24437978556853
 21
0.4183063045497885
 31
0.0
  0
LINE
  5
5BA
  8
0
  6
CONTINUOUS
 62
     7
 10
-33.24437978556853
 20
0.4183063045497885
 30
0.0
 11
-33.78366752156852
 21
0.6844261845497883
 31
0.0
  0
LINE
  5
5BB
  8
0
  6
CONTINUOUS
 62
     7
 10
-33.78366752156852
 20
0.6844261845497883
 30
0.0
 11
-34.30629605602091
 21
0.9691536579036839
 31
0.0
  0
LINE
  5
5BC
  8
0
  6
CONTINUOUS
 62
     7
 10
-34.22832923353802
 20
2.506529151768637
 30
0.0
 11
-33.67957672956853
 21
2.736922344549789
 31
0.0
  0
LINE
  5
5BD
  8
0
  6
CONTINUOUS
 62
     7
 10
-33.67957672956853
 20
2.736922344549789
 30
0.0
 11
-33.11613301756853
 21
2.94711799254979
 31
0.0
  0
LINE
  5
5BE
  8
0
  6
CONTINUOUS
 62
     7
 10
-33.11613301756853
 20
2.94711799254979
 30
0.0
 11
-32.59631928156853
 21
3.116598992549789
 31
0.0
  0
LINE
  5
5BF
  8
0
  6
CONTINUOUS
 62
     7
 10
-32.59631928156853
 20
3.116598992549789
 30
0.0
 11
-32.11995372956852
 21
3.250124592549789
 31
0.0
  0
LINE
  5
5C0
  8
0
  6
CONTINUOUS
 62
     7
 10
-32.11995372956852
 20
3.250124592549789
 30
0.0
 11
-31.69118720956853
 21
3.351160904549789
 31
0.0
  0
LINE
  5
5C1
  8
0
  6
CONTINUOUS
 62
     7
 10
-31.69118720956853
 20
3.351160904549789
 30
0.0
 11
-31.31126397756853
 21
3.424086120549789
 31
0.0
  0
LINE
  5
5C2
  8
0
  6
CONTINUOUS
 62
     7
 10
-31.31126397756853
 20
3.424086120549789
 30
0.0
 11
-30.98044777756852
 21
3.47335965654979
 31
0.0
  0
LINE
  5
5C3
  8
0
  6
CONTINUOUS
 62
     7
 10
-30.98044777756852
 20
3.47335965654979
 30
0.0
 11
-30.70134016956853
 21
3.503083376549789
 31
0.0
  0
LINE
  5
5C4
  8
0
  6
CONTINUOUS
 62
     7
 10
-30.70134016956853
 20
3.503083376549789
 30
0.0
 11
-30.32860198556852
 21
3.528763784549789
 31
0.0
  0
LINE
  5
5C5
  8
0
  6
CONTINUOUS
 62
     7
 10
-30.32860198556852
 20
3.528763784549789
 30
0.0
 11
-30.22098101756852
 21
3.545029696549789
 31
0.0
  0
LINE
  5
5C6
  8
0
  6
CONTINUOUS
 62
     7
 10
-30.22098101756852
 20
3.545029696549789
 30
0.0
 11
-30.12741596156853
 21
3.567068336549789
 31
0.0
  0
LINE
  5
5C7
  8
0
  6
CONTINUOUS
 62
     7
 10
-30.12741596156853
 20
3.567068336549789
 30
0.0
 11
-30.04810264956852
 21
3.594288776549788
 31
0.0
  0
LINE
  5
5C8
  8
0
  6
CONTINUOUS
 62
     7
 10
-30.04810264956852
 20
3.594288776549788
 30
0.0
 11
-29.98320425756852
 21
3.626105808549788
 31
0.0
  0
LINE
  5
5C9
  8
0
  6
CONTINUOUS
 62
     7
 10
-29.98320425756852
 20
3.626105808549788
 30
0.0
 11
-29.93288416956852
 21
3.661934328549789
 31
0.0
  0
LINE
  5
5CA
  8
0
  6
CONTINUOUS
 62
     7
 10
-29.93288416956852
 20
3.661934328549789
 30
0.0
 11
-29.89726760156852
 21
3.701162192549789
 31
0.0
  0
LINE
  5
5CB
  8
0
  6
CONTINUOUS
 62
     7
 10
-29.89726760156852
 20
3.701162192549789
 30
0.0
 11
-29.87646666556852
 21
3.74319628854979
 31
0.0
  0
LINE
  5
5CC
  8
0
  6
CONTINUOUS
 62
     7
 10
-29.87646666556852
 20
3.74319628854979
 30
0.0
 11
-29.86006399356852
 21
3.85672320854979
 31
0.0
  0
LINE
  5
5CD
  8
0
  6
CONTINUOUS
 62
     7
 10
-29.86006399356852
 20
3.85672320854979
 30
0.0
 11
-29.76080431356852
 21
4.559187568549789
 31
0.0
  0
LINE
  5
5CE
  8
0
  6
CONTINUOUS
 62
     7
 10
-29.76080431356852
 20
4.559187568549789
 30
0.0
 11
-29.64521985756852
 21
5.259151040549789
 31
0.0
  0
LINE
  5
5CF
  8
0
  6
CONTINUOUS
 62
     7
 10
-29.64521985756852
 20
5.259151040549789
 30
0.0
 11
-29.62688455356852
 21
5.37238187254979
 31
0.0
  0
LINE
  5
5D0
  8
0
  6
CONTINUOUS
 62
     7
 10
-29.62688455356852
 20
5.37238187254979
 30
0.0
 11
-29.63414812156852
 21
5.418715224549788
 31
0.0
  0
LINE
  5
5D1
  8
0
  6
CONTINUOUS
 62
     7
 10
-29.63414812156852
 20
5.418715224549788
 30
0.0
 11
-29.65638789756852
 21
5.46680638454979
 31
0.0
  0
LINE
  5
5D2
  8
0
  6
CONTINUOUS
 62
     7
 10
-29.65638789756852
 20
5.46680638454979
 30
0.0
 11
-29.69367460156852
 21
5.516055688549788
 31
0.0
  0
LINE
  5
5D3
  8
0
  6
CONTINUOUS
 62
     7
 10
-29.69367460156852
 20
5.516055688549788
 30
0.0
 11
-29.74607177756853
 21
5.565841840549788
 31
0.0
  0
LINE
  5
5D4
  8
0
  6
CONTINUOUS
 62
     7
 10
-29.74607177756853
 20
5.565841840549788
 30
0.0
 11
-29.81359897756852
 21
5.615557376549788
 31
0.0
  0
LINE
  5
5D5
  8
0
  6
CONTINUOUS
 62
     7
 10
-29.81359897756852
 20
5.615557376549788
 30
0.0
 11
-29.89627544156852
 21
5.664595248549788
 31
0.0
  0
LINE
  5
5D6
  8
0
  6
CONTINUOUS
 62
     7
 10
-29.89627544156852
 20
5.664595248549788
 30
0.0
 11
-29.99409139356852
 21
5.712333016549787
 31
0.0
  0
LINE
  5
5D7
  8
0
  6
CONTINUOUS
 62
     7
 10
-29.99409139356852
 20
5.712333016549787
 30
0.0
 11
-30.34204783356853
 21
5.848419720549788
 31
0.0
  0
LINE
  5
5D8
  8
0
  6
CONTINUOUS
 62
     7
 10
-30.34204783356853
 20
5.848419720549788
 30
0.0
 11
-30.59945719356852
 21
5.960334848549788
 31
0.0
  0
LINE
  5
5D9
  8
0
  6
CONTINUOUS
 62
     7
 10
-30.59945719356852
 20
5.960334848549788
 30
0.0
 11
-30.90035124156853
 21
6.10638277654979
 31
0.0
  0
LINE
  5
5DA
  8
0
  6
CONTINUOUS
 62
     7
 10
-30.90035124156853
 20
6.10638277654979
 30
0.0
 11
-31.24101977756852
 21
6.289698584549789
 31
0.0
  0
LINE
  5
5DB
  8
0
  6
CONTINUOUS
 62
     7
 10
-31.24101977756852
 20
6.289698584549789
 30
0.0
 11
-31.61987617756853
 21
6.514458184549787
 31
0.0
  0
LINE
  5
5DC
  8
0
  6
CONTINUOUS
 62
     7
 10
-31.61987617756853
 20
6.514458184549787
 30
0.0
 11
-32.03442267356853
 21
6.784466520549788
 31
0.0
  0
LINE
  5
5DD
  8
0
  6
CONTINUOUS
 62
     7
 10
-32.03442267356853
 20
6.784466520549788
 30
0.0
 11
-32.47966092156852
 21
7.101787992549788
 31
0.0
  0
LINE
  5
5DE
  8
0
  6
CONTINUOUS
 62
     7
 10
-32.47966092156852
 20
7.101787992549788
 30
0.0
 11
-32.95433990556853
 21
7.471018256549788
 31
0.0
  0
LINE
  5
5DF
  8
0
  6
CONTINUOUS
 62
     7
 10
-32.95433990556853
 20
7.471018256549788
 30
0.0
 11
-33.4089548981971
 21
7.855121653066559
 31
0.0
  0
LINE
  5
5E0
  8
0
  6
CONTINUOUS
 62
     7
 10
-33.0231126081717
 20
9.345332360825415
 30
0.0
 11
-32.43921532156853
 21
9.460546368549792
 31
0.0
  0
LINE
  5
5E1
  8
0
  6
CONTINUOUS
 62
     7
 10
-32.43921532156853
 20
9.460546368549792
 30
0.0
 11
-31.84499332956852
 21
9.553018904549791
 31
0.0
  0
LINE
  5
5E2
  8
0
  6
CONTINUOUS
 62
     7
 10
-31.84499332956852
 20
9.553018904549791
 30
0.0
 11
-31.30170398556852
 21
9.614392840549788
 31
0.0
  0
LINE
  5
5E3
  8
0
  6
CONTINUOUS
 62
     7
 10
-31.30170398556852
 20
9.614392840549788
 30
0.0
 11
-30.80821108956852
 21
9.64929347254979
 31
0.0
  0
LINE
  5
5E4
  8
0
  6
CONTINUOUS
 62
     7
 10
-30.80821108956852
 20
9.64929347254979
 30
0.0
 11
-30.36788299356853
 21
9.661951624549788
 31
0.0
  0
LINE
  5
5E5
  8
0
  6
CONTINUOUS
 62
     7
 10
-30.36788299356853
 20
9.661951624549788
 30
0.0
 11
-29.98105707356853
 21
9.656906064549789
 31
0.0
  0
LINE
  5
5E6
  8
0
  6
CONTINUOUS
 62
     7
 10
-29.98105707356853
 20
9.656906064549789
 30
0.0
 11
-29.64709404156853
 21
9.63857804054979
 31
0.0
  0
LINE
  5
5E7
  8
0
  6
CONTINUOUS
 62
     7
 10
-29.64709404156853
 20
9.63857804054979
 30
0.0
 11
-29.36771644956852
 21
9.611509336549789
 31
0.0
  0
LINE
  5
5E8
  8
0
  6
CONTINUOUS
 62
     7
 10
-29.36771644956852
 20
9.611509336549789
 30
0.0
 11
-28.99743880156852
 21
9.56163239254979
 31
0.0
  0
LINE
  5
5E9
  8
0
  6
CONTINUOUS
 62
     7
 10
-28.99743880156852
 20
9.56163239254979
 30
0.0
 11
-28.88874652956853
 21
9.55590147254979
 31
0.0
  0
LINE
  5
5EA
  8
0
  6
CONTINUOUS
 62
     7
 10
-28.88874652956853
 20
9.55590147254979
 30
0.0
 11
-28.79266040956852
 21
9.558654456549789
 31
0.0
  0
LINE
  5
5EB
  8
0
  6
CONTINUOUS
 62
     7
 10
-28.79266040956852
 20
9.558654456549789
 30
0.0
 11
-28.70949119356852
 21
9.56935210454979
 31
0.0
  0
LINE
  5
5EC
  8
0
  6
CONTINUOUS
 62
     7
 10
-28.70949119356852
 20
9.56935210454979
 30
0.0
 11
-28.63951656156852
 21
9.587453928549788
 31
0.0
  0
LINE
  5
5ED
  8
0
  6
CONTINUOUS
 62
     7
 10
-28.63951656156852
 20
9.587453928549788
 30
0.0
 11
-28.58301429756852
 21
9.612419648549787
 31
0.0
  0
LINE
  5
5EE
  8
0
  6
CONTINUOUS
 62
     7
 10
-28.58301429756852
 20
9.612419648549787
 30
0.0
 11
-28.54023036156853
 21
9.64367487254979
 31
0.0
  0
LINE
  5
5EF
  8
0
  6
CONTINUOUS
 62
     7
 10
-28.54023036156853
 20
9.64367487254979
 30
0.0
 11
-28.51139376156853
 21
9.680661328549792
 31
0.0
  0
LINE
  5
5F0
  8
0
  6
CONTINUOUS
 62
     7
 10
-28.51139376156853
 20
9.680661328549792
 30
0.0
 11
-28.47247404956853
 21
9.78856257654979
 31
0.0
  0
LINE
  5
5F1
  8
0
  6
CONTINUOUS
 62
     7
 10
-28.47247404956853
 20
9.78856257654979
 30
0.0
 11
-28.23384116156852
 21
10.45666658454979
 31
0.0
  0
LINE
  5
5F2
  8
0
  6
CONTINUOUS
 62
     7
 10
-28.23384116156852
 20
10.45666658454979
 30
0.0
 11
-27.97972121756852
 21
11.11903478454979
 31
0.0
  0
LINE
  5
5F3
  8
0
  6
CONTINUOUS
 62
     7
 10
-27.97972121756852
 20
11.11903478454979
 30
0.0
 11
-27.93896798556852
 21
11.22625691254979
 31
0.0
  0
LINE
  5
5F4
  8
0
  6
CONTINUOUS
 62
     7
 10
-27.93896798556852
 20
11.22625691254979
 30
0.0
 11
-27.93675600956853
 21
11.27310402454979
 31
0.0
  0
LINE
  5
5F5
  8
0
  6
CONTINUOUS
 62
     7
 10
-27.93675600956853
 20
11.27310402454979
 30
0.0
 11
-27.94885984156853
 21
11.32468750454979
 31
0.0
  0
LINE
  5
5F6
  8
0
  6
CONTINUOUS
 62
     7
 10
-27.94885984156853
 20
11.32468750454979
 30
0.0
 11
-27.97546948956852
 21
11.38043452054979
 31
0.0
  0
LINE
  5
5F7
  8
0
  6
CONTINUOUS
 62
     7
 10
-27.97546948956852
 20
11.38043452054979
 30
0.0
 11
-28.01677225756853
 21
11.43974894454979
 31
0.0
  0
LINE
  5
5F8
  8
0
  6
CONTINUOUS
 62
     7
 10
-28.01677225756853
 20
11.43974894454979
 30
0.0
 11
-28.07290948156852
 21
11.50203995254979
 31
0.0
  0
LINE
  5
5F9
  8
0
  6
CONTINUOUS
 62
     7
 10
-28.07290948156852
 20
11.50203995254979
 30
0.0
 11
-28.14402228956852
 21
11.56671661654979
 31
0.0
  0
LINE
  5
5FA
  8
0
  6
CONTINUOUS
 62
     7
 10
-28.14402228956852
 20
11.56671661654979
 30
0.0
 11
-28.23022643356853
 21
11.63316741654979
 31
0.0
  0
LINE
  5
5FB
  8
0
  6
CONTINUOUS
 62
     7
 10
-28.23022643356853
 20
11.63316741654979
 30
0.0
 11
-28.54366610556853
 21
11.83651154454979
 31
0.0
  0
LINE
  5
5FC
  8
0
  6
CONTINUOUS
 62
     7
 10
-28.54366610556853
 20
11.83651154454979
 30
0.0
 11
-28.77327792956853
 21
11.99795188854979
 31
0.0
  0
LINE
  5
5FD
  8
0
  6
CONTINUOUS
 62
     7
 10
-28.77327792956853
 20
11.99795188854979
 30
0.0
 11
-29.03861344156853
 21
12.20157972854979
 31
0.0
  0
LINE
  5
5FE
  8
0
  6
CONTINUOUS
 62
     7
 10
-29.03861344156853
 20
12.20157972854979
 30
0.0
 11
-29.33540728956852
 21
12.44971915254979
 31
0.0
  0
LINE
  5
5FF
  8
0
  6
CONTINUOUS
 62
     7
 10
-29.33540728956852
 20
12.44971915254979
 30
0.0
 11
-29.66126466556853
 21
12.74614120054979
 31
0.0
  0
LINE
  5
600
  8
0
  6
CONTINUOUS
 62
     7
 10
-29.66126466556853
 20
12.74614120054979
 30
0.0
 11
-30.01297311356852
 21
13.09406997654979
 31
0.0
  0
LINE
  5
601
  8
0
  6
CONTINUOUS
 62
     7
 10
-30.01297311356852
 20
13.09406997654979
 30
0.0
 11
-30.38522093756852
 21
13.49452166454979
 31
0.0
  0
LINE
  5
602
  8
0
  6
CONTINUOUS
 62
     7
 10
-30.38522093756852
 20
13.49452166454979
 30
0.0
 11
-30.77585772956852
 21
13.95174591254979
 31
0.0
  0
LINE
  5
603
  8
0
  6
CONTINUOUS
 62
     7
 10
-30.77585772956852
 20
13.95174591254979
 30
0.0
 11
-31.14384729941347
 21
14.41950003893292
 31
0.0
  0
LINE
  5
604
  8
0
  6
CONTINUOUS
 62
     7
 10
-30.46592599061793
 20
15.80153660865245
 30
0.0
 11
-29.87078868156853
 21
15.79685442454979
 31
0.0
  0
LINE
  5
605
  8
0
  6
CONTINUOUS
 62
     7
 10
-29.87078868156853
 20
15.79685442454979
 30
0.0
 11
-29.27011588156852
 21
15.76781804054979
 31
0.0
  0
LINE
  5
606
  8
0
  6
CONTINUOUS
 62
     7
 10
-29.27011588156852
 20
15.76781804054979
 30
0.0
 11
-28.72559320156852
 21
15.71857237654979
 31
0.0
  0
LINE
  5
607
  8
0
  6
CONTINUOUS
 62
     7
 10
-28.72559320156852
 20
15.71857237654979
 30
0.0
 11
-28.23517672956853
 21
15.65341918454979
 31
0.0
  0
LINE
  5
608
  8
0
  6
CONTINUOUS
 62
     7
 10
-28.23517672956853
 20
15.65341918454979
 30
0.0
 11
-27.80131410556852
 21
15.57718073654979
 31
0.0
  0
LINE
  5
609
  8
0
  6
CONTINUOUS
 62
     7
 10
-27.80131410556852
 20
15.57718073654979
 30
0.0
 11
-27.42342220156852
 21
15.49437104854979
 31
0.0
  0
LINE
  5
60A
  8
0
  6
CONTINUOUS
 62
     7
 10
-27.42342220156852
 20
15.49437104854979
 30
0.0
 11
-27.09998480156852
 21
15.40919192854979
 31
0.0
  0
LINE
  5
60B
  8
0
  6
CONTINUOUS
 62
     7
 10
-27.09998480156852
 20
15.40919192854979
 30
0.0
 11
-26.83177493756853
 21
15.32643902454979
 31
0.0
  0
LINE
  5
60C
  8
0
  6
CONTINUOUS
 62
     7
 10
-26.83177493756853
 20
15.32643902454979
 30
0.0
 11
-26.47911707356853
 21
15.20304676854979
 31
0.0
  0
LINE
  5
60D
  8
0
  6
CONTINUOUS
 62
     7
 10
-26.47911707356853
 20
15.20304676854979
 30
0.0
 11
-26.37380334556853
 21
15.17555353654979
 31
0.0
  0
LINE
  5
60E
  8
0
  6
CONTINUOUS
 62
     7
 10
-26.37380334556853
 20
15.17555353654979
 30
0.0
 11
-26.27912996156853
 21
15.15890812854979
 31
0.0
  0
LINE
  5
60F
  8
0
  6
CONTINUOUS
 62
     7
 10
-26.27912996156853
 20
15.15890812854979
 30
0.0
 11
-26.19550980156852
 21
15.15264493654979
 31
0.0
  0
LINE
  5
610
  8
0
  6
CONTINUOUS
 62
     7
 10
-26.19550980156852
 20
15.15264493654979
 30
0.0
 11
-26.12332371356852
 21
15.15629044854979
 31
0.0
  0
LINE
  5
611
  8
0
  6
CONTINUOUS
 62
     7
 10
-26.12332371356852
 20
15.15629044854979
 30
0.0
 11
-26.06295244156853
 21
15.16937125654979
 31
0.0
  0
LINE
  5
612
  8
0
  6
CONTINUOUS
 62
     7
 10
-26.06295244156853
 20
15.16937125654979
 30
0.0
 11
-26.01475260156853
 21
15.19137443254979
 31
0.0
  0
LINE
  5
613
  8
0
  6
CONTINUOUS
 62
     7
 10
-26.01475260156853
 20
15.19137443254979
 30
0.0
 11
-25.97906104956852
 21
15.22179900854979
 31
0.0
  0
LINE
  5
614
  8
0
  6
CONTINUOUS
 62
     7
 10
-25.97906104956852
 20
15.22179900854979
 30
0.0
 11
-25.91921768156853
 21
15.31965697654979
 31
0.0
  0
LINE
  5
615
  8
0
  6
CONTINUOUS
 62
     7
 10
-25.91921768156853
 20
15.31965697654979
 30
0.0
 11
-25.55098134556853
 21
15.92604842454979
 31
0.0
  0
LINE
  5
616
  8
0
  6
CONTINUOUS
 62
     7
 10
-25.55098134556853
 20
15.92604842454979
 30
0.0
 11
-25.16872944956853
 21
16.52370397654979
 31
0.0
  0
LINE
  5
617
  8
0
  6
CONTINUOUS
 62
     7
 10
-25.16872944956853
 20
16.52370397654979
 30
0.0
 11
-25.10722676156852
 21
16.62052766454979
 31
0.0
  0
LINE
  5
618
  8
0
  6
CONTINUOUS
 62
     7
 10
-25.10722676156852
 20
16.62052766454979
 30
0.0
 11
-25.09562982556853
 21
16.66597056854979
 31
0.0
  0
LINE
  5
619
  8
0
  6
CONTINUOUS
 62
     7
 10
-25.09562982556853
 20
16.66597056854979
 30
0.0
 11
-25.09710225756852
 21
16.71893464854979
 31
0.0
  0
LINE
  5
61A
  8
0
  6
CONTINUOUS
 62
     7
 10
-25.09710225756852
 20
16.71893464854979
 30
0.0
 11
-25.11194534556853
 21
16.77889688854979
 31
0.0
  0
LINE
  5
61B
  8
0
  6
CONTINUOUS
 62
     7
 10
-25.11194534556853
 20
16.77889688854979
 30
0.0
 11
-25.14046276956853
 21
16.84531139254979
 31
0.0
  0
LINE
  5
61C
  8
0
  6
CONTINUOUS
 62
     7
 10
-25.14046276956853
 20
16.84531139254979
 30
0.0
 11
-25.18291172156853
 21
16.9176276885498
 31
0.0
  0
LINE
  5
61D
  8
0
  6
CONTINUOUS
 62
     7
 10
-25.18291172156853
 20
16.9176276885498
 30
0.0
 11
-25.23954960156852
 21
16.99529530454979
 31
0.0
  0
LINE
  5
61E
  8
0
  6
CONTINUOUS
 62
     7
 10
-25.23954960156852
 20
16.99529530454979
 30
0.0
 11
-25.31061269756853
 21
17.07773860054979
 31
0.0
  0
LINE
  5
61F
  8
0
  6
CONTINUOUS
 62
     7
 10
-25.31061269756853
 20
17.07773860054979
 30
0.0
 11
-25.57670335356853
 21
17.34001526454979
 31
0.0
  0
LINE
  5
620
  8
0
  6
CONTINUOUS
 62
     7
 10
-25.57670335356853
 20
17.34001526454979
 30
0.0
 11
-25.76911728956853
 21
17.54437131254979
 31
0.0
  0
LINE
  5
621
  8
0
  6
CONTINUOUS
 62
     7
 10
-25.76911728956853
 20
17.54437131254979
 30
0.0
 11
-25.98803136156852
 21
17.79724252854979
 31
0.0
  0
LINE
  5
622
  8
0
  6
CONTINUOUS
 62
     7
 10
-25.98803136156852
 20
17.79724252854979
 30
0.0
 11
-26.22879978556852
 21
18.10004674454979
 31
0.0
  0
LINE
  5
623
  8
0
  6
CONTINUOUS
 62
     7
 10
-26.22879978556852
 20
18.10004674454979
 30
0.0
 11
-26.48831753756853
 21
18.45599558454979
 31
0.0
  0
LINE
  5
624
  8
0
  6
CONTINUOUS
 62
     7
 10
-26.48831753756853
 20
18.45599558454979
 30
0.0
 11
-26.76278882556852
 21
18.86760064854979
 31
0.0
  0
LINE
  5
625
  8
0
  6
CONTINUOUS
 62
     7
 10
-26.76278882556852
 20
18.86760064854979
 30
0.0
 11
-27.04680648156852
 21
19.33478799254979
 31
0.0
  0
LINE
  5
626
  8
0
  6
CONTINUOUS
 62
     7
 10
-27.04680648156852
 20
19.33478799254979
 30
0.0
 11
-27.33740827356853
 21
19.86128747254979
 31
0.0
  0
LINE
  5
627
  8
0
  6
CONTINUOUS
 62
     7
 10
-27.33740827356853
 20
19.86128747254979
 30
0.0
 11
-27.60370690439292
 21
20.39354243392319
 31
0.0
  0
LINE
  5
628
  8
0
  6
CONTINUOUS
 62
     7
 10
-26.66146078695465
 20
21.61082403913631
 30
0.0
 11
-26.07944850556852
 21
21.48643744054979
 31
0.0
  0
LINE
  5
629
  8
0
  6
CONTINUOUS
 62
     7
 10
-26.07944850556852
 20
21.48643744054979
 30
0.0
 11
-25.49691642556852
 21
21.33708085654979
 31
0.0
  0
LINE
  5
62A
  8
0
  6
CONTINUOUS
 62
     7
 10
-25.49691642556852
 20
21.33708085654979
 30
0.0
 11
-24.97345322556853
 21
21.17923163254979
 31
0.0
  0
LINE
  5
62B
  8
0
  6
CONTINUOUS
 62
     7
 10
-24.97345322556853
 20
21.17923163254979
 30
0.0
 11
-24.50619089756852
 21
21.01669211254979
 31
0.0
  0
LINE
  5
62C
  8
0
  6
CONTINUOUS
 62
     7
 10
-24.50619089756852
 20
21.01669211254979
 30
0.0
 11
-24.09655611356852
 21
20.85467831254979
 31
0.0
  0
LINE
  5
62D
  8
0
  6
CONTINUOUS
 62
     7
 10
-24.09655611356852
 20
20.85467831254979
 30
0.0
 11
-23.74306916156852
 21
20.69749458454979
 31
0.0
  0
LINE
  5
62E
  8
0
  6
CONTINUOUS
 62
     7
 10
-23.74306916156852
 20
20.69749458454979
 30
0.0
 11
-23.44339898556853
 21
20.54895169654979
 31
0.0
  0
LINE
  5
62F
  8
0
  6
CONTINUOUS
 62
     7
 10
-23.44339898556853
 20
20.54895169654979
 30
0.0
 11
-23.19733748156853
 21
20.41390249654979
 31
0.0
  0
LINE
  5
630
  8
0
  6
CONTINUOUS
 62
     7
 10
-23.19733748156853
 20
20.41390249654979
 30
0.0
 11
-22.87673709756852
 21
20.22204662454979
 31
0.0
  0
LINE
  5
631
  8
0
  6
CONTINUOUS
 62
     7
 10
-22.87673709756852
 20
20.22204662454979
 30
0.0
 11
-22.77911354556852
 21
20.17391667254979
 31
0.0
  0
LINE
  5
632
  8
0
  6
CONTINUOUS
 62
     7
 10
-22.77911354556852
 20
20.17391667254979
 30
0.0
 11
-22.68972887356852
 21
20.13855438454979
 31
0.0
  0
LINE
  5
633
  8
0
  6
CONTINUOUS
 62
     7
 10
-22.68972887356852
 20
20.13855438454979
 30
0.0
 11
-22.60908113756853
 21
20.11558681654979
 31
0.0
  0
LINE
  5
634
  8
0
  6
CONTINUOUS
 62
     7
 10
-22.60908113756853
 20
20.11558681654979
 30
0.0
 11
-22.53763885756852
 21
20.10462667254979
 31
0.0
  0
LINE
  5
635
  8
0
  6
CONTINUOUS
 62
     7
 10
-22.53763885756852
 20
20.10462667254979
 30
0.0
 11
-22.47587024156853
 21
20.10528717654979
 31
0.0
  0
LINE
  5
636
  8
0
  6
CONTINUOUS
 62
     7
 10
-22.47587024156853
 20
20.10528717654979
 30
0.0
 11
-22.42422789756852
 21
20.11713735254979
 31
0.0
  0
LINE
  5
637
  8
0
  6
CONTINUOUS
 62
     7
 10
-22.42422789756852
 20
20.11713735254979
 30
0.0
 11
-22.38314248956853
 21
20.13975444054979
 31
0.0
  0
LINE
  5
638
  8
0
  6
CONTINUOUS
 62
     7
 10
-22.38314248956853
 20
20.13975444054979
 30
0.0
 11
-22.30482549756852
 21
20.22356284054979
 31
0.0
  0
LINE
  5
639
  8
0
  6
CONTINUOUS
 62
     7
 10
-22.30482549756852
 20
20.22356284054979
 30
0.0
 11
-21.82206124156852
 21
20.74341599254979
 31
0.0
  0
LINE
  5
63A
  8
0
  6
CONTINUOUS
 62
     7
 10
-21.82206124156852
 20
20.74341599254979
 30
0.0
 11
-21.32732689756852
 21
21.25189071254979
 31
0.0
  0
LINE
  5
63B
  8
0
  6
CONTINUOUS
 62
     7
 10
-21.32732689756852
 20
21.25189071254979
 30
0.0
 11
-21.24759269756852
 21
21.33435210454979
 31
0.0
  0
LINE
  5
63C
  8
0
  6
CONTINUOUS
 62
     7
 10
-21.24759269756852
 20
21.33435210454979
 30
0.0
 11
-21.22708566556853
 21
21.37653034454979
 31
0.0
  0
LINE
  5
63D
  8
0
  6
CONTINUOUS
 62
     7
 10
-21.22708566556853
 20
21.37653034454979
 30
0.0
 11
-21.21786627356853
 21
21.42870662454979
 31
0.0
  0
LINE
  5
63E
  8
0
  6
CONTINUOUS
 62
     7
 10
-21.21786627356853
 20
21.42870662454979
 30
0.0
 11
-21.22033523356853
 21
21.49042937654979
 31
0.0
  0
LINE
  5
63F
  8
0
  6
CONTINUOUS
 62
     7
 10
-21.22033523356853
 20
21.49042937654979
 30
0.0
 11
-21.23489970556853
 21
21.56122488054979
 31
0.0
  0
LINE
  5
640
  8
0
  6
CONTINUOUS
 62
     7
 10
-21.23489970556853
 20
21.56122488054979
 30
0.0
 11
-21.26192264956852
 21
21.64060568854979
 31
0.0
  0
LINE
  5
641
  8
0
  6
CONTINUOUS
 62
     7
 10
-21.26192264956852
 20
21.64060568854979
 30
0.0
 11
-21.30176671356852
 21
21.72808456054979
 31
0.0
  0
LINE
  5
642
  8
0
  6
CONTINUOUS
 62
     7
 10
-21.30176671356852
 20
21.72808456054979
 30
0.0
 11
-21.35477946556852
 21
21.82314513654979
 31
0.0
  0
LINE
  5
643
  8
0
  6
CONTINUOUS
 62
     7
 10
-21.35477946556852
 20
21.82314513654979
 30
0.0
 11
-21.56262731356852
 21
22.1336166485498
 31
0.0
  0
LINE
  5
644
  8
0
  6
CONTINUOUS
 62
     7
 10
-21.56262731356852
 20
22.1336166485498
 30
0.0
 11
-21.70996588156853
 21
22.37252222454979
 31
0.0
  0
LINE
  5
645
  8
0
  6
CONTINUOUS
 62
     7
 10
-21.70996588156853
 20
22.37252222454979
 30
0.0
 11
-21.87349620956852
 21
22.66428424054979
 31
0.0
  0
LINE
  5
646
  8
0
  6
CONTINUOUS
 62
     7
 10
-21.87349620956852
 20
22.66428424054979
 30
0.0
 11
-22.04838208956852
 21
23.00935624054978
 31
0.0
  0
LINE
  5
647
  8
0
  6
CONTINUOUS
 62
     7
 10
-22.04838208956852
 20
23.00935624054978
 30
0.0
 11
-22.23093547356853
 21
23.41025939254979
 31
0.0
  0
LINE
  5
648
  8
0
  6
CONTINUOUS
 62
     7
 10
-22.23093547356853
 20
23.41025939254979
 30
0.0
 11
-22.41693292156852
 21
23.86868952054979
 31
0.0
  0
LINE
  5
649
  8
0
  6
CONTINUOUS
 62
     7
 10
-22.41693292156852
 20
23.86868952054979
 30
0.0
 11
-22.60109248156852
 21
24.38348588054979
 31
0.0
  0
LINE
  5
64A
  8
0
  6
CONTINUOUS
 62
     7
 10
-22.60109248156852
 20
24.38348588054979
 30
0.0
 11
-22.77976219356852
 21
24.95770555254979
 31
0.0
  0
LINE
  5
64B
  8
0
  6
CONTINUOUS
 62
     7
 10
-22.77976219356852
 20
24.95770555254979
 30
0.0
 11
-22.93346749395229
 21
25.53267067612535
 31
0.0
  0
LINE
  5
64C
  8
0
  6
CONTINUOUS
 62
     7
 10
-21.76547221354916
 20
26.53536172426385
 30
0.0
 11
-21.22041260956853
 21
26.29636318454979
 31
0.0
  0
LINE
  5
64D
  8
0
  6
CONTINUOUS
 62
     7
 10
-21.22041260956853
 20
26.29636318454979
 30
0.0
 11
-20.67987021756852
 21
26.03280118454979
 31
0.0
  0
LINE
  5
64E
  8
0
  6
CONTINUOUS
 62
     7
 10
-20.67987021756852
 20
26.03280118454979
 30
0.0
 11
-20.19889725756853
 21
25.77281075254979
 31
0.0
  0
LINE
  5
64F
  8
0
  6
CONTINUOUS
 62
     7
 10
-20.19889725756853
 20
25.77281075254979
 30
0.0
 11
-19.77391872956852
 21
25.51953913654979
 31
0.0
  0
LINE
  5
650
  8
0
  6
CONTINUOUS
 62
     7
 10
-19.77391872956852
 20
25.51953913654979
 30
0.0
 11
-19.40528230556852
 21
25.27838300054979
 31
0.0
  0
LINE
  5
651
  8
0
  6
CONTINUOUS
 62
     7
 10
-19.40528230556852
 20
25.27838300054979
 30
0.0
 11
-19.09067211356853
 21
25.05326044054979
 31
0.0
  0
LINE
  5
652
  8
0
  6
CONTINUOUS
 62
     7
 10
-19.09067211356853
 20
25.05326044054979
 30
0.0
 11
-18.82703762556852
 21
24.8474349765498
 31
0.0
  0
LINE
  5
653
  8
0
  6
CONTINUOUS
 62
     7
 10
-18.82703762556852
 20
24.8474349765498
 30
0.0
 11
-18.61319823356853
 21
24.66561843254979
 31
0.0
  0
LINE
  5
654
  8
0
  6
CONTINUOUS
 62
     7
 10
-18.61319823356853
 20
24.66561843254979
 30
0.0
 11
-18.33778096156852
 21
24.41315344054979
 31
0.0
  0
LINE
  5
655
  8
0
  6
CONTINUOUS
 62
     7
 10
-18.33778096156852
 20
24.41315344054979
 30
0.0
 11
-18.25184420156852
 21
24.34635725654979
 31
0.0
  0
LINE
  5
656
  8
0
  6
CONTINUOUS
 62
     7
 10
-18.25184420156852
 20
24.34635725654979
 30
0.0
 11
-18.17140758556852
 21
24.29372587254979
 31
0.0
  0
LINE
  5
657
  8
0
  6
CONTINUOUS
 62
     7
 10
-18.17140758556852
 20
24.29372587254979
 30
0.0
 11
-18.09703406556853
 21
24.25499408854979
 31
0.0
  0
LINE
  5
658
  8
0
  6
CONTINUOUS
 62
     7
 10
-18.09703406556853
 20
24.25499408854979
 30
0.0
 11
-18.02926048956852
 21
24.22987715254979
 31
0.0
  0
LINE
  5
659
  8
0
  6
CONTINUOUS
 62
     7
 10
-18.02926048956852
 20
24.22987715254979
 30
0.0
 11
-17.96862339356852
 21
24.21809010454979
 31
0.0
  0
LINE
  5
65A
  8
0
  6
CONTINUOUS
 62
     7
 10
-17.96862339356852
 20
24.21809010454979
 30
0.0
 11
-17.91565265756852
 21
24.21930222454979
 31
0.0
  0
LINE
  5
65B
  8
0
  6
CONTINUOUS
 62
     7
 10
-17.91565265756852
 20
24.21930222454979
 30
0.0
 11
-17.87085548956852
 21
24.23318591254979
 31
0.0
  0
LINE
  5
65C
  8
0
  6
CONTINUOUS
 62
     7
 10
-17.87085548956852
 20
24.23318591254979
 30
0.0
 11
-17.77727108956852
 21
24.29951368054979
 31
0.0
  0
LINE
  5
65D
  8
0
  6
CONTINUOUS
 62
     7
 10
-17.77727108956852
 20
24.29951368054979
 30
0.0
 11
-17.19974338556852
 21
24.71154566454979
 31
0.0
  0
LINE
  5
65E
  8
0
  6
CONTINUOUS
 62
     7
 10
-17.19974338556852
 20
24.71154566454979
 30
0.0
 11
-16.61278111356852
 21
25.11002260054979
 31
0.0
  0
LINE
  5
65F
  8
0
  6
CONTINUOUS
 62
     7
 10
-16.61278111356852
 20
25.11002260054979
 30
0.0
 11
-16.51807975356853
 21
25.17474564854979
 31
0.0
  0
LINE
  5
660
  8
0
  6
CONTINUOUS
 62
     7
 10
-16.51807975356853
 20
25.17474564854979
 30
0.0
 11
-16.48950200956852
 21
25.2119324085498
 31
0.0
  0
LINE
  5
661
  8
0
  6
CONTINUOUS
 62
     7
 10
-16.48950200956852
 20
25.2119324085498
 30
0.0
 11
-16.46996841756852
 21
25.26118483254979
 31
0.0
  0
LINE
  5
662
  8
0
  6
CONTINUOUS
 62
     7
 10
-16.46996841756852
 20
25.26118483254979
 30
0.0
 11
-16.45996205756853
 21
25.32214110454979
 31
0.0
  0
LINE
  5
663
  8
0
  6
CONTINUOUS
 62
     7
 10
-16.45996205756853
 20
25.32214110454979
 30
0.0
 11
-16.45997744956852
 21
25.39441912854979
 31
0.0
  0
LINE
  5
664
  8
0
  6
CONTINUOUS
 62
     7
 10
-16.45997744956852
 20
25.39441912854979
 30
0.0
 11
-16.47046792956852
 21
25.47761476054979
 31
0.0
  0
LINE
  5
665
  8
0
  6
CONTINUOUS
 62
     7
 10
-16.47046792956852
 20
25.47761476054979
 30
0.0
 11
-16.49188704156853
 21
25.57132354454979
 31
0.0
  0
LINE
  5
666
  8
0
  6
CONTINUOUS
 62
     7
 10
-16.49188704156853
 20
25.57132354454979
 30
0.0
 11
-16.52467907356852
 21
25.67510961654979
 31
0.0
  0
LINE
  5
667
  8
0
  6
CONTINUOUS
 62
     7
 10
-16.52467907356852
 20
25.67510961654979
 30
0.0
 11
-16.66577472956852
 21
26.02106520054979
 31
0.0
  0
LINE
  5
668
  8
0
  6
CONTINUOUS
 62
     7
 10
-16.66577472956852
 20
26.02106520054979
 30
0.0
 11
-16.76200603356853
 21
26.28473941654979
 31
0.0
  0
LINE
  5
669
  8
0
  6
CONTINUOUS
 62
     7
 10
-16.76200603356853
 20
26.28473941654979
 30
0.0
 11
-16.86345761756852
 21
26.60344741654979
 31
0.0
  0
LINE
  5
66A
  8
0
  6
CONTINUOUS
 62
     7
 10
-16.86345761756852
 20
26.60344741654979
 30
0.0
 11
-16.96530107356853
 21
26.97666004854979
 31
0.0
  0
LINE
  5
66B
  8
0
  6
CONTINUOUS
 62
     7
 10
-16.96530107356853
 20
26.97666004854979
 30
0.0
 11
-17.06341633756852
 21
27.40610444054979
 31
0.0
  0
LINE
  5
66C
  8
0
  6
CONTINUOUS
 62
     7
 10
-17.06341633756852
 20
27.40610444054979
 30
0.0
 11
-17.15332506556852
 21
27.89259148054979
 31
0.0
  0
LINE
  5
66D
  8
0
  6
CONTINUOUS
 62
     7
 10
-17.15332506556852
 20
27.89259148054979
 30
0.0
 11
-17.23008725756852
 21
28.43392094454979
 31
0.0
  0
LINE
  5
66E
  8
0
  6
CONTINUOUS
 62
     7
 10
-17.23008725756852
 20
28.43392094454979
 30
0.0
 11
-17.28950994556853
 21
29.03235223254979
 31
0.0
  0
LINE
  5
66F
  8
0
  6
CONTINUOUS
 62
     7
 10
-17.28950994556853
 20
29.03235223254979
 30
0.0
 11
-17.32432925589089
 21
29.62648857205362
 31
0.0
  0
LINE
  5
670
  8
0
  6
CONTINUOUS
 62
     7
 10
-15.97840265987075
 20
30.37353874150345
 30
0.0
 11
-15.49261052956853
 21
30.02971275254979
 31
0.0
  0
LINE
  5
671
  8
0
  6
CONTINUOUS
 62
     7
 10
-15.49261052956853
 20
30.02971275254979
 30
0.0
 11
-15.01618767356852
 21
29.6627354405498
 31
0.0
  0
LINE
  5
672
  8
0
  6
CONTINUOUS
 62
     7
 10
-15.01618767356852
 20
29.6627354405498
 30
0.0
 11
-14.59739589756852
 21
29.31124788854979
 31
0.0
  0
LINE
  5
673
  8
0
  6
CONTINUOUS
 62
     7
 10
-14.59739589756852
 20
29.31124788854979
 30
0.0
 11
-14.23209995356852
 21
28.97761318454979
 31
0.0
  0
LINE
  5
674
  8
0
  6
CONTINUOUS
 62
     7
 10
-14.23209995356852
 20
28.97761318454979
 30
0.0
 11
-13.91955395356853
 21
28.66718764054979
 31
0.0
  0
LINE
  5
675
  8
0
  6
CONTINUOUS
 62
     7
 10
-13.91955395356853
 20
28.66718764054979
 30
0.0
 11
-13.65670071356852
 21
28.38334272854979
 31
0.0
  0
LINE
  5
676
  8
0
  6
CONTINUOUS
 62
     7
 10
-13.65670071356852
 20
28.38334272854979
 30
0.0
 11
-13.43989524156853
 21
28.12866128854979
 31
0.0
  0
LINE
  5
677
  8
0
  6
CONTINUOUS
 62
     7
 10
-13.43989524156853
 20
28.12866128854979
 30
0.0
 11
-13.26703247356853
 21
27.90752099254979
 31
0.0
  0
LINE
  5
678
  8
0
  6
CONTINUOUS
 62
     7
 10
-13.26703247356853
 20
27.90752099254979
 30
0.0
 11
-13.04807378556853
 21
27.60478292054979
 31
0.0
  0
LINE
  5
679
  8
0
  6
CONTINUOUS
 62
     7
 10
-13.04807378556853
 20
27.60478292054979
 30
0.0
 11
-12.97734213756852
 21
27.52205508054979
 31
0.0
  0
LINE
  5
67A
  8
0
  6
CONTINUOUS
 62
     7
 10
-12.97734213756852
 20
27.52205508054979
 30
0.0
 11
-12.90914673756852
 21
27.45430927254979
 31
0.0
  0
LINE
  5
67B
  8
0
  6
CONTINUOUS
 62
     7
 10
-12.90914673756852
 20
27.45430927254979
 30
0.0
 11
-12.84409234556852
 21
27.40139916854979
 31
0.0
  0
LINE
  5
67C
  8
0
  6
CONTINUOUS
 62
     7
 10
-12.84409234556852
 20
27.40139916854979
 30
0.0
 11
-12.78276198556853
 21
27.36315358454979
 31
0.0
  0
LINE
  5
67D
  8
0
  6
CONTINUOUS
 62
     7
 10
-12.78276198556853
 20
27.36315358454979
 30
0.0
 11
-12.72573888956852
 21
27.33940175254979
 31
0.0
  0
LINE
  5
67E
  8
0
  6
CONTINUOUS
 62
     7
 10
-12.72573888956852
 20
27.33940175254979
 30
0.0
 11
-12.67360857756853
 21
27.32992610454979
 31
0.0
  0
LINE
  5
67F
  8
0
  6
CONTINUOUS
 62
     7
 10
-12.67360857756853
 20
27.32992610454979
 30
0.0
 11
-12.62693358556852
 21
27.33450792854979
 31
0.0
  0
LINE
  5
680
  8
0
  6
CONTINUOUS
 62
     7
 10
-12.62693358556852
 20
27.33450792854979
 30
0.0
 11
-12.52191313756852
 21
27.38063952054979
 31
0.0
  0
LINE
  5
681
  8
0
  6
CONTINUOUS
 62
     7
 10
-12.52191313756852
 20
27.38063952054979
 30
0.0
 11
-11.87326607356852
 21
27.66798174454979
 31
0.0
  0
LINE
  5
682
  8
0
  6
CONTINUOUS
 62
     7
 10
-11.87326607356852
 20
27.66798174454979
 30
0.0
 11
-11.21810611356852
 21
27.9401472485498
 31
0.0
  0
LINE
  5
683
  8
0
  6
CONTINUOUS
 62
     7
 10
-11.21810611356852
 20
27.9401472485498
 30
0.0
 11
-11.11231471356852
 21
27.98448213654979
 31
0.0
  0
LINE
  5
684
  8
0
  6
CONTINUOUS
 62
     7
 10
-11.11231471356852
 20
27.98448213654979
 30
0.0
 11
-11.07683625756852
 21
28.01515506454979
 31
0.0
  0
LINE
  5
685
  8
0
  6
CONTINUOUS
 62
     7
 10
-11.07683625756852
 20
28.01515506454979
 30
0.0
 11
-11.04778801756852
 21
28.05946707254979
 31
0.0
  0
LINE
  5
686
  8
0
  6
CONTINUOUS
 62
     7
 10
-11.04778801756852
 20
28.05946707254979
 30
0.0
 11
-11.02571620156852
 21
28.11716138454979
 31
0.0
  0
LINE
  5
687
  8
0
  6
CONTINUOUS
 62
     7
 10
-11.02571620156852
 20
28.11716138454979
 30
0.0
 11
-11.01118168156852
 21
28.18796302454979
 31
0.0
  0
LINE
  5
688
  8
0
  6
CONTINUOUS
 62
     7
 10
-11.01118168156852
 20
28.18796302454979
 30
0.0
 11
-11.00471028156852
 21
28.27156737654979
 31
0.0
  0
LINE
  5
689
  8
0
  6
CONTINUOUS
 62
     7
 10
-11.00471028156852
 20
28.27156737654979
 30
0.0
 11
-11.00682751356852
 21
28.36766951254979
 31
0.0
  0
LINE
  5
68A
  8
0
  6
CONTINUOUS
 62
     7
 10
-11.00682751356852
 20
28.36766951254979
 30
0.0
 11
-11.01805628956852
 21
28.47593205654979
 31
0.0
  0
LINE
  5
68B
  8
0
  6
CONTINUOUS
 62
     7
 10
-11.01805628956852
 20
28.47593205654979
 30
0.0
 11
-11.08662348956853
 21
28.84320826454979
 31
0.0
  0
LINE
  5
68C
  8
0
  6
CONTINUOUS
 62
     7
 10
-11.08662348956853
 20
28.84320826454979
 30
0.0
 11
-11.12780759356852
 21
29.12085623254979
 31
0.0
  0
LINE
  5
68D
  8
0
  6
CONTINUOUS
 62
     7
 10
-11.12780759356852
 20
29.12085623254979
 30
0.0
 11
-11.16302708956852
 21
29.45346237654979
 31
0.0
  0
LINE
  5
68E
  8
0
  6
CONTINUOUS
 62
     7
 10
-11.16302708956852
 20
29.45346237654979
 30
0.0
 11
-11.18765855356852
 21
29.83953627254979
 31
0.0
  0
LINE
  5
68F
  8
0
  6
CONTINUOUS
 62
     7
 10
-11.18765855356852
 20
29.83953627254979
 30
0.0
 11
-11.19731900956852
 21
30.27994028854979
 31
0.0
  0
LINE
  5
690
  8
0
  6
CONTINUOUS
 62
     7
 10
-11.19731900956852
 20
30.27994028854979
 30
0.0
 11
-11.18745814556852
 21
30.77456751254979
 31
0.0
  0
LINE
  5
691
  8
0
  6
CONTINUOUS
 62
     7
 10
-11.18745814556852
 20
30.77456751254979
 30
0.0
 11
-11.15368008956852
 21
31.32026799254979
 31
0.0
  0
LINE
  5
692
  8
0
  6
CONTINUOUS
 62
     7
 10
-11.15368008956852
 20
31.32026799254979
 30
0.0
 11
-11.09142308956852
 21
31.91841109654979
 31
0.0
  0
LINE
  5
693
  8
0
  6
CONTINUOUS
 62
     7
 10
-11.09142308956852
 20
31.91841109654979
 30
0.0
 11
-11.00593092531254
 21
32.50739435637728
 31
0.0
  0
LINE
  5
694
  8
0
  6
CONTINUOUS
 62
     7
 10
-9.537175394620677
 20
32.96821939892577
 30
0.0
 11
-9.130539073568524
 21
32.5336423365498
 31
0.0
  0
LINE
  5
695
  8
0
  6
CONTINUOUS
 62
     7
 10
-9.130539073568524
 20
32.5336423365498
 30
0.0
 11
-8.737740745568527
 21
32.07827386454979
 31
0.0
  0
LINE
  5
696
  8
0
  6
CONTINUOUS
 62
     7
 10
-8.737740745568527
 20
32.07827386454979
 30
0.0
 11
-8.398275593568524
 21
31.64967915254979
 31
0.0
  0
LINE
  5
697
  8
0
  6
CONTINUOUS
 62
     7
 10
-8.398275593568524
 20
31.64967915254979
 30
0.0
 11
-8.107617433568526
 21
31.24934040854978
 31
0.0
  0
LINE
  5
698
  8
0
  6
CONTINUOUS
 62
     7
 10
-8.107617433568526
 20
31.24934040854978
 30
0.0
 11
-7.863957497568526
 21
30.88235425654979
 31
0.0
  0
LINE
  5
699
  8
0
  6
CONTINUOUS
 62
     7
 10
-7.863957497568526
 20
30.88235425654979
 30
0.0
 11
-7.663622297568525
 21
30.55140764054979
 31
0.0
  0
LINE
  5
69A
  8
0
  6
CONTINUOUS
 62
     7
 10
-7.663622297568525
 20
30.55140764054979
 30
0.0
 11
-7.502521825568524
 21
30.25829695254979
 31
0.0
  0
LINE
  5
69B
  8
0
  6
CONTINUOUS
 62
     7
 10
-7.502521825568524
 20
30.25829695254979
 30
0.0
 11
-7.377712881568526
 21
30.00688641654979
 31
0.0
  0
LINE
  5
69C
  8
0
  6
CONTINUOUS
 62
     7
 10
-7.377712881568526
 20
30.00688641654979
 30
0.0
 11
-7.224177057568525
 21
29.66626936054979
 31
0.0
  0
LINE
  5
69D
  8
0
  6
CONTINUOUS
 62
     7
 10
-7.224177057568525
 20
29.66626936054979
 30
0.0
 11
-7.171546297568526
 21
29.57099683254979
 31
0.0
  0
LINE
  5
69E
  8
0
  6
CONTINUOUS
 62
     7
 10
-7.171546297568526
 20
29.57099683254979
 30
0.0
 11
-7.118383889568524
 21
29.49091007254979
 31
0.0
  0
LINE
  5
69F
  8
0
  6
CONTINUOUS
 62
     7
 10
-7.118383889568524
 20
29.49091007254979
 30
0.0
 11
-7.065311961568525
 21
29.42598765654979
 31
0.0
  0
LINE
  5
6A0
  8
0
  6
CONTINUOUS
 62
     7
 10
-7.065311961568525
 20
29.42598765654979
 30
0.0
 11
-7.012935793568523
 21
29.37617935254979
 31
0.0
  0
LINE
  5
6A1
  8
0
  6
CONTINUOUS
 62
     7
 10
-7.012935793568523
 20
29.37617935254979
 30
0.0
 11
-6.961861081568524
 21
29.34143492854979
 31
0.0
  0
LINE
  5
6A2
  8
0
  6
CONTINUOUS
 62
     7
 10
-6.961861081568524
 20
29.34143492854979
 30
0.0
 11
-6.912705377568524
 21
29.32165953654979
 31
0.0
  0
LINE
  5
6A3
  8
0
  6
CONTINUOUS
 62
     7
 10
-6.912705377568524
 20
29.32165953654979
 30
0.0
 11
-6.866063561568525
 21
29.31675198454979
 31
0.0
  0
LINE
  5
6A4
  8
0
  6
CONTINUOUS
 62
     7
 10
-6.866063561568525
 20
29.31675198454979
 30
0.0
 11
-6.753906633568524
 21
29.34079886454979
 31
0.0
  0
LINE
  5
6A5
  8
0
  6
CONTINUOUS
 62
     7
 10
-6.753906633568524
 20
29.34079886454979
 30
0.0
 11
-6.060695881568526
 21
29.49168747254979
 31
0.0
  0
LINE
  5
6A6
  8
0
  6
CONTINUOUS
 62
     7
 10
-6.060695881568526
 20
29.49168747254979
 30
0.0
 11
-5.364160561568524
 21
29.62639898454979
 31
0.0
  0
LINE
  5
6A7
  8
0
  6
CONTINUOUS
 62
     7
 10
-5.364160561568524
 20
29.62639898454979
 30
0.0
 11
-5.251610097568525
 21
29.64853060054979
 31
0.0
  0
LINE
  5
6A8
  8
0
  6
CONTINUOUS
 62
     7
 10
-5.251610097568525
 20
29.64853060054979
 30
0.0
 11
-5.210683497568526
 21
29.67143389654979
 31
0.0
  0
LINE
  5
6A9
  8
0
  6
CONTINUOUS
 62
     7
 10
-5.210683497568526
 20
29.67143389654979
 30
0.0
 11
-5.173309953568525
 21
29.70899152054979
 31
0.0
  0
LINE
  5
6AA
  8
0
  6
CONTINUOUS
 62
     7
 10
-5.173309953568525
 20
29.70899152054979
 30
0.0
 11
-5.140076129568525
 21
29.76106172054979
 31
0.0
  0
LINE
  5
6AB
  8
0
  6
CONTINUOUS
 62
     7
 10
-5.140076129568525
 20
29.76106172054979
 30
0.0
 11
-5.111586993568525
 21
29.82748839254979
 31
0.0
  0
LINE
  5
6AC
  8
0
  6
CONTINUOUS
 62
     7
 10
-5.111586993568525
 20
29.82748839254979
 30
0.0
 11
-5.088418601568524
 21
29.90807861654979
 31
0.0
  0
LINE
  5
6AD
  8
0
  6
CONTINUOUS
 62
     7
 10
-5.088418601568524
 20
29.90807861654979
 30
0.0
 11
-5.071147217568525
 21
30.00263978454979
 31
0.0
  0
LINE
  5
6AE
  8
0
  6
CONTINUOUS
 62
     7
 10
-5.071147217568525
 20
30.00263978454979
 30
0.0
 11
-5.060353057568523
 21
30.11094642454979
 31
0.0
  0
LINE
  5
6AF
  8
0
  6
CONTINUOUS
 62
     7
 10
-5.060353057568523
 20
30.11094642454979
 30
0.0
 11
-5.053584529568524
 21
30.4845069365498
 31
0.0
  0
LINE
  5
6B0
  8
0
  6
CONTINUOUS
 62
     7
 10
-5.053584529568524
 20
30.4845069365498
 30
0.0
 11
-5.038035489568524
 21
30.76476176854979
 31
0.0
  0
LINE
  5
6B1
  8
0
  6
CONTINUOUS
 62
     7
 10
-5.038035489568524
 20
30.76476176854979
 30
0.0
 11
-5.005580833568524
 21
31.09764912854979
 31
0.0
  0
LINE
  5
6B2
  8
0
  6
CONTINUOUS
 62
     7
 10
-5.005580833568524
 20
31.09764912854979
 30
0.0
 11
-4.951992025568526
 21
31.48077826454979
 31
0.0
  0
LINE
  5
6B3
  8
0
  6
CONTINUOUS
 62
     7
 10
-4.951992025568526
 20
31.48077826454979
 30
0.0
 11
-4.872802057568524
 21
31.91411194454979
 31
0.0
  0
LINE
  5
6B4
  8
0
  6
CONTINUOUS
 62
     7
 10
-4.872802057568524
 20
31.91411194454979
 30
0.0
 11
-4.763575329568524
 21
32.39662899254979
 31
0.0
  0
LINE
  5
6B5
  8
0
  6
CONTINUOUS
 62
     7
 10
-4.763575329568524
 20
32.39662899254979
 30
0.0
 11
-4.620640017568525
 21
32.92435962454979
 31
0.0
  0
LINE
  5
6B6
  8
0
  6
CONTINUOUS
 62
     7
 10
-4.620640017568525
 20
32.92435962454979
 30
0.0
 11
-4.439252057568526
 21
33.49772639254979
 31
0.0
  0
LINE
  5
6B7
  8
0
  6
CONTINUOUS
 62
     7
 10
-4.439252057568526
 20
33.49772639254979
 30
0.0
 11
-4.236948442591459
 21
34.05744376851042
 31
0.0
  0
LINE
  5
6B8
  8
0
  6
CONTINUOUS
 62
     7
 10
-2.705495086547924
 20
34.21317731855509
 30
0.0
 11
-2.394662393568525
 21
33.70564080054979
 31
0.0
  0
LINE
  5
6B9
  8
0
  6
CONTINUOUS
 62
     7
 10
-2.394662393568525
 20
33.70564080054979
 30
0.0
 11
-2.101569593568525
 21
33.1805240005498
 31
0.0
  0
LINE
  5
6BA
  8
0
  6
CONTINUOUS
 62
     7
 10
-2.101569593568525
 20
33.1805240005498
 30
0.0
 11
-1.855328793568525
 21
32.69236880054979
 31
0.0
  0
LINE
  5
6BB
  8
0
  6
CONTINUOUS
 62
     7
 10
-1.855328793568525
 20
32.69236880054979
 30
0.0
 11
-1.651207993568525
 21
32.24171600054979
 31
0.0
  0
LINE
  5
6BC
  8
0
  6
CONTINUOUS
 62
     7
 10
-1.651207993568525
 20
32.24171600054979
 30
0.0
 11
-1.486409593568524
 21
31.83319360054979
 31
0.0
  0
LINE
  5
6BD
  8
0
  6
CONTINUOUS
 62
     7
 10
-1.486409593568524
 20
31.83319360054979
 30
0.0
 11
-1.356794393568524
 21
31.46869440054979
 31
0.0
  0
LINE
  5
6BE
  8
0
  6
CONTINUOUS
 62
     7
 10
-1.356794393568524
 20
31.46869440054979
 30
0.0
 11
-1.257994393568524
 21
31.14915440054979
 31
0.0
  0
LINE
  5
6BF
  8
0
  6
CONTINUOUS
 62
     7
 10
-1.257994393568524
 20
31.14915440054979
 30
0.0
 11
-1.186348793568525
 21
30.87776640054979
 31
0.0
  0
LINE
  5
6C0
  8
0
  6
CONTINUOUS
 62
     7
 10
-1.186348793568525
 20
30.87776640054979
 30
0.0
 11
-1.104521593568524
 21
30.51321520054979
 31
0.0
  0
LINE
  5
6C1
  8
0
  6
CONTINUOUS
 62
     7
 10
-1.104521593568524
 20
30.51321520054979
 30
0.0
 11
-1.072146393568524
 21
30.40929840054979
 31
0.0
  0
LINE
  5
6C2
  8
0
  6
CONTINUOUS
 62
     7
 10
-1.072146393568524
 20
30.40929840054979
 30
0.0
 11
-1.036193593568525
 21
30.32014960054979
 31
0.0
  0
LINE
  5
6C3
  8
0
  6
CONTINUOUS
 62
     7
 10
-1.036193593568525
 20
30.32014960054979
 30
0.0
 11
-0.9972767935685249
 21
30.24587280054979
 31
0.0
  0
LINE
  5
6C4
  8
0
  6
CONTINUOUS
 62
     7
 10
-0.9972767935685249
 20
30.24587280054979
 30
0.0
 11
-0.9559991935685253
 21
30.18654080054979
 31
0.0
  0
LINE
  5
6C5
  8
0
  6
CONTINUOUS
 62
     7
 10
-0.9559991935685253
 20
30.18654080054979
 30
0.0
 11
-0.912963993568524
 21
30.14222640054979
 31
0.0
  0
LINE
  5
6C6
  8
0
  6
CONTINUOUS
 62
     7
 10
-0.912963993568524
 20
30.14222640054979
 30
0.0
 11
-0.8687951935685239
 21
30.11296080054979
 31
0.0
  0
LINE
  5
6C7
  8
0
  6
CONTINUOUS
 62
     7
 10
-0.8687951935685239
 20
30.11296080054979
 30
0.0
 11
-0.8240959935685238
 21
30.09876480054979
 31
0.0
  0
LINE
  5
6C8
  8
0
  6
CONTINUOUS
 62
     7
 10
-0.8240959935685238
 20
30.09876480054979
 30
0.0
 11
-0.7093943935685239
 21
30.09974240054979
 31
0.0
  0
LINE
  5
6C9
  8
0
  6
CONTINUOUS
 62
     7
 10
-0.7093943935685239
 20
30.09974240054979
 30
0.0
 11
0.0000000064314762
 21
30.10800000054979
 31
0.0
  0
LINE
  5
6CA
  8
0
  6
CONTINUOUS
 62
     7
 10
0.0000000064314762
 20
30.10800000054979
 30
0.0
 11
0.7093944064314762
 21
30.09974240054979
 31
0.0
  0
LINE
  5
6CB
  8
0
  6
CONTINUOUS
 62
     7
 10
0.7093944064314762
 20
30.09974240054979
 30
0.0
 11
0.8240960064314762
 21
30.09876480054979
 31
0.0
  0
LINE
  5
6CC
  8
0
  6
CONTINUOUS
 62
     7
 10
0.8240960064314762
 20
30.09876480054979
 30
0.0
 11
0.8687952064314765
 21
30.11296080054979
 31
0.0
  0
LINE
  5
6CD
  8
0
  6
CONTINUOUS
 62
     7
 10
0.8687952064314765
 20
30.11296080054979
 30
0.0
 11
0.9129640064314748
 21
30.14222640054979
 31
0.0
  0
LINE
  5
6CE
  8
0
  6
CONTINUOUS
 62
     7
 10
0.9129640064314748
 20
30.14222640054979
 30
0.0
 11
0.9559992064314752
 21
30.18654080054979
 31
0.0
  0
LINE
  5
6CF
  8
0
  6
CONTINUOUS
 62
     7
 10
0.9559992064314752
 20
30.18654080054979
 30
0.0
 11
0.9972768064314756
 21
30.24587280054979
 31
0.0
  0
LINE
  5
6D0
  8
0
  6
CONTINUOUS
 62
     7
 10
0.9972768064314756
 20
30.24587280054979
 30
0.0
 11
1.036193606431475
 21
30.32014960054979
 31
0.0
  0
LINE
  5
6D1
  8
0
  6
CONTINUOUS
 62
     7
 10
1.036193606431475
 20
30.32014960054979
 30
0.0
 11
1.072146406431476
 21
30.40929840054979
 31
0.0
  0
LINE
  5
6D2
  8
0
  6
CONTINUOUS
 62
     7
 10
1.072146406431476
 20
30.40929840054979
 30
0.0
 11
1.104521606431476
 21
30.51321520054979
 31
0.0
  0
LINE
  5
6D3
  8
0
  6
CONTINUOUS
 62
     7
 10
1.104521606431476
 20
30.51321520054979
 30
0.0
 11
1.186348806431476
 21
30.87776640054979
 31
0.0
  0
LINE
  5
6D4
  8
0
  6
CONTINUOUS
 62
     7
 10
1.186348806431476
 20
30.87776640054979
 30
0.0
 11
1.257994406431476
 21
31.14915440054979
 31
0.0
  0
LINE
  5
6D5
  8
0
  6
CONTINUOUS
 62
     7
 10
1.257994406431476
 20
31.14915440054979
 30
0.0
 11
1.356794406431476
 21
31.46869440054979
 31
0.0
  0
LINE
  5
6D6
  8
0
  6
CONTINUOUS
 62
     7
 10
1.356794406431476
 20
31.46869440054979
 30
0.0
 11
1.486409606431476
 21
31.83319360054979
 31
0.0
  0
LINE
  5
6D7
  8
0
  6
CONTINUOUS
 62
     7
 10
1.486409606431476
 20
31.83319360054979
 30
0.0
 11
1.651208006431476
 21
32.24171600054979
 31
0.0
  0
LINE
  5
6D8
  8
0
  6
CONTINUOUS
 62
     7
 10
1.651208006431476
 20
32.24171600054979
 30
0.0
 11
1.855328806431475
 21
32.69236880054979
 31
0.0
  0
LINE
  5
6D9
  8
0
  6
CONTINUOUS
 62
     7
 10
1.855328806431475
 20
32.69236880054979
 30
0.0
 11
2.101569606431476
 21
33.1805240005498
 31
0.0
  0
LINE
  5
6DA
  8
0
  6
CONTINUOUS
 62
     7
 10
2.101569606431476
 20
33.1805240005498
 30
0.0
 11
2.394662406431475
 21
33.70564080054979
 31
0.0
  0
LINE
  5
6DB
  8
0
  6
CONTINUOUS
 62
     7
 10
2.394662406431475
 20
33.70564080054979
 30
0.0
 11
2.705495098762866
 21
34.21317731936528
 31
0.0
  0
LINE
  5
6DC
  8
0
  6
CONTINUOUS
 62
     7
 10
4.236948468449302
 20
34.05744376790012
 30
0.0
 11
4.439252070431476
 21
33.49772639254979
 31
0.0
  0
LINE
  5
6DD
  8
0
  6
CONTINUOUS
 62
     7
 10
4.439252070431476
 20
33.49772639254979
 30
0.0
 11
4.620640030431477
 21
32.92435962454979
 31
0.0
  0
LINE
  5
6DE
  8
0
  6
CONTINUOUS
 62
     7
 10
4.620640030431477
 20
32.92435962454979
 30
0.0
 11
4.763575342431476
 21
32.39662899254979
 31
0.0
  0
LINE
  5
6DF
  8
0
  6
CONTINUOUS
 62
     7
 10
4.763575342431476
 20
32.39662899254979
 30
0.0
 11
4.872802070431476
 21
31.91411194454979
 31
0.0
  0
LINE
  5
6E0
  8
0
  6
CONTINUOUS
 62
     7
 10
4.872802070431476
 20
31.91411194454979
 30
0.0
 11
4.951992038431476
 21
31.48077826454979
 31
0.0
  0
LINE
  5
6E1
  8
0
  6
CONTINUOUS
 62
     7
 10
4.951992038431476
 20
31.48077826454979
 30
0.0
 11
5.005580846431476
 21
31.09764912854979
 31
0.0
  0
LINE
  5
6E2
  8
0
  6
CONTINUOUS
 62
     7
 10
5.005580846431476
 20
31.09764912854979
 30
0.0
 11
5.038035502431476
 21
30.76476176854979
 31
0.0
  0
LINE
  5
6E3
  8
0
  6
CONTINUOUS
 62
     7
 10
5.038035502431476
 20
30.76476176854979
 30
0.0
 11
5.053584542431476
 21
30.4845069365498
 31
0.0
  0
LINE
  5
6E4
  8
0
  6
CONTINUOUS
 62
     7
 10
5.053584542431476
 20
30.4845069365498
 30
0.0
 11
5.060353070431476
 21
30.11094642454979
 31
0.0
  0
LINE
  5
6E5
  8
0
  6
CONTINUOUS
 62
     7
 10
5.060353070431476
 20
30.11094642454979
 30
0.0
 11
5.071147230431476
 21
30.00263978454979
 31
0.0
  0
LINE
  5
6E6
  8
0
  6
CONTINUOUS
 62
     7
 10
5.071147230431476
 20
30.00263978454979
 30
0.0
 11
5.088418614431476
 21
29.90807861654979
 31
0.0
  0
LINE
  5
6E7
  8
0
  6
CONTINUOUS
 62
     7
 10
5.088418614431476
 20
29.90807861654979
 30
0.0
 11
5.111587006431475
 21
29.82748839254979
 31
0.0
  0
LINE
  5
6E8
  8
0
  6
CONTINUOUS
 62
     7
 10
5.111587006431475
 20
29.82748839254979
 30
0.0
 11
5.140076142431476
 21
29.76106172054979
 31
0.0
  0
LINE
  5
6E9
  8
0
  6
CONTINUOUS
 62
     7
 10
5.140076142431476
 20
29.76106172054979
 30
0.0
 11
5.173309966431474
 21
29.70899152054979
 31
0.0
  0
LINE
  5
6EA
  8
0
  6
CONTINUOUS
 62
     7
 10
5.173309966431474
 20
29.70899152054979
 30
0.0
 11
5.210683510431475
 21
29.67143389654979
 31
0.0
  0
LINE
  5
6EB
  8
0
  6
CONTINUOUS
 62
     7
 10
5.210683510431475
 20
29.67143389654979
 30
0.0
 11
5.251610110431476
 21
29.64853060054979
 31
0.0
  0
LINE
  5
6EC
  8
0
  6
CONTINUOUS
 62
     7
 10
5.251610110431476
 20
29.64853060054979
 30
0.0
 11
5.364160574431475
 21
29.62639898454979
 31
0.0
  0
LINE
  5
6ED
  8
0
  6
CONTINUOUS
 62
     7
 10
5.364160574431475
 20
29.62639898454979
 30
0.0
 11
6.060695894431476
 21
29.49168747254979
 31
0.0
  0
LINE
  5
6EE
  8
0
  6
CONTINUOUS
 62
     7
 10
6.060695894431476
 20
29.49168747254979
 30
0.0
 11
6.753906646431477
 21
29.34079886454979
 31
0.0
  0
LINE
  5
6EF
  8
0
  6
CONTINUOUS
 62
     7
 10
6.753906646431477
 20
29.34079886454979
 30
0.0
 11
6.866063574431477
 21
29.31675198454979
 31
0.0
  0
LINE
  5
6F0
  8
0
  6
CONTINUOUS
 62
     7
 10
6.866063574431477
 20
29.31675198454979
 30
0.0
 11
6.912705390431476
 21
29.32165953654979
 31
0.0
  0
LINE
  5
6F1
  8
0
  6
CONTINUOUS
 62
     7
 10
6.912705390431476
 20
29.32165953654979
 30
0.0
 11
6.961861094431477
 21
29.34143492854979
 31
0.0
  0
LINE
  5
6F2
  8
0
  6
CONTINUOUS
 62
     7
 10
6.961861094431477
 20
29.34143492854979
 30
0.0
 11
7.012935806431476
 21
29.37617935254979
 31
0.0
  0
LINE
  5
6F3
  8
0
  6
CONTINUOUS
 62
     7
 10
7.012935806431476
 20
29.37617935254979
 30
0.0
 11
7.065311974431476
 21
29.42598765654979
 31
0.0
  0
LINE
  5
6F4
  8
0
  6
CONTINUOUS
 62
     7
 10
7.065311974431476
 20
29.42598765654979
 30
0.0
 11
7.118383902431475
 21
29.49091007254979
 31
0.0
  0
LINE
  5
6F5
  8
0
  6
CONTINUOUS
 62
     7
 10
7.118383902431475
 20
29.49091007254979
 30
0.0
 11
7.171546310431475
 21
29.57099683254979
 31
0.0
  0
LINE
  5
6F6
  8
0
  6
CONTINUOUS
 62
     7
 10
7.171546310431475
 20
29.57099683254979
 30
0.0
 11
7.224177070431475
 21
29.66626936054979
 31
0.0
  0
LINE
  5
6F7
  8
0
  6
CONTINUOUS
 62
     7
 10
7.224177070431475
 20
29.66626936054979
 30
0.0
 11
7.377712894431475
 21
30.00688641654979
 31
0.0
  0
LINE
  5
6F8
  8
0
  6
CONTINUOUS
 62
     7
 10
7.377712894431475
 20
30.00688641654979
 30
0.0
 11
7.502521838431475
 21
30.25829695254979
 31
0.0
  0
LINE
  5
6F9
  8
0
  6
CONTINUOUS
 62
     7
 10
7.502521838431475
 20
30.25829695254979
 30
0.0
 11
7.663622310431476
 21
30.55140764054979
 31
0.0
  0
LINE
  5
6FA
  8
0
  6
CONTINUOUS
 62
     7
 10
7.663622310431476
 20
30.55140764054979
 30
0.0
 11
7.863957510431474
 21
30.88235425654979
 31
0.0
  0
LINE
  5
6FB
  8
0
  6
CONTINUOUS
 62
     7
 10
7.863957510431474
 20
30.88235425654979
 30
0.0
 11
8.107617446431474
 21
31.24934040854978
 31
0.0
  0
LINE
  5
6FC
  8
0
  6
CONTINUOUS
 62
     7
 10
8.107617446431474
 20
31.24934040854978
 30
0.0
 11
8.398275606431474
 21
31.64967915254979
 31
0.0
  0
LINE
  5
6FD
  8
0
  6
CONTINUOUS
 62
     7
 10
8.398275606431474
 20
31.64967915254979
 30
0.0
 11
8.737740758431476
 21
32.07827386454979
 31
0.0
  0
LINE
  5
6FE
  8
0
  6
CONTINUOUS
 62
     7
 10
8.737740758431476
 20
32.07827386454979
 30
0.0
 11
9.130539086431474
 21
32.5336423365498
 31
0.0
  0
LINE
  5
6FF
  8
0
  6
CONTINUOUS
 62
     7
 10
9.130539086431474
 20
32.5336423365498
 30
0.0
 11
9.537175416534728
 21
32.96821940409108
 31
0.0
  0
LINE
  5
700
  8
0
  6
CONTINUOUS
 62
     7
 10
11.00593094837149
 20
32.50739435962715
 30
0.0
 11
11.09142310243148
 21
31.91841109654979
 31
0.0
  0
LINE
  5
701
  8
0
  6
CONTINUOUS
 62
     7
 10
11.09142310243148
 20
31.91841109654979
 30
0.0
 11
11.15368010243148
 21
31.32026799254979
 31
0.0
  0
LINE
  5
702
  8
0
  6
CONTINUOUS
 62
     7
 10
11.15368010243148
 20
31.32026799254979
 30
0.0
 11
11.18745815843148
 21
30.77456751254979
 31
0.0
  0
LINE
  5
703
  8
0
  6
CONTINUOUS
 62
     7
 10
11.18745815843148
 20
30.77456751254979
 30
0.0
 11
11.19731902243148
 21
30.27994028854979
 31
0.0
  0
LINE
  5
704
  8
0
  6
CONTINUOUS
 62
     7
 10
11.19731902243148
 20
30.27994028854979
 30
0.0
 11
11.18765856643148
 21
29.83953627254979
 31
0.0
  0
LINE
  5
705
  8
0
  6
CONTINUOUS
 62
     7
 10
11.18765856643148
 20
29.83953627254979
 30
0.0
 11
11.16302710243148
 21
29.45346237654979
 31
0.0
  0
LINE
  5
706
  8
0
  6
CONTINUOUS
 62
     7
 10
11.16302710243148
 20
29.45346237654979
 30
0.0
 11
11.12780760643148
 21
29.12085623254979
 31
0.0
  0
LINE
  5
707
  8
0
  6
CONTINUOUS
 62
     7
 10
11.12780760643148
 20
29.12085623254979
 30
0.0
 11
11.08662350243148
 21
28.84320826454979
 31
0.0
  0
LINE
  5
708
  8
0
  6
CONTINUOUS
 62
     7
 10
11.08662350243148
 20
28.84320826454979
 30
0.0
 11
11.01805630243148
 21
28.47593205654979
 31
0.0
  0
LINE
  5
709
  8
0
  6
CONTINUOUS
 62
     7
 10
11.01805630243148
 20
28.47593205654979
 30
0.0
 11
11.00682752643148
 21
28.36766951254979
 31
0.0
  0
LINE
  5
70A
  8
0
  6
CONTINUOUS
 62
     7
 10
11.00682752643148
 20
28.36766951254979
 30
0.0
 11
11.00471029443148
 21
28.27156737654979
 31
0.0
  0
LINE
  5
70B
  8
0
  6
CONTINUOUS
 62
     7
 10
11.00471029443148
 20
28.27156737654979
 30
0.0
 11
11.01118169443148
 21
28.18796302454979
 31
0.0
  0
LINE
  5
70C
  8
0
  6
CONTINUOUS
 62
     7
 10
11.01118169443148
 20
28.18796302454979
 30
0.0
 11
11.02571621443148
 21
28.11716138454979
 31
0.0
  0
LINE
  5
70D
  8
0
  6
CONTINUOUS
 62
     7
 10
11.02571621443148
 20
28.11716138454979
 30
0.0
 11
11.04778803043147
 21
28.05946707254979
 31
0.0
  0
LINE
  5
70E
  8
0
  6
CONTINUOUS
 62
     7
 10
11.04778803043147
 20
28.05946707254979
 30
0.0
 11
11.07683627043148
 21
28.01515506454979
 31
0.0
  0
LINE
  5
70F
  8
0
  6
CONTINUOUS
 62
     7
 10
11.07683627043148
 20
28.01515506454979
 30
0.0
 11
11.11231472643148
 21
27.98448213654979
 31
0.0
  0
LINE
  5
710
  8
0
  6
CONTINUOUS
 62
     7
 10
11.11231472643148
 20
27.98448213654979
 30
0.0
 11
11.21810612643148
 21
27.9401472485498
 31
0.0
  0
LINE
  5
711
  8
0
  6
CONTINUOUS
 62
     7
 10
11.21810612643148
 20
27.9401472485498
 30
0.0
 11
11.87326608643148
 21
27.66798174454979
 31
0.0
  0
LINE
  5
712
  8
0
  6
CONTINUOUS
 62
     7
 10
11.87326608643148
 20
27.66798174454979
 30
0.0
 11
12.52191315043148
 21
27.38063952054979
 31
0.0
  0
LINE
  5
713
  8
0
  6
CONTINUOUS
 62
     7
 10
12.52191315043148
 20
27.38063952054979
 30
0.0
 11
12.62693359843148
 21
27.33450792854979
 31
0.0
  0
LINE
  5
714
  8
0
  6
CONTINUOUS
 62
     7
 10
12.62693359843148
 20
27.33450792854979
 30
0.0
 11
12.67360859043148
 21
27.32992610454979
 31
0.0
  0
LINE
  5
715
  8
0
  6
CONTINUOUS
 62
     7
 10
12.67360859043148
 20
27.32992610454979
 30
0.0
 11
12.72573890243148
 21
27.33940175254979
 31
0.0
  0
LINE
  5
716
  8
0
  6
CONTINUOUS
 62
     7
 10
12.72573890243148
 20
27.33940175254979
 30
0.0
 11
12.78276199843148
 21
27.36315358454979
 31
0.0
  0
LINE
  5
717
  8
0
  6
CONTINUOUS
 62
     7
 10
12.78276199843148
 20
27.36315358454979
 30
0.0
 11
12.84409235843148
 21
27.40139916854979
 31
0.0
  0
LINE
  5
718
  8
0
  6
CONTINUOUS
 62
     7
 10
12.84409235843148
 20
27.40139916854979
 30
0.0
 11
12.90914675043148
 21
27.45430927254979
 31
0.0
  0
LINE
  5
719
  8
0
  6
CONTINUOUS
 62
     7
 10
12.90914675043148
 20
27.45430927254979
 30
0.0
 11
12.97734215043148
 21
27.52205508054979
 31
0.0
  0
LINE
  5
71A
  8
0
  6
CONTINUOUS
 62
     7
 10
12.97734215043148
 20
27.52205508054979
 30
0.0
 11
13.04807379843148
 21
27.60478292054979
 31
0.0
  0
LINE
  5
71B
  8
0
  6
CONTINUOUS
 62
     7
 10
13.04807379843148
 20
27.60478292054979
 30
0.0
 11
13.26703248643148
 21
27.90752099254979
 31
0.0
  0
LINE
  5
71C
  8
0
  6
CONTINUOUS
 62
     7
 10
13.26703248643148
 20
27.90752099254979
 30
0.0
 11
13.43989525443148
 21
28.12866128854979
 31
0.0
  0
LINE
  5
71D
  8
0
  6
CONTINUOUS
 62
     7
 10
13.43989525443148
 20
28.12866128854979
 30
0.0
 11
13.65670072643147
 21
28.38334272854979
 31
0.0
  0
LINE
  5
71E
  8
0
  6
CONTINUOUS
 62
     7
 10
13.65670072643147
 20
28.38334272854979
 30
0.0
 11
13.91955396643148
 21
28.66718764054979
 31
0.0
  0
LINE
  5
71F
  8
0
  6
CONTINUOUS
 62
     7
 10
13.91955396643148
 20
28.66718764054979
 30
0.0
 11
14.23209996643148
 21
28.97761318454979
 31
0.0
  0
LINE
  5
720
  8
0
  6
CONTINUOUS
 62
     7
 10
14.23209996643148
 20
28.97761318454979
 30
0.0
 11
14.59739591043148
 21
29.31124788854979
 31
0.0
  0
LINE
  5
721
  8
0
  6
CONTINUOUS
 62
     7
 10
14.59739591043148
 20
29.31124788854979
 30
0.0
 11
15.01618768643148
 21
29.6627354405498
 31
0.0
  0
LINE
  5
722
  8
0
  6
CONTINUOUS
 62
     7
 10
15.01618768643148
 20
29.6627354405498
 30
0.0
 11
15.49261054243148
 21
30.02971275254979
 31
0.0
  0
LINE
  5
723
  8
0
  6
CONTINUOUS
 62
     7
 10
15.49261054243148
 20
30.02971275254979
 30
0.0
 11
15.97840264118084
 21
30.37353872522907
 31
0.0
  0
LINE
  5
724
  8
0
  6
CONTINUOUS
 62
     7
 10
17.32432926183698
 20
29.6264885184049
 30
0.0
 11
17.28950995843148
 21
29.03235223254979
 31
0.0
  0
LINE
  5
725
  8
0
  6
CONTINUOUS
 62
     7
 10
17.28950995843148
 20
29.03235223254979
 30
0.0
 11
17.23008727043148
 21
28.43392094454979
 31
0.0
  0
LINE
  5
726
  8
0
  6
CONTINUOUS
 62
     7
 10
17.23008727043148
 20
28.43392094454979
 30
0.0
 11
17.15332507843148
 21
27.89259148054979
 31
0.0
  0
LINE
  5
727
  8
0
  6
CONTINUOUS
 62
     7
 10
17.15332507843148
 20
27.89259148054979
 30
0.0
 11
17.06341635043148
 21
27.40610444054979
 31
0.0
  0
LINE
  5
728
  8
0
  6
CONTINUOUS
 62
     7
 10
17.06341635043148
 20
27.40610444054979
 30
0.0
 11
16.96530108643148
 21
26.97666004854979
 31
0.0
  0
LINE
  5
729
  8
0
  6
CONTINUOUS
 62
     7
 10
16.96530108643148
 20
26.97666004854979
 30
0.0
 11
16.86345763043148
 21
26.60344741654979
 31
0.0
  0
LINE
  5
72A
  8
0
  6
CONTINUOUS
 62
     7
 10
16.86345763043148
 20
26.60344741654979
 30
0.0
 11
16.76200604643148
 21
26.28473941654979
 31
0.0
  0
LINE
  5
72B
  8
0
  6
CONTINUOUS
 62
     7
 10
16.76200604643148
 20
26.28473941654979
 30
0.0
 11
16.66577474243147
 21
26.02106520054979
 31
0.0
  0
LINE
  5
72C
  8
0
  6
CONTINUOUS
 62
     7
 10
16.66577474243147
 20
26.02106520054979
 30
0.0
 11
16.52467908643148
 21
25.67510961654979
 31
0.0
  0
LINE
  5
72D
  8
0
  6
CONTINUOUS
 62
     7
 10
16.52467908643148
 20
25.67510961654979
 30
0.0
 11
16.49188705443148
 21
25.57132354454979
 31
0.0
  0
LINE
  5
72E
  8
0
  6
CONTINUOUS
 62
     7
 10
16.49188705443148
 20
25.57132354454979
 30
0.0
 11
16.47046794243148
 21
25.47761476054979
 31
0.0
  0
LINE
  5
72F
  8
0
  6
CONTINUOUS
 62
     7
 10
16.47046794243148
 20
25.47761476054979
 30
0.0
 11
16.45997746243147
 21
25.39441912854979
 31
0.0
  0
LINE
  5
730
  8
0
  6
CONTINUOUS
 62
     7
 10
16.45997746243147
 20
25.39441912854979
 30
0.0
 11
16.45996207043148
 21
25.32214110454979
 31
0.0
  0
LINE
  5
731
  8
0
  6
CONTINUOUS
 62
     7
 10
16.45996207043148
 20
25.32214110454979
 30
0.0
 11
16.46996843043148
 21
25.26118483254979
 31
0.0
  0
LINE
  5
732
  8
0
  6
CONTINUOUS
 62
     7
 10
16.46996843043148
 20
25.26118483254979
 30
0.0
 11
16.48950202243148
 21
25.2119324085498
 31
0.0
  0
LINE
  5
733
  8
0
  6
CONTINUOUS
 62
     7
 10
16.48950202243148
 20
25.2119324085498
 30
0.0
 11
16.51807976643148
 21
25.17474564854979
 31
0.0
  0
LINE
  5
734
  8
0
  6
CONTINUOUS
 62
     7
 10
16.51807976643148
 20
25.17474564854979
 30
0.0
 11
16.61278112643148
 21
25.11002260054979
 31
0.0
  0
LINE
  5
735
  8
0
  6
CONTINUOUS
 62
     7
 10
16.61278112643148
 20
25.11002260054979
 30
0.0
 11
17.19974339843148
 21
24.71154566454979
 31
0.0
  0
LINE
  5
736
  8
0
  6
CONTINUOUS
 62
     7
 10
17.19974339843148
 20
24.71154566454979
 30
0.0
 11
17.77727110243148
 21
24.29951368054979
 31
0.0
  0
LINE
  5
737
  8
0
  6
CONTINUOUS
 62
     7
 10
17.77727110243148
 20
24.29951368054979
 30
0.0
 11
17.87085550243147
 21
24.23318591254979
 31
0.0
  0
LINE
  5
738
  8
0
  6
CONTINUOUS
 62
     7
 10
17.87085550243147
 20
24.23318591254979
 30
0.0
 11
17.91565267043147
 21
24.21930222454979
 31
0.0
  0
LINE
  5
739
  8
0
  6
CONTINUOUS
 62
     7
 10
17.91565267043147
 20
24.21930222454979
 30
0.0
 11
17.96862340643148
 21
24.21809010454979
 31
0.0
  0
LINE
  5
73A
  8
0
  6
CONTINUOUS
 62
     7
 10
17.96862340643148
 20
24.21809010454979
 30
0.0
 11
18.02926050243148
 21
24.22987715254979
 31
0.0
  0
LINE
  5
73B
  8
0
  6
CONTINUOUS
 62
     7
 10
18.02926050243148
 20
24.22987715254979
 30
0.0
 11
18.09703407843148
 21
24.25499408854979
 31
0.0
  0
LINE
  5
73C
  8
0
  6
CONTINUOUS
 62
     7
 10
18.09703407843148
 20
24.25499408854979
 30
0.0
 11
18.17140759843148
 21
24.29372587254979
 31
0.0
  0
LINE
  5
73D
  8
0
  6
CONTINUOUS
 62
     7
 10
18.17140759843148
 20
24.29372587254979
 30
0.0
 11
18.25184421443148
 21
24.34635725654979
 31
0.0
  0
LINE
  5
73E
  8
0
  6
CONTINUOUS
 62
     7
 10
18.25184421443148
 20
24.34635725654979
 30
0.0
 11
18.33778097443148
 21
24.41315344054979
 31
0.0
  0
LINE
  5
73F
  8
0
  6
CONTINUOUS
 62
     7
 10
18.33778097443148
 20
24.41315344054979
 30
0.0
 11
18.61319824643148
 21
24.66561843254979
 31
0.0
  0
LINE
  5
740
  8
0
  6
CONTINUOUS
 62
     7
 10
18.61319824643148
 20
24.66561843254979
 30
0.0
 11
18.82703763843148
 21
24.8474349765498
 31
0.0
  0
LINE
  5
741
  8
0
  6
CONTINUOUS
 62
     7
 10
18.82703763843148
 20
24.8474349765498
 30
0.0
 11
19.09067212643148
 21
25.05326044054979
 31
0.0
  0
LINE
  5
742
  8
0
  6
CONTINUOUS
 62
     7
 10
19.09067212643148
 20
25.05326044054979
 30
0.0
 11
19.40528231843148
 21
25.27838300054979
 31
0.0
  0
LINE
  5
743
  8
0
  6
CONTINUOUS
 62
     7
 10
19.40528231843148
 20
25.27838300054979
 30
0.0
 11
19.77391874243148
 21
25.51953913654979
 31
0.0
  0
LINE
  5
744
  8
0
  6
CONTINUOUS
 62
     7
 10
19.77391874243148
 20
25.51953913654979
 30
0.0
 11
20.19889727043148
 21
25.77281075254979
 31
0.0
  0
LINE
  5
745
  8
0
  6
CONTINUOUS
 62
     7
 10
20.19889727043148
 20
25.77281075254979
 30
0.0
 11
20.67987023043148
 21
26.03280118454979
 31
0.0
  0
LINE
  5
746
  8
0
  6
CONTINUOUS
 62
     7
 10
20.67987023043148
 20
26.03280118454979
 30
0.0
 11
21.22041262243148
 21
26.29636318454979
 31
0.0
  0
LINE
  5
747
  8
0
  6
CONTINUOUS
 62
     7
 10
21.22041262243148
 20
26.29636318454979
 30
0.0
 11
21.76547221300111
 21
26.53536171339046
 31
0.0
  0
LINE
  5
748
  8
0
  6
CONTINUOUS
 62
     7
 10
22.93346754161298
 20
25.53267066356235
 30
0.0
 11
22.77976220643148
 21
24.95770555254979
 31
0.0
  0
LINE
  5
749
  8
0
  6
CONTINUOUS
 62
     7
 10
22.77976220643148
 20
24.95770555254979
 30
0.0
 11
22.60109249443147
 21
24.38348588054979
 31
0.0
  0
LINE
  5
74A
  8
0
  6
CONTINUOUS
 62
     7
 10
22.60109249443147
 20
24.38348588054979
 30
0.0
 11
22.41693293443148
 21
23.86868952054979
 31
0.0
  0
LINE
  5
74B
  8
0
  6
CONTINUOUS
 62
     7
 10
22.41693293443148
 20
23.86868952054979
 30
0.0
 11
22.23093548643148
 21
23.41025939254979
 31
0.0
  0
LINE
  5
74C
  8
0
  6
CONTINUOUS
 62
     7
 10
22.23093548643148
 20
23.41025939254979
 30
0.0
 11
22.04838210243148
 21
23.00935624054978
 31
0.0
  0
LINE
  5
74D
  8
0
  6
CONTINUOUS
 62
     7
 10
22.04838210243148
 20
23.00935624054978
 30
0.0
 11
21.87349622243147
 21
22.66428424054979
 31
0.0
  0
LINE
  5
74E
  8
0
  6
CONTINUOUS
 62
     7
 10
21.87349622243147
 20
22.66428424054979
 30
0.0
 11
21.70996589443148
 21
22.37252222454979
 31
0.0
  0
LINE
  5
74F
  8
0
  6
CONTINUOUS
 62
     7
 10
21.70996589443148
 20
22.37252222454979
 30
0.0
 11
21.56262732643147
 21
22.1336166485498
 31
0.0
  0
LINE
  5
750
  8
0
  6
CONTINUOUS
 62
     7
 10
21.56262732643147
 20
22.1336166485498
 30
0.0
 11
21.35477947843147
 21
21.82314513654979
 31
0.0
  0
LINE
  5
751
  8
0
  6
CONTINUOUS
 62
     7
 10
21.35477947843147
 20
21.82314513654979
 30
0.0
 11
21.30176672643148
 21
21.72808456054979
 31
0.0
  0
LINE
  5
752
  8
0
  6
CONTINUOUS
 62
     7
 10
21.30176672643148
 20
21.72808456054979
 30
0.0
 11
21.26192266243148
 21
21.64060568854979
 31
0.0
  0
LINE
  5
753
  8
0
  6
CONTINUOUS
 62
     7
 10
21.26192266243148
 20
21.64060568854979
 30
0.0
 11
21.23489971843147
 21
21.56122488054979
 31
0.0
  0
LINE
  5
754
  8
0
  6
CONTINUOUS
 62
     7
 10
21.23489971843147
 20
21.56122488054979
 30
0.0
 11
21.22033524643147
 21
21.49042937654979
 31
0.0
  0
LINE
  5
755
  8
0
  6
CONTINUOUS
 62
     7
 10
21.22033524643147
 20
21.49042937654979
 30
0.0
 11
21.21786628643148
 21
21.42870662454979
 31
0.0
  0
LINE
  5
756
  8
0
  6
CONTINUOUS
 62
     7
 10
21.21786628643148
 20
21.42870662454979
 30
0.0
 11
21.22708567843149
 21
21.37653034454979
 31
0.0
  0
LINE
  5
757
  8
0
  6
CONTINUOUS
 62
     7
 10
21.22708567843149
 20
21.37653034454979
 30
0.0
 11
21.24759271043148
 21
21.33435210454979
 31
0.0
  0
LINE
  5
758
  8
0
  6
CONTINUOUS
 62
     7
 10
21.24759271043148
 20
21.33435210454979
 30
0.0
 11
21.32732691043148
 21
21.25189071254979
 31
0.0
  0
LINE
  5
759
  8
0
  6
CONTINUOUS
 62
     7
 10
21.32732691043148
 20
21.25189071254979
 30
0.0
 11
21.82206125443147
 21
20.74341599254979
 31
0.0
  0
LINE
  5
75A
  8
0
  6
CONTINUOUS
 62
     7
 10
21.82206125443147
 20
20.74341599254979
 30
0.0
 11
22.30482551043147
 21
20.22356284054979
 31
0.0
  0
LINE
  5
75B
  8
0
  6
CONTINUOUS
 62
     7
 10
22.30482551043147
 20
20.22356284054979
 30
0.0
 11
22.38314250243148
 21
20.13975444054979
 31
0.0
  0
LINE
  5
75C
  8
0
  6
CONTINUOUS
 62
     7
 10
22.38314250243148
 20
20.13975444054979
 30
0.0
 11
22.42422791043148
 21
20.11713735254979
 31
0.0
  0
LINE
  5
75D
  8
0
  6
CONTINUOUS
 62
     7
 10
22.42422791043148
 20
20.11713735254979
 30
0.0
 11
22.47587025443147
 21
20.10528717654979
 31
0.0
  0
LINE
  5
75E
  8
0
  6
CONTINUOUS
 62
     7
 10
22.47587025443147
 20
20.10528717654979
 30
0.0
 11
22.53763887043148
 21
20.10462667254979
 31
0.0
  0
LINE
  5
75F
  8
0
  6
CONTINUOUS
 62
     7
 10
22.53763887043148
 20
20.10462667254979
 30
0.0
 11
22.60908115043148
 21
20.11558681654979
 31
0.0
  0
LINE
  5
760
  8
0
  6
CONTINUOUS
 62
     7
 10
22.60908115043148
 20
20.11558681654979
 30
0.0
 11
22.68972888643147
 21
20.13855438454979
 31
0.0
  0
LINE
  5
761
  8
0
  6
CONTINUOUS
 62
     7
 10
22.68972888643147
 20
20.13855438454979
 30
0.0
 11
22.77911355843148
 21
20.17391667254979
 31
0.0
  0
LINE
  5
762
  8
0
  6
CONTINUOUS
 62
     7
 10
22.77911355843148
 20
20.17391667254979
 30
0.0
 11
22.87673711043148
 21
20.22204662454979
 31
0.0
  0
LINE
  5
763
  8
0
  6
CONTINUOUS
 62
     7
 10
22.87673711043148
 20
20.22204662454979
 30
0.0
 11
23.19733749443148
 21
20.41390249654979
 31
0.0
  0
LINE
  5
764
  8
0
  6
CONTINUOUS
 62
     7
 10
23.19733749443148
 20
20.41390249654979
 30
0.0
 11
23.44339899843148
 21
20.54895169654979
 31
0.0
  0
LINE
  5
765
  8
0
  6
CONTINUOUS
 62
     7
 10
23.44339899843148
 20
20.54895169654979
 30
0.0
 11
23.74306917443148
 21
20.69749458454979
 31
0.0
  0
LINE
  5
766
  8
0
  6
CONTINUOUS
 62
     7
 10
23.74306917443148
 20
20.69749458454979
 30
0.0
 11
24.09655612643148
 21
20.85467831254979
 31
0.0
  0
LINE
  5
767
  8
0
  6
CONTINUOUS
 62
     7
 10
24.09655612643148
 20
20.85467831254979
 30
0.0
 11
24.50619091043148
 21
21.01669211254979
 31
0.0
  0
LINE
  5
768
  8
0
  6
CONTINUOUS
 62
     7
 10
24.50619091043148
 20
21.01669211254979
 30
0.0
 11
24.97345323843147
 21
21.17923163254979
 31
0.0
  0
LINE
  5
769
  8
0
  6
CONTINUOUS
 62
     7
 10
24.97345323843147
 20
21.17923163254979
 30
0.0
 11
25.49691643843148
 21
21.33708085654979
 31
0.0
  0
LINE
  5
76A
  8
0
  6
CONTINUOUS
 62
     7
 10
25.49691643843148
 20
21.33708085654979
 30
0.0
 11
26.07944851843148
 21
21.48643744054979
 31
0.0
  0
LINE
  5
76B
  8
0
  6
CONTINUOUS
 62
     7
 10
26.07944851843148
 20
21.48643744054979
 30
0.0
 11
26.661460783456
 21
21.61082405537435
 31
0.0
  0
LINE
  5
76C
  8
0
  6
CONTINUOUS
 62
     7
 10
27.60370693948076
 20
20.39354241065216
 30
0.0
 11
27.33740828643148
 21
19.86128747254979
 31
0.0
  0
LINE
  5
76D
  8
0
  6
CONTINUOUS
 62
     7
 10
27.33740828643148
 20
19.86128747254979
 30
0.0
 11
27.04680649443148
 21
19.33478799254979
 31
0.0
  0
LINE
  5
76E
  8
0
  6
CONTINUOUS
 62
     7
 10
27.04680649443148
 20
19.33478799254979
 30
0.0
 11
26.76278883843148
 21
18.86760064854979
 31
0.0
  0
LINE
  5
76F
  8
0
  6
CONTINUOUS
 62
     7
 10
26.76278883843148
 20
18.86760064854979
 30
0.0
 11
26.48831755043147
 21
18.45599558454979
 31
0.0
  0
LINE
  5
770
  8
0
  6
CONTINUOUS
 62
     7
 10
26.48831755043147
 20
18.45599558454979
 30
0.0
 11
26.22879979843148
 21
18.10004674454979
 31
0.0
  0
LINE
  5
771
  8
0
  6
CONTINUOUS
 62
     7
 10
26.22879979843148
 20
18.10004674454979
 30
0.0
 11
25.98803137443148
 21
17.79724252854979
 31
0.0
  0
LINE
  5
772
  8
0
  6
CONTINUOUS
 62
     7
 10
25.98803137443148
 20
17.79724252854979
 30
0.0
 11
25.76911730243148
 21
17.54437131254979
 31
0.0
  0
LINE
  5
773
  8
0
  6
CONTINUOUS
 62
     7
 10
25.76911730243148
 20
17.54437131254979
 30
0.0
 11
25.57670336643147
 21
17.34001526454979
 31
0.0
  0
LINE
  5
774
  8
0
  6
CONTINUOUS
 62
     7
 10
25.57670336643147
 20
17.34001526454979
 30
0.0
 11
25.31061271043148
 21
17.07773860054979
 31
0.0
  0
LINE
  5
775
  8
0
  6
CONTINUOUS
 62
     7
 10
25.31061271043148
 20
17.07773860054979
 30
0.0
 11
25.23954961443148
 21
16.99529530454979
 31
0.0
  0
LINE
  5
776
  8
0
  6
CONTINUOUS
 62
     7
 10
25.23954961443148
 20
16.99529530454979
 30
0.0
 11
25.18291173443148
 21
16.9176276885498
 31
0.0
  0
LINE
  5
777
  8
0
  6
CONTINUOUS
 62
     7
 10
25.18291173443148
 20
16.9176276885498
 30
0.0
 11
25.14046278243148
 21
16.84531139254979
 31
0.0
  0
LINE
  5
778
  8
0
  6
CONTINUOUS
 62
     7
 10
25.14046278243148
 20
16.84531139254979
 30
0.0
 11
25.11194535843148
 21
16.77889688854979
 31
0.0
  0
LINE
  5
779
  8
0
  6
CONTINUOUS
 62
     7
 10
25.11194535843148
 20
16.77889688854979
 30
0.0
 11
25.09710227043147
 21
16.71893464854979
 31
0.0
  0
LINE
  5
77A
  8
0
  6
CONTINUOUS
 62
     7
 10
25.09710227043147
 20
16.71893464854979
 30
0.0
 11
25.09562983843148
 21
16.66597056854979
 31
0.0
  0
LINE
  5
77B
  8
0
  6
CONTINUOUS
 62
     7
 10
25.09562983843148
 20
16.66597056854979
 30
0.0
 11
25.10722677443148
 21
16.62052766454979
 31
0.0
  0
LINE
  5
77C
  8
0
  6
CONTINUOUS
 62
     7
 10
25.10722677443148
 20
16.62052766454979
 30
0.0
 11
25.16872946243148
 21
16.52370397654979
 31
0.0
  0
LINE
  5
77D
  8
0
  6
CONTINUOUS
 62
     7
 10
25.16872946243148
 20
16.52370397654979
 30
0.0
 11
25.55098135843147
 21
15.92604842454979
 31
0.0
  0
LINE
  5
77E
  8
0
  6
CONTINUOUS
 62
     7
 10
25.55098135843147
 20
15.92604842454979
 30
0.0
 11
25.91921769443148
 21
15.31965697654979
 31
0.0
  0
LINE
  5
77F
  8
0
  6
CONTINUOUS
 62
     7
 10
25.91921769443148
 20
15.31965697654979
 30
0.0
 11
25.97906106243147
 21
15.22179900854979
 31
0.0
  0
LINE
  5
780
  8
0
  6
CONTINUOUS
 62
     7
 10
25.97906106243147
 20
15.22179900854979
 30
0.0
 11
26.01475261443148
 21
15.19137443254979
 31
0.0
  0
LINE
  5
781
  8
0
  6
CONTINUOUS
 62
     7
 10
26.01475261443148
 20
15.19137443254979
 30
0.0
 11
26.06295245443148
 21
15.16937125654979
 31
0.0
  0
LINE
  5
782
  8
0
  6
CONTINUOUS
 62
     7
 10
26.06295245443148
 20
15.16937125654979
 30
0.0
 11
26.12332372643148
 21
15.15629044854979
 31
0.0
  0
LINE
  5
783
  8
0
  6
CONTINUOUS
 62
     7
 10
26.12332372643148
 20
15.15629044854979
 30
0.0
 11
26.19550981443147
 21
15.15264493654979
 31
0.0
  0
LINE
  5
784
  8
0
  6
CONTINUOUS
 62
     7
 10
26.19550981443147
 20
15.15264493654979
 30
0.0
 11
26.27912997443147
 21
15.15890812854979
 31
0.0
  0
LINE
  5
785
  8
0
  6
CONTINUOUS
 62
     7
 10
26.27912997443147
 20
15.15890812854979
 30
0.0
 11
26.37380335843148
 21
15.17555353654979
 31
0.0
  0
LINE
  5
786
  8
0
  6
CONTINUOUS
 62
     7
 10
26.37380335843148
 20
15.17555353654979
 30
0.0
 11
26.47911708643148
 21
15.20304676854979
 31
0.0
  0
LINE
  5
787
  8
0
  6
CONTINUOUS
 62
     7
 10
26.47911708643148
 20
15.20304676854979
 30
0.0
 11
26.83177495043148
 21
15.32643902454979
 31
0.0
  0
LINE
  5
788
  8
0
  6
CONTINUOUS
 62
     7
 10
26.83177495043148
 20
15.32643902454979
 30
0.0
 11
27.09998481443148
 21
15.40919192854979
 31
0.0
  0
LINE
  5
789
  8
0
  6
CONTINUOUS
 62
     7
 10
27.09998481443148
 20
15.40919192854979
 30
0.0
 11
27.42342221443148
 21
15.49437104854979
 31
0.0
  0
LINE
  5
78A
  8
0
  6
CONTINUOUS
 62
     7
 10
27.42342221443148
 20
15.49437104854979
 30
0.0
 11
27.80131411843148
 21
15.57718073654979
 31
0.0
  0
LINE
  5
78B
  8
0
  6
CONTINUOUS
 62
     7
 10
27.80131411843148
 20
15.57718073654979
 30
0.0
 11
28.23517674243148
 21
15.65341918454979
 31
0.0
  0
LINE
  5
78C
  8
0
  6
CONTINUOUS
 62
     7
 10
28.23517674243148
 20
15.65341918454979
 30
0.0
 11
28.72559321443148
 21
15.71857237654979
 31
0.0
  0
LINE
  5
78D
  8
0
  6
CONTINUOUS
 62
     7
 10
28.72559321443148
 20
15.71857237654979
 30
0.0
 11
29.27011589443148
 21
15.76781804054979
 31
0.0
  0
LINE
  5
78E
  8
0
  6
CONTINUOUS
 62
     7
 10
29.27011589443148
 20
15.76781804054979
 30
0.0
 11
29.87078869443148
 21
15.79685442454979
 31
0.0
  0
LINE
  5
78F
  8
0
  6
CONTINUOUS
 62
     7
 10
29.87078869443148
 20
15.79685442454979
 30
0.0
 11
30.46592601496948
 21
15.80153659316769
 31
0.0
  0
LINE
  5
790
  8
0
  6
CONTINUOUS
 62
     7
 10
31.14384729173707
 20
14.41950006329377
 30
0.0
 11
30.77585774243148
 21
13.95174591254979
 31
0.0
  0
LINE
  5
791
  8
0
  6
CONTINUOUS
 62
     7
 10
30.77585774243148
 20
13.95174591254979
 30
0.0
 11
30.38522095043148
 21
13.49452166454979
 31
0.0
  0
LINE
  5
792
  8
0
  6
CONTINUOUS
 62
     7
 10
30.38522095043148
 20
13.49452166454979
 30
0.0
 11
30.01297312643148
 21
13.09406997654979
 31
0.0
  0
LINE
  5
793
  8
0
  6
CONTINUOUS
 62
     7
 10
30.01297312643148
 20
13.09406997654979
 30
0.0
 11
29.66126467843148
 21
12.74614120054979
 31
0.0
  0
LINE
  5
794
  8
0
  6
CONTINUOUS
 62
     7
 10
29.66126467843148
 20
12.74614120054979
 30
0.0
 11
29.33540730243148
 21
12.44971915254979
 31
0.0
  0
LINE
  5
795
  8
0
  6
CONTINUOUS
 62
     7
 10
29.33540730243148
 20
12.44971915254979
 30
0.0
 11
29.03861345443148
 21
12.20157972854979
 31
0.0
  0
LINE
  5
796
  8
0
  6
CONTINUOUS
 62
     7
 10
29.03861345443148
 20
12.20157972854979
 30
0.0
 11
28.77327794243148
 21
11.99795188854979
 31
0.0
  0
LINE
  5
797
  8
0
  6
CONTINUOUS
 62
     7
 10
28.77327794243148
 20
11.99795188854979
 30
0.0
 11
28.54366611843148
 21
11.83651154454979
 31
0.0
  0
LINE
  5
798
  8
0
  6
CONTINUOUS
 62
     7
 10
28.54366611843148
 20
11.83651154454979
 30
0.0
 11
28.23022644643148
 21
11.63316741654979
 31
0.0
  0
LINE
  5
799
  8
0
  6
CONTINUOUS
 62
     7
 10
28.23022644643148
 20
11.63316741654979
 30
0.0
 11
28.14402230243148
 21
11.56671661654979
 31
0.0
  0
LINE
  5
79A
  8
0
  6
CONTINUOUS
 62
     7
 10
28.14402230243148
 20
11.56671661654979
 30
0.0
 11
28.07290949443148
 21
11.50203995254979
 31
0.0
  0
LINE
  5
79B
  8
0
  6
CONTINUOUS
 62
     7
 10
28.07290949443148
 20
11.50203995254979
 30
0.0
 11
28.01677227043148
 21
11.43974894454979
 31
0.0
  0
LINE
  5
79C
  8
0
  6
CONTINUOUS
 62
     7
 10
28.01677227043148
 20
11.43974894454979
 30
0.0
 11
27.97546950243148
 21
11.38043452054979
 31
0.0
  0
LINE
  5
79D
  8
0
  6
CONTINUOUS
 62
     7
 10
27.97546950243148
 20
11.38043452054979
 30
0.0
 11
27.94885985443148
 21
11.32468750454979
 31
0.0
  0
LINE
  5
79E
  8
0
  6
CONTINUOUS
 62
     7
 10
27.94885985443148
 20
11.32468750454979
 30
0.0
 11
27.93675602243148
 21
11.27310402454979
 31
0.0
  0
LINE
  5
79F
  8
0
  6
CONTINUOUS
 62
     7
 10
27.93675602243148
 20
11.27310402454979
 30
0.0
 11
27.93896799843148
 21
11.22625691254979
 31
0.0
  0
LINE
  5
7A0
  8
0
  6
CONTINUOUS
 62
     7
 10
27.93896799843148
 20
11.22625691254979
 30
0.0
 11
27.97972123043148
 21
11.11903478454979
 31
0.0
  0
LINE
  5
7A1
  8
0
  6
CONTINUOUS
 62
     7
 10
27.97972123043148
 20
11.11903478454979
 30
0.0
 11
28.23384117443148
 21
10.45666658454979
 31
0.0
  0
LINE
  5
7A2
  8
0
  6
CONTINUOUS
 62
     7
 10
28.23384117443148
 20
10.45666658454979
 30
0.0
 11
28.47247406243148
 21
9.78856257654979
 31
0.0
  0
LINE
  5
7A3
  8
0
  6
CONTINUOUS
 62
     7
 10
28.47247406243148
 20
9.78856257654979
 30
0.0
 11
28.51139377443148
 21
9.680661328549792
 31
0.0
  0
LINE
  5
7A4
  8
0
  6
CONTINUOUS
 62
     7
 10
28.51139377443148
 20
9.680661328549792
 30
0.0
 11
28.54023037443148
 21
9.643674872549791
 31
0.0
  0
LINE
  5
7A5
  8
0
  6
CONTINUOUS
 62
     7
 10
28.54023037443148
 20
9.643674872549791
 30
0.0
 11
28.58301431043148
 21
9.612419648549789
 31
0.0
  0
LINE
  5
7A6
  8
0
  6
CONTINUOUS
 62
     7
 10
28.58301431043148
 20
9.612419648549789
 30
0.0
 11
28.63951657443148
 21
9.587453928549788
 31
0.0
  0
LINE
  5
7A7
  8
0
  6
CONTINUOUS
 62
     7
 10
28.63951657443148
 20
9.587453928549788
 30
0.0
 11
28.70949120643148
 21
9.56935210454979
 31
0.0
  0
LINE
  5
7A8
  8
0
  6
CONTINUOUS
 62
     7
 10
28.70949120643148
 20
9.56935210454979
 30
0.0
 11
28.79266042243148
 21
9.558654456549789
 31
0.0
  0
LINE
  5
7A9
  8
0
  6
CONTINUOUS
 62
     7
 10
28.79266042243148
 20
9.558654456549789
 30
0.0
 11
28.88874654243148
 21
9.55590147254979
 31
0.0
  0
LINE
  5
7AA
  8
0
  6
CONTINUOUS
 62
     7
 10
28.88874654243148
 20
9.55590147254979
 30
0.0
 11
28.99743881443148
 21
9.56163239254979
 31
0.0
  0
LINE
  5
7AB
  8
0
  6
CONTINUOUS
 62
     7
 10
28.99743881443148
 20
9.56163239254979
 30
0.0
 11
29.36771646243148
 21
9.611509336549789
 31
0.0
  0
LINE
  5
7AC
  8
0
  6
CONTINUOUS
 62
     7
 10
29.36771646243148
 20
9.611509336549789
 30
0.0
 11
29.64709405443148
 21
9.63857804054979
 31
0.0
  0
LINE
  5
7AD
  8
0
  6
CONTINUOUS
 62
     7
 10
29.64709405443148
 20
9.63857804054979
 30
0.0
 11
29.98105708643148
 21
9.656906064549789
 31
0.0
  0
LINE
  5
7AE
  8
0
  6
CONTINUOUS
 62
     7
 10
29.98105708643148
 20
9.656906064549789
 30
0.0
 11
30.36788300643148
 21
9.661951624549788
 31
0.0
  0
LINE
  5
7AF
  8
0
  6
CONTINUOUS
 62
     7
 10
30.36788300643148
 20
9.661951624549788
 30
0.0
 11
30.80821110243148
 21
9.64929347254979
 31
0.0
  0
LINE
  5
7B0
  8
0
  6
CONTINUOUS
 62
     7
 10
30.80821110243148
 20
9.64929347254979
 30
0.0
 11
31.30170399843148
 21
9.614392840549788
 31
0.0
  0
LINE
  5
7B1
  8
0
  6
CONTINUOUS
 62
     7
 10
31.30170399843148
 20
9.614392840549788
 30
0.0
 11
31.84499334243148
 21
9.553018904549791
 31
0.0
  0
LINE
  5
7B2
  8
0
  6
CONTINUOUS
 62
     7
 10
31.84499334243148
 20
9.553018904549791
 30
0.0
 11
32.43921533443147
 21
9.460546368549792
 31
0.0
  0
LINE
  5
7B3
  8
0
  6
CONTINUOUS
 62
     7
 10
32.43921533443147
 20
9.460546368549792
 30
0.0
 11
33.02311262864963
 21
9.345332333246022
 31
0.0
  0
LINE
  5
7B4
  8
0
  6
CONTINUOUS
 62
     7
 10
33.40895490846858
 20
7.855121662891337
 30
0.0
 11
32.95433991843148
 21
7.47101825654979
 31
0.0
  0
LINE
  5
7B5
  8
0
  6
CONTINUOUS
 62
     7
 10
32.95433991843148
 20
7.47101825654979
 30
0.0
 11
32.47966093443148
 21
7.10178799254979
 31
0.0
  0
LINE
  5
7B6
  8
0
  6
CONTINUOUS
 62
     7
 10
32.47966093443148
 20
7.10178799254979
 30
0.0
 11
32.03442268643148
 21
6.78446652054979
 31
0.0
  0
LINE
  5
7B7
  8
0
  6
CONTINUOUS
 62
     7
 10
32.03442268643148
 20
6.78446652054979
 30
0.0
 11
31.61987619043147
 21
6.514458184549789
 31
0.0
  0
LINE
  5
7B8
  8
0
  6
CONTINUOUS
 62
     7
 10
31.61987619043147
 20
6.514458184549789
 30
0.0
 11
31.24101979043148
 21
6.28969858454979
 31
0.0
  0
LINE
  5
7B9
  8
0
  6
CONTINUOUS
 62
     7
 10
31.24101979043148
 20
6.28969858454979
 30
0.0
 11
30.90035125443148
 21
6.10638277654979
 31
0.0
  0
LINE
  5
7BA
  8
0
  6
CONTINUOUS
 62
     7
 10
30.90035125443148
 20
6.10638277654979
 30
0.0
 11
30.59945720643148
 21
5.96033484854979
 31
0.0
  0
LINE
  5
7BB
  8
0
  6
CONTINUOUS
 62
     7
 10
30.59945720643148
 20
5.96033484854979
 30
0.0
 11
30.34204784643148
 21
5.848419720549789
 31
0.0
  0
LINE
  5
7BC
  8
0
  6
CONTINUOUS
 62
     7
 10
30.34204784643148
 20
5.848419720549789
 30
0.0
 11
29.99409140643148
 21
5.712333016549789
 31
0.0
  0
LINE
  5
7BD
  8
0
  6
CONTINUOUS
 62
     7
 10
29.99409140643148
 20
5.712333016549789
 30
0.0
 11
29.89627545443148
 21
5.66459524854979
 31
0.0
  0
LINE
  5
7BE
  8
0
  6
CONTINUOUS
 62
     7
 10
29.89627545443148
 20
5.66459524854979
 30
0.0
 11
29.81359899043148
 21
5.615557376549789
 31
0.0
  0
LINE
  5
7BF
  8
0
  6
CONTINUOUS
 62
     7
 10
29.81359899043148
 20
5.615557376549789
 30
0.0
 11
29.74607179043148
 21
5.56584184054979
 31
0.0
  0
LINE
  5
7C0
  8
0
  6
CONTINUOUS
 62
     7
 10
29.74607179043148
 20
5.56584184054979
 30
0.0
 11
29.69367461443148
 21
5.51605568854979
 31
0.0
  0
LINE
  5
7C1
  8
0
  6
CONTINUOUS
 62
     7
 10
29.69367461443148
 20
5.51605568854979
 30
0.0
 11
29.65638791043148
 21
5.46680638454979
 31
0.0
  0
LINE
  5
7C2
  8
0
  6
CONTINUOUS
 62
     7
 10
29.65638791043148
 20
5.46680638454979
 30
0.0
 11
29.63414813443147
 21
5.418715224549788
 31
0.0
  0
LINE
  5
7C3
  8
0
  6
CONTINUOUS
 62
     7
 10
29.63414813443147
 20
5.418715224549788
 30
0.0
 11
29.62688456643148
 21
5.37238187254979
 31
0.0
  0
LINE
  5
7C4
  8
0
  6
CONTINUOUS
 62
     7
 10
29.62688456643148
 20
5.37238187254979
 30
0.0
 11
29.64521987043148
 21
5.259151040549789
 31
0.0
  0
LINE
  5
7C5
  8
0
  6
CONTINUOUS
 62
     7
 10
29.64521987043148
 20
5.259151040549789
 30
0.0
 11
29.76080432643148
 21
4.559187568549789
 31
0.0
  0
LINE
  5
7C6
  8
0
  6
CONTINUOUS
 62
     7
 10
29.76080432643148
 20
4.559187568549789
 30
0.0
 11
29.86006400643148
 21
3.85672320854979
 31
0.0
  0
LINE
  5
7C7
  8
0
  6
CONTINUOUS
 62
     7
 10
29.86006400643148
 20
3.85672320854979
 30
0.0
 11
29.87646667843147
 21
3.74319628854979
 31
0.0
  0
LINE
  5
7C8
  8
0
  6
CONTINUOUS
 62
     7
 10
29.87646667843147
 20
3.74319628854979
 30
0.0
 11
29.89726761443148
 21
3.701162192549789
 31
0.0
  0
LINE
  5
7C9
  8
0
  6
CONTINUOUS
 62
     7
 10
29.89726761443148
 20
3.701162192549789
 30
0.0
 11
29.93288418243148
 21
3.66193432854979
 31
0.0
  0
LINE
  5
7CA
  8
0
  6
CONTINUOUS
 62
     7
 10
29.93288418243148
 20
3.66193432854979
 30
0.0
 11
29.98320427043148
 21
3.62610580854979
 31
0.0
  0
LINE
  5
7CB
  8
0
  6
CONTINUOUS
 62
     7
 10
29.98320427043148
 20
3.62610580854979
 30
0.0
 11
30.04810266243148
 21
3.59428877654979
 31
0.0
  0
LINE
  5
7CC
  8
0
  6
CONTINUOUS
 62
     7
 10
30.04810266243148
 20
3.59428877654979
 30
0.0
 11
30.12741597443149
 21
3.56706833654979
 31
0.0
  0
LINE
  5
7CD
  8
0
  6
CONTINUOUS
 62
     7
 10
30.12741597443149
 20
3.56706833654979
 30
0.0
 11
30.22098103043148
 21
3.545029696549789
 31
0.0
  0
LINE
  5
7CE
  8
0
  6
CONTINUOUS
 62
     7
 10
30.22098103043148
 20
3.545029696549789
 30
0.0
 11
30.32860199843148
 21
3.528763784549789
 31
0.0
  0
LINE
  5
7CF
  8
0
  6
CONTINUOUS
 62
     7
 10
30.32860199843148
 20
3.528763784549789
 30
0.0
 11
30.70134018243148
 21
3.503083376549789
 31
0.0
  0
LINE
  5
7D0
  8
0
  6
CONTINUOUS
 62
     7
 10
30.70134018243148
 20
3.503083376549789
 30
0.0
 11
30.98044779043148
 21
3.47335965654979
 31
0.0
  0
LINE
  5
7D1
  8
0
  6
CONTINUOUS
 62
     7
 10
30.98044779043148
 20
3.47335965654979
 30
0.0
 11
31.31126399043148
 21
3.42408612054979
 31
0.0
  0
LINE
  5
7D2
  8
0
  6
CONTINUOUS
 62
     7
 10
31.31126399043148
 20
3.42408612054979
 30
0.0
 11
31.69118722243148
 21
3.35116090454979
 31
0.0
  0
LINE
  5
7D3
  8
0
  6
CONTINUOUS
 62
     7
 10
31.69118722243148
 20
3.35116090454979
 30
0.0
 11
32.11995374243148
 21
3.25012459254979
 31
0.0
  0
LINE
  5
7D4
  8
0
  6
CONTINUOUS
 62
     7
 10
32.11995374243148
 20
3.25012459254979
 30
0.0
 11
32.59631929443148
 21
3.11659899254979
 31
0.0
  0
LINE
  5
7D5
  8
0
  6
CONTINUOUS
 62
     7
 10
32.59631929443148
 20
3.11659899254979
 30
0.0
 11
33.11613303043148
 21
2.947117992549791
 31
0.0
  0
LINE
  5
7D6
  8
0
  6
CONTINUOUS
 62
     7
 10
33.11613303043148
 20
2.947117992549791
 30
0.0
 11
33.67957674243148
 21
2.73692234454979
 31
0.0
  0
LINE
  5
7D7
  8
0
  6
CONTINUOUS
 62
     7
 10
33.67957674243148
 20
2.73692234454979
 30
0.0
 11
34.22832924574977
 21
2.506529180368489
 31
0.0
  0
LINE
  5
7D8
  8
0
  6
CONTINUOUS
 62
     7
 10
34.30629606934307
 20
0.9691536617487868
 30
0.0
 11
33.78366753443147
 21
0.6844261845497899
 31
0.0
  0
LINE
  5
7D9
  8
0
  6
CONTINUOUS
 62
     7
 10
33.78366753443147
 20
0.6844261845497899
 30
0.0
 11
33.24437979843148
 21
0.4183063045497898
 31
0.0
  0
LINE
  5
7DA
  8
0
  6
CONTINUOUS
 62
     7
 10
33.24437979843148
 20
0.4183063045497898
 30
0.0
 11
32.74437920643148
 21
0.1971062085497897
 31
0.0
  0
LINE
  5
7DB
  8
0
  6
CONTINUOUS
 62
     7
 10
32.74437920643148
 20
0.1971062085497897
 30
0.0
 11
32.28396631843148
 21
0.0160725765497897
 31
0.0
  0
LINE
  5
7DC
  8
0
  6
CONTINUOUS
 62
     7
 10
32.28396631843148
 20
0.0160725765497897
 30
0.0
 11
31.86762135043147
 21
-0.1278229674502104
 31
0.0
  0
LINE
  5
7DD
  8
0
  6
CONTINUOUS
 62
     7
 10
31.86762135043147
 20
-0.1278229674502104
 30
0.0
 11
31.49702504643147
 21
-0.2388102074502105
 31
0.0
  0
LINE
  5
7DE
  8
0
  6
CONTINUOUS
 62
     7
 10
31.49702504643147
 20
-0.2388102074502105
 30
0.0
 11
31.17289105443148
 21
-0.3212990554502105
 31
0.0
  0
LINE
  5
7DF
  8
0
  6
CONTINUOUS
 62
     7
 10
31.17289105443148
 20
-0.3212990554502105
 30
0.0
 11
30.89822258243148
 21
-0.3791070394502106
 31
0.0
  0
LINE
  5
7E0
  8
0
  6
CONTINUOUS
 62
     7
 10
30.89822258243148
 20
-0.3791070394502106
 30
0.0
 11
30.52999477443148
 21
-0.4423650394502106
 31
0.0
  0
LINE
  5
7E1
  8
0
  6
CONTINUOUS
 62
     7
 10
30.52999477443148
 20
-0.4423650394502106
 30
0.0
 11
30.42457163843148
 21
-0.4694354074502104
 31
0.0
  0
LINE
  5
7E2
  8
0
  6
CONTINUOUS
 62
     7
 10
30.42457163843148
 20
-0.4694354074502104
 30
0.0
 11
30.33371630243148
 21
-0.5008267674502102
 31
0.0
  0
LINE
  5
7E3
  8
0
  6
CONTINUOUS
 62
     7
 10
30.33371630243148
 20
-0.5008267674502102
 30
0.0
 11
30.25756365443148
 21
-0.5359315514502101
 31
0.0
  0
LINE
  5
7E4
  8
0
  6
CONTINUOUS
 62
     7
 10
30.25756365443148
 20
-0.5359315514502101
 30
0.0
 11
30.19621717443148
 21
-0.5741510314502095
 31
0.0
  0
LINE
  5
7E5
  8
0
  6
CONTINUOUS
 62
     7
 10
30.19621717443148
 20
-0.5741510314502095
 30
0.0
 11
30.14977992643148
 21
-0.6148864794502108
 31
0.0
  0
LINE
  5
7E6
  8
0
  6
CONTINUOUS
 62
     7
 10
30.14977992643148
 20
-0.6148864794502108
 30
0.0
 11
30.11831483043148
 21
-0.657516287450211
 31
0.0
  0
LINE
  5
7E7
  8
0
  6
CONTINUOUS
 62
     7
 10
30.11831483043148
 20
-0.657516287450211
 30
0.0
 11
30.10187305443148
 21
-0.7014391274502109
 31
0.0
  0
LINE
  5
7E8
  8
0
  6
CONTINUOUS
 62
     7
 10
30.10187305443148
 20
-0.7014391274502109
 30
0.0
 11
30.09703986243148
 21
-0.8160430714502108
 31
0.0
  0
LINE
  5
7E9
  8
0
  6
CONTINUOUS
 62
     7
 10
30.09703986243148
 20
-0.8160430714502108
 30
0.0
 11
30.06935662243148
 21
-1.524945135450211
 31
0.0
  0
LINE
  5
7EA
  8
0
  6
CONTINUOUS
 62
     7
 10
30.06935662243148
 20
-1.524945135450211
 30
0.0
 11
30.02517939843148
 21
-2.233010831450212
 31
0.0
  0
LINE
  5
7EB
  8
0
  6
CONTINUOUS
 62
     7
 10
30.02517939843148
 20
-2.233010831450212
 30
0.0
 11
30.01839350243148
 21
-2.347515663450211
 31
0.0
  0
LINE
  5
7EC
  8
0
  6
CONTINUOUS
 62
     7
 10
30.01839350243148
 20
-2.347515663450211
 30
0.0
 11
30.03030732643148
 21
-2.392876511450211
 31
0.0
  0
LINE
  5
7ED
  8
0
  6
CONTINUOUS
 62
     7
 10
30.03030732643148
 20
-2.392876511450211
 30
0.0
 11
30.05729823843148
 21
-2.438470943450211
 31
0.0
  0
LINE
  5
7EE
  8
0
  6
CONTINUOUS
 62
     7
 10
30.05729823843148
 20
-2.438470943450211
 30
0.0
 11
30.09937601443148
 21
-2.48369534345021
 31
0.0
  0
LINE
  5
7EF
  8
0
  6
CONTINUOUS
 62
     7
 10
30.09937601443148
 20
-2.48369534345021
 30
0.0
 11
30.15654117443148
 21
-2.527925087450209
 31
0.0
  0
LINE
  5
7F0
  8
0
  6
CONTINUOUS
 62
     7
 10
30.15654117443148
 20
-2.527925087450209
 30
0.0
 11
30.22875159843148
 21
-2.57055406345021
 31
0.0
  0
LINE
  5
7F1
  8
0
  6
CONTINUOUS
 62
     7
 10
30.22875159843148
 20
-2.57055406345021
 30
0.0
 11
30.31596495843148
 21
-2.61097595145021
 31
0.0
  0
LINE
  5
7F2
  8
0
  6
CONTINUOUS
 62
     7
 10
30.31596495843148
 20
-2.61097595145021
 30
0.0
 11
30.41810866243148
 21
-2.648572991450211
 31
0.0
  0
LINE
  5
7F3
  8
0
  6
CONTINUOUS
 62
     7
 10
30.41810866243148
 20
-2.648572991450211
 30
0.0
 11
30.77804746243148
 21
-2.74875931145021
 31
0.0
  0
LINE
  5
7F4
  8
0
  6
CONTINUOUS
 62
     7
 10
30.77804746243148
 20
-2.74875931145021
 30
0.0
 11
31.04545829443148
 21
-2.834058551450211
 31
0.0
  0
LINE
  5
7F5
  8
0
  6
CONTINUOUS
 62
     7
 10
31.04545829443148
 20
-2.834058551450211
 30
0.0
 11
31.35958405443148
 21
-2.94891615145021
 31
0.0
  0
LINE
  5
7F6
  8
0
  6
CONTINUOUS
 62
     7
 10
31.35958405443148
 20
-2.94891615145021
 30
0.0
 11
31.71705056643147
 21
-3.09682661545021
 31
0.0
  0
LINE
  5
7F7
  8
0
  6
CONTINUOUS
 62
     7
 10
31.71705056643147
 20
-3.09682661545021
 30
0.0
 11
32.11670166243147
 21
-3.282104799450209
 31
0.0
  0
LINE
  5
7F8
  8
0
  6
CONTINUOUS
 62
     7
 10
32.11670166243147
 20
-3.282104799450209
 30
0.0
 11
32.55643747843148
 21
-3.50878881545021
 31
0.0
  0
LINE
  5
7F9
  8
0
  6
CONTINUOUS
 62
     7
 10
32.55643747843148
 20
-3.50878881545021
 30
0.0
 11
33.03149429443148
 21
-3.77943820745021
 31
0.0
  0
LINE
  5
7FA
  8
0
  6
CONTINUOUS
 62
     7
 10
33.03149429443148
 20
-3.77943820745021
 30
0.0
 11
33.54109221443147
 21
-4.098751591450211
 31
0.0
  0
LINE
  5
7FB
  8
0
  6
CONTINUOUS
 62
     7
 10
33.54109221443147
 20
-4.098751591450211
 30
0.0
 11
34.03223391705186
 21
-4.434891689871702
 31
0.0
  0
LINE
  5
7FC
  8
0
  6
CONTINUOUS
 62
     7
 10
33.79913341648638
 20
-5.956491618617942
 30
0.0
 11
33.22988781443147
 21
-6.130186295450211
 31
0.0
  0
LINE
  5
7FD
  8
0
  6
CONTINUOUS
 62
     7
 10
33.22988781443147
 20
-6.130186295450211
 30
0.0
 11
32.64806979843148
 21
-6.282300959450211
 31
0.0
  0
LINE
  5
7FE
  8
0
  6
CONTINUOUS
 62
     7
 10
32.64806979843148
 20
-6.282300959450211
 30
0.0
 11
32.11377707843148
 21
-6.398323671450211
 31
0.0
  0
LINE
  5
7FF
  8
0
  6
CONTINUOUS
 62
     7
 10
32.11377707843148
 20
-6.398323671450211
 30
0.0
 11
31.62634696643148
 21
-6.482971039450211
 31
0.0
  0
LINE
  5
800
  8
0
  6
CONTINUOUS
 62
     7
 10
31.62634696643148
 20
-6.482971039450211
 30
0.0
 11
31.18955871843148
 21
-6.540111447450212
 31
0.0
  0
LINE
  5
801
  8
0
  6
CONTINUOUS
 62
     7
 10
31.18955871843148
 20
-6.540111447450212
 30
0.0
 11
30.80420699843148
 21
-6.574226359450211
 31
0.0
  0
LINE
  5
802
  8
0
  6
CONTINUOUS
 62
     7
 10
30.80420699843148
 20
-6.574226359450211
 30
0.0
 11
30.47010315043148
 21
-6.589778831450211
 31
0.0
  0
LINE
  5
803
  8
0
  6
CONTINUOUS
 62
     7
 10
30.47010315043148
 20
-6.589778831450211
 30
0.0
 11
30.18942046243149
 21
-6.591113255450211
 31
0.0
  0
LINE
  5
804
  8
0
  6
CONTINUOUS
 62
     7
 10
30.18942046243149
 20
-6.591113255450211
 30
0.0
 11
29.81599660643148
 21
-6.578952535450211
 31
0.0
  0
LINE
  5
805
  8
0
  6
CONTINUOUS
 62
     7
 10
29.81599660643148
 20
-6.578952535450211
 30
0.0
 11
29.70728218243148
 21
-6.584247279450211
 31
0.0
  0
LINE
  5
806
  8
0
  6
CONTINUOUS
 62
     7
 10
29.70728218243148
 20
-6.584247279450211
 30
0.0
 11
29.61196763843148
 21
-6.596706999450212
 31
0.0
  0
LINE
  5
807
  8
0
  6
CONTINUOUS
 62
     7
 10
29.61196763843148
 20
-6.596706999450212
 30
0.0
 11
29.53030735843148
 21
-6.615763751450212
 31
0.0
  0
LINE
  5
808
  8
0
  6
CONTINUOUS
 62
     7
 10
29.53030735843148
 20
-6.615763751450212
 30
0.0
 11
29.46252307043148
 21
-6.640851983450211
 31
0.0
  0
LINE
  5
809
  8
0
  6
CONTINUOUS
 62
     7
 10
29.46252307043148
 20
-6.640851983450211
 30
0.0
 11
29.40883639843148
 21
-6.67140583145021
 31
0.0
  0
LINE
  5
80A
  8
0
  6
CONTINUOUS
 62
     7
 10
29.40883639843148
 20
-6.67140583145021
 30
0.0
 11
29.36943402243148
 21
-6.706829167450212
 31
0.0
  0
LINE
  5
80B
  8
0
  6
CONTINUOUS
 62
     7
 10
29.36943402243148
 20
-6.706829167450212
 30
0.0
 11
29.34448723043148
 21
-6.746543127450211
 31
0.0
  0
LINE
  5
80C
  8
0
  6
CONTINUOUS
 62
     7
 10
29.34448723043148
 20
-6.746543127450211
 30
0.0
 11
29.31668345443148
 21
-6.857828119450212
 31
0.0
  0
LINE
  5
80D
  8
0
  6
CONTINUOUS
 62
     7
 10
29.31668345443148
 20
-6.857828119450212
 30
0.0
 11
29.14686591043148
 21
-7.546646431450212
 31
0.0
  0
LINE
  5
80E
  8
0
  6
CONTINUOUS
 62
     7
 10
29.14686591043148
 20
-7.546646431450212
 30
0.0
 11
28.96106044643147
 21
-8.23132512745021
 31
0.0
  0
LINE
  5
80F
  8
0
  6
CONTINUOUS
 62
     7
 10
28.96106044643147
 20
-8.23132512745021
 30
0.0
 11
28.93136376643147
 21
-8.342120071450212
 31
0.0
  0
LINE
  5
810
  8
0
  6
CONTINUOUS
 62
     7
 10
28.93136376643147
 20
-8.342120071450212
 30
0.0
 11
28.93390261443148
 21
-8.388950647450212
 31
0.0
  0
LINE
  5
811
  8
0
  6
CONTINUOUS
 62
     7
 10
28.93390261443148
 20
-8.388950647450212
 30
0.0
 11
28.95116297443148
 21
-8.439044951450212
 31
0.0
  0
LINE
  5
812
  8
0
  6
CONTINUOUS
 62
     7
 10
28.95116297443148
 20
-8.439044951450212
 30
0.0
 11
28.98327578243148
 21
-8.491813823450212
 31
0.0
  0
LINE
  5
813
  8
0
  6
CONTINUOUS
 62
     7
 10
28.98327578243148
 20
-8.491813823450212
 30
0.0
 11
29.03036739843148
 21
-8.546645431450209
 31
0.0
  0
LINE
  5
814
  8
0
  6
CONTINUOUS
 62
     7
 10
29.03036739843148
 20
-8.546645431450209
 30
0.0
 11
29.09251852643148
 21
-8.602937615450209
 31
0.0
  0
LINE
  5
815
  8
0
  6
CONTINUOUS
 62
     7
 10
29.09251852643148
 20
-8.602937615450209
 30
0.0
 11
29.16980976643148
 21
-8.66008800745021
 31
0.0
  0
LINE
  5
816
  8
0
  6
CONTINUOUS
 62
     7
 10
29.16980976643148
 20
-8.66008800745021
 30
0.0
 11
29.26229436643148
 21
-8.717476767450211
 31
0.0
  0
LINE
  5
817
  8
0
  6
CONTINUOUS
 62
     7
 10
29.26229436643148
 20
-8.717476767450211
 30
0.0
 11
29.59469781443148
 21
-8.888067447450211
 31
0.0
  0
LINE
  5
818
  8
0
  6
CONTINUOUS
 62
     7
 10
29.59469781443148
 20
-8.888067447450211
 30
0.0
 11
29.83946420643148
 21
-9.025449991450209
 31
0.0
  0
LINE
  5
819
  8
0
  6
CONTINUOUS
 62
     7
 10
29.83946420643148
 20
-9.025449991450209
 30
0.0
 11
30.12403909443148
 21
-9.201189503450209
 31
0.0
  0
LINE
  5
81A
  8
0
  6
CONTINUOUS
 62
     7
 10
30.12403909443148
 20
-9.201189503450209
 30
0.0
 11
30.44441400643148
 21
-9.41802971145021
 31
0.0
  0
LINE
  5
81B
  8
0
  6
CONTINUOUS
 62
     7
 10
30.44441400643148
 20
-9.41802971145021
 30
0.0
 11
30.79858808643148
 21
-9.67996442345021
 31
0.0
  0
LINE
  5
81C
  8
0
  6
CONTINUOUS
 62
     7
 10
30.79858808643148
 20
-9.67996442345021
 30
0.0
 11
31.18369135043148
 21
-9.990526415450208
 31
0.0
  0
LINE
  5
81D
  8
0
  6
CONTINUOUS
 62
     7
 10
31.18369135043148
 20
-9.990526415450208
 30
0.0
 11
31.59454231043147
 21
-10.35126383145021
 31
0.0
  0
LINE
  5
81E
  8
0
  6
CONTINUOUS
 62
     7
 10
31.59454231043147
 20
-10.35126383145021
 30
0.0
 11
32.02943141443148
 21
-10.76662204745021
 31
0.0
  0
LINE
  5
81F
  8
0
  6
CONTINUOUS
 62
     7
 10
32.02943141443148
 20
-10.76662204745021
 30
0.0
 11
32.44285488730681
 21
-11.1947475265738
 31
0.0
  0
LINE
  5
820
  8
0
  6
CONTINUOUS
 62
     7
 10
31.90823010218045
 20
-12.63827739372366
 30
0.0
 11
31.31567265443148
 21
-12.69382826345021
 31
0.0
  0
LINE
  5
821
  8
0
  6
CONTINUOUS
 62
     7
 10
31.31567265443148
 20
-12.69382826345021
 30
0.0
 11
30.71514399843148
 21
-12.72570998345021
 31
0.0
  0
LINE
  5
822
  8
0
  6
CONTINUOUS
 62
     7
 10
30.71514399843148
 20
-12.72570998345021
 30
0.0
 11
30.16843305443148
 21
-12.73180542345021
 31
0.0
  0
LINE
  5
823
  8
0
  6
CONTINUOUS
 62
     7
 10
30.16843305443148
 20
-12.73180542345021
 30
0.0
 11
29.67394134243148
 21
-12.71660114345021
 31
0.0
  0
LINE
  5
824
  8
0
  6
CONTINUOUS
 62
     7
 10
29.67394134243148
 20
-12.71660114345021
 30
0.0
 11
29.23459178243148
 21
-12.68464703945021
 31
0.0
  0
LINE
  5
825
  8
0
  6
CONTINUOUS
 62
     7
 10
29.23459178243148
 20
-12.68464703945021
 30
0.0
 11
28.85026103043148
 21
-12.64049279945021
 31
0.0
  0
LINE
  5
826
  8
0
  6
CONTINUOUS
 62
     7
 10
28.85026103043148
 20
-12.64049279945021
 30
0.0
 11
28.51986561443148
 21
-12.58847231145021
 31
0.0
  0
LINE
  5
827
  8
0
  6
CONTINUOUS
 62
     7
 10
28.51986561443148
 20
-12.58847231145021
 30
0.0
 11
28.24465987843148
 21
-12.53327836745021
 31
0.0
  0
LINE
  5
828
  8
0
  6
CONTINUOUS
 62
     7
 10
28.24465987843148
 20
-12.53327836745021
 30
0.0
 11
27.88132797443148
 21
-12.44619698345021
 31
0.0
  0
LINE
  5
829
  8
0
  6
CONTINUOUS
 62
     7
 10
27.88132797443148
 20
-12.44619698345021
 30
0.0
 11
27.77377315043148
 21
-12.42949926345021
 31
0.0
  0
LINE
  5
82A
  8
0
  6
CONTINUOUS
 62
     7
 10
27.77377315043148
 20
-12.42949926345021
 30
0.0
 11
27.67790158243148
 21
-12.42251722345021
 31
0.0
  0
LINE
  5
82B
  8
0
  6
CONTINUOUS
 62
     7
 10
27.67790158243148
 20
-12.42251722345021
 30
0.0
 11
27.59407675043148
 21
-12.42474583945021
 31
0.0
  0
LINE
  5
82C
  8
0
  6
CONTINUOUS
 62
     7
 10
27.59407675043148
 20
-12.42474583945021
 30
0.0
 11
27.52262979043148
 21
-12.43567561545021
 31
0.0
  0
LINE
  5
82D
  8
0
  6
CONTINUOUS
 62
     7
 10
27.52262979043148
 20
-12.43567561545021
 30
0.0
 11
27.46389173443147
 21
-12.45479695145021
 31
0.0
  0
LINE
  5
82E
  8
0
  6
CONTINUOUS
 62
     7
 10
27.46389173443147
 20
-12.45479695145021
 30
0.0
 11
27.41816522243148
 21
-12.48156353545021
 31
0.0
  0
LINE
  5
82F
  8
0
  6
CONTINUOUS
 62
     7
 10
27.41816522243148
 20
-12.48156353545021
 30
0.0
 11
27.38573469443148
 21
-12.51544288745021
 31
0.0
  0
LINE
  5
830
  8
0
  6
CONTINUOUS
 62
     7
 10
27.38573469443148
 20
-12.51544288745021
 30
0.0
 11
27.33609851043148
 21
-12.61885299945021
 31
0.0
  0
LINE
  5
831
  8
0
  6
CONTINUOUS
 62
     7
 10
27.33609851043148
 20
-12.61885299945021
 30
0.0
 11
27.03109906243148
 21
-13.25938712745021
 31
0.0
  0
LINE
  5
832
  8
0
  6
CONTINUOUS
 62
     7
 10
27.03109906243148
 20
-13.25938712745021
 30
0.0
 11
26.71127223043148
 21
-13.89264801545021
 31
0.0
  0
LINE
  5
833
  8
0
  6
CONTINUOUS
 62
     7
 10
26.71127223043148
 20
-13.89264801545021
 30
0.0
 11
26.65988063043147
 21
-13.99519711145021
 31
0.0
  0
LINE
  5
834
  8
0
  6
CONTINUOUS
 62
     7
 10
26.65988063043147
 20
-13.99519711145021
 30
0.0
 11
26.65294060643148
 21
-14.04158007145021
 31
0.0
  0
LINE
  5
835
  8
0
  6
CONTINUOUS
 62
     7
 10
26.65294060643148
 20
-14.04158007145021
 30
0.0
 11
26.65976373443148
 21
-14.09412347145021
 31
0.0
  0
LINE
  5
836
  8
0
  6
CONTINUOUS
 62
     7
 10
26.65976373443148
 20
-14.09412347145021
 30
0.0
 11
26.68059691043148
 21
-14.15227642345021
 31
0.0
  0
LINE
  5
837
  8
0
  6
CONTINUOUS
 62
     7
 10
26.68059691043148
 20
-14.15227642345021
 30
0.0
 11
26.71568703043148
 21
-14.21546515945021
 31
0.0
  0
LINE
  5
838
  8
0
  6
CONTINUOUS
 62
     7
 10
26.71568703043148
 20
-14.21546515945021
 30
0.0
 11
26.76523439843148
 21
-14.28311591145022
 31
0.0
  0
LINE
  5
839
  8
0
  6
CONTINUOUS
 62
     7
 10
26.76523439843148
 20
-14.28311591145022
 30
0.0
 11
26.82943911043148
 21
-14.35465511945021
 31
0.0
  0
LINE
  5
83A
  8
0
  6
CONTINUOUS
 62
     7
 10
26.82943911043148
 20
-14.35465511945021
 30
0.0
 11
26.90847827843147
 21
-14.42948603145021
 31
0.0
  0
LINE
  5
83B
  8
0
  6
CONTINUOUS
 62
     7
 10
26.90847827843147
 20
-14.42948603145021
 30
0.0
 11
27.19973776643148
 21
-14.66349705545021
 31
0.0
  0
LINE
  5
83C
  8
0
  6
CONTINUOUS
 62
     7
 10
27.19973776643148
 20
-14.66349705545021
 30
0.0
 11
27.41183890243148
 21
-14.84733847945021
 31
0.0
  0
LINE
  5
83D
  8
0
  6
CONTINUOUS
 62
     7
 10
27.41183890243148
 20
-14.84733847945021
 30
0.0
 11
27.65521242243148
 21
-15.07676518345021
 31
0.0
  0
LINE
  5
83E
  8
0
  6
CONTINUOUS
 62
     7
 10
27.65521242243148
 20
-15.07676518345021
 30
0.0
 11
27.92537967043148
 21
-15.35365759145021
 31
0.0
  0
LINE
  5
83F
  8
0
  6
CONTINUOUS
 62
     7
 10
27.92537967043148
 20
-15.35365759145021
 30
0.0
 11
28.21957663843148
 21
-15.68152518345021
 31
0.0
  0
LINE
  5
840
  8
0
  6
CONTINUOUS
 62
     7
 10
28.21957663843148
 20
-15.68152518345021
 30
0.0
 11
28.53428115843148
 21
-16.06325063145021
 31
0.0
  0
LINE
  5
841
  8
0
  6
CONTINUOUS
 62
     7
 10
28.53428115843148
 20
-16.06325063145021
 30
0.0
 11
28.86410613443148
 21
-16.49930744745021
 31
0.0
  0
LINE
  5
842
  8
0
  6
CONTINUOUS
 62
     7
 10
28.86410613443148
 20
-16.49930744745021
 30
0.0
 11
29.20648203843147
 21
-16.99370587145022
 31
0.0
  0
LINE
  5
843
  8
0
  6
CONTINUOUS
 62
     7
 10
29.20648203843147
 20
-16.99370587145022
 30
0.0
 11
29.52526168935845
 21
-17.49628898304316
 31
0.0
  0
LINE
  5
844
  8
0
  6
CONTINUOUS
 62
     7
 10
28.71100023820674
 20
-18.80265056654846
 30
0.0
 11
28.11939011043148
 21
-18.73778347945021
 31
0.0
  0
LINE
  5
845
  8
0
  6
CONTINUOUS
 62
     7
 10
28.11939011043148
 20
-18.73778347945021
 30
0.0
 11
27.52473662243148
 21
-18.64812695145022
 31
0.0
  0
LINE
  5
846
  8
0
  6
CONTINUOUS
 62
     7
 10
27.52473662243148
 20
-18.64812695145022
 30
0.0
 11
26.98798991843148
 21
-18.54404551945021
 31
0.0
  0
LINE
  5
847
  8
0
  6
CONTINUOUS
 62
     7
 10
26.98798991843148
 20
-18.54404551945021
 30
0.0
 11
26.50668103843148
 21
-18.42961203145021
 31
0.0
  0
LINE
  5
848
  8
0
  6
CONTINUOUS
 62
     7
 10
26.50668103843148
 20
-18.42961203145021
 30
0.0
 11
26.08275738243148
 21
-18.30987163145021
 31
0.0
  0
LINE
  5
849
  8
0
  6
CONTINUOUS
 62
     7
 10
26.08275738243148
 20
-18.30987163145021
 30
0.0
 11
25.71518196643148
 21
-18.18925596745021
 31
0.0
  0
LINE
  5
84A
  8
0
  6
CONTINUOUS
 62
     7
 10
25.71518196643148
 20
-18.18925596745021
 30
0.0
 11
25.40202143043148
 21
-18.07179233545021
 31
0.0
  0
LINE
  5
84B
  8
0
  6
CONTINUOUS
 62
     7
 10
25.40202143043148
 20
-18.07179233545021
 30
0.0
 11
25.14355969443148
 21
-17.96232973545021
 31
0.0
  0
LINE
  5
84C
  8
0
  6
CONTINUOUS
 62
     7
 10
25.14355969443148
 20
-17.96232973545021
 30
0.0
 11
24.80519455043148
 21
-17.80389270345021
 31
0.0
  0
LINE
  5
84D
  8
0
  6
CONTINUOUS
 62
     7
 10
24.80519455043148
 20
-17.80389270345021
 30
0.0
 11
24.70320258243148
 21
-17.76588611145021
 31
0.0
  0
LINE
  5
84E
  8
0
  6
CONTINUOUS
 62
     7
 10
24.70320258243148
 20
-17.76588611145021
 30
0.0
 11
24.61069895043148
 21
-17.73974820745021
 31
0.0
  0
LINE
  5
84F
  8
0
  6
CONTINUOUS
 62
     7
 10
24.61069895043148
 20
-17.73974820745021
 30
0.0
 11
24.52814146243148
 21
-17.72505737545021
 31
0.0
  0
LINE
  5
850
  8
0
  6
CONTINUOUS
 62
     7
 10
24.52814146243148
 20
-17.72505737545021
 30
0.0
 11
24.45595693443148
 21
-17.72138128745021
 31
0.0
  0
LINE
  5
851
  8
0
  6
CONTINUOUS
 62
     7
 10
24.45595693443148
 20
-17.72138128745021
 30
0.0
 11
24.39457207843148
 21
-17.72828730345021
 31
0.0
  0
LINE
  5
852
  8
0
  6
CONTINUOUS
 62
     7
 10
24.39457207843148
 20
-17.72828730345021
 30
0.0
 11
24.34439353443148
 21
-17.74530128745021
 31
0.0
  0
LINE
  5
853
  8
0
  6
CONTINUOUS
 62
     7
 10
24.34439353443148
 20
-17.74530128745021
 30
0.0
 11
24.30580703843147
 21
-17.77195887945021
 31
0.0
  0
LINE
  5
854
  8
0
  6
CONTINUOUS
 62
     7
 10
24.30580703843147
 20
-17.77195887945021
 30
0.0
 11
24.23637050243148
 21
-17.86326047945021
 31
0.0
  0
LINE
  5
855
  8
0
  6
CONTINUOUS
 62
     7
 10
24.23637050243148
 20
-17.86326047945021
 30
0.0
 11
23.80867591043148
 21
-18.42928692745021
 31
0.0
  0
LINE
  5
856
  8
0
  6
CONTINUOUS
 62
     7
 10
23.80867591043148
 20
-18.42928692745021
 30
0.0
 11
23.36792141443148
 21
-18.98520426345021
 31
0.0
  0
LINE
  5
857
  8
0
  6
CONTINUOUS
 62
     7
 10
23.36792141443148
 20
-18.98520426345021
 30
0.0
 11
23.29693881443148
 21
-19.07530913545021
 31
0.0
  0
LINE
  5
858
  8
0
  6
CONTINUOUS
 62
     7
 10
23.29693881443148
 20
-19.07530913545021
 30
0.0
 11
23.28080404643148
 21
-19.11934564745021
 31
0.0
  0
LINE
  5
859
  8
0
  6
CONTINUOUS
 62
     7
 10
23.28080404643148
 20
-19.11934564745021
 30
0.0
 11
23.27691059843147
 21
-19.17218690345021
 31
0.0
  0
LINE
  5
85A
  8
0
  6
CONTINUOUS
 62
     7
 10
23.27691059843147
 20
-19.17218690345021
 30
0.0
 11
23.28561123843148
 21
-19.23334316745022
 31
0.0
  0
LINE
  5
85B
  8
0
  6
CONTINUOUS
 62
     7
 10
23.28561123843148
 20
-19.23334316745022
 30
0.0
 11
23.30726331043148
 21
-19.30230203145021
 31
0.0
  0
LINE
  5
85C
  8
0
  6
CONTINUOUS
 62
     7
 10
23.30726331043148
 20
-19.30230203145021
 30
0.0
 11
23.34217839843148
 21
-19.37854172745021
 31
0.0
  0
LINE
  5
85D
  8
0
  6
CONTINUOUS
 62
     7
 10
23.34217839843148
 20
-19.37854172745021
 30
0.0
 11
23.39066808643148
 21
-19.46154079945021
 31
0.0
  0
LINE
  5
85E
  8
0
  6
CONTINUOUS
 62
     7
 10
23.39066808643148
 20
-19.46154079945021
 30
0.0
 11
23.45302596643148
 21
-19.55075043945022
 31
0.0
  0
LINE
  5
85F
  8
0
  6
CONTINUOUS
 62
     7
 10
23.45302596643148
 20
-19.55075043945022
 30
0.0
 11
23.69121727043148
 21
-19.83860143145022
 31
0.0
  0
LINE
  5
860
  8
0
  6
CONTINUOUS
 62
     7
 10
23.69121727043148
 20
-19.83860143145022
 30
0.0
 11
23.86196967043147
 21
-20.06137525545021
 31
0.0
  0
LINE
  5
861
  8
0
  6
CONTINUOUS
 62
     7
 10
23.86196967043147
 20
-20.06137525545021
 30
0.0
 11
24.05417799843148
 21
-20.33509618345022
 31
0.0
  0
LINE
  5
862
  8
0
  6
CONTINUOUS
 62
     7
 10
24.05417799843148
 20
-20.33509618345022
 30
0.0
 11
24.26307697443148
 21
-20.66070489545021
 31
0.0
  0
LINE
  5
863
  8
0
  6
CONTINUOUS
 62
     7
 10
24.26307697443148
 20
-20.66070489545021
 30
0.0
 11
24.48525248643148
 21
-21.04108250345021
 31
0.0
  0
LINE
  5
864
  8
0
  6
CONTINUOUS
 62
     7
 10
24.48525248643148
 20
-21.04108250345021
 30
0.0
 11
24.71667422243148
 21
-21.47834353545021
 31
0.0
  0
LINE
  5
865
  8
0
  6
CONTINUOUS
 62
     7
 10
24.71667422243148
 20
-21.47834353545021
 30
0.0
 11
24.95196995843148
 21
-21.97186752745021
 31
0.0
  0
LINE
  5
866
  8
0
  6
CONTINUOUS
 62
     7
 10
24.95196995843148
 20
-21.97186752745021
 30
0.0
 11
25.18781575043148
 21
-22.52506526345021
 31
0.0
  0
LINE
  5
867
  8
0
  6
CONTINUOUS
 62
     7
 10
25.18781575043148
 20
-22.52506526345021
 30
0.0
 11
25.39890074189999
 21
-23.08153048591838
 31
0.0
  0
LINE
  5
868
  8
0
  6
CONTINUOUS
 62
     7
 10
24.33833868192263
 20
-24.19724112831378
 30
0.0
 11
23.77189651843148
 21
-24.01461150345022
 31
0.0
  0
LINE
  5
869
  8
0
  6
CONTINUOUS
 62
     7
 10
23.77189651843148
 20
-24.01461150345022
 30
0.0
 11
23.20746335043148
 21
-23.80708751145021
 31
0.0
  0
LINE
  5
86A
  8
0
  6
CONTINUOUS
 62
     7
 10
23.20746335043148
 20
-23.80708751145021
 30
0.0
 11
22.70265525443148
 21
-23.59709029545022
 31
0.0
  0
LINE
  5
86B
  8
0
  6
CONTINUOUS
 62
     7
 10
22.70265525443148
 20
-23.59709029545022
 30
0.0
 11
22.25423408643148
 21
-23.38811248745021
 31
0.0
  0
LINE
  5
86C
  8
0
  6
CONTINUOUS
 62
     7
 10
22.25423408643148
 20
-23.38811248745021
 30
0.0
 11
21.86309175043148
 21
-23.18548793545021
 31
0.0
  0
LINE
  5
86D
  8
0
  6
CONTINUOUS
 62
     7
 10
21.86309175043148
 20
-23.18548793545021
 30
0.0
 11
21.52732036643148
 21
-22.99334897545021
 31
0.0
  0
LINE
  5
86E
  8
0
  6
CONTINUOUS
 62
     7
 10
21.52732036643148
 20
-22.99334897545021
 30
0.0
 11
21.24421551843147
 21
-22.81525095145021
 31
0.0
  0
LINE
  5
86F
  8
0
  6
CONTINUOUS
 62
     7
 10
21.24421551843147
 20
-22.81525095145021
 30
0.0
 11
21.01307915843148
 21
-22.65600105545021
 31
0.0
  0
LINE
  5
870
  8
0
  6
CONTINUOUS
 62
     7
 10
21.01307915843148
 20
-22.65600105545021
 30
0.0
 11
20.71353347043148
 21
-22.43269485545022
 31
0.0
  0
LINE
  5
871
  8
0
  6
CONTINUOUS
 62
     7
 10
20.71353347043148
 20
-22.43269485545022
 30
0.0
 11
20.62127995843148
 21
-22.37493554345021
 31
0.0
  0
LINE
  5
872
  8
0
  6
CONTINUOUS
 62
     7
 10
20.62127995843148
 20
-22.37493554345021
 30
0.0
 11
20.53593142243148
 21
-22.33071183145021
 31
0.0
  0
LINE
  5
873
  8
0
  6
CONTINUOUS
 62
     7
 10
20.53593142243148
 20
-22.33071183145021
 30
0.0
 11
20.45802117443148
 21
-22.29970298345021
 31
0.0
  0
LINE
  5
874
  8
0
  6
CONTINUOUS
 62
     7
 10
20.45802117443148
 20
-22.29970298345021
 30
0.0
 11
20.38805423843148
 21
-22.28157141545021
 31
0.0
  0
LINE
  5
875
  8
0
  6
CONTINUOUS
 62
     7
 10
20.38805423843148
 20
-22.28157141545021
 30
0.0
 11
20.32653574243148
 21
-22.27597943945021
 31
0.0
  0
LINE
  5
876
  8
0
  6
CONTINUOUS
 62
     7
 10
20.32653574243148
 20
-22.27597943945021
 30
0.0
 11
20.27395947843148
 21
-22.28254433545021
 31
0.0
  0
LINE
  5
877
  8
0
  6
CONTINUOUS
 62
     7
 10
20.27395947843148
 20
-22.28254433545021
 30
0.0
 11
20.23079667043148
 21
-22.30088879145021
 31
0.0
  0
LINE
  5
878
  8
0
  6
CONTINUOUS
 62
     7
 10
20.23079667043148
 20
-22.30088879145021
 30
0.0
 11
20.14440272643148
 21
-22.37634401545021
 31
0.0
  0
LINE
  5
879
  8
0
  6
CONTINUOUS
 62
     7
 10
20.14440272643148
 20
-22.37634401545021
 30
0.0
 11
19.61152274243148
 21
-22.84468960745021
 31
0.0
  0
LINE
  5
87A
  8
0
  6
CONTINUOUS
 62
     7
 10
19.61152274243148
 20
-22.84468960745021
 30
0.0
 11
19.06788520643148
 21
-23.30050403145021
 31
0.0
  0
LINE
  5
87B
  8
0
  6
CONTINUOUS
 62
     7
 10
19.06788520643148
 20
-23.30050403145021
 30
0.0
 11
18.98021767843148
 21
-23.37447569545022
 31
0.0
  0
LINE
  5
87C
  8
0
  6
CONTINUOUS
 62
     7
 10
18.98021767843148
 20
-23.37447569545022
 30
0.0
 11
18.95554867043148
 21
-23.41436291945021
 31
0.0
  0
LINE
  5
87D
  8
0
  6
CONTINUOUS
 62
     7
 10
18.95554867043148
 20
-23.41436291945021
 30
0.0
 11
18.94109797443148
 21
-23.46533872745021
 31
0.0
  0
LINE
  5
87E
  8
0
  6
CONTINUOUS
 62
     7
 10
18.94109797443148
 20
-23.46533872745021
 30
0.0
 11
18.93730987843148
 21
-23.52699460745021
 31
0.0
  0
LINE
  5
87F
  8
0
  6
CONTINUOUS
 62
     7
 10
18.93730987843148
 20
-23.52699460745021
 30
0.0
 11
18.94463740643148
 21
-23.59890031145021
 31
0.0
  0
LINE
  5
880
  8
0
  6
CONTINUOUS
 62
     7
 10
18.94463740643148
 20
-23.59890031145021
 30
0.0
 11
18.96349083843148
 21
-23.68060780745022
 31
0.0
  0
LINE
  5
881
  8
0
  6
CONTINUOUS
 62
     7
 10
18.96349083843148
 20
-23.68060780745022
 30
0.0
 11
18.99428045443148
 21
-23.77166885545021
 31
0.0
  0
LINE
  5
882
  8
0
  6
CONTINUOUS
 62
     7
 10
18.99428045443148
 20
-23.77166885545021
 30
0.0
 11
19.03740405443148
 21
-23.87160484745021
 31
0.0
  0
LINE
  5
883
  8
0
  6
CONTINUOUS
 62
     7
 10
19.03740405443148
 20
-23.87160484745021
 30
0.0
 11
19.21277561443148
 21
-24.20151104745021
 31
0.0
  0
LINE
  5
884
  8
0
  6
CONTINUOUS
 62
     7
 10
19.21277561443148
 20
-24.20151104745021
 30
0.0
 11
19.33518860643148
 21
-24.45409688745021
 31
0.0
  0
LINE
  5
885
  8
0
  6
CONTINUOUS
 62
     7
 10
19.33518860643148
 20
-24.45409688745021
 30
0.0
 11
19.46836279043148
 21
-24.76090603945021
 31
0.0
  0
LINE
  5
886
  8
0
  6
CONTINUOUS
 62
     7
 10
19.46836279043148
 20
-24.76090603945021
 30
0.0
 11
19.60744095043148
 21
-25.12190054345021
 31
0.0
  0
LINE
  5
887
  8
0
  6
CONTINUOUS
 62
     7
 10
19.60744095043148
 20
-25.12190054345021
 30
0.0
 11
19.74849916643148
 21
-25.53921531145021
 31
0.0
  0
LINE
  5
888
  8
0
  6
CONTINUOUS
 62
     7
 10
19.74849916643148
 20
-25.53921531145021
 30
0.0
 11
19.88716361443148
 21
-26.01411051145021
 31
0.0
  0
LINE
  5
889
  8
0
  6
CONTINUOUS
 62
     7
 10
19.88716361443148
 20
-26.01411051145021
 30
0.0
 11
20.01829731843148
 21
-26.54489666345021
 31
0.0
  0
LINE
  5
88A
  8
0
  6
CONTINUOUS
 62
     7
 10
20.01829731843148
 20
-26.54489666345021
 30
0.0
 11
20.13795743043148
 21
-27.13424594345021
 31
0.0
  0
LINE
  5
88B
  8
0
  6
CONTINUOUS
 62
     7
 10
20.13795743043148
 20
-27.13424594345021
 30
0.0
 11
20.23270592475693
 21
-27.72181132526951
 31
0.0
  0
LINE
  5
88C
  8
0
  6
CONTINUOUS
 62
     7
 10
18.96926264420544
 20
-28.60119371923776
 30
0.0
 11
18.45117862243148
 21
-28.30827864745022
 31
0.0
  0
LINE
  5
88D
  8
0
  6
CONTINUOUS
 62
     7
 10
18.45117862243148
 20
-28.30827864745022
 30
0.0
 11
17.94007363843147
 21
-27.99138305545021
 31
0.0
  0
LINE
  5
88E
  8
0
  6
CONTINUOUS
 62
     7
 10
17.94007363843147
 20
-27.99138305545021
 30
0.0
 11
17.48787123843147
 21
-27.68406731945021
 31
0.0
  0
LINE
  5
88F
  8
0
  6
CONTINUOUS
 62
     7
 10
17.48787123843147
 20
-27.68406731945021
 30
0.0
 11
17.09069617443147
 21
-27.38910075145021
 31
0.0
  0
LINE
  5
890
  8
0
  6
CONTINUOUS
 62
     7
 10
17.09069617443147
 20
-27.38910075145021
 30
0.0
 11
16.74834855843148
 21
-27.11188760745021
 31
0.0
  0
LINE
  5
891
  8
0
  6
CONTINUOUS
 62
     7
 10
16.74834855843148
 20
-27.11188760745021
 30
0.0
 11
16.45812771843148
 21
-26.85609149545022
 31
0.0
  0
LINE
  5
892
  8
0
  6
CONTINUOUS
 62
     7
 10
16.45812771843148
 20
-26.85609149545022
 30
0.0
 11
16.21666894243148
 21
-26.62465062345021
 31
0.0
  0
LINE
  5
893
  8
0
  6
CONTINUOUS
 62
     7
 10
16.21666894243148
 20
-26.62465062345021
 30
0.0
 11
16.02232071043148
 21
-26.42213319145021
 31
0.0
  0
LINE
  5
894
  8
0
  6
CONTINUOUS
 62
     7
 10
16.02232071043148
 20
-26.42213319145021
 30
0.0
 11
15.77385795043148
 21
-26.14309994345021
 31
0.0
  0
LINE
  5
895
  8
0
  6
CONTINUOUS
 62
     7
 10
15.77385795043148
 20
-26.14309994345021
 30
0.0
 11
15.69511975843148
 21
-26.06795235145021
 31
0.0
  0
LINE
  5
896
  8
0
  6
CONTINUOUS
 62
     7
 10
15.69511975843148
 20
-26.06795235145021
 30
0.0
 11
15.62042051043148
 21
-26.00745336745021
 31
0.0
  0
LINE
  5
897
  8
0
  6
CONTINUOUS
 62
     7
 10
15.62042051043148
 20
-26.00745336745021
 30
0.0
 11
15.55034707843148
 21
-25.96139613545022
 31
0.0
  0
LINE
  5
898
  8
0
  6
CONTINUOUS
 62
     7
 10
15.55034707843148
 20
-25.96139613545022
 30
0.0
 11
15.48546220643148
 21
-25.92955154345021
 31
0.0
  0
LINE
  5
899
  8
0
  6
CONTINUOUS
 62
     7
 10
15.48546220643148
 20
-25.92955154345021
 30
0.0
 11
15.42632863843148
 21
-25.91169047945021
 31
0.0
  0
LINE
  5
89A
  8
0
  6
CONTINUOUS
 62
     7
 10
15.42632863843148
 20
-25.91169047945021
 30
0.0
 11
15.37350714243148
 21
-25.90753734345022
 31
0.0
  0
LINE
  5
89B
  8
0
  6
CONTINUOUS
 62
     7
 10
15.37350714243148
 20
-25.90753734345022
 30
0.0
 11
15.32753519043148
 21
-25.91681778345021
 31
0.0
  0
LINE
  5
89C
  8
0
  6
CONTINUOUS
 62
     7
 10
15.32753519043148
 20
-25.91681778345021
 30
0.0
 11
15.22772067043148
 21
-25.97333741545021
 31
0.0
  0
LINE
  5
89D
  8
0
  6
CONTINUOUS
 62
     7
 10
15.22772067043148
 20
-25.97333741545021
 30
0.0
 11
14.61147147843148
 21
-26.32482787945021
 31
0.0
  0
LINE
  5
89E
  8
0
  6
CONTINUOUS
 62
     7
 10
14.61147147843148
 20
-26.32482787945021
 30
0.0
 11
13.98720742243148
 21
-26.66187835945021
 31
0.0
  0
LINE
  5
89F
  8
0
  6
CONTINUOUS
 62
     7
 10
13.98720742243148
 20
-26.66187835945021
 30
0.0
 11
13.88644411043148
 21
-26.71668854345021
 31
0.0
  0
LINE
  5
8A0
  8
0
  6
CONTINUOUS
 62
     7
 10
13.88644411043148
 20
-26.71668854345021
 30
0.0
 11
13.85425080643148
 21
-26.75079336745021
 31
0.0
  0
LINE
  5
8A1
  8
0
  6
CONTINUOUS
 62
     7
 10
13.85425080643148
 20
-26.75079336745021
 30
0.0
 11
13.82983462243148
 21
-26.79781686345021
 31
0.0
  0
LINE
  5
8A2
  8
0
  6
CONTINUOUS
 62
     7
 10
13.82983462243148
 20
-26.79781686345021
 30
0.0
 11
13.81371285443148
 21
-26.85744807145022
 31
0.0
  0
LINE
  5
8A3
  8
0
  6
CONTINUOUS
 62
     7
 10
13.81371285443148
 20
-26.85744807145022
 30
0.0
 11
13.80641579843148
 21
-26.92935689545021
 31
0.0
  0
LINE
  5
8A4
  8
0
  6
CONTINUOUS
 62
     7
 10
13.80641579843148
 20
-26.92935689545021
 30
0.0
 11
13.80843579043148
 21
-27.01318703145021
 31
0.0
  0
LINE
  5
8A5
  8
0
  6
CONTINUOUS
 62
     7
 10
13.80843579043148
 20
-27.01318703145021
 30
0.0
 11
13.82026464643148
 21
-27.10858186345022
 31
0.0
  0
LINE
  5
8A6
  8
0
  6
CONTINUOUS
 62
     7
 10
13.82026464643148
 20
-27.10858186345022
 30
0.0
 11
13.84238846243148
 21
-27.21515295145022
 31
0.0
  0
LINE
  5
8A7
  8
0
  6
CONTINUOUS
 62
     7
 10
13.84238846243148
 20
-27.21515295145022
 30
0.0
 11
13.94776053443148
 21
-27.57360798345021
 31
0.0
  0
LINE
  5
8A8
  8
0
  6
CONTINUOUS
 62
     7
 10
13.94776053443148
 20
-27.57360798345021
 30
0.0
 11
14.01682267043148
 21
-27.84566491145021
 31
0.0
  0
LINE
  5
8A9
  8
0
  6
CONTINUOUS
 62
     7
 10
14.01682267043148
 20
-27.84566491145021
 30
0.0
 11
14.08551061443148
 21
-28.17300147945021
 31
0.0
  0
LINE
  5
8AA
  8
0
  6
CONTINUOUS
 62
     7
 10
14.08551061443148
 20
-28.17300147945021
 30
0.0
 11
14.14907416643148
 21
-28.55460264745021
 31
0.0
  0
LINE
  5
8AB
  8
0
  6
CONTINUOUS
 62
     7
 10
14.14907416643148
 20
-28.55460264745021
 30
0.0
 11
14.20323996643148
 21
-28.99176976745021
 31
0.0
  0
LINE
  5
8AC
  8
0
  6
CONTINUOUS
 62
     7
 10
14.20323996643148
 20
-28.99176976745021
 30
0.0
 11
14.24347028643148
 21
-29.48485675145022
 31
0.0
  0
LINE
  5
8AD
  8
0
  6
CONTINUOUS
 62
     7
 10
14.24347028643148
 20
-29.48485675145022
 30
0.0
 11
14.26507316643148
 21
-30.03117478345021
 31
0.0
  0
LINE
  5
8AE
  8
0
  6
CONTINUOUS
 62
     7
 10
14.26507316643148
 20
-30.03117478345021
 30
0.0
 11
14.26364867843148
 21
-30.63254729545021
 31
0.0
  0
LINE
  5
8AF
  8
0
  6
CONTINUOUS
 62
     7
 10
14.26364867843148
 20
-30.63254729545021
 30
0.0
 11
14.23818157591181
 21
-31.22715792734216
 31
0.0
  0
LINE
  5
8B0
  8
0
  6
CONTINUOUS
 62
     7
 10
12.82358272322828
 20
-31.83421009265628
 30
0.0
 11
12.37506733443148
 21
-31.44300140745021
 31
0.0
  0
LINE
  5
8B1
  8
0
  6
CONTINUOUS
 62
     7
 10
12.37506733443148
 20
-31.44300140745021
 30
0.0
 11
11.93821533443148
 21
-31.02970800745021
 31
0.0
  0
LINE
  5
8B2
  8
0
  6
CONTINUOUS
 62
     7
 10
11.93821533443148
 20
-31.02970800745021
 30
0.0
 11
11.55713167043148
 21
-30.63765546345021
 31
0.0
  0
LINE
  5
8B3
  8
0
  6
CONTINUOUS
 62
     7
 10
11.55713167043148
 20
-30.63765546345021
 30
0.0
 11
11.22746321443148
 21
-30.26877609545021
 31
0.0
  0
LINE
  5
8B4
  8
0
  6
CONTINUOUS
 62
     7
 10
11.22746321443148
 20
-30.26877609545021
 30
0.0
 11
10.94792598243148
 21
-29.92832346345021
 31
0.0
  0
LINE
  5
8B5
  8
0
  6
CONTINUOUS
 62
     7
 10
10.94792598243148
 20
-29.92832346345021
 30
0.0
 11
10.71513747843148
 21
-29.61934247945021
 31
0.0
  0
LINE
  5
8B6
  8
0
  6
CONTINUOUS
 62
     7
 10
10.71513747843148
 20
-29.61934247945021
 30
0.0
 11
10.52520997443148
 21
-29.34403388745021
 31
0.0
  0
LINE
  5
8B7
  8
0
  6
CONTINUOUS
 62
     7
 10
10.52520997443148
 20
-29.34403388745021
 30
0.0
 11
10.37560659843148
 21
-29.10654000745021
 31
0.0
  0
LINE
  5
8B8
  8
0
  6
CONTINUOUS
 62
     7
 10
10.37560659843148
 20
-29.10654000745021
 30
0.0
 11
10.18839879843148
 21
-28.78320338345022
 31
0.0
  0
LINE
  5
8B9
  8
0
  6
CONTINUOUS
 62
     7
 10
10.18839879843148
 20
-28.78320338345022
 30
0.0
 11
10.12639951043148
 21
-28.69374424745021
 31
0.0
  0
LINE
  5
8BA
  8
0
  6
CONTINUOUS
 62
     7
 10
10.12639951043148
 20
-28.69374424745021
 30
0.0
 11
10.06540767043148
 21
-28.61944685545021
 31
0.0
  0
LINE
  5
8BB
  8
0
  6
CONTINUOUS
 62
     7
 10
10.06540767043148
 20
-28.61944685545021
 30
0.0
 11
10.00603989443148
 21
-28.56022665545021
 31
0.0
  0
LINE
  5
8BC
  8
0
  6
CONTINUOUS
 62
     7
 10
10.00603989443148
 20
-28.56022665545021
 30
0.0
 11
9.948893454431477
 21
-28.51597267945021
 31
0.0
  0
LINE
  5
8BD
  8
0
  6
CONTINUOUS
 62
     7
 10
9.948893454431477
 20
-28.51597267945021
 30
0.0
 11
9.894565830431477
 21
-28.48657375145021
 31
0.0
  0
LINE
  5
8BE
  8
0
  6
CONTINUOUS
 62
     7
 10
9.894565830431477
 20
-28.48657375145021
 30
0.0
 11
9.843661574431477
 21
-28.47187283145021
 31
0.0
  0
LINE
  5
8BF
  8
0
  6
CONTINUOUS
 62
     7
 10
9.843661574431477
 20
-28.47187283145021
 30
0.0
 11
9.796762566431477
 21
-28.47170913545022
 31
0.0
  0
LINE
  5
8C0
  8
0
  6
CONTINUOUS
 62
     7
 10
9.796762566431477
 20
-28.47170913545022
 30
0.0
 11
9.687613942431478
 21
-28.50697927945021
 31
0.0
  0
LINE
  5
8C1
  8
0
  6
CONTINUOUS
 62
     7
 10
9.687613942431478
 20
-28.50697927945021
 30
0.0
 11
9.013224902431476
 21
-28.72722475945021
 31
0.0
  0
LINE
  5
8C2
  8
0
  6
CONTINUOUS
 62
     7
 10
9.013224902431476
 20
-28.72722475945021
 30
0.0
 11
8.333891806431478
 21
-28.93171236745021
 31
0.0
  0
LINE
  5
8C3
  8
0
  6
CONTINUOUS
 62
     7
 10
8.333891806431478
 20
-28.93171236745021
 30
0.0
 11
8.224157870431478
 21
-28.96511706345021
 31
0.0
  0
LINE
  5
8C4
  8
0
  6
CONTINUOUS
 62
     7
 10
8.224157870431478
 20
-28.96511706345021
 30
0.0
 11
8.185758366431479
 21
-28.99204328745021
 31
0.0
  0
LINE
  5
8C5
  8
0
  6
CONTINUOUS
 62
     7
 10
8.185758366431479
 20
-28.99204328745021
 30
0.0
 11
8.152376238431478
 21
-29.03318922345021
 31
0.0
  0
LINE
  5
8C6
  8
0
  6
CONTINUOUS
 62
     7
 10
8.152376238431478
 20
-29.03318922345021
 30
0.0
 11
8.124580782431476
 21
-29.08835446345021
 31
0.0
  0
LINE
  5
8C7
  8
0
  6
CONTINUOUS
 62
     7
 10
8.124580782431476
 20
-29.08835446345021
 30
0.0
 11
8.102958038431478
 21
-29.15732247945021
 31
0.0
  0
LINE
  5
8C8
  8
0
  6
CONTINUOUS
 62
     7
 10
8.102958038431478
 20
-29.15732247945021
 30
0.0
 11
8.088061702431476
 21
-29.23984315145022
 31
0.0
  0
LINE
  5
8C9
  8
0
  6
CONTINUOUS
 62
     7
 10
8.088061702431476
 20
-29.23984315145022
 30
0.0
 11
8.080445574431476
 21
-29.33566646345021
 31
0.0
  0
LINE
  5
8CA
  8
0
  6
CONTINUOUS
 62
     7
 10
8.080445574431476
 20
-29.33566646345021
 30
0.0
 11
8.080663974431477
 21
-29.44450953545021
 31
0.0
  0
LINE
  5
8CB
  8
0
  6
CONTINUOUS
 62
     7
 10
8.080663974431477
 20
-29.44450953545021
 30
0.0
 11
8.111722638431479
 21
-29.81683816745021
 31
0.0
  0
LINE
  5
8CC
  8
0
  6
CONTINUOUS
 62
     7
 10
8.111722638431479
 20
-29.81683816745021
 30
0.0
 11
8.124606262431477
 21
-30.09722819945021
 31
0.0
  0
LINE
  5
8CD
  8
0
  6
CONTINUOUS
 62
     7
 10
8.124606262431477
 20
-30.09722819945021
 30
0.0
 11
8.125995806431478
 21
-30.43169084745022
 31
0.0
  0
LINE
  5
8CE
  8
0
  6
CONTINUOUS
 62
     7
 10
8.125995806431478
 20
-30.43169084745022
 30
0.0
 11
8.111442462431476
 21
-30.81827590345021
 31
0.0
  0
LINE
  5
8CF
  8
0
  6
CONTINUOUS
 62
     7
 10
8.111442462431476
 20
-30.81827590345021
 30
0.0
 11
8.076498462431477
 21
-31.25739770345021
 31
0.0
  0
LINE
  5
8D0
  8
0
  6
CONTINUOUS
 62
     7
 10
8.076498462431477
 20
-31.25739770345021
 30
0.0
 11
8.016647606431476
 21
-31.74848944745021
 31
0.0
  0
LINE
  5
8D1
  8
0
  6
CONTINUOUS
 62
     7
 10
8.016647606431476
 20
-31.74848944745021
 30
0.0
 11
7.927835246431475
 21
-32.28797291145021
 31
0.0
  0
LINE
  5
8D2
  8
0
  6
CONTINUOUS
 62
     7
 10
7.927835246431475
 20
-32.28797291145021
 30
0.0
 11
7.805384502431476
 21
-32.87674863145022
 31
0.0
  0
LINE
  5
8D3
  8
0
  6
CONTINUOUS
 62
     7
 10
7.805384502431476
 20
-32.87674863145022
 30
0.0
 11
7.660744558778749
 21
-33.45406108187597
 31
0.0
  0
LINE
  5
8D4
  8
0
  6
CONTINUOUS
 62
     7
 10
6.152903878019731
 20
-33.76393023042412
 30
0.0
 11
5.792319318431476
 21
-33.29044409545021
 31
0.0
  0
LINE
  5
8D5
  8
0
  6
CONTINUOUS
 62
     7
 10
5.792319318431476
 20
-33.29044409545021
 30
0.0
 11
5.447605078431477
 21
-32.79767316745021
 31
0.0
  0
LINE
  5
8D6
  8
0
  6
CONTINUOUS
 62
     7
 10
5.447605078431477
 20
-32.79767316745021
 30
0.0
 11
5.153241814431476
 21
-32.33693434345021
 31
0.0
  0
LINE
  5
8D7
  8
0
  6
CONTINUOUS
 62
     7
 10
5.153241814431476
 20
-32.33693434345021
 30
0.0
 11
4.904576462431477
 21
-31.90924422345021
 31
0.0
  0
LINE
  5
8D8
  8
0
  6
CONTINUOUS
 62
     7
 10
4.904576462431477
 20
-31.90924422345021
 30
0.0
 11
4.699294086431477
 21
-31.51949018345021
 31
0.0
  0
LINE
  5
8D9
  8
0
  6
CONTINUOUS
 62
     7
 10
4.699294086431477
 20
-31.51949018345021
 30
0.0
 11
4.533468166431477
 21
-31.16997405545022
 31
0.0
  0
LINE
  5
8DA
  8
0
  6
CONTINUOUS
 62
     7
 10
4.533468166431477
 20
-31.16997405545022
 30
0.0
 11
4.402847702431477
 21
-30.86206895145021
 31
0.0
  0
LINE
  5
8DB
  8
0
  6
CONTINUOUS
 62
     7
 10
4.402847702431477
 20
-30.86206895145021
 30
0.0
 11
4.304113846431476
 21
-30.59932168745021
 31
0.0
  0
LINE
  5
8DC
  8
0
  6
CONTINUOUS
 62
     7
 10
4.304113846431476
 20
-30.59932168745021
 30
0.0
 11
4.185825494431477
 21
-30.24491911945021
 31
0.0
  0
LINE
  5
8DD
  8
0
  6
CONTINUOUS
 62
     7
 10
4.185825494431477
 20
-30.24491911945021
 30
0.0
 11
4.143103230431477
 21
-30.14481090345021
 31
0.0
  0
LINE
  5
8DE
  8
0
  6
CONTINUOUS
 62
     7
 10
4.143103230431477
 20
-30.14481090345021
 30
0.0
 11
4.098315838431477
 21
-30.05975679145022
 31
0.0
  0
LINE
  5
8DF
  8
0
  6
CONTINUOUS
 62
     7
 10
4.098315838431477
 20
-30.05975679145022
 30
0.0
 11
4.052084302431479
 21
-29.98979817545021
 31
0.0
  0
LINE
  5
8E0
  8
0
  6
CONTINUOUS
 62
     7
 10
4.052084302431479
 20
-29.98979817545021
 30
0.0
 11
4.005015982431476
 21
-29.93494659945021
 31
0.0
  0
LINE
  5
8E1
  8
0
  6
CONTINUOUS
 62
     7
 10
4.005015982431476
 20
-29.93494659945021
 30
0.0
 11
3.957718342431476
 21
-29.89521339945021
 31
0.0
  0
LINE
  5
8E2
  8
0
  6
CONTINUOUS
 62
     7
 10
3.957718342431476
 20
-29.89521339945021
 30
0.0
 11
3.910815382431476
 21
-29.87056633545021
 31
0.0
  0
LINE
  5
8E3
  8
0
  6
CONTINUOUS
 62
     7
 10
3.910815382431476
 20
-29.87056633545021
 30
0.0
 11
3.864909366431477
 21
-29.86096536745021
 31
0.0
  0
LINE
  5
8E4
  8
0
  6
CONTINUOUS
 62
     7
 10
3.864909366431477
 20
-29.86096536745021
 30
0.0
 11
3.750895206431476
 21
-29.87354208745021
 31
0.0
  0
LINE
  5
8E5
  8
0
  6
CONTINUOUS
 62
     7
 10
3.750895206431476
 20
-29.87354208745021
 30
0.0
 11
3.045975822431477
 21
-29.95352557545021
 31
0.0
  0
LINE
  5
8E6
  8
0
  6
CONTINUOUS
 62
     7
 10
3.045975822431477
 20
-29.95352557545021
 30
0.0
 11
2.339385678431477
 21
-30.01707862345021
 31
0.0
  0
LINE
  5
8E7
  8
0
  6
CONTINUOUS
 62
     7
 10
2.339385678431477
 20
-30.01707862345021
 30
0.0
 11
2.225173710431476
 21
-30.02771023145021
 31
0.0
  0
LINE
  5
8E8
  8
0
  6
CONTINUOUS
 62
     7
 10
2.225173710431476
 20
-30.02771023145021
 30
0.0
 11
2.182140070431477
 21
-30.04635545545021
 31
0.0
  0
LINE
  5
8E9
  8
0
  6
CONTINUOUS
 62
     7
 10
2.182140070431477
 20
-30.04635545545021
 30
0.0
 11
2.141158558431477
 21
-30.07993944745021
 31
0.0
  0
LINE
  5
8EA
  8
0
  6
CONTINUOUS
 62
     7
 10
2.141158558431477
 20
-30.07993944745021
 30
0.0
 11
2.102827382431477
 21
-30.12838025545021
 31
0.0
  0
LINE
  5
8EB
  8
0
  6
CONTINUOUS
 62
     7
 10
2.102827382431477
 20
-30.12838025545021
 30
0.0
 11
2.067764094431477
 21
-30.19158386345022
 31
0.0
  0
LINE
  5
8EC
  8
0
  6
CONTINUOUS
 62
     7
 10
2.067764094431477
 20
-30.19158386345022
 30
0.0
 11
2.036561390431477
 21
-30.26941673545021
 31
0.0
  0
LINE
  5
8ED
  8
0
  6
CONTINUOUS
 62
     7
 10
2.036561390431477
 20
-30.26941673545021
 30
0.0
 11
2.009812174431477
 21
-30.36174533545021
 31
0.0
  0
LINE
  5
8EE
  8
0
  6
CONTINUOUS
 62
     7
 10
2.009812174431477
 20
-30.36174533545021
 30
0.0
 11
1.988116110431476
 21
-30.46840440745021
 31
0.0
  0
LINE
  5
8EF
  8
0
  6
CONTINUOUS
 62
     7
 10
1.988116110431476
 20
-30.46840440745021
 30
0.0
 11
1.943589758431476
 21
-30.83936346345021
 31
0.0
  0
LINE
  5
8F0
  8
0
  6
CONTINUOUS
 62
     7
 10
1.943589758431476
 20
-30.83936346345021
 30
0.0
 11
1.899767694431477
 21
-31.11660739145021
 31
0.0
  0
LINE
  5
8F1
  8
0
  6
CONTINUOUS
 62
     7
 10
1.899767694431477
 20
-31.11660739145021
 30
0.0
 11
1.833801846431477
 21
-31.44450327145021
 31
0.0
  0
LINE
  5
8F2
  8
0
  6
CONTINUOUS
 62
     7
 10
1.833801846431477
 20
-31.44450327145021
 30
0.0
 11
1.741727422431476
 21
-31.82024539145021
 31
0.0
  0
LINE
  5
8F3
  8
0
  6
CONTINUOUS
 62
     7
 10
1.741727422431476
 20
-31.82024539145021
 30
0.0
 11
1.619104142431477
 21
-32.24334411945021
 31
0.0
  0
LINE
  5
8F4
  8
0
  6
CONTINUOUS
 62
     7
 10
1.619104142431477
 20
-32.24334411945021
 30
0.0
 11
1.461622350431477
 21
-32.71233534345021
 31
0.0
  0
LINE
  5
8F5
  8
0
  6
CONTINUOUS
 62
     7
 10
1.461622350431477
 20
-32.71233534345021
 30
0.0
 11
1.266030798431477
 21
-33.22289775945021
 31
0.0
  0
LINE
  5
8F6
  8
0
  6
CONTINUOUS
 62
     7
 10
1.266030798431477
 20
-33.22289775945021
 30
0.0
 11
1.027567014431477
 21
-33.77497198345021
 31
0.0
  0
LINE
  5
8F7
  8
0
  6
CONTINUOUS
 62
     7
 10
1.027567014431477
 20
-33.77497198345021
 30
0.0
 11
0.7696756098866682
 21
-34.31135089808571
 31
0.0
  0
LINE
  5
8F8
  8
0
  6
CONTINUOUS
 62
     7
 10
-0.7696756234178684
 20
-34.31135089800657
 30
0.0
 11
-1.027567001568523
 21
-33.77497198345021
 31
0.0
  0
LINE
  5
8F9
  8
0
  6
CONTINUOUS
 62
     7
 10
-1.027567001568523
 20
-33.77497198345021
 30
0.0
 11
-1.266030785568524
 21
-33.22289775945021
 31
0.0
  0
LINE
  5
8FA
  8
0
  6
CONTINUOUS
 62
     7
 10
-1.266030785568524
 20
-33.22289775945021
 30
0.0
 11
-1.461622337568524
 21
-32.71233534345021
 31
0.0
  0
LINE
  5
8FB
  8
0
  6
CONTINUOUS
 62
     7
 10
-1.461622337568524
 20
-32.71233534345021
 30
0.0
 11
-1.619104129568524
 21
-32.24334411945021
 31
0.0
  0
LINE
  5
8FC
  8
0
  6
CONTINUOUS
 62
     7
 10
-1.619104129568524
 20
-32.24334411945021
 30
0.0
 11
-1.741727409568524
 21
-31.82024539145021
 31
0.0
  0
LINE
  5
8FD
  8
0
  6
CONTINUOUS
 62
     7
 10
-1.741727409568524
 20
-31.82024539145021
 30
0.0
 11
-1.833801833568524
 21
-31.44450327145021
 31
0.0
  0
LINE
  5
8FE
  8
0
  6
CONTINUOUS
 62
     7
 10
-1.833801833568524
 20
-31.44450327145021
 30
0.0
 11
-1.899767681568524
 21
-31.11660739145021
 31
0.0
  0
LINE
  5
8FF
  8
0
  6
CONTINUOUS
 62
     7
 10
-1.899767681568524
 20
-31.11660739145021
 30
0.0
 11
-1.943589745568524
 21
-30.83936346345021
 31
0.0
  0
LINE
  5
900
  8
0
  6
CONTINUOUS
 62
     7
 10
-1.943589745568524
 20
-30.83936346345021
 30
0.0
 11
-1.988116097568523
 21
-30.46840440745021
 31
0.0
  0
LINE
  5
901
  8
0
  6
CONTINUOUS
 62
     7
 10
-1.988116097568523
 20
-30.46840440745021
 30
0.0
 11
-2.009812161568524
 21
-30.36174533545021
 31
0.0
  0
LINE
  5
902
  8
0
  6
CONTINUOUS
 62
     7
 10
-2.009812161568524
 20
-30.36174533545021
 30
0.0
 11
-2.036561377568523
 21
-30.26941673545021
 31
0.0
  0
LINE
  5
903
  8
0
  6
CONTINUOUS
 62
     7
 10
-2.036561377568523
 20
-30.26941673545021
 30
0.0
 11
-2.067764081568523
 21
-30.19158386345022
 31
0.0
  0
LINE
  5
904
  8
0
  6
CONTINUOUS
 62
     7
 10
-2.067764081568523
 20
-30.19158386345022
 30
0.0
 11
-2.102827369568522
 21
-30.12838025545021
 31
0.0
  0
LINE
  5
905
  8
0
  6
CONTINUOUS
 62
     7
 10
-2.102827369568522
 20
-30.12838025545021
 30
0.0
 11
-2.141158545568524
 21
-30.07993944745021
 31
0.0
  0
LINE
  5
906
  8
0
  6
CONTINUOUS
 62
     7
 10
-2.141158545568524
 20
-30.07993944745021
 30
0.0
 11
-2.182140057568524
 21
-30.04635545545021
 31
0.0
  0
LINE
  5
907
  8
0
  6
CONTINUOUS
 62
     7
 10
-2.182140057568524
 20
-30.04635545545021
 30
0.0
 11
-2.225173697568524
 21
-30.02771023145021
 31
0.0
  0
LINE
  5
908
  8
0
  6
CONTINUOUS
 62
     7
 10
-2.225173697568524
 20
-30.02771023145021
 30
0.0
 11
-2.339385665568524
 21
-30.01707862345021
 31
0.0
  0
LINE
  5
909
  8
0
  6
CONTINUOUS
 62
     7
 10
-2.339385665568524
 20
-30.01707862345021
 30
0.0
 11
-3.045975809568524
 21
-29.95352557545021
 31
0.0
  0
LINE
  5
90A
  8
0
  6
CONTINUOUS
 62
     7
 10
-3.045975809568524
 20
-29.95352557545021
 30
0.0
 11
-3.750895193568524
 21
-29.87354208745021
 31
0.0
  0
LINE
  5
90B
  8
0
  6
CONTINUOUS
 62
     7
 10
-3.750895193568524
 20
-29.87354208745021
 30
0.0
 11
-3.864909353568525
 21
-29.86096536745021
 31
0.0
  0
LINE
  5
90C
  8
0
  6
CONTINUOUS
 62
     7
 10
-3.864909353568525
 20
-29.86096536745021
 30
0.0
 11
-3.910815369568524
 21
-29.87056633545021
 31
0.0
  0
LINE
  5
90D
  8
0
  6
CONTINUOUS
 62
     7
 10
-3.910815369568524
 20
-29.87056633545021
 30
0.0
 11
-3.957718329568524
 21
-29.89521339945021
 31
0.0
  0
LINE
  5
90E
  8
0
  6
CONTINUOUS
 62
     7
 10
-3.957718329568524
 20
-29.89521339945021
 30
0.0
 11
-4.005015969568523
 21
-29.93494659945021
 31
0.0
  0
LINE
  5
90F
  8
0
  6
CONTINUOUS
 62
     7
 10
-4.005015969568523
 20
-29.93494659945021
 30
0.0
 11
-4.052084289568523
 21
-29.98979817545021
 31
0.0
  0
LINE
  5
910
  8
0
  6
CONTINUOUS
 62
     7
 10
-4.052084289568523
 20
-29.98979817545021
 30
0.0
 11
-4.098315825568523
 21
-30.05975679145022
 31
0.0
  0
LINE
  5
911
  8
0
  6
CONTINUOUS
 62
     7
 10
-4.098315825568523
 20
-30.05975679145022
 30
0.0
 11
-4.143103217568523
 21
-30.14481090345021
 31
0.0
  0
LINE
  5
912
  8
0
  6
CONTINUOUS
 62
     7
 10
-4.143103217568523
 20
-30.14481090345021
 30
0.0
 11
-4.185825481568523
 21
-30.24491911945021
 31
0.0
  0
LINE
  5
913
  8
0
  6
CONTINUOUS
 62
     7
 10
-4.185825481568523
 20
-30.24491911945021
 30
0.0
 11
-4.304113833568525
 21
-30.59932168745021
 31
0.0
  0
LINE
  5
914
  8
0
  6
CONTINUOUS
 62
     7
 10
-4.304113833568525
 20
-30.59932168745021
 30
0.0
 11
-4.402847689568524
 21
-30.86206895145021
 31
0.0
  0
LINE
  5
915
  8
0
  6
CONTINUOUS
 62
     7
 10
-4.402847689568524
 20
-30.86206895145021
 30
0.0
 11
-4.533468153568523
 21
-31.16997405545022
 31
0.0
  0
LINE
  5
916
  8
0
  6
CONTINUOUS
 62
     7
 10
-4.533468153568523
 20
-31.16997405545022
 30
0.0
 11
-4.699294073568524
 21
-31.51949018345021
 31
0.0
  0
LINE
  5
917
  8
0
  6
CONTINUOUS
 62
     7
 10
-4.699294073568524
 20
-31.51949018345021
 30
0.0
 11
-4.904576449568524
 21
-31.90924422345021
 31
0.0
  0
LINE
  5
918
  8
0
  6
CONTINUOUS
 62
     7
 10
-4.904576449568524
 20
-31.90924422345021
 30
0.0
 11
-5.153241801568525
 21
-32.33693434345021
 31
0.0
  0
LINE
  5
919
  8
0
  6
CONTINUOUS
 62
     7
 10
-5.153241801568525
 20
-32.33693434345021
 30
0.0
 11
-5.447605065568523
 21
-32.79767316745021
 31
0.0
  0
LINE
  5
91A
  8
0
  6
CONTINUOUS
 62
     7
 10
-5.447605065568523
 20
-32.79767316745021
 30
0.0
 11
-5.792319305568523
 21
-33.29044409545021
 31
0.0
  0
LINE
  5
91B
  8
0
  6
CONTINUOUS
 62
     7
 10
-5.792319305568523
 20
-33.29044409545021
 30
0.0
 11
-6.152903846667632
 21
-33.7639302115713
 31
0.0
  0
LINE
  5
91C
  8
0
  6
CONTINUOUS
 62
     7
 10
-7.660744511183731
 20
-33.4540610649688
 30
0.0
 11
-7.805384489568524
 21
-32.87674863145022
 31
0.0
  0
LINE
  5
91D
  8
0
  6
CONTINUOUS
 62
     7
 10
-7.805384489568524
 20
-32.87674863145022
 30
0.0
 11
-7.927835233568525
 21
-32.28797291145021
 31
0.0
  0
LINE
  5
91E
  8
0
  6
CONTINUOUS
 62
     7
 10
-7.927835233568525
 20
-32.28797291145021
 30
0.0
 11
-8.016647593568525
 21
-31.74848944745021
 31
0.0
  0
LINE
  5
91F
  8
0
  6
CONTINUOUS
 62
     7
 10
-8.016647593568525
 20
-31.74848944745021
 30
0.0
 11
-8.076498449568524
 21
-31.25739770345021
 31
0.0
  0
LINE
  5
920
  8
0
  6
CONTINUOUS
 62
     7
 10
-8.076498449568524
 20
-31.25739770345021
 30
0.0
 11
-8.111442449568525
 21
-30.81827590345021
 31
0.0
  0
LINE
  5
921
  8
0
  6
CONTINUOUS
 62
     7
 10
-8.111442449568525
 20
-30.81827590345021
 30
0.0
 11
-8.125995793568524
 21
-30.43169084745022
 31
0.0
  0
LINE
  5
922
  8
0
  6
CONTINUOUS
 62
     7
 10
-8.125995793568524
 20
-30.43169084745022
 30
0.0
 11
-8.124606249568528
 21
-30.09722819945021
 31
0.0
  0
LINE
  5
923
  8
0
  6
CONTINUOUS
 62
     7
 10
-8.124606249568528
 20
-30.09722819945021
 30
0.0
 11
-8.111722625568524
 21
-29.81683816745021
 31
0.0
  0
LINE
  5
924
  8
0
  6
CONTINUOUS
 62
     7
 10
-8.111722625568524
 20
-29.81683816745021
 30
0.0
 11
-8.080663961568524
 21
-29.44450953545021
 31
0.0
  0
LINE
  5
925
  8
0
  6
CONTINUOUS
 62
     7
 10
-8.080663961568524
 20
-29.44450953545021
 30
0.0
 11
-8.080445561568524
 21
-29.33566646345021
 31
0.0
  0
LINE
  5
926
  8
0
  6
CONTINUOUS
 62
     7
 10
-8.080445561568524
 20
-29.33566646345021
 30
0.0
 11
-8.088061689568525
 21
-29.23984315145022
 31
0.0
  0
LINE
  5
927
  8
0
  6
CONTINUOUS
 62
     7
 10
-8.088061689568525
 20
-29.23984315145022
 30
0.0
 11
-8.102958025568524
 21
-29.15732247945021
 31
0.0
  0
LINE
  5
928
  8
0
  6
CONTINUOUS
 62
     7
 10
-8.102958025568524
 20
-29.15732247945021
 30
0.0
 11
-8.124580769568524
 21
-29.08835446345021
 31
0.0
  0
LINE
  5
929
  8
0
  6
CONTINUOUS
 62
     7
 10
-8.124580769568524
 20
-29.08835446345021
 30
0.0
 11
-8.152376225568524
 21
-29.03318922345021
 31
0.0
  0
LINE
  5
92A
  8
0
  6
CONTINUOUS
 62
     7
 10
-8.152376225568524
 20
-29.03318922345021
 30
0.0
 11
-8.185758353568524
 21
-28.99204328745021
 31
0.0
  0
LINE
  5
92B
  8
0
  6
CONTINUOUS
 62
     7
 10
-8.185758353568524
 20
-28.99204328745021
 30
0.0
 11
-8.224157857568525
 21
-28.96511706345021
 31
0.0
  0
LINE
  5
92C
  8
0
  6
CONTINUOUS
 62
     7
 10
-8.224157857568525
 20
-28.96511706345021
 30
0.0
 11
-8.333891793568522
 21
-28.93171236745021
 31
0.0
  0
LINE
  5
92D
  8
0
  6
CONTINUOUS
 62
     7
 10
-8.333891793568522
 20
-28.93171236745021
 30
0.0
 11
-9.013224889568523
 21
-28.72722475945021
 31
0.0
  0
LINE
  5
92E
  8
0
  6
CONTINUOUS
 62
     7
 10
-9.013224889568523
 20
-28.72722475945021
 30
0.0
 11
-9.687613929568524
 21
-28.50697927945021
 31
0.0
  0
LINE
  5
92F
  8
0
  6
CONTINUOUS
 62
     7
 10
-9.687613929568524
 20
-28.50697927945021
 30
0.0
 11
-9.796762553568524
 21
-28.47170913545022
 31
0.0
  0
LINE
  5
930
  8
0
  6
CONTINUOUS
 62
     7
 10
-9.796762553568524
 20
-28.47170913545022
 30
0.0
 11
-9.843661561568524
 21
-28.47187283145021
 31
0.0
  0
LINE
  5
931
  8
0
  6
CONTINUOUS
 62
     7
 10
-9.843661561568524
 20
-28.47187283145021
 30
0.0
 11
-9.894565817568525
 21
-28.48657375145021
 31
0.0
  0
LINE
  5
932
  8
0
  6
CONTINUOUS
 62
     7
 10
-9.894565817568525
 20
-28.48657375145021
 30
0.0
 11
-9.948893441568524
 21
-28.51597267945021
 31
0.0
  0
LINE
  5
933
  8
0
  6
CONTINUOUS
 62
     7
 10
-9.948893441568524
 20
-28.51597267945021
 30
0.0
 11
-10.00603988156852
 21
-28.56022665545021
 31
0.0
  0
LINE
  5
934
  8
0
  6
CONTINUOUS
 62
     7
 10
-10.00603988156852
 20
-28.56022665545021
 30
0.0
 11
-10.06540765756852
 21
-28.61944685545021
 31
0.0
  0
LINE
  5
935
  8
0
  6
CONTINUOUS
 62
     7
 10
-10.06540765756852
 20
-28.61944685545021
 30
0.0
 11
-10.12639949756852
 21
-28.69374424745021
 31
0.0
  0
LINE
  5
936
  8
0
  6
CONTINUOUS
 62
     7
 10
-10.12639949756852
 20
-28.69374424745021
 30
0.0
 11
-10.18839878556852
 21
-28.78320338345022
 31
0.0
  0
LINE
  5
937
  8
0
  6
CONTINUOUS
 62
     7
 10
-10.18839878556852
 20
-28.78320338345022
 30
0.0
 11
-10.37560658556852
 21
-29.10654000745021
 31
0.0
  0
LINE
  5
938
  8
0
  6
CONTINUOUS
 62
     7
 10
-10.37560658556852
 20
-29.10654000745021
 30
0.0
 11
-10.52520996156852
 21
-29.34403388745021
 31
0.0
  0
LINE
  5
939
  8
0
  6
CONTINUOUS
 62
     7
 10
-10.52520996156852
 20
-29.34403388745021
 30
0.0
 11
-10.71513746556852
 21
-29.61934247945021
 31
0.0
  0
LINE
  5
93A
  8
0
  6
CONTINUOUS
 62
     7
 10
-10.71513746556852
 20
-29.61934247945021
 30
0.0
 11
-10.94792596956852
 21
-29.92832346345021
 31
0.0
  0
LINE
  5
93B
  8
0
  6
CONTINUOUS
 62
     7
 10
-10.94792596956852
 20
-29.92832346345021
 30
0.0
 11
-11.22746320156852
 21
-30.26877609545021
 31
0.0
  0
LINE
  5
93C
  8
0
  6
CONTINUOUS
 62
     7
 10
-11.22746320156852
 20
-30.26877609545021
 30
0.0
 11
-11.55713165756852
 21
-30.63765546345021
 31
0.0
  0
LINE
  5
93D
  8
0
  6
CONTINUOUS
 62
     7
 10
-11.55713165756852
 20
-30.63765546345021
 30
0.0
 11
-11.93821532156852
 21
-31.02970800745021
 31
0.0
  0
LINE
  5
93E
  8
0
  6
CONTINUOUS
 62
     7
 10
-11.93821532156852
 20
-31.02970800745021
 30
0.0
 11
-12.37506732156853
 21
-31.44300140745021
 31
0.0
  0
LINE
  5
93F
  8
0
  6
CONTINUOUS
 62
     7
 10
-12.37506732156853
 20
-31.44300140745021
 30
0.0
 11
-12.82358268522592
 21
-31.83421009762548
 31
0.0
  0
ARC
  5
940
  8
0
  6
CONTINUOUS
 62
     7
 10
0.0000000064314876
 20
0.000000000549791
 30
0.0
 40
5.199999999999994
 50
322.4098512307768
 51
37.58950296485692
  0
ARC
  5
941
  8
0
  6
CONTINUOUS
 62
     7
 10
0.0000000064314847
 20
0.0000000005497914
 30
0.0
 40
5.200000000000009
 50
142.4104970351432
 51
217.5888571604906
  0
ARC
  5
942
  8
0
  6
CONTINUOUS
 62
     7
 10
0.0000077525378324
 20
0.0000189751387415
 30
0.0
 40
34.3200030940082
 50
245.4891458664332
 51
248.0592425315414
  0
ARC
  5
943
  8
0
  6
CONTINUOUS
 62
     7
 10
-0.0000001748434772
 20
0.0000017582994995
 30
0.0
 40
34.31998399810757
 50
233.8762431873628
 51
236.4463412540703
  0
ARC
  5
944
  8
0
  6
CONTINUOUS
 62
     7
 10
-0.0000118065263533
 20
-0.0000117643653266
 30
0.0
 40
34.31996604478466
 50
222.2633367562738
 51
224.833436051318
  0
ARC
  5
945
  8
0
  6
CONTINUOUS
 62
     7
 10
0.000022446774589
 20
0.0000152998498386
 30
0.0
 40
34.32000970853114
 50
210.6504376159955
 51
213.2205337851836
  0
ARC
  5
946
  8
0
  6
CONTINUOUS
 62
     7
 10
0.0000492616287377
 20
0.0000192753954137
 30
0.0
 40
34.32003545357193
 50
199.0375352211919
 51
201.6076294155324
  0
ARC
  5
947
  8
0
  6
CONTINUOUS
 62
     7
 10
0.0000245495541454
 20
0.0000029521236309
 30
0.0
 40
34.32000737407091
 50
187.4246279792612
 51
189.9947243368377
  0
ARC
  5
948
  8
0
  6
CONTINUOUS
 62
     7
 10
0.0000138799898626
 20
0.0000001456371303
 30
0.0
 40
34.31999650285488
 50
175.8117270632007
 51
178.3818241773808
  0
ARC
  5
949
  8
0
  6
CONTINUOUS
 62
     7
 10
0.0000172851097417
 20
-0.0000045787539816
 30
0.0
 40
34.32000044380544
 50
164.1988223756491
 51
166.76891919018
  0
ARC
  5
94A
  8
0
  6
CONTINUOUS
 62
     7
 10
0.0000088812203091
 20
-0.0000044727886331
 30
0.0
 40
34.31999254317459
 50
152.5859187748234
 51
155.1560162649949
  0
ARC
  5
94B
  8
0
  6
CONTINUOUS
 62
     7
 10
0.0000183363596425
 20
-0.000014572532167
 30
0.0
 40
34.32000603937162
 50
140.9730157568772
 51
143.5431121663693
  0
ARC
  5
94C
  8
0
  6
CONTINUOUS
 62
     7
 10
0.0000379800194423
 20
-0.0000445582401021
 30
0.0
 40
34.32004109210665
 50
129.3601140736807
 51
131.9302078907687
  0
ARC
  5
94D
  8
0
  6
CONTINUOUS
 62
     7
 10
-0.0000149440079475
 20
0.0000255626140936
 30
0.0
 40
34.31995304231346
 50
117.7472067029734
 51
120.3173071390195
  0
ARC
  5
94E
  8
0
  6
CONTINUOUS
 62
     7
 10
0.0000002325098064
 20
0.0000008535589397
 30
0.0
 40
34.31998183271374
 50
106.134306429434
 51
108.7044048019824
  0
ARC
  5
94F
  8
0
  6
CONTINUOUS
 62
     7
 10
0.0000008436630961
 20
-0.0000155402005149
 30
0.0
 40
34.31999816169566
 50
94.52140180420197
 51
97.09149884067548
  0
ARC
  5
950
  8
0
  6
CONTINUOUS
 62
     7
 10
-0.0000012569116934
 20
-0.0000197838440907
 30
0.0
 40
34.32000242648042
 50
82.90850130635873
 51
85.47859804630991
  0
ARC
  5
951
  8
0
  6
CONTINUOUS
 62
     7
 10
-0.000010300060031
 20
-0.0000311909465391
 30
0.0
 40
34.32001542380215
 50
71.29559639932594
 51
73.86569225872235
  0
ARC
  5
952
  8
0
  6
CONTINUOUS
 62
     7
 10
-0.0000114384976667
 20
-0.0000210412835623
 30
0.0
 40
34.32000654707956
 50
59.68269406027968
 51
62.25279055513431
  0
ARC
  5
953
  8
0
  6
CONTINUOUS
 62
     7
 10
-0.0000326883695507
 20
-0.0000394640438266
 30
0.0
 40
34.3200337887213
 50
48.06979292534671
 51
50.63988735236831
  0
ARC
  5
954
  8
0
  6
CONTINUOUS
 62
     7
 10
-0.0000212354592707
 20
-0.0000170107541114
 30
0.0
 40
34.32000983435766
 50
36.45688816553361
 51
39.02698438239829
  0
ARC
  5
955
  8
0
  6
CONTINUOUS
 62
     7
 10
0.0000026560434208
 20
0.0000014650917646
 30
0.0
 40
34.3199795821002
 50
24.84398287413026
 51
27.41408125178086
  0
ARC
  5
956
  8
0
  6
CONTINUOUS
 62
     7
 10
-0.0000161985480555
 20
-0.0000042986502518
 30
0.0
 40
34.31999933422431
 50
13.23108078183296
 51
15.8011776147317
  0
ARC
  5
957
  8
0
  6
CONTINUOUS
 62
     7
 10
-0.0000187383179006
 20
-0.0000000819420411
 30
0.0
 40
34.32000137909741
 50
1.6181759791521
 51
4.188272769485564
  0
ARC
  5
958
  8
0
  6
CONTINUOUS
 62
     7
 10
-0.0000088071000993
 20
0.0000005532318831
 30
0.0
 40
34.31999146333715
 50
350.0052751233013
 51
352.5753725888896
  0
ARC
  5
959
  8
0
  6
CONTINUOUS
 62
     7
 10
-0.0000261147576405
 20
0.0000102565836979
 30
0.0
 40
34.32001062846106
 50
338.3923703608834
 51
340.962466364829
  0
ARC
  5
95A
  8
0
  6
CONTINUOUS
 62
     7
 10
-0.0000193369154668
 20
0.0000131999564535
 30
0.0
 40
34.32000596968606
 50
326.7794663285373
 51
329.3495627679128
  0
ARC
  5
95B
  8
0
  6
CONTINUOUS
 62
     7
 10
0.0000104500635606
 20
-0.0000097311726002
 30
0.0
 40
34.31996836258016
 50
315.1665630399712
 51
317.7366622000336
  0
ARC
  5
95C
  8
0
  6
CONTINUOUS
 62
     7
 10
0.0000063801533538
 20
-0.0000064594211982
 30
0.0
 40
34.31997371622496
 50
303.55365771544
 51
306.1237565815752
  0
ARC
  5
95D
  8
0
  6
CONTINUOUS
 62
     7
 10
-0.000011227756664
 20
0.0000267608701243
 30
0.0
 40
34.32001162392222
 50
291.940758055271
 51
294.5108540428033
  0
ARC
  5
95E
  8
0
  6
CONTINUOUS
 62
     7
 10
-0.0000052773017757
 20
0.0000245947516599
 30
0.0
 40
34.32000781628918
 50
280.327855466277
 51
282.8979518270531
  0
ARC
  5
95F
  8
0
  6
CONTINUOUS
 62
     7
 10
-0.000000005001762
 20
0.0000187186216394
 30
0.0
 40
34.32000124601486
 50
268.7149516216813
 51
271.2850483724312
  0
ARC
  5
960
  8
0
  6
CONTINUOUS
 62
     7
 10
0.0000032743044939
 20
0.0000145228363972
 30
0.0
 40
34.31999752429255
 50
257.1020477503686
 51
259.6721448547806
  0
ENDSEC
  0
EOF
