  0
SECTION
  2
HEADER
  9
$ACADVER
  1
AC1006
  9
$DWGCODEPAGE
  3
ansi_1252
  9
$INSBASE
 10
0.0
 20
0.0
 30
0.0
  9
$EXTMIN
 10
-68.80298987053631
 20
-34.71478775835013
  9
$EXTMAX
 10
28.75557379613035
 20
19.99996470000003
  9
$LIMMIN
 10
0.0
 20
0.0
  9
$LIMMAX
 10
420.0
 20
297.0
  9
$ORTHOMODE
 70
     0
  9
$REGENMODE
 70
     1
  9
$FILLMODE
 70
     1
  9
$QTEXTMODE
 70
     0
  9
$MIRRTEXT
 70
     1
  9
$DRAGMODE
 70
     2
  9
$LTSCALE
 40
1.0
  9
$OSMODE
 70
    37
  9
$ATTMODE
 70
     1
  9
$TEXTSIZE
 40
3.5
  9
$TRACEWID
 40
1.0
  9
$TEXTSTYLE
  7
STANDARD
  9
$CLAYER
  8
0
  9
$CELTYPE
  6
BYLAYER
  9
$CECOLOR
 62
   256
  9
$DIMSCALE
 40
1.0
  9
$DIMASZ
 40
3.556
  9
$DIMEXO
 40
0.0
  9
$DIMDLI
 40
3.75
  9
$DIMRND
 40
0.0
  9
$DIMDLE
 40
0.0
  9
$DIMEXE
 40
1.0
  9
$DIMTP
 40
0.0
  9
$DIMTM
 40
0.0
  9
$DIMTXT
 40
3.5
  9
$DIMCEN
 40
2.5
  9
$DIMTSZ
 40
0.0
  9
$DIMTOL
 70
     0
  9
$DIMLIM
 70
     0
  9
$DIMTIH
 70
     1
  9
$DIMTOH
 70
     1
  9
$DIMSE1
 70
     0
  9
$DIMSE2
 70
     0
  9
$DIMTAD
 70
     1
  9
$DIMZIN
 70
     1
  9
$DIMBLK
  1

  9
$DIMASO
 70
     1
  9
$DIMSHO
 70
     1
  9
$DIMPOST
  1

  9
$DIMAPOST
  1

  9
$DIMALT
 70
     0
  9
$DIMALTD
 70
     3
  9
$DIMALTF
 40
0.0393700787401575
  9
$DIMLFAC
 40
1.0
  9
$DIMTOFL
 70
     1
  9
$DIMTVP
 40
0.0
  9
$DIMTIX
 70
     0
  9
$DIMSOXD
 70
     0
  9
$DIMSAH
 70
     0
  9
$DIMBLK1
  1

  9
$DIMBLK2
  1

  9
$LUNITS
 70
     2
  9
$LUPREC
 70
     2
  9
$SKETCHINC
 40
1.0
  9
$FILLETRAD
 40
0.0
  9
$AUNITS
 70
     0
  9
$AUPREC
 70
     2
  9
$MENU
  1
.
  9
$ELEVATION
 40
0.0
  9
$THICKNESS
 40
0.0
  9
$LIMCHECK
 70
     0
  9
$CHAMFERA
 40
0.0
  9
$CHAMFERB
 40
0.0
  9
$SKPOLY
 70
     0
  9
$TDCREATE
 40
2460780.060682882
  9
$TDUPDATE
 40
2460780.069535255
  9
$TDINDWG
 40
0.0001851968
  9
$TDUSRTIMER
 40
0.0001851968
  9
$USRTIMER
 70
     1
  9
$ANGBASE
 50
0.0
  9
$ANGDIR
 70
     0
  9
$PDMODE
 70
     0
  9
$PDSIZE
 40
-1.0
  9
$PLINEWID
 40
0.0
  9
$COORDS
 70
     1
  9
$SPLFRAME
 70
     0
  9
$SPLINETYPE
 70
     6
  9
$SPLINESEGS
 70
     8
  9
$ATTDIA
 70
     0
  9
$ATTREQ
 70
     1
  9
$HANDLING
 70
     1
  9
$HANDSEED
  5
7AD
  9
$SURFTAB1
 70
     6
  9
$SURFTAB2
 70
     6
  9
$SURFTYPE
 70
     6
  9
$SURFU
 70
     6
  9
$SURFV
 70
     6
  9
$UCSNAME
  2

  9
$UCSORG
 10
0.0
 20
0.0
 30
0.0
  9
$UCSXDIR
 10
1.0
 20
0.0
 30
0.0
  9
$UCSYDIR
 10
0.0
 20
1.0
 30
0.0
  9
$USERI1
 70
     0
  9
$USERI2
 70
     0
  9
$USERI3
 70
     0
  9
$USERI4
 70
     0
  9
$USERI5
 70
     0
  9
$USERR1
 40
0.0
  9
$USERR2
 40
0.0
  9
$USERR3
 40
0.0
  9
$USERR4
 40
0.0
  9
$USERR5
 40
0.0
  9
$WORLDVIEW
 70
     1
  0
ENDSEC
  0
SECTION
  2
TABLES
  0
TABLE
  2
VPORT
 70
     1
  0
VPORT
  2
*ACTIVE
 70
     0
 10
0.0
 20
0.0
 11
1.0
 21
1.0
 12
27.38064019372146
 22
10.89653877472698
 13
0.0
 23
0.0
 14
10.0
 24
10.0
 15
10.0
 25
10.0
 16
0.0
 26
0.0
 36
1.0
 17
0.0
 27
0.0
 37
0.0
 40
116.8720165444543
 41
2.632616487455197
 42
50.0
 43
0.0
 44
0.0
 50
0.0
 51
0.0
 71
     0
 72
   100
 73
     1
 74
     3
 75
     0
 76
     0
 77
     0
 78
     0
  0
ENDTAB
  0
TABLE
  2
LTYPE
 70
     6
  0
LTYPE
  2
CONTINUOUS
 70
     0
  3
Solid line
 72
    65
 73
     0
 40
0.0
  0
LTYPE
  2
HIDDEN
 70
     0
  3
Hidden __ __ __ __ __ __ __ __ __ __ __ __ __ __
 72
    65
 73
     2
 40
1.905
 49
1.27
 49
-0.635
  0
LTYPE
  2
PHANTOM
 70
     0
  3
Phantom ______  __  __  ______  __  __  ______
 72
    65
 73
     6
 40
12.7
 49
6.35
 49
-1.27
 49
1.27
 49
-1.27
 49
1.27
 49
-1.27
  0
LTYPE
  2
CENTER
 70
     0
  3
Center ____ _ ____ _ ____ _ ____ _ ____ _ ____
 72
    65
 73
     4
 40
10.16
 49
6.35
 49
-1.27
 49
1.27
 49
-1.27
  0
LTYPE
  2
CENTERX2
 70
     0
  3
Center (2x) ________  __  ________  __  _____
 72
    65
 73
     4
 40
20.32
 49
12.7
 49
-2.54
 49
2.54
 49
-2.54
  0
LTYPE
  2
DOT2
 70
     0
  3
Dot (.5x) ........................................
 72
    65
 73
     2
 40
0.635
 49
0.0
 49
-0.635
  0
ENDTAB
  0
TABLE
  2
LAYER
 70
     1
  0
LAYER
  2
0
 70
     0
 62
     7
  6
CONTINUOUS
  0
ENDTAB
  0
TABLE
  2
STYLE
 70
     3
  0
STYLE
  2
STANDARD
 70
     0
 40
0.0
 41
1.0
 50
0.0
 71
     0
 42
3.5
  3
txt
  4

  0
STYLE
  2
SLDTEXTSTYLE0
 70
     0
 40
0.0
 41
0.7
 50
0.0
 71
     0
 42
3.5
  3
TXT
  4

  0
STYLE
  2
SLDTEXTSTYLE1
 70
     0
 40
0.0
 41
0.7
 50
0.0
 71
     0
 42
3.5
  3
TXT
  4
bigfont
  0
ENDTAB
  0
TABLE
  2
VIEW
 70
     0
  0
ENDTAB
  0
TABLE
  2
UCS
 70
     0
  0
ENDTAB
  0
ENDSEC
  0
SECTION
  2
BLOCKS
  0
ENDSEC
  0
SECTION
  2
ENTITIES
  0
CIRCLE
  5
3D5
  8
0
  6
CONTINUOUS
 62
     7
 10
-48.99999999999998
 20
0.0000000000000688
 30
0.0
 40
2.999999999999979
  0
CIRCLE
  5
3D6
  8
0
  6
CONTINUOUS
 62
     7
 10
-55.99999999996042
 20
0.0000235622019545
 30
0.0
 40
1.600000000000115
  0
CIRCLE
  5
3D7
  8
0
  6
CONTINUOUS
 62
     7
 10
-49.00002356220202
 20
-6.999999999960387
 30
0.0
 40
1.600000000000016
  0
CIRCLE
  5
3D8
  8
0
  6
CONTINUOUS
 62
     7
 10
-42.00000000003968
 20
-0.0000235622019156
 30
0.0
 40
1.599999999999987
  0
CIRCLE
  5
3D9
  8
0
  6
CONTINUOUS
 62
     7
 10
-48.99997643779798
 20
6.999999999960298
 30
0.0
 40
1.59999999999998
  0
LINE
  5
3DA
  8
0
  6
CONTINUOUS
 62
     7
 10
-37.0364724
 20
-15.6125977
 30
0.0
 11
-36.673606489734
 21
-15.7498765131172
 31
0.0
  0
LINE
  5
3DB
  8
0
  6
CONTINUOUS
 62
     7
 10
-37.4108359
 20
-15.4534011
 30
0.0
 11
-37.0364724
 21
-15.6125977
 31
0.0
  0
LINE
  5
3DC
  8
0
  6
CONTINUOUS
 62
     7
 10
-37.7496134
 20
-15.2922612
 30
0.0
 11
-37.4108359
 21
-15.4534011
 31
0.0
  0
LINE
  5
3DD
  8
0
  6
CONTINUOUS
 62
     7
 10
-38.05571820000001
 20
-15.1306521
 30
0.0
 11
-37.7496134
 21
-15.2922612
 31
0.0
  0
LINE
  5
3DE
  8
0
  6
CONTINUOUS
 62
     7
 10
-38.3291058
 20
-14.9713309
 30
0.0
 11
-38.05571820000001
 21
-15.1306521
 31
0.0
  0
LINE
  5
3DF
  8
0
  6
CONTINUOUS
 62
     7
 10
-38.5713963
 20
-14.8161914
 30
0.0
 11
-38.3291058
 21
-14.9713309
 31
0.0
  0
LINE
  5
3E0
  8
0
  6
CONTINUOUS
 62
     7
 10
-38.7826342
 20
-14.6680767
 30
0.0
 11
-38.5713963
 21
-14.8161914
 31
0.0
  0
LINE
  5
3E1
  8
0
  6
CONTINUOUS
 62
     7
 10
-38.9625737
 20
-14.5303323
 30
0.0
 11
-38.7826342
 21
-14.6680767
 31
0.0
  0
LINE
  5
3E2
  8
0
  6
CONTINUOUS
 62
     7
 10
-39.1144367
 20
-14.403698
 30
0.0
 11
-38.9625737
 21
-14.5303323
 31
0.0
  0
LINE
  5
3E3
  8
0
  6
CONTINUOUS
 62
     7
 10
-39.2390567
 20
-14.2906297
 30
0.0
 11
-39.1144367
 21
-14.403698
 31
0.0
  0
LINE
  5
3E4
  8
0
  6
CONTINUOUS
 62
     7
 10
-39.412503
 20
-14.1130519
 30
0.0
 11
-39.2390567
 21
-14.2906297
 31
0.0
  0
LINE
  5
3E5
  8
0
  6
CONTINUOUS
 62
     7
 10
-39.493254
 20
-14.0158671
 30
0.0
 11
-39.412503
 21
-14.1130519
 31
0.0
  0
LINE
  5
3E6
  8
0
  6
CONTINUOUS
 62
     7
 10
-39.6483613
 20
-13.8107734
 30
0.0
 11
-39.493254
 21
-14.0158671
 31
0.0
  0
LINE
  5
3E7
  8
0
  6
CONTINUOUS
 62
     7
 10
-39.7889583
 20
-13.6587323
 30
0.0
 11
-39.6483613
 21
-13.8107734
 31
0.0
  0
LINE
  5
3E8
  8
0
  6
CONTINUOUS
 62
     7
 10
-39.9246426
 20
-13.5422601
 30
0.0
 11
-39.7889583
 21
-13.6587323
 31
0.0
  0
LINE
  5
3E9
  8
0
  6
CONTINUOUS
 62
     7
 10
-40.0526987
 20
-13.4606205
 30
0.0
 11
-39.9246426
 21
-13.5422601
 31
0.0
  0
LINE
  5
3EA
  8
0
  6
CONTINUOUS
 62
     7
 10
-40.1130268
 20
-13.4325891
 30
0.0
 11
-40.0526987
 21
-13.4606205
 31
0.0
  0
LINE
  5
3EB
  8
0
  6
CONTINUOUS
 62
     7
 10
-40.1704562
 20
-13.4129184
 30
0.0
 11
-40.1130268
 21
-13.4325891
 31
0.0
  0
LINE
  5
3EC
  8
0
  6
CONTINUOUS
 62
     7
 10
-40.22466379999999
 20
-13.4014682
 30
0.0
 11
-40.1704562
 21
-13.4129184
 31
0.0
  0
LINE
  5
3ED
  8
0
  6
CONTINUOUS
 62
     7
 10
-40.27533510000001
 20
-13.398103
 30
0.0
 11
-40.22466379999999
 21
-13.4014682
 31
0.0
  0
LINE
  5
3EE
  8
0
  6
CONTINUOUS
 62
     7
 10
-40.3221533
 20
-13.4026514
 30
0.0
 11
-40.27533510000001
 21
-13.398103
 31
0.0
  0
LINE
  5
3EF
  8
0
  6
CONTINUOUS
 62
     7
 10
-40.36481029999999
 20
-13.4149473
 30
0.0
 11
-40.3221533
 21
-13.4026514
 31
0.0
  0
LINE
  5
3F0
  8
0
  6
CONTINUOUS
 62
     7
 10
-40.4030067
 20
-13.4348292
 30
0.0
 11
-40.36481029999999
 21
-13.4149473
 31
0.0
  0
LINE
  5
3F1
  8
0
  6
CONTINUOUS
 62
     7
 10
-41.025
 20
-13.8131052
 30
0.0
 11
-40.4030067
 21
-13.4348292
 31
0.0
  0
LINE
  5
3F2
  8
0
  6
CONTINUOUS
 62
     7
 10
-41.6635933
 20
-14.1626292
 30
0.0
 11
-41.025
 21
-13.8131052
 31
0.0
  0
LINE
  5
3F3
  8
0
  6
CONTINUOUS
 62
     7
 10
-41.6999097
 20
-14.1857673
 30
0.0
 11
-41.6635933
 21
-14.1626292
 31
0.0
  0
LINE
  5
3F4
  8
0
  6
CONTINUOUS
 62
     7
 10
-41.7318867
 20
-14.2165614
 30
0.0
 11
-41.6999097
 21
-14.1857673
 31
0.0
  0
LINE
  5
3F5
  8
0
  6
CONTINUOUS
 62
     7
 10
-41.7592349
 20
-14.254833
 30
0.0
 11
-41.7318867
 21
-14.2165614
 31
0.0
  0
LINE
  5
3F6
  8
0
  6
CONTINUOUS
 62
     7
 10
-41.7816562
 20
-14.3003982
 30
0.0
 11
-41.7592349
 21
-14.254833
 31
0.0
  0
LINE
  5
3F7
  8
0
  6
CONTINUOUS
 62
     7
 10
-41.7988438
 20
-14.3530684
 30
0.0
 11
-41.7816562
 21
-14.3003982
 31
0.0
  0
LINE
  5
3F8
  8
0
  6
CONTINUOUS
 62
     7
 10
-41.8105232
 20
-14.4126391
 30
0.0
 11
-41.7988438
 21
-14.3530684
 31
0.0
  0
LINE
  5
3F9
  8
0
  6
CONTINUOUS
 62
     7
 10
-41.8164113
 20
-14.4789005
 30
0.0
 11
-41.8105232
 21
-14.4126391
 31
0.0
  0
LINE
  5
3FA
  8
0
  6
CONTINUOUS
 62
     7
 10
-41.8097374
 20
-14.6306201
 30
0.0
 11
-41.8164113
 21
-14.4789005
 31
0.0
  0
LINE
  5
3FB
  8
0
  6
CONTINUOUS
 62
     7
 10
-41.77671170000001
 20
-14.8063623
 30
0.0
 11
-41.8097374
 21
-14.6306201
 31
0.0
  0
LINE
  5
3FC
  8
0
  6
CONTINUOUS
 62
     7
 10
-41.7153387
 20
-15.0041434
 30
0.0
 11
-41.77671170000001
 21
-14.8063623
 31
0.0
  0
LINE
  5
3FD
  8
0
  6
CONTINUOUS
 62
     7
 10
-41.615276
 20
-15.2410171
 30
0.0
 11
-41.7153387
 21
-15.0041434
 31
0.0
  0
LINE
  5
3FE
  8
0
  6
CONTINUOUS
 62
     7
 10
-41.571487
 20
-15.3595419
 30
0.0
 11
-41.615276
 21
-15.2410171
 31
0.0
  0
LINE
  5
3FF
  8
0
  6
CONTINUOUS
 62
     7
 10
-41.5044233
 20
-15.5985397
 30
0.0
 11
-41.571487
 21
-15.3595419
 31
0.0
  0
LINE
  5
400
  8
0
  6
CONTINUOUS
 62
     7
 10
-41.4688133
 20
-15.762998
 30
0.0
 11
-41.5044233
 21
-15.5985397
 31
0.0
  0
LINE
  5
401
  8
0
  6
CONTINUOUS
 62
     7
 10
-41.4350763
 20
-15.9578323
 30
0.0
 11
-41.4688133
 21
-15.762998
 31
0.0
  0
LINE
  5
402
  8
0
  6
CONTINUOUS
 62
     7
 10
-41.4057558
 20
-16.1825367
 30
0.0
 11
-41.4350763
 21
-15.9578323
 31
0.0
  0
LINE
  5
403
  8
0
  6
CONTINUOUS
 62
     7
 10
-41.3831037
 20
-16.4395314
 30
0.0
 11
-41.4057558
 21
-16.1825367
 31
0.0
  0
LINE
  5
404
  8
0
  6
CONTINUOUS
 62
     7
 10
-41.3698942
 20
-16.7269309
 30
0.0
 11
-41.3831037
 21
-16.4395314
 31
0.0
  0
LINE
  5
405
  8
0
  6
CONTINUOUS
 62
     7
 10
-41.3686118
 20
-17.0433521
 30
0.0
 11
-41.3698942
 21
-16.7269309
 31
0.0
  0
LINE
  5
406
  8
0
  6
CONTINUOUS
 62
     7
 10
-41.38170660000001
 20
-17.3892512
 30
0.0
 11
-41.3686118
 21
-17.0433521
 31
0.0
  0
LINE
  5
407
  8
0
  6
CONTINUOUS
 62
     7
 10
-41.4115441
 20
-17.7632111
 30
0.0
 11
-41.38170660000001
 21
-17.3892512
 31
0.0
  0
LINE
  5
408
  8
0
  6
CONTINUOUS
 62
     7
 10
-41.4608576
 20
-18.1670177
 30
0.0
 11
-41.4115441
 21
-17.7632111
 31
0.0
  0
LINE
  5
409
  8
0
  6
CONTINUOUS
 62
     7
 10
-41.5234036196372
 20
-18.5499081528097
 30
0.0
 11
-41.4608576
 21
-18.1670177
 31
0.0
  0
LINE
  5
40A
  8
0
  6
CONTINUOUS
 62
     7
 10
-43.0977843
 20
-18.7628102
 30
0.0
 11
-42.8037540148649
 21
-19.0159175543805
 31
0.0
  0
LINE
  5
40B
  8
0
  6
CONTINUOUS
 62
     7
 10
-43.3951224
 20
-18.4851746
 30
0.0
 11
-43.0977843
 21
-18.7628102
 31
0.0
  0
LINE
  5
40C
  8
0
  6
CONTINUOUS
 62
     7
 10
-43.6583561
 20
-18.2178839
 30
0.0
 11
-43.3951224
 21
-18.4851746
 31
0.0
  0
LINE
  5
40D
  8
0
  6
CONTINUOUS
 62
     7
 10
-43.890727
 20
-17.961327
 30
0.0
 11
-43.6583561
 21
-18.2178839
 31
0.0
  0
LINE
  5
40E
  8
0
  6
CONTINUOUS
 62
     7
 10
-44.09313620000001
 20
-17.7181099
 30
0.0
 11
-43.890727
 21
-17.961327
 31
0.0
  0
LINE
  5
40F
  8
0
  6
CONTINUOUS
 62
     7
 10
-44.267754
 20
-17.4894583
 30
0.0
 11
-44.09313620000001
 21
-17.7181099
 31
0.0
  0
LINE
  5
410
  8
0
  6
CONTINUOUS
 62
     7
 10
-44.4155944
 20
-17.2780284
 30
0.0
 11
-44.267754
 21
-17.4894583
 31
0.0
  0
LINE
  5
411
  8
0
  6
CONTINUOUS
 62
     7
 10
-44.5375709
 20
-17.087048
 30
0.0
 11
-44.4155944
 21
-17.2780284
 31
0.0
  0
LINE
  5
412
  8
0
  6
CONTINUOUS
 62
     7
 10
-44.6369639
 20
-16.9161105
 30
0.0
 11
-44.5375709
 21
-17.087048
 31
0.0
  0
LINE
  5
413
  8
0
  6
CONTINUOUS
 62
     7
 10
-44.7153968
 20
-16.7672385
 30
0.0
 11
-44.6369639
 21
-16.9161105
 31
0.0
  0
LINE
  5
414
  8
0
  6
CONTINUOUS
 62
     7
 10
-44.8176479
 20
-16.5410479
 30
0.0
 11
-44.7153968
 21
-16.7672385
 31
0.0
  0
LINE
  5
415
  8
0
  6
CONTINUOUS
 62
     7
 10
-44.8602898
 20
-16.42210560000001
 30
0.0
 11
-44.8176479
 21
-16.5410479
 31
0.0
  0
LINE
  5
416
  8
0
  6
CONTINUOUS
 62
     7
 10
-44.9358968
 20
-16.1763307
 30
0.0
 11
-44.8602898
 21
-16.42210560000001
 31
0.0
  0
LINE
  5
417
  8
0
  6
CONTINUOUS
 62
     7
 10
-45.0160136
 20
-15.9853717
 30
0.0
 11
-44.9358968
 21
-16.1763307
 31
0.0
  0
LINE
  5
418
  8
0
  6
CONTINUOUS
 62
     7
 10
-45.1036794
 20
-15.829517
 30
0.0
 11
-45.0160136
 21
-15.9853717
 31
0.0
  0
LINE
  5
419
  8
0
  6
CONTINUOUS
 62
     7
 10
-45.19609030000001
 20
-15.7090031
 30
0.0
 11
-45.1036794
 21
-15.829517
 31
0.0
  0
LINE
  5
41A
  8
0
  6
CONTINUOUS
 62
     7
 10
-45.2431929
 20
-15.6620287
 30
0.0
 11
-45.19609030000001
 21
-15.7090031
 31
0.0
  0
LINE
  5
41B
  8
0
  6
CONTINUOUS
 62
     7
 10
-45.2904311
 20
-15.6239023
 30
0.0
 11
-45.2431929
 21
-15.6620287
 31
0.0
  0
LINE
  5
41C
  8
0
  6
CONTINUOUS
 62
     7
 10
-45.33745340000001
 20
-15.5946025
 30
0.0
 11
-45.2904311
 21
-15.6239023
 31
0.0
  0
LINE
  5
41D
  8
0
  6
CONTINUOUS
 62
     7
 10
-45.3839178
 20
-15.5741096
 30
0.0
 11
-45.33745340000001
 21
-15.5946025
 31
0.0
  0
LINE
  5
41E
  8
0
  6
CONTINUOUS
 62
     7
 10
-45.4294682
 20
-15.562371
 30
0.0
 11
-45.3839178
 21
-15.5741096
 31
0.0
  0
LINE
  5
41F
  8
0
  6
CONTINUOUS
 62
     7
 10
-45.4737582
 20
-15.5593358
 30
0.0
 11
-45.4294682
 21
-15.562371
 31
0.0
  0
LINE
  5
420
  8
0
  6
CONTINUOUS
 62
     7
 10
-45.516451
 20
-15.5649547
 30
0.0
 11
-45.4737582
 21
-15.5593358
 31
0.0
  0
LINE
  5
421
  8
0
  6
CONTINUOUS
 62
     7
 10
-46.23031160000001
 20
-15.7076837
 30
0.0
 11
-45.516451
 21
-15.5649547
 31
0.0
  0
LINE
  5
422
  8
0
  6
CONTINUOUS
 62
     7
 10
-46.9499372
 20
-15.817717
 30
0.0
 11
-46.23031160000001
 21
-15.7076837
 31
0.0
  0
LINE
  5
423
  8
0
  6
CONTINUOUS
 62
     7
 10
-46.9919772
 20
-15.8270388
 30
0.0
 11
-46.9499372
 21
-15.817717
 31
0.0
  0
LINE
  5
424
  8
0
  6
CONTINUOUS
 62
     7
 10
-47.032558
 20
-15.845039
 30
0.0
 11
-46.9919772
 21
-15.8270388
 31
0.0
  0
LINE
  5
425
  8
0
  6
CONTINUOUS
 62
     7
 10
-47.0713465
 20
-15.8716488
 30
0.0
 11
-47.032558
 21
-15.845039
 31
0.0
  0
LINE
  5
426
  8
0
  6
CONTINUOUS
 62
     7
 10
-47.1079998
 20
-15.9067976
 30
0.0
 11
-47.0713465
 21
-15.8716488
 31
0.0
  0
LINE
  5
427
  8
0
  6
CONTINUOUS
 62
     7
 10
-47.1421652
 20
-15.950413
 30
0.0
 11
-47.1079998
 21
-15.9067976
 31
0.0
  0
LINE
  5
428
  8
0
  6
CONTINUOUS
 62
     7
 10
-47.1735146
 20
-16.0023965
 30
0.0
 11
-47.1421652
 21
-15.950413
 31
0.0
  0
LINE
  5
429
  8
0
  6
CONTINUOUS
 62
     7
 10
-47.2017104
 20
-16.062648
 30
0.0
 11
-47.1735146
 21
-16.0023965
 31
0.0
  0
LINE
  5
42A
  8
0
  6
CONTINUOUS
 62
     7
 10
-47.2473301
 20
-16.2075004
 30
0.0
 11
-47.2017104
 21
-16.062648
 31
0.0
  0
LINE
  5
42B
  8
0
  6
CONTINUOUS
 62
     7
 10
-47.2764035
 20
-16.3839395
 30
0.0
 11
-47.2473301
 21
-16.2075004
 31
0.0
  0
LINE
  5
42C
  8
0
  6
CONTINUOUS
 62
     7
 10
-47.2863769
 20
-16.5907837
 30
0.0
 11
-47.2764035
 21
-16.3839395
 31
0.0
  0
LINE
  5
42D
  8
0
  6
CONTINUOUS
 62
     7
 10
-47.2733642
 20
-16.8475957
 30
0.0
 11
-47.2863769
 21
-16.5907837
 31
0.0
  0
LINE
  5
42E
  8
0
  6
CONTINUOUS
 62
     7
 10
-47.2727539
 20
-16.9739493
 30
0.0
 11
-47.2733642
 21
-16.8475957
 31
0.0
  0
LINE
  5
42F
  8
0
  6
CONTINUOUS
 62
     7
 10
-47.29147670000001
 20
-17.2214709
 30
0.0
 11
-47.2727539
 21
-16.9739493
 31
0.0
  0
LINE
  5
430
  8
0
  6
CONTINUOUS
 62
     7
 10
-47.31426230000001
 20
-17.3881904
 30
0.0
 11
-47.29147670000001
 21
-17.2214709
 31
0.0
  0
LINE
  5
431
  8
0
  6
CONTINUOUS
 62
     7
 10
-47.3491971
 20
-17.5828135
 30
0.0
 11
-47.31426230000001
 21
-17.3881904
 31
0.0
  0
LINE
  5
432
  8
0
  6
CONTINUOUS
 62
     7
 10
-47.3984983
 20
-17.8039948
 30
0.0
 11
-47.3491971
 21
-17.5828135
 31
0.0
  0
LINE
  5
433
  8
0
  6
CONTINUOUS
 62
     7
 10
-47.4651096
 20
-18.0532383
 30
0.0
 11
-47.3984983
 21
-17.8039948
 31
0.0
  0
LINE
  5
434
  8
0
  6
CONTINUOUS
 62
     7
 10
-47.5509932
 20
-18.3278234
 30
0.0
 11
-47.4651096
 21
-18.0532383
 31
0.0
  0
LINE
  5
435
  8
0
  6
CONTINUOUS
 62
     7
 10
-47.65801050000001
 20
-18.6256007
 30
0.0
 11
-47.5509932
 21
-18.3278234
 31
0.0
  0
LINE
  5
436
  8
0
  6
CONTINUOUS
 62
     7
 10
-47.7886201
 20
-18.9461608
 30
0.0
 11
-47.65801050000001
 21
-18.6256007
 31
0.0
  0
LINE
  5
437
  8
0
  6
CONTINUOUS
 62
     7
 10
-47.94456
 20
-19.2873632
 30
0.0
 11
-47.7886201
 21
-18.9461608
 31
0.0
  0
LINE
  5
438
  8
0
  6
CONTINUOUS
 62
     7
 10
-48.1290095
 20
-19.649951
 30
0.0
 11
-47.94456
 21
-19.2873632
 31
0.0
  0
LINE
  5
439
  8
0
  6
CONTINUOUS
 62
     7
 10
-48.3187398083136
 20
-19.9883584461524
 30
0.0
 11
-48.1290095
 21
-19.649951
 31
0.0
  0
LINE
  5
43A
  8
0
  6
CONTINUOUS
 62
     7
 10
-49.8709905
 20
-19.649951
 30
0.0
 11
-49.6812602015615
 21
-19.9883584458158
 31
0.0
  0
LINE
  5
43B
  8
0
  6
CONTINUOUS
 62
     7
 10
-50.05544
 20
-19.2873632
 30
0.0
 11
-49.8709905
 21
-19.649951
 31
0.0
  0
LINE
  5
43C
  8
0
  6
CONTINUOUS
 62
     7
 10
-50.2113799
 20
-18.9461608
 30
0.0
 11
-50.05544
 21
-19.2873632
 31
0.0
  0
LINE
  5
43D
  8
0
  6
CONTINUOUS
 62
     7
 10
-50.3419895
 20
-18.6256007
 30
0.0
 11
-50.2113799
 21
-18.9461608
 31
0.0
  0
LINE
  5
43E
  8
0
  6
CONTINUOUS
 62
     7
 10
-50.4490068
 20
-18.3278234
 30
0.0
 11
-50.3419895
 21
-18.6256007
 31
0.0
  0
LINE
  5
43F
  8
0
  6
CONTINUOUS
 62
     7
 10
-50.53489039999999
 20
-18.0532383
 30
0.0
 11
-50.4490068
 21
-18.3278234
 31
0.0
  0
LINE
  5
440
  8
0
  6
CONTINUOUS
 62
     7
 10
-50.6015017
 20
-17.8039948
 30
0.0
 11
-50.53489039999999
 21
-18.0532383
 31
0.0
  0
LINE
  5
441
  8
0
  6
CONTINUOUS
 62
     7
 10
-50.6508029
 20
-17.5828135
 30
0.0
 11
-50.6015017
 21
-17.8039948
 31
0.0
  0
LINE
  5
442
  8
0
  6
CONTINUOUS
 62
     7
 10
-50.6857377
 20
-17.3881904
 30
0.0
 11
-50.6508029
 21
-17.5828135
 31
0.0
  0
LINE
  5
443
  8
0
  6
CONTINUOUS
 62
     7
 10
-50.7085233
 20
-17.2214709
 30
0.0
 11
-50.6857377
 21
-17.3881904
 31
0.0
  0
LINE
  5
444
  8
0
  6
CONTINUOUS
 62
     7
 10
-50.7272461
 20
-16.9739493
 30
0.0
 11
-50.7085233
 21
-17.2214709
 31
0.0
  0
LINE
  5
445
  8
0
  6
CONTINUOUS
 62
     7
 10
-50.7266358
 20
-16.8475957
 30
0.0
 11
-50.7272461
 21
-16.9739493
 31
0.0
  0
LINE
  5
446
  8
0
  6
CONTINUOUS
 62
     7
 10
-50.7136231
 20
-16.5907837
 30
0.0
 11
-50.7266358
 21
-16.8475957
 31
0.0
  0
LINE
  5
447
  8
0
  6
CONTINUOUS
 62
     7
 10
-50.7235965
 20
-16.3839395
 30
0.0
 11
-50.7136231
 21
-16.5907837
 31
0.0
  0
LINE
  5
448
  8
0
  6
CONTINUOUS
 62
     7
 10
-50.7526699
 20
-16.2075004
 30
0.0
 11
-50.7235965
 21
-16.3839395
 31
0.0
  0
LINE
  5
449
  8
0
  6
CONTINUOUS
 62
     7
 10
-50.7982896
 20
-16.062648
 30
0.0
 11
-50.7526699
 21
-16.2075004
 31
0.0
  0
LINE
  5
44A
  8
0
  6
CONTINUOUS
 62
     7
 10
-50.8264854
 20
-16.0023965
 30
0.0
 11
-50.7982896
 21
-16.062648
 31
0.0
  0
LINE
  5
44B
  8
0
  6
CONTINUOUS
 62
     7
 10
-50.8578348
 20
-15.950413
 30
0.0
 11
-50.8264854
 21
-16.0023965
 31
0.0
  0
LINE
  5
44C
  8
0
  6
CONTINUOUS
 62
     7
 10
-50.89200020000001
 20
-15.9067976
 30
0.0
 11
-50.8578348
 21
-15.950413
 31
0.0
  0
LINE
  5
44D
  8
0
  6
CONTINUOUS
 62
     7
 10
-50.9286535
 20
-15.8716488
 30
0.0
 11
-50.89200020000001
 21
-15.9067976
 31
0.0
  0
LINE
  5
44E
  8
0
  6
CONTINUOUS
 62
     7
 10
-50.967442
 20
-15.845039
 30
0.0
 11
-50.9286535
 21
-15.8716488
 31
0.0
  0
LINE
  5
44F
  8
0
  6
CONTINUOUS
 62
     7
 10
-51.0080228
 20
-15.8270388
 30
0.0
 11
-50.967442
 21
-15.845039
 31
0.0
  0
LINE
  5
450
  8
0
  6
CONTINUOUS
 62
     7
 10
-51.0500628
 20
-15.817717
 30
0.0
 11
-51.0080228
 21
-15.8270388
 31
0.0
  0
LINE
  5
451
  8
0
  6
CONTINUOUS
 62
     7
 10
-51.7696884
 20
-15.7076837
 30
0.0
 11
-51.0500628
 21
-15.817717
 31
0.0
  0
LINE
  5
452
  8
0
  6
CONTINUOUS
 62
     7
 10
-52.483549
 20
-15.5649547
 30
0.0
 11
-51.7696884
 21
-15.7076837
 31
0.0
  0
LINE
  5
453
  8
0
  6
CONTINUOUS
 62
     7
 10
-52.52624180000001
 20
-15.5593358
 30
0.0
 11
-52.483549
 21
-15.5649547
 31
0.0
  0
LINE
  5
454
  8
0
  6
CONTINUOUS
 62
     7
 10
-52.5705318
 20
-15.562371
 30
0.0
 11
-52.52624180000001
 21
-15.5593358
 31
0.0
  0
LINE
  5
455
  8
0
  6
CONTINUOUS
 62
     7
 10
-52.61608219999999
 20
-15.5741096
 30
0.0
 11
-52.5705318
 21
-15.562371
 31
0.0
  0
LINE
  5
456
  8
0
  6
CONTINUOUS
 62
     7
 10
-52.6625466
 20
-15.5946025
 30
0.0
 11
-52.61608219999999
 21
-15.5741096
 31
0.0
  0
LINE
  5
457
  8
0
  6
CONTINUOUS
 62
     7
 10
-52.7095689
 20
-15.6239023
 30
0.0
 11
-52.6625466
 21
-15.5946025
 31
0.0
  0
LINE
  5
458
  8
0
  6
CONTINUOUS
 62
     7
 10
-52.7568071
 20
-15.6620287
 30
0.0
 11
-52.7095689
 21
-15.6239023
 31
0.0
  0
LINE
  5
459
  8
0
  6
CONTINUOUS
 62
     7
 10
-52.8039097
 20
-15.7090031
 30
0.0
 11
-52.7568071
 21
-15.6620287
 31
0.0
  0
LINE
  5
45A
  8
0
  6
CONTINUOUS
 62
     7
 10
-52.8963206
 20
-15.829517
 30
0.0
 11
-52.8039097
 21
-15.7090031
 31
0.0
  0
LINE
  5
45B
  8
0
  6
CONTINUOUS
 62
     7
 10
-52.9839864
 20
-15.9853717
 30
0.0
 11
-52.8963206
 21
-15.829517
 31
0.0
  0
LINE
  5
45C
  8
0
  6
CONTINUOUS
 62
     7
 10
-53.0641032
 20
-16.1763307
 30
0.0
 11
-52.9839864
 21
-15.9853717
 31
0.0
  0
LINE
  5
45D
  8
0
  6
CONTINUOUS
 62
     7
 10
-53.1397102
 20
-16.42210560000001
 30
0.0
 11
-53.0641032
 21
-16.1763307
 31
0.0
  0
LINE
  5
45E
  8
0
  6
CONTINUOUS
 62
     7
 10
-53.1823521
 20
-16.5410479
 30
0.0
 11
-53.1397102
 21
-16.42210560000001
 31
0.0
  0
LINE
  5
45F
  8
0
  6
CONTINUOUS
 62
     7
 10
-53.2846032
 20
-16.7672385
 30
0.0
 11
-53.1823521
 21
-16.5410479
 31
0.0
  0
LINE
  5
460
  8
0
  6
CONTINUOUS
 62
     7
 10
-53.3630361
 20
-16.9161105
 30
0.0
 11
-53.2846032
 21
-16.7672385
 31
0.0
  0
LINE
  5
461
  8
0
  6
CONTINUOUS
 62
     7
 10
-53.4624291
 20
-17.087048
 30
0.0
 11
-53.3630361
 21
-16.9161105
 31
0.0
  0
LINE
  5
462
  8
0
  6
CONTINUOUS
 62
     7
 10
-53.5844056
 20
-17.2780284
 30
0.0
 11
-53.4624291
 21
-17.087048
 31
0.0
  0
LINE
  5
463
  8
0
  6
CONTINUOUS
 62
     7
 10
-53.732246
 20
-17.4894583
 30
0.0
 11
-53.5844056
 21
-17.2780284
 31
0.0
  0
LINE
  5
464
  8
0
  6
CONTINUOUS
 62
     7
 10
-53.9068638
 20
-17.7181099
 30
0.0
 11
-53.732246
 21
-17.4894583
 31
0.0
  0
LINE
  5
465
  8
0
  6
CONTINUOUS
 62
     7
 10
-54.109273
 20
-17.961327
 30
0.0
 11
-53.9068638
 21
-17.7181099
 31
0.0
  0
LINE
  5
466
  8
0
  6
CONTINUOUS
 62
     7
 10
-54.3416439
 20
-18.2178839
 30
0.0
 11
-54.109273
 21
-17.961327
 31
0.0
  0
LINE
  5
467
  8
0
  6
CONTINUOUS
 62
     7
 10
-54.60487759999999
 20
-18.4851746
 30
0.0
 11
-54.3416439
 21
-18.2178839
 31
0.0
  0
LINE
  5
468
  8
0
  6
CONTINUOUS
 62
     7
 10
-54.9022157
 20
-18.7628102
 30
0.0
 11
-54.60487759999999
 21
-18.4851746
 31
0.0
  0
LINE
  5
469
  8
0
  6
CONTINUOUS
 62
     7
 10
-55.1962459879205
 20
-19.0159174860574
 30
0.0
 11
-54.9022157
 21
-18.7628102
 31
0.0
  0
LINE
  5
46A
  8
0
  6
CONTINUOUS
 62
     7
 10
-56.5391424
 20
-18.1670177
 30
0.0
 11
-56.47659639486841
 21
-18.54990808726841
 31
0.0
  0
LINE
  5
46B
  8
0
  6
CONTINUOUS
 62
     7
 10
-56.5884559
 20
-17.7632111
 30
0.0
 11
-56.5391424
 21
-18.1670177
 31
0.0
  0
LINE
  5
46C
  8
0
  6
CONTINUOUS
 62
     7
 10
-56.6182934
 20
-17.3892512
 30
0.0
 11
-56.5884559
 21
-17.7632111
 31
0.0
  0
LINE
  5
46D
  8
0
  6
CONTINUOUS
 62
     7
 10
-56.63138820000001
 20
-17.0433521
 30
0.0
 11
-56.6182934
 21
-17.3892512
 31
0.0
  0
LINE
  5
46E
  8
0
  6
CONTINUOUS
 62
     7
 10
-56.6301058
 20
-16.7269309
 30
0.0
 11
-56.63138820000001
 21
-17.0433521
 31
0.0
  0
LINE
  5
46F
  8
0
  6
CONTINUOUS
 62
     7
 10
-56.61689629999999
 20
-16.4395314
 30
0.0
 11
-56.6301058
 21
-16.7269309
 31
0.0
  0
LINE
  5
470
  8
0
  6
CONTINUOUS
 62
     7
 10
-56.5942442
 20
-16.1825367
 30
0.0
 11
-56.61689629999999
 21
-16.4395314
 31
0.0
  0
LINE
  5
471
  8
0
  6
CONTINUOUS
 62
     7
 10
-56.56492370000001
 20
-15.9578323
 30
0.0
 11
-56.5942442
 21
-16.1825367
 31
0.0
  0
LINE
  5
472
  8
0
  6
CONTINUOUS
 62
     7
 10
-56.5311867
 20
-15.762998
 30
0.0
 11
-56.56492370000001
 21
-15.9578323
 31
0.0
  0
LINE
  5
473
  8
0
  6
CONTINUOUS
 62
     7
 10
-56.4955767
 20
-15.5985397
 30
0.0
 11
-56.5311867
 21
-15.762998
 31
0.0
  0
LINE
  5
474
  8
0
  6
CONTINUOUS
 62
     7
 10
-56.42851300000001
 20
-15.3595419
 30
0.0
 11
-56.4955767
 21
-15.5985397
 31
0.0
  0
LINE
  5
475
  8
0
  6
CONTINUOUS
 62
     7
 10
-56.384724
 20
-15.2410171
 30
0.0
 11
-56.42851300000001
 21
-15.3595419
 31
0.0
  0
LINE
  5
476
  8
0
  6
CONTINUOUS
 62
     7
 10
-56.2846613
 20
-15.0041434
 30
0.0
 11
-56.384724
 21
-15.2410171
 31
0.0
  0
LINE
  5
477
  8
0
  6
CONTINUOUS
 62
     7
 10
-56.2232883
 20
-14.8063623
 30
0.0
 11
-56.2846613
 21
-15.0041434
 31
0.0
  0
LINE
  5
478
  8
0
  6
CONTINUOUS
 62
     7
 10
-56.1902626
 20
-14.6306201
 30
0.0
 11
-56.2232883
 21
-14.8063623
 31
0.0
  0
LINE
  5
479
  8
0
  6
CONTINUOUS
 62
     7
 10
-56.1835887
 20
-14.4789005
 30
0.0
 11
-56.1902626
 21
-14.6306201
 31
0.0
  0
LINE
  5
47A
  8
0
  6
CONTINUOUS
 62
     7
 10
-56.18947680000001
 20
-14.4126391
 30
0.0
 11
-56.1835887
 21
-14.4789005
 31
0.0
  0
LINE
  5
47B
  8
0
  6
CONTINUOUS
 62
     7
 10
-56.2011562
 20
-14.3530684
 30
0.0
 11
-56.18947680000001
 21
-14.4126391
 31
0.0
  0
LINE
  5
47C
  8
0
  6
CONTINUOUS
 62
     7
 10
-56.2183438
 20
-14.3003982
 30
0.0
 11
-56.2011562
 21
-14.3530684
 31
0.0
  0
LINE
  5
47D
  8
0
  6
CONTINUOUS
 62
     7
 10
-56.2407651
 20
-14.254833
 30
0.0
 11
-56.2183438
 21
-14.3003982
 31
0.0
  0
LINE
  5
47E
  8
0
  6
CONTINUOUS
 62
     7
 10
-56.2681133
 20
-14.2165614
 30
0.0
 11
-56.2407651
 21
-14.254833
 31
0.0
  0
LINE
  5
47F
  8
0
  6
CONTINUOUS
 62
     7
 10
-56.3000903
 20
-14.1857673
 30
0.0
 11
-56.2681133
 21
-14.2165614
 31
0.0
  0
LINE
  5
480
  8
0
  6
CONTINUOUS
 62
     7
 10
-56.3364067
 20
-14.1626292
 30
0.0
 11
-56.3000903
 21
-14.1857673
 31
0.0
  0
LINE
  5
481
  8
0
  6
CONTINUOUS
 62
     7
 10
-56.97499999999999
 20
-13.8131052
 30
0.0
 11
-56.3364067
 21
-14.1626292
 31
0.0
  0
LINE
  5
482
  8
0
  6
CONTINUOUS
 62
     7
 10
-57.5969933
 20
-13.4348292
 30
0.0
 11
-56.97499999999999
 21
-13.8131052
 31
0.0
  0
LINE
  5
483
  8
0
  6
CONTINUOUS
 62
     7
 10
-57.6351897
 20
-13.4149473
 30
0.0
 11
-57.5969933
 21
-13.4348292
 31
0.0
  0
LINE
  5
484
  8
0
  6
CONTINUOUS
 62
     7
 10
-57.67784670000001
 20
-13.4026514
 30
0.0
 11
-57.6351897
 21
-13.4149473
 31
0.0
  0
LINE
  5
485
  8
0
  6
CONTINUOUS
 62
     7
 10
-57.7246649
 20
-13.398103
 30
0.0
 11
-57.67784670000001
 21
-13.4026514
 31
0.0
  0
LINE
  5
486
  8
0
  6
CONTINUOUS
 62
     7
 10
-57.7753362
 20
-13.4014682
 30
0.0
 11
-57.7246649
 21
-13.398103
 31
0.0
  0
LINE
  5
487
  8
0
  6
CONTINUOUS
 62
     7
 10
-57.82954380000001
 20
-13.4129184
 30
0.0
 11
-57.7753362
 21
-13.4014682
 31
0.0
  0
LINE
  5
488
  8
0
  6
CONTINUOUS
 62
     7
 10
-57.88697320000001
 20
-13.4325891
 30
0.0
 11
-57.82954380000001
 21
-13.4129184
 31
0.0
  0
LINE
  5
489
  8
0
  6
CONTINUOUS
 62
     7
 10
-57.94730130000001
 20
-13.4606205
 30
0.0
 11
-57.88697320000001
 21
-13.4325891
 31
0.0
  0
LINE
  5
48A
  8
0
  6
CONTINUOUS
 62
     7
 10
-58.0753574
 20
-13.5422601
 30
0.0
 11
-57.94730130000001
 21
-13.4606205
 31
0.0
  0
LINE
  5
48B
  8
0
  6
CONTINUOUS
 62
     7
 10
-58.2110417
 20
-13.6587323
 30
0.0
 11
-58.0753574
 21
-13.5422601
 31
0.0
  0
LINE
  5
48C
  8
0
  6
CONTINUOUS
 62
     7
 10
-58.35163870000001
 20
-13.8107734
 30
0.0
 11
-58.2110417
 21
-13.6587323
 31
0.0
  0
LINE
  5
48D
  8
0
  6
CONTINUOUS
 62
     7
 10
-58.506746
 20
-14.0158671
 30
0.0
 11
-58.35163870000001
 21
-13.8107734
 31
0.0
  0
LINE
  5
48E
  8
0
  6
CONTINUOUS
 62
     7
 10
-58.587497
 20
-14.1130519
 30
0.0
 11
-58.506746
 21
-14.0158671
 31
0.0
  0
LINE
  5
48F
  8
0
  6
CONTINUOUS
 62
     7
 10
-58.7609433
 20
-14.2906297
 30
0.0
 11
-58.587497
 21
-14.1130519
 31
0.0
  0
LINE
  5
490
  8
0
  6
CONTINUOUS
 62
     7
 10
-58.8855633
 20
-14.403698
 30
0.0
 11
-58.7609433
 21
-14.2906297
 31
0.0
  0
LINE
  5
491
  8
0
  6
CONTINUOUS
 62
     7
 10
-59.0374263
 20
-14.5303323
 30
0.0
 11
-58.8855633
 21
-14.403698
 31
0.0
  0
LINE
  5
492
  8
0
  6
CONTINUOUS
 62
     7
 10
-59.2173658
 20
-14.6680767
 30
0.0
 11
-59.0374263
 21
-14.5303323
 31
0.0
  0
LINE
  5
493
  8
0
  6
CONTINUOUS
 62
     7
 10
-59.4286037
 20
-14.8161914
 30
0.0
 11
-59.2173658
 21
-14.6680767
 31
0.0
  0
LINE
  5
494
  8
0
  6
CONTINUOUS
 62
     7
 10
-59.6708942
 20
-14.9713309
 30
0.0
 11
-59.4286037
 21
-14.8161914
 31
0.0
  0
LINE
  5
495
  8
0
  6
CONTINUOUS
 62
     7
 10
-59.9442818
 20
-15.1306521
 30
0.0
 11
-59.6708942
 21
-14.9713309
 31
0.0
  0
LINE
  5
496
  8
0
  6
CONTINUOUS
 62
     7
 10
-60.2503866
 20
-15.2922612
 30
0.0
 11
-59.9442818
 21
-15.1306521
 31
0.0
  0
LINE
  5
497
  8
0
  6
CONTINUOUS
 62
     7
 10
-60.58916410000001
 20
-15.4534011
 30
0.0
 11
-60.2503866
 21
-15.2922612
 31
0.0
  0
LINE
  5
498
  8
0
  6
CONTINUOUS
 62
     7
 10
-60.9635276
 20
-15.6125977
 30
0.0
 11
-60.58916410000001
 21
-15.4534011
 31
0.0
  0
LINE
  5
499
  8
0
  6
CONTINUOUS
 62
     7
 10
-61.3263935135829
 20
-15.7498764105213
 30
0.0
 11
-60.9635276
 21
-15.6125977
 31
0.0
  0
LINE
  5
49A
  8
0
  6
CONTINUOUS
 62
     7
 10
-62.2979625
 20
-14.4928739
 30
0.0
 11
-62.3701447124329
 21
-14.8740652138314
 31
0.0
  0
LINE
  5
49B
  8
0
  6
CONTINUOUS
 62
     7
 10
-62.206192
 20
-14.0965536
 30
0.0
 11
-62.2979625
 21
-14.4928739
 31
0.0
  0
LINE
  5
49C
  8
0
  6
CONTINUOUS
 62
     7
 10
-62.1063283
 20
-13.7349413
 30
0.0
 11
-62.206192
 21
-14.0965536
 31
0.0
  0
LINE
  5
49D
  8
0
  6
CONTINUOUS
 62
     7
 10
-62.0003289
 20
-13.4054237
 30
0.0
 11
-62.1063283
 21
-13.7349413
 31
0.0
  0
LINE
  5
49E
  8
0
  6
CONTINUOUS
 62
     7
 10
-61.8909014
 20
-13.1085237
 30
0.0
 11
-62.0003289
 21
-13.4054237
 31
0.0
  0
LINE
  5
49F
  8
0
  6
CONTINUOUS
 62
     7
 10
-61.7801922
 20
-12.8429744
 30
0.0
 11
-61.8909014
 21
-13.1085237
 31
0.0
  0
LINE
  5
4A0
  8
0
  6
CONTINUOUS
 62
     7
 10
-61.6710087
 20
-12.6092259
 30
0.0
 11
-61.7801922
 21
-12.8429744
 31
0.0
  0
LINE
  5
4A1
  8
0
  6
CONTINUOUS
 62
     7
 10
-61.56660310000001
 20
-12.4081009
 30
0.0
 11
-61.6710087
 21
-12.6092259
 31
0.0
  0
LINE
  5
4A2
  8
0
  6
CONTINUOUS
 62
     7
 10
-61.4682634
 20
-12.2365553
 30
0.0
 11
-61.56660310000001
 21
-12.4081009
 31
0.0
  0
LINE
  5
4A3
  8
0
  6
CONTINUOUS
 62
     7
 10
-61.3785529
 20
-12.0941944
 30
0.0
 11
-61.4682634
 21
-12.2365553
 31
0.0
  0
LINE
  5
4A4
  8
0
  6
CONTINUOUS
 62
     7
 10
-61.2337916
 20
-11.8925471
 30
0.0
 11
-61.3785529
 21
-12.0941944
 31
0.0
  0
LINE
  5
4A5
  8
0
  6
CONTINUOUS
 62
     7
 10
-61.1521055
 20
-11.796147
 30
0.0
 11
-61.2337916
 21
-11.8925471
 31
0.0
  0
LINE
  5
4A6
  8
0
  6
CONTINUOUS
 62
     7
 10
-60.9770617
 20
-11.607782
 30
0.0
 11
-61.1521055
 21
-11.796147
 31
0.0
  0
LINE
  5
4A7
  8
0
  6
CONTINUOUS
 62
     7
 10
-60.85174480000001
 20
-11.4429193
 30
0.0
 11
-60.9770617
 21
-11.607782
 31
0.0
  0
LINE
  5
4A8
  8
0
  6
CONTINUOUS
 62
     7
 10
-60.7606035
 20
-11.2890711
 30
0.0
 11
-60.85174480000001
 21
-11.4429193
 31
0.0
  0
LINE
  5
4A9
  8
0
  6
CONTINUOUS
 62
     7
 10
-60.7024409
 20
-11.148784
 30
0.0
 11
-60.7606035
 21
-11.2890711
 31
0.0
  0
LINE
  5
4AA
  8
0
  6
CONTINUOUS
 62
     7
 10
-60.6853112
 20
-11.0845047
 30
0.0
 11
-60.7024409
 21
-11.148784
 31
0.0
  0
LINE
  5
4AB
  8
0
  6
CONTINUOUS
 62
     7
 10
-60.6759119
 20
-11.024532
 30
0.0
 11
-60.6853112
 21
-11.0845047
 31
0.0
  0
LINE
  5
4AC
  8
0
  6
CONTINUOUS
 62
     7
 10
-60.6740486
 20
-10.9691597
 30
0.0
 11
-60.6759119
 21
-11.024532
 31
0.0
  0
LINE
  5
4AD
  8
0
  6
CONTINUOUS
 62
     7
 10
-60.6795335
 20
-10.9186738
 30
0.0
 11
-60.6740486
 21
-10.9691597
 31
0.0
  0
LINE
  5
4AE
  8
0
  6
CONTINUOUS
 62
     7
 10
-60.6921428
 20
-10.8733567
 30
0.0
 11
-60.6795335
 21
-10.9186738
 31
0.0
  0
LINE
  5
4AF
  8
0
  6
CONTINUOUS
 62
     7
 10
-60.71165910000001
 20
-10.8334829
 30
0.0
 11
-60.6921428
 21
-10.8733567
 31
0.0
  0
LINE
  5
4B0
  8
0
  6
CONTINUOUS
 62
     7
 10
-60.7378717
 20
-10.7993192
 30
0.0
 11
-60.71165910000001
 21
-10.8334829
 31
0.0
  0
LINE
  5
4B1
  8
0
  6
CONTINUOUS
 62
     7
 10
-61.2184089
 20
-10.2524624
 30
0.0
 11
-60.7378717
 21
-10.7993192
 31
0.0
  0
LINE
  5
4B2
  8
0
  6
CONTINUOUS
 62
     7
 10
-61.6735134
 20
-9.684265000000002
 30
0.0
 11
-61.2184089
 21
-10.2524624
 31
0.0
  0
LINE
  5
4B3
  8
0
  6
CONTINUOUS
 62
     7
 10
-61.70260620000001
 20
-9.6525182
 30
0.0
 11
-61.6735134
 21
-9.684265000000002
 31
0.0
  0
LINE
  5
4B4
  8
0
  6
CONTINUOUS
 62
     7
 10
-61.7384853
 20
-9.6263743
 30
0.0
 11
-61.70260620000001
 21
-9.6525182
 31
0.0
  0
LINE
  5
4B5
  8
0
  6
CONTINUOUS
 62
     7
 10
-61.7809244
 20
-9.6060873
 30
0.0
 11
-61.7384853
 21
-9.6263743
 31
0.0
  0
LINE
  5
4B6
  8
0
  6
CONTINUOUS
 62
     7
 10
-61.8296908
 20
-9.591919
 30
0.0
 11
-61.7809244
 21
-9.6060873
 31
0.0
  0
LINE
  5
4B7
  8
0
  6
CONTINUOUS
 62
     7
 10
-61.88454540000001
 20
-9.584138700000002
 30
0.0
 11
-61.8296908
 21
-9.591919
 31
0.0
  0
LINE
  5
4B8
  8
0
  6
CONTINUOUS
 62
     7
 10
-61.9452392
 20
-9.582981
 30
0.0
 11
-61.88454540000001
 21
-9.584138700000002
 31
0.0
  0
LINE
  5
4B9
  8
0
  6
CONTINUOUS
 62
     7
 10
-62.0115164
 20
-9.5886885
 30
0.0
 11
-61.9452392
 21
-9.582981
 31
0.0
  0
LINE
  5
4BA
  8
0
  6
CONTINUOUS
 62
     7
 10
-62.1597721
 20
-9.6216069
 30
0.0
 11
-62.0115164
 21
-9.5886885
 31
0.0
  0
LINE
  5
4BB
  8
0
  6
CONTINUOUS
 62
     7
 10
-62.3271095
 20
-9.6846481
 30
0.0
 11
-62.1597721
 21
-9.6216069
 31
0.0
  0
LINE
  5
4BC
  8
0
  6
CONTINUOUS
 62
     7
 10
-62.5112286
 20
-9.7794331
 30
0.0
 11
-62.3271095
 21
-9.6846481
 31
0.0
  0
LINE
  5
4BD
  8
0
  6
CONTINUOUS
 62
     7
 10
-62.72712799999999
 20
-9.9191083
 30
0.0
 11
-62.5112286
 21
-9.7794331
 31
0.0
  0
LINE
  5
4BE
  8
0
  6
CONTINUOUS
 62
     7
 10
-62.8362482
 20
-9.982813700000001
 30
0.0
 11
-62.72712799999999
 21
-9.9191083
 31
0.0
  0
LINE
  5
4BF
  8
0
  6
CONTINUOUS
 62
     7
 10
-63.0599696
 20
-10.0903601
 30
0.0
 11
-62.8362482
 21
-9.982813700000001
 31
0.0
  0
LINE
  5
4C0
  8
0
  6
CONTINUOUS
 62
     7
 10
-63.2157458
 20
-10.1539869
 30
0.0
 11
-63.0599696
 21
-10.0903601
 31
0.0
  0
LINE
  5
4C1
  8
0
  6
CONTINUOUS
 62
     7
 10
-63.4017617
 20
-10.221044
 30
0.0
 11
-63.2157458
 21
-10.1539869
 31
0.0
  0
LINE
  5
4C2
  8
0
  6
CONTINUOUS
 62
     7
 10
-63.617961
 20
-10.2889385
 30
0.0
 11
-63.4017617
 21
-10.221044
 31
0.0
  0
LINE
  5
4C3
  8
0
  6
CONTINUOUS
 62
     7
 10
-63.8671178
 20
-10.3558732
 30
0.0
 11
-63.617961
 21
-10.2889385
 31
0.0
  0
LINE
  5
4C4
  8
0
  6
CONTINUOUS
 62
     7
 10
-64.1478573
 20
-10.4187884
 30
0.0
 11
-63.8671178
 21
-10.3558732
 31
0.0
  0
LINE
  5
4C5
  8
0
  6
CONTINUOUS
 62
     7
 10
-64.45924860000001
 20
-10.4749973
 30
0.0
 11
-64.1478573
 21
-10.4187884
 31
0.0
  0
LINE
  5
4C6
  8
0
  6
CONTINUOUS
 62
     7
 10
-64.8021667
 20
-10.5221662
 30
0.0
 11
-64.45924860000001
 21
-10.4749973
 31
0.0
  0
LINE
  5
4C7
  8
0
  6
CONTINUOUS
 62
     7
 10
-65.1756265
 20
-10.5577194
 30
0.0
 11
-64.8021667
 21
-10.5221662
 31
0.0
  0
LINE
  5
4C8
  8
0
  6
CONTINUOUS
 62
     7
 10
-65.5818615
 20
-10.5792754
 30
0.0
 11
-65.1756265
 21
-10.5577194
 31
0.0
  0
LINE
  5
4C9
  8
0
  6
CONTINUOUS
 62
     7
 10
-65.9697960245894
 20
-10.5841678168099
 30
0.0
 11
-65.5818615
 21
-10.5792754
 31
0.0
  0
LINE
  5
4CA
  8
0
  6
CONTINUOUS
 62
     7
 10
-66.45285200000001
 20
-9.0706756
 30
0.0
 11
-66.6510562278124
 21
-9.40419051481799
 31
0.0
  0
LINE
  5
4CB
  8
0
  6
CONTINUOUS
 62
     7
 10
-66.23106650000003
 20
-8.729643800000002
 30
0.0
 11
-66.45285200000001
 21
-9.0706756
 31
0.0
  0
LINE
  5
4CC
  8
0
  6
CONTINUOUS
 62
     7
 10
-66.0135465
 20
-8.4239947
 30
0.0
 11
-66.23106650000003
 21
-8.729643800000002
 31
0.0
  0
LINE
  5
4CD
  8
0
  6
CONTINUOUS
 62
     7
 10
-65.8012381
 20
-8.1506034
 30
0.0
 11
-66.0135465
 21
-8.4239947
 31
0.0
  0
LINE
  5
4CE
  8
0
  6
CONTINUOUS
 62
     7
 10
-65.59686410000002
 20
-7.909035
 30
0.0
 11
-65.8012381
 21
-8.1506034
 31
0.0
  0
LINE
  5
4CF
  8
0
  6
CONTINUOUS
 62
     7
 10
-65.4020082
 20
-7.6973651
 30
0.0
 11
-65.59686410000002
 21
-7.909035
 31
0.0
  0
LINE
  5
4D0
  8
0
  6
CONTINUOUS
 62
     7
 10
-65.2194627
 20
-7.515056299999999
 30
0.0
 11
-65.4020082
 21
-7.6973651
 31
0.0
  0
LINE
  5
4D1
  8
0
  6
CONTINUOUS
 62
     7
 10
-65.0525646
 20
-7.3617695
 30
0.0
 11
-65.2194627
 21
-7.515056299999999
 31
0.0
  0
LINE
  5
4D2
  8
0
  6
CONTINUOUS
 62
     7
 10
-64.9014835
 20
-7.2342035
 30
0.0
 11
-65.0525646
 21
-7.3617695
 31
0.0
  0
LINE
  5
4D3
  8
0
  6
CONTINUOUS
 62
     7
 10
-64.7684929
 20
-7.1311108
 30
0.0
 11
-64.9014835
 21
-7.2342035
 31
0.0
  0
LINE
  5
4D4
  8
0
  6
CONTINUOUS
 62
     7
 10
-64.56349430000002
 20
-6.9911356
 30
0.0
 11
-64.7684929
 21
-7.1311108
 31
0.0
  0
LINE
  5
4D5
  8
0
  6
CONTINUOUS
 62
     7
 10
-64.4537637
 20
-6.9284874
 30
0.0
 11
-64.56349430000002
 21
-6.9911356
 31
0.0
  0
LINE
  5
4D6
  8
0
  6
CONTINUOUS
 62
     7
 10
-64.2248518
 20
-6.811350699999999
 30
0.0
 11
-64.4537637
 21
-6.9284874
 31
0.0
  0
LINE
  5
4D7
  8
0
  6
CONTINUOUS
 62
     7
 10
-64.05070610000001
 20
-6.699291300000001
 30
0.0
 11
-64.2248518
 21
-6.811350699999999
 31
0.0
  0
LINE
  5
4D8
  8
0
  6
CONTINUOUS
 62
     7
 10
-63.912442
 20
-6.5858935
 30
0.0
 11
-64.05070610000001
 21
-6.699291300000001
 31
0.0
  0
LINE
  5
4D9
  8
0
  6
CONTINUOUS
 62
     7
 10
-63.80980599999999
 20
-6.4739595
 30
0.0
 11
-63.912442
 21
-6.5858935
 31
0.0
  0
LINE
  5
4DA
  8
0
  6
CONTINUOUS
 62
     7
 10
-63.7717246
 20
-6.4194155
 30
0.0
 11
-63.80980599999999
 21
-6.4739595
 31
0.0
  0
LINE
  5
4DB
  8
0
  6
CONTINUOUS
 62
     7
 10
-63.7423803
 20
-6.366274300000001
 30
0.0
 11
-63.7717246
 21
-6.4194155
 31
0.0
  0
LINE
  5
4DC
  8
0
  6
CONTINUOUS
 62
     7
 10
-63.72169090000001
 20
-6.314878599999999
 30
0.0
 11
-63.7423803
 21
-6.366274300000001
 31
0.0
  0
LINE
  5
4DD
  8
0
  6
CONTINUOUS
 62
     7
 10
-63.7095778
 20
-6.2655615
 30
0.0
 11
-63.72169090000001
 21
-6.314878599999999
 31
0.0
  0
LINE
  5
4DE
  8
0
  6
CONTINUOUS
 62
     7
 10
-63.70592730000001
 20
-6.218664700000001
 30
0.0
 11
-63.7095778
 21
-6.2655615
 31
0.0
  0
LINE
  5
4DF
  8
0
  6
CONTINUOUS
 62
     7
 10
-63.7106291
 20
-6.1745206
 30
0.0
 11
-63.70592730000001
 21
-6.218664700000001
 31
0.0
  0
LINE
  5
4E0
  8
0
  6
CONTINUOUS
 62
     7
 10
-63.7235761
 20
-6.133452
 30
0.0
 11
-63.7106291
 21
-6.1745206
 31
0.0
  0
LINE
  5
4E1
  8
0
  6
CONTINUOUS
 62
     7
 10
-63.98809730000001
 20
-5.4552213
 30
0.0
 11
-63.7235761
 21
-6.133452
 31
0.0
  0
LINE
  5
4E2
  8
0
  6
CONTINUOUS
 62
     7
 10
-64.22142070000002
 20
-4.765635499999999
 30
0.0
 11
-63.98809730000001
 21
-5.4552213
 31
0.0
  0
LINE
  5
4E3
  8
0
  6
CONTINUOUS
 62
     7
 10
-64.237901
 20
-4.7258529
 30
0.0
 11
-64.22142070000002
 21
-4.765635499999999
 31
0.0
  0
LINE
  5
4E4
  8
0
  6
CONTINUOUS
 62
     7
 10
-64.2626746
 20
-4.689014299999999
 30
0.0
 11
-64.237901
 21
-4.7258529
 31
0.0
  0
LINE
  5
4E5
  8
0
  6
CONTINUOUS
 62
     7
 10
-64.2956157
 20
-4.655435799999999
 30
0.0
 11
-64.2626746
 21
-4.689014299999999
 31
0.0
  0
LINE
  5
4E6
  8
0
  6
CONTINUOUS
 62
     7
 10
-64.33659520000002
 20
-4.6254428
 30
0.0
 11
-64.2956157
 21
-4.655435799999999
 31
0.0
  0
LINE
  5
4E7
  8
0
  6
CONTINUOUS
 62
     7
 10
-64.3854807
 20
-4.599370299999999
 30
0.0
 11
-64.33659520000002
 21
-4.6254428
 31
0.0
  0
LINE
  5
4E8
  8
0
  6
CONTINUOUS
 62
     7
 10
-64.4421183
 20
-4.577524
 30
0.0
 11
-64.3854807
 21
-4.599370299999999
 31
0.0
  0
LINE
  5
4E9
  8
0
  6
CONTINUOUS
 62
     7
 10
-64.50635060000002
 20
-4.5602191
 30
0.0
 11
-64.4421183
 21
-4.577524
 31
0.0
  0
LINE
  5
4EA
  8
0
  6
CONTINUOUS
 62
     7
 10
-64.6569241
 20
-4.5404458
 30
0.0
 11
-64.50635060000002
 21
-4.5602191
 31
0.0
  0
LINE
  5
4EB
  8
0
  6
CONTINUOUS
 62
     7
 10
-64.8357312
 20
-4.5424525
 30
0.0
 11
-64.6569241
 21
-4.5404458
 31
0.0
  0
LINE
  5
4EC
  8
0
  6
CONTINUOUS
 62
     7
 10
-65.0411649
 20
-4.5685487
 30
0.0
 11
-64.8357312
 21
-4.5424525
 31
0.0
  0
LINE
  5
4ED
  8
0
  6
CONTINUOUS
 62
     7
 10
-65.2918157
 20
-4.6259586
 30
0.0
 11
-65.0411649
 21
-4.5685487
 31
0.0
  0
LINE
  5
4EE
  8
0
  6
CONTINUOUS
 62
     7
 10
-65.41614369999999
 20
-4.6485007
 30
0.0
 11
-65.2918157
 21
-4.6259586
 31
0.0
  0
LINE
  5
4EF
  8
0
  6
CONTINUOUS
 62
     7
 10
-65.6631561
 20
-4.6730441
 30
0.0
 11
-65.41614369999999
 21
-4.6485007
 31
0.0
  0
LINE
  5
4F0
  8
0
  6
CONTINUOUS
 62
     7
 10
-65.8312994
 20
-4.6795552
 30
0.0
 11
-65.6631561
 21
-4.6730441
 31
0.0
  0
LINE
  5
4F1
  8
0
  6
CONTINUOUS
 62
     7
 10
-66.0290322
 20
-4.678947099999999
 30
0.0
 11
-65.8312994
 21
-4.6795552
 31
0.0
  0
LINE
  5
4F2
  8
0
  6
CONTINUOUS
 62
     7
 10
-66.2554143
 20
-4.6688025
 30
0.0
 11
-66.0290322
 21
-4.678947099999999
 31
0.0
  0
LINE
  5
4F3
  8
0
  6
CONTINUOUS
 62
     7
 10
-66.51243819999999
 20
-4.6464839
 30
0.0
 11
-66.2554143
 21
-4.6688025
 31
0.0
  0
LINE
  5
4F4
  8
0
  6
CONTINUOUS
 62
     7
 10
-66.7977652
 20
-4.6095863
 30
0.0
 11
-66.51243819999999
 21
-4.6464839
 31
0.0
  0
LINE
  5
4F5
  8
0
  6
CONTINUOUS
 62
     7
 10
-67.10960200000001
 20
-4.5559032
 30
0.0
 11
-66.7977652
 21
-4.6095863
 31
0.0
  0
LINE
  5
4F6
  8
0
  6
CONTINUOUS
 62
     7
 10
-67.4479722
 20
-4.4829426
 30
0.0
 11
-67.10960200000001
 21
-4.5559032
 31
0.0
  0
LINE
  5
4F7
  8
0
  6
CONTINUOUS
 62
     7
 10
-67.8110695
 20
-4.3886209
 30
0.0
 11
-67.4479722
 21
-4.4829426
 31
0.0
  0
LINE
  5
4F8
  8
0
  6
CONTINUOUS
 62
     7
 10
-68.2001782
 20
-4.269936400000001
 30
0.0
 11
-67.8110695
 21
-4.3886209
 31
0.0
  0
LINE
  5
4F9
  8
0
  6
CONTINUOUS
 62
     7
 10
-68.5663906683792
 20
-4.141852308598311
 30
0.0
 11
-68.2001782
 21
-4.269936400000001
 31
0.0
  0
LINE
  5
4FA
  8
0
  6
CONTINUOUS
 62
     7
 10
-68.50267
 20
-2.55442
 30
0.0
 11
-68.80298987053631
 21
-2.80003169583408
 31
0.0
  0
LINE
  5
4FB
  8
0
  6
CONTINUOUS
 62
     7
 10
-68.17761999999999
 20
-2.30981
 30
0.0
 11
-68.50267
 21
-2.55442
 31
0.0
  0
LINE
  5
4FC
  8
0
  6
CONTINUOUS
 62
     7
 10
-67.86868
 20
-2.09699
 30
0.0
 11
-68.17761999999999
 21
-2.30981
 31
0.0
  0
LINE
  5
4FD
  8
0
  6
CONTINUOUS
 62
     7
 10
-67.57567
 20
-1.9127
 30
0.0
 11
-67.86868
 21
-2.09699
 31
0.0
  0
LINE
  5
4FE
  8
0
  6
CONTINUOUS
 62
     7
 10
-67.301
 20
-1.7556
 30
0.0
 11
-67.57567
 21
-1.9127
 31
0.0
  0
LINE
  5
4FF
  8
0
  6
CONTINUOUS
 62
     7
 10
-67.04549999999999
 20
-1.62334
 30
0.0
 11
-67.301
 21
-1.7556
 31
0.0
  0
LINE
  5
500
  8
0
  6
CONTINUOUS
 62
     7
 10
-66.81160999999999
 20
-1.51446
 30
0.0
 11
-67.04549999999999
 21
-1.62334
 31
0.0
  0
LINE
  5
501
  8
0
  6
CONTINUOUS
 62
     7
 10
-66.60235
 20
-1.4275
 30
0.0
 11
-66.81160999999999
 21
-1.51446
 31
0.0
  0
LINE
  5
502
  8
0
  6
CONTINUOUS
 62
     7
 10
-66.41675
 20
-1.3593
 30
0.0
 11
-66.60235
 21
-1.4275
 31
0.0
  0
LINE
  5
503
  8
0
  6
CONTINUOUS
 62
     7
 10
-66.25652
 20
-1.30791
 30
0.0
 11
-66.41675
 21
-1.3593
 31
0.0
  0
LINE
  5
504
  8
0
  6
CONTINUOUS
 62
     7
 10
-66.01601
 20
-1.24649
 30
0.0
 11
-66.25652
 21
-1.30791
 31
0.0
  0
LINE
  5
505
  8
0
  6
CONTINUOUS
 62
     7
 10
-65.89147
 20
-1.22515
 30
0.0
 11
-66.01601
 21
-1.24649
 31
0.0
  0
LINE
  5
506
  8
0
  6
CONTINUOUS
 62
     7
 10
-65.63629999999999
 20
-1.19337
 30
0.0
 11
-65.89147
 21
-1.22515
 31
0.0
  0
LINE
  5
507
  8
0
  6
CONTINUOUS
 62
     7
 10
-65.43433
 20
-1.14763
 30
0.0
 11
-65.63629999999999
 21
-1.19337
 31
0.0
  0
LINE
  5
508
  8
0
  6
CONTINUOUS
 62
     7
 10
-65.26562
 20
-1.08836
 30
0.0
 11
-65.43433
 21
-1.14763
 31
0.0
  0
LINE
  5
509
  8
0
  6
CONTINUOUS
 62
     7
 10
-65.13089
 20
-1.01828
 30
0.0
 11
-65.26562
 21
-1.08836
 31
0.0
  0
LINE
  5
50A
  8
0
  6
CONTINUOUS
 62
     7
 10
-65.07645
 20
-0.9800500000000001
 30
0.0
 11
-65.13089
 21
-1.01828
 31
0.0
  0
LINE
  5
50B
  8
0
  6
CONTINUOUS
 62
     7
 10
-65.0307
 20
-0.9401499999999999
 30
0.0
 11
-65.07645
 21
-0.9800500000000001
 31
0.0
  0
LINE
  5
50C
  8
0
  6
CONTINUOUS
 62
     7
 10
-64.99368
 20
-0.89893
 30
0.0
 11
-65.0307
 21
-0.9401499999999999
 31
0.0
  0
LINE
  5
50D
  8
0
  6
CONTINUOUS
 62
     7
 10
-64.96543
 20
-0.85673
 30
0.0
 11
-64.99368
 21
-0.89893
 31
0.0
  0
LINE
  5
50E
  8
0
  6
CONTINUOUS
 62
     7
 10
-64.94596
 20
-0.81391
 30
0.0
 11
-64.96543
 21
-0.85673
 31
0.0
  0
LINE
  5
50F
  8
0
  6
CONTINUOUS
 62
     7
 10
-64.93527999999999
 20
-0.77082
 30
0.0
 11
-64.94596
 21
-0.81391
 31
0.0
  0
LINE
  5
510
  8
0
  6
CONTINUOUS
 62
     7
 10
-64.9334
 20
-0.7278
 30
0.0
 11
-64.93527999999999
 21
-0.77082
 31
0.0
  0
LINE
  5
511
  8
0
  6
CONTINUOUS
 62
     7
 10
-64.94999999999999
 20
0.0
 30
0.0
 11
-64.9334
 21
-0.7278
 31
0.0
  0
LINE
  5
512
  8
0
  6
CONTINUOUS
 62
     7
 10
-64.9334
 20
0.7278
 30
0.0
 11
-64.94999999999999
 21
0.0
 31
0.0
  0
LINE
  5
513
  8
0
  6
CONTINUOUS
 62
     7
 10
-64.93527999999999
 20
0.77082
 30
0.0
 11
-64.9334
 21
0.7278
 31
0.0
  0
LINE
  5
514
  8
0
  6
CONTINUOUS
 62
     7
 10
-64.94596
 20
0.81391
 30
0.0
 11
-64.93527999999999
 21
0.77082
 31
0.0
  0
LINE
  5
515
  8
0
  6
CONTINUOUS
 62
     7
 10
-64.96543
 20
0.85673
 30
0.0
 11
-64.94596
 21
0.81391
 31
0.0
  0
LINE
  5
516
  8
0
  6
CONTINUOUS
 62
     7
 10
-64.99368
 20
0.89893
 30
0.0
 11
-64.96543
 21
0.85673
 31
0.0
  0
LINE
  5
517
  8
0
  6
CONTINUOUS
 62
     7
 10
-65.0307
 20
0.9401499999999999
 30
0.0
 11
-64.99368
 21
0.89893
 31
0.0
  0
LINE
  5
518
  8
0
  6
CONTINUOUS
 62
     7
 10
-65.07645
 20
0.9800500000000001
 30
0.0
 11
-65.0307
 21
0.9401499999999999
 31
0.0
  0
LINE
  5
519
  8
0
  6
CONTINUOUS
 62
     7
 10
-65.13089
 20
1.01828
 30
0.0
 11
-65.07645
 21
0.9800500000000001
 31
0.0
  0
LINE
  5
51A
  8
0
  6
CONTINUOUS
 62
     7
 10
-65.26562
 20
1.08836
 30
0.0
 11
-65.13089
 21
1.01828
 31
0.0
  0
LINE
  5
51B
  8
0
  6
CONTINUOUS
 62
     7
 10
-65.43433
 20
1.14763
 30
0.0
 11
-65.26562
 21
1.08836
 31
0.0
  0
LINE
  5
51C
  8
0
  6
CONTINUOUS
 62
     7
 10
-65.63629999999999
 20
1.19337
 30
0.0
 11
-65.43433
 21
1.14763
 31
0.0
  0
LINE
  5
51D
  8
0
  6
CONTINUOUS
 62
     7
 10
-65.89147
 20
1.22515
 30
0.0
 11
-65.63629999999999
 21
1.19337
 31
0.0
  0
LINE
  5
51E
  8
0
  6
CONTINUOUS
 62
     7
 10
-66.01601
 20
1.24649
 30
0.0
 11
-65.89147
 21
1.22515
 31
0.0
  0
LINE
  5
51F
  8
0
  6
CONTINUOUS
 62
     7
 10
-66.25652
 20
1.30791
 30
0.0
 11
-66.01601
 21
1.24649
 31
0.0
  0
LINE
  5
520
  8
0
  6
CONTINUOUS
 62
     7
 10
-66.41675
 20
1.3593
 30
0.0
 11
-66.25652
 21
1.30791
 31
0.0
  0
LINE
  5
521
  8
0
  6
CONTINUOUS
 62
     7
 10
-66.60235
 20
1.4275
 30
0.0
 11
-66.41675
 21
1.3593
 31
0.0
  0
LINE
  5
522
  8
0
  6
CONTINUOUS
 62
     7
 10
-66.81160999999999
 20
1.51446
 30
0.0
 11
-66.60235
 21
1.4275
 31
0.0
  0
LINE
  5
523
  8
0
  6
CONTINUOUS
 62
     7
 10
-67.04549999999999
 20
1.62334
 30
0.0
 11
-66.81160999999999
 21
1.51446
 31
0.0
  0
LINE
  5
524
  8
0
  6
CONTINUOUS
 62
     7
 10
-67.301
 20
1.7556
 30
0.0
 11
-67.04549999999999
 21
1.62334
 31
0.0
  0
LINE
  5
525
  8
0
  6
CONTINUOUS
 62
     7
 10
-67.57567
 20
1.9127
 30
0.0
 11
-67.301
 21
1.7556
 31
0.0
  0
LINE
  5
526
  8
0
  6
CONTINUOUS
 62
     7
 10
-67.86868
 20
2.09699
 30
0.0
 11
-67.57567
 21
1.9127
 31
0.0
  0
LINE
  5
527
  8
0
  6
CONTINUOUS
 62
     7
 10
-68.17761999999999
 20
2.30981
 30
0.0
 11
-67.86868
 21
2.09699
 31
0.0
  0
LINE
  5
528
  8
0
  6
CONTINUOUS
 62
     7
 10
-68.50267
 20
2.55442
 30
0.0
 11
-68.17761999999999
 21
2.30981
 31
0.0
  0
LINE
  5
529
  8
0
  6
CONTINUOUS
 62
     7
 10
-68.8029898685181
 20
2.80003171010787
 30
0.0
 11
-68.50267
 21
2.55442
 31
0.0
  0
LINE
  5
52A
  8
0
  6
CONTINUOUS
 62
     7
 10
-68.2001782
 20
4.269936400000001
 30
0.0
 11
-68.5663906714774
 21
4.14185229396227
 31
0.0
  0
LINE
  5
52B
  8
0
  6
CONTINUOUS
 62
     7
 10
-67.8110695
 20
4.3886209
 30
0.0
 11
-68.2001782
 21
4.269936400000001
 31
0.0
  0
LINE
  5
52C
  8
0
  6
CONTINUOUS
 62
     7
 10
-67.4479722
 20
4.4829426
 30
0.0
 11
-67.8110695
 21
4.3886209
 31
0.0
  0
LINE
  5
52D
  8
0
  6
CONTINUOUS
 62
     7
 10
-67.10960200000001
 20
4.5559032
 30
0.0
 11
-67.4479722
 21
4.4829426
 31
0.0
  0
LINE
  5
52E
  8
0
  6
CONTINUOUS
 62
     7
 10
-66.7977652
 20
4.6095863
 30
0.0
 11
-67.10960200000001
 21
4.5559032
 31
0.0
  0
LINE
  5
52F
  8
0
  6
CONTINUOUS
 62
     7
 10
-66.51243819999999
 20
4.6464839
 30
0.0
 11
-66.7977652
 21
4.6095863
 31
0.0
  0
LINE
  5
530
  8
0
  6
CONTINUOUS
 62
     7
 10
-66.2554143
 20
4.6688025
 30
0.0
 11
-66.51243819999999
 21
4.6464839
 31
0.0
  0
LINE
  5
531
  8
0
  6
CONTINUOUS
 62
     7
 10
-66.0290322
 20
4.678947099999999
 30
0.0
 11
-66.2554143
 21
4.6688025
 31
0.0
  0
LINE
  5
532
  8
0
  6
CONTINUOUS
 62
     7
 10
-65.8312994
 20
4.6795552
 30
0.0
 11
-66.0290322
 21
4.678947099999999
 31
0.0
  0
LINE
  5
533
  8
0
  6
CONTINUOUS
 62
     7
 10
-65.6631561
 20
4.6730441
 30
0.0
 11
-65.8312994
 21
4.6795552
 31
0.0
  0
LINE
  5
534
  8
0
  6
CONTINUOUS
 62
     7
 10
-65.41614369999999
 20
4.6485007
 30
0.0
 11
-65.6631561
 21
4.6730441
 31
0.0
  0
LINE
  5
535
  8
0
  6
CONTINUOUS
 62
     7
 10
-65.2918157
 20
4.6259586
 30
0.0
 11
-65.41614369999999
 21
4.6485007
 31
0.0
  0
LINE
  5
536
  8
0
  6
CONTINUOUS
 62
     7
 10
-65.0411649
 20
4.5685487
 30
0.0
 11
-65.2918157
 21
4.6259586
 31
0.0
  0
LINE
  5
537
  8
0
  6
CONTINUOUS
 62
     7
 10
-64.8357312
 20
4.5424525
 30
0.0
 11
-65.0411649
 21
4.5685487
 31
0.0
  0
LINE
  5
538
  8
0
  6
CONTINUOUS
 62
     7
 10
-64.6569241
 20
4.5404458
 30
0.0
 11
-64.8357312
 21
4.5424525
 31
0.0
  0
LINE
  5
539
  8
0
  6
CONTINUOUS
 62
     7
 10
-64.50635060000002
 20
4.5602191
 30
0.0
 11
-64.6569241
 21
4.5404458
 31
0.0
  0
LINE
  5
53A
  8
0
  6
CONTINUOUS
 62
     7
 10
-64.4421183
 20
4.577524
 30
0.0
 11
-64.50635060000002
 21
4.5602191
 31
0.0
  0
LINE
  5
53B
  8
0
  6
CONTINUOUS
 62
     7
 10
-64.3854807
 20
4.599370299999999
 30
0.0
 11
-64.4421183
 21
4.577524
 31
0.0
  0
LINE
  5
53C
  8
0
  6
CONTINUOUS
 62
     7
 10
-64.33659520000002
 20
4.6254428
 30
0.0
 11
-64.3854807
 21
4.599370299999999
 31
0.0
  0
LINE
  5
53D
  8
0
  6
CONTINUOUS
 62
     7
 10
-64.2956157
 20
4.655435799999999
 30
0.0
 11
-64.33659520000002
 21
4.6254428
 31
0.0
  0
LINE
  5
53E
  8
0
  6
CONTINUOUS
 62
     7
 10
-64.2626746
 20
4.689014299999999
 30
0.0
 11
-64.2956157
 21
4.655435799999999
 31
0.0
  0
LINE
  5
53F
  8
0
  6
CONTINUOUS
 62
     7
 10
-64.237901
 20
4.7258529
 30
0.0
 11
-64.2626746
 21
4.689014299999999
 31
0.0
  0
LINE
  5
540
  8
0
  6
CONTINUOUS
 62
     7
 10
-64.22142070000002
 20
4.765635499999999
 30
0.0
 11
-64.237901
 21
4.7258529
 31
0.0
  0
LINE
  5
541
  8
0
  6
CONTINUOUS
 62
     7
 10
-63.98809730000001
 20
5.4552213
 30
0.0
 11
-64.22142070000002
 21
4.765635499999999
 31
0.0
  0
LINE
  5
542
  8
0
  6
CONTINUOUS
 62
     7
 10
-63.7235761
 20
6.133452
 30
0.0
 11
-63.98809730000001
 21
5.4552213
 31
0.0
  0
LINE
  5
543
  8
0
  6
CONTINUOUS
 62
     7
 10
-63.7106291
 20
6.1745206
 30
0.0
 11
-63.7235761
 21
6.133452
 31
0.0
  0
LINE
  5
544
  8
0
  6
CONTINUOUS
 62
     7
 10
-63.70592730000001
 20
6.218664700000001
 30
0.0
 11
-63.7106291
 21
6.1745206
 31
0.0
  0
LINE
  5
545
  8
0
  6
CONTINUOUS
 62
     7
 10
-63.7095778
 20
6.2655615
 30
0.0
 11
-63.70592730000001
 21
6.218664700000001
 31
0.0
  0
LINE
  5
546
  8
0
  6
CONTINUOUS
 62
     7
 10
-63.72169090000001
 20
6.314878599999999
 30
0.0
 11
-63.7095778
 21
6.2655615
 31
0.0
  0
LINE
  5
547
  8
0
  6
CONTINUOUS
 62
     7
 10
-63.7423803
 20
6.366274300000001
 30
0.0
 11
-63.72169090000001
 21
6.314878599999999
 31
0.0
  0
LINE
  5
548
  8
0
  6
CONTINUOUS
 62
     7
 10
-63.7717246
 20
6.4194155
 30
0.0
 11
-63.7423803
 21
6.366274300000001
 31
0.0
  0
LINE
  5
549
  8
0
  6
CONTINUOUS
 62
     7
 10
-63.80980599999999
 20
6.4739595
 30
0.0
 11
-63.7717246
 21
6.4194155
 31
0.0
  0
LINE
  5
54A
  8
0
  6
CONTINUOUS
 62
     7
 10
-63.912442
 20
6.5858935
 30
0.0
 11
-63.80980599999999
 21
6.4739595
 31
0.0
  0
LINE
  5
54B
  8
0
  6
CONTINUOUS
 62
     7
 10
-64.05070610000001
 20
6.699291300000001
 30
0.0
 11
-63.912442
 21
6.5858935
 31
0.0
  0
LINE
  5
54C
  8
0
  6
CONTINUOUS
 62
     7
 10
-64.2248518
 20
6.811350699999999
 30
0.0
 11
-64.05070610000001
 21
6.699291300000001
 31
0.0
  0
LINE
  5
54D
  8
0
  6
CONTINUOUS
 62
     7
 10
-64.4537637
 20
6.9284874
 30
0.0
 11
-64.2248518
 21
6.811350699999999
 31
0.0
  0
LINE
  5
54E
  8
0
  6
CONTINUOUS
 62
     7
 10
-64.56349430000002
 20
6.9911356
 30
0.0
 11
-64.4537637
 21
6.9284874
 31
0.0
  0
LINE
  5
54F
  8
0
  6
CONTINUOUS
 62
     7
 10
-64.7684929
 20
7.1311108
 30
0.0
 11
-64.56349430000002
 21
6.9911356
 31
0.0
  0
LINE
  5
550
  8
0
  6
CONTINUOUS
 62
     7
 10
-64.9014835
 20
7.2342035
 30
0.0
 11
-64.7684929
 21
7.1311108
 31
0.0
  0
LINE
  5
551
  8
0
  6
CONTINUOUS
 62
     7
 10
-65.0525646
 20
7.3617695
 30
0.0
 11
-64.9014835
 21
7.2342035
 31
0.0
  0
LINE
  5
552
  8
0
  6
CONTINUOUS
 62
     7
 10
-65.2194627
 20
7.515056299999999
 30
0.0
 11
-65.0525646
 21
7.3617695
 31
0.0
  0
LINE
  5
553
  8
0
  6
CONTINUOUS
 62
     7
 10
-65.4020082
 20
7.6973651
 30
0.0
 11
-65.2194627
 21
7.515056299999999
 31
0.0
  0
LINE
  5
554
  8
0
  6
CONTINUOUS
 62
     7
 10
-65.59686410000002
 20
7.909035
 30
0.0
 11
-65.4020082
 21
7.6973651
 31
0.0
  0
LINE
  5
555
  8
0
  6
CONTINUOUS
 62
     7
 10
-65.8012381
 20
8.1506034
 30
0.0
 11
-65.59686410000002
 21
7.909035
 31
0.0
  0
LINE
  5
556
  8
0
  6
CONTINUOUS
 62
     7
 10
-66.0135465
 20
8.4239947
 30
0.0
 11
-65.8012381
 21
8.1506034
 31
0.0
  0
LINE
  5
557
  8
0
  6
CONTINUOUS
 62
     7
 10
-66.23106650000003
 20
8.729643800000002
 30
0.0
 11
-66.0135465
 21
8.4239947
 31
0.0
  0
LINE
  5
558
  8
0
  6
CONTINUOUS
 62
     7
 10
-66.45285200000001
 20
9.0706756
 30
0.0
 11
-66.23106650000003
 21
8.729643800000002
 31
0.0
  0
LINE
  5
559
  8
0
  6
CONTINUOUS
 62
     7
 10
-66.6510562265109
 20
9.40419051726089
 30
0.0
 11
-66.45285200000001
 21
9.0706756
 31
0.0
  0
LINE
  5
55A
  8
0
  6
CONTINUOUS
 62
     7
 10
-65.5818615
 20
10.5792754
 30
0.0
 11
-65.96979602525099
 21
10.5841678157492
 31
0.0
  0
LINE
  5
55B
  8
0
  6
CONTINUOUS
 62
     7
 10
-65.1756265
 20
10.5577194
 30
0.0
 11
-65.5818615
 21
10.5792754
 31
0.0
  0
LINE
  5
55C
  8
0
  6
CONTINUOUS
 62
     7
 10
-64.8021667
 20
10.5221662
 30
0.0
 11
-65.1756265
 21
10.5577194
 31
0.0
  0
LINE
  5
55D
  8
0
  6
CONTINUOUS
 62
     7
 10
-64.45924860000001
 20
10.4749973
 30
0.0
 11
-64.8021667
 21
10.5221662
 31
0.0
  0
LINE
  5
55E
  8
0
  6
CONTINUOUS
 62
     7
 10
-64.1478573
 20
10.4187884
 30
0.0
 11
-64.45924860000001
 21
10.4749973
 31
0.0
  0
LINE
  5
55F
  8
0
  6
CONTINUOUS
 62
     7
 10
-63.8671178
 20
10.3558732
 30
0.0
 11
-64.1478573
 21
10.4187884
 31
0.0
  0
LINE
  5
560
  8
0
  6
CONTINUOUS
 62
     7
 10
-63.617961
 20
10.2889385
 30
0.0
 11
-63.8671178
 21
10.3558732
 31
0.0
  0
LINE
  5
561
  8
0
  6
CONTINUOUS
 62
     7
 10
-63.4017617
 20
10.221044
 30
0.0
 11
-63.617961
 21
10.2889385
 31
0.0
  0
LINE
  5
562
  8
0
  6
CONTINUOUS
 62
     7
 10
-63.2157458
 20
10.1539869
 30
0.0
 11
-63.4017617
 21
10.221044
 31
0.0
  0
LINE
  5
563
  8
0
  6
CONTINUOUS
 62
     7
 10
-63.0599696
 20
10.0903601
 30
0.0
 11
-63.2157458
 21
10.1539869
 31
0.0
  0
LINE
  5
564
  8
0
  6
CONTINUOUS
 62
     7
 10
-62.8362482
 20
9.982813700000001
 30
0.0
 11
-63.0599696
 21
10.0903601
 31
0.0
  0
LINE
  5
565
  8
0
  6
CONTINUOUS
 62
     7
 10
-62.72712799999999
 20
9.9191083
 30
0.0
 11
-62.8362482
 21
9.982813700000001
 31
0.0
  0
LINE
  5
566
  8
0
  6
CONTINUOUS
 62
     7
 10
-62.5112286
 20
9.7794331
 30
0.0
 11
-62.72712799999999
 21
9.9191083
 31
0.0
  0
LINE
  5
567
  8
0
  6
CONTINUOUS
 62
     7
 10
-62.3271095
 20
9.6846481
 30
0.0
 11
-62.5112286
 21
9.7794331
 31
0.0
  0
LINE
  5
568
  8
0
  6
CONTINUOUS
 62
     7
 10
-62.1597721
 20
9.6216069
 30
0.0
 11
-62.3271095
 21
9.6846481
 31
0.0
  0
LINE
  5
569
  8
0
  6
CONTINUOUS
 62
     7
 10
-62.0115164
 20
9.5886885
 30
0.0
 11
-62.1597721
 21
9.6216069
 31
0.0
  0
LINE
  5
56A
  8
0
  6
CONTINUOUS
 62
     7
 10
-61.9452392
 20
9.582981
 30
0.0
 11
-62.0115164
 21
9.5886885
 31
0.0
  0
LINE
  5
56B
  8
0
  6
CONTINUOUS
 62
     7
 10
-61.88454540000001
 20
9.584138700000002
 30
0.0
 11
-61.9452392
 21
9.582981
 31
0.0
  0
LINE
  5
56C
  8
0
  6
CONTINUOUS
 62
     7
 10
-61.8296908
 20
9.591919
 30
0.0
 11
-61.88454540000001
 21
9.584138700000002
 31
0.0
  0
LINE
  5
56D
  8
0
  6
CONTINUOUS
 62
     7
 10
-61.7809244
 20
9.6060873
 30
0.0
 11
-61.8296908
 21
9.591919
 31
0.0
  0
LINE
  5
56E
  8
0
  6
CONTINUOUS
 62
     7
 10
-61.7384853
 20
9.6263743
 30
0.0
 11
-61.7809244
 21
9.6060873
 31
0.0
  0
LINE
  5
56F
  8
0
  6
CONTINUOUS
 62
     7
 10
-61.70260620000001
 20
9.6525182
 30
0.0
 11
-61.7384853
 21
9.6263743
 31
0.0
  0
LINE
  5
570
  8
0
  6
CONTINUOUS
 62
     7
 10
-61.6735134
 20
9.684265000000002
 30
0.0
 11
-61.70260620000001
 21
9.6525182
 31
0.0
  0
LINE
  5
571
  8
0
  6
CONTINUOUS
 62
     7
 10
-61.2184089
 20
10.2524624
 30
0.0
 11
-61.6735134
 21
9.684265000000002
 31
0.0
  0
LINE
  5
572
  8
0
  6
CONTINUOUS
 62
     7
 10
-60.7378717
 20
10.7993192
 30
0.0
 11
-61.2184089
 21
10.2524624
 31
0.0
  0
LINE
  5
573
  8
0
  6
CONTINUOUS
 62
     7
 10
-60.71165910000001
 20
10.8334829
 30
0.0
 11
-60.7378717
 21
10.7993192
 31
0.0
  0
LINE
  5
574
  8
0
  6
CONTINUOUS
 62
     7
 10
-60.6921428
 20
10.8733567
 30
0.0
 11
-60.71165910000001
 21
10.8334829
 31
0.0
  0
LINE
  5
575
  8
0
  6
CONTINUOUS
 62
     7
 10
-60.6795335
 20
10.9186738
 30
0.0
 11
-60.6921428
 21
10.8733567
 31
0.0
  0
LINE
  5
576
  8
0
  6
CONTINUOUS
 62
     7
 10
-60.6740486
 20
10.9691597
 30
0.0
 11
-60.6795335
 21
10.9186738
 31
0.0
  0
LINE
  5
577
  8
0
  6
CONTINUOUS
 62
     7
 10
-60.6759119
 20
11.024532
 30
0.0
 11
-60.6740486
 21
10.9691597
 31
0.0
  0
LINE
  5
578
  8
0
  6
CONTINUOUS
 62
     7
 10
-60.6853112
 20
11.0845047
 30
0.0
 11
-60.6759119
 21
11.024532
 31
0.0
  0
LINE
  5
579
  8
0
  6
CONTINUOUS
 62
     7
 10
-60.7024409
 20
11.148784
 30
0.0
 11
-60.6853112
 21
11.0845047
 31
0.0
  0
LINE
  5
57A
  8
0
  6
CONTINUOUS
 62
     7
 10
-60.7606035
 20
11.2890711
 30
0.0
 11
-60.7024409
 21
11.148784
 31
0.0
  0
LINE
  5
57B
  8
0
  6
CONTINUOUS
 62
     7
 10
-60.85174480000001
 20
11.4429193
 30
0.0
 11
-60.7606035
 21
11.2890711
 31
0.0
  0
LINE
  5
57C
  8
0
  6
CONTINUOUS
 62
     7
 10
-60.9770617
 20
11.607782
 30
0.0
 11
-60.85174480000001
 21
11.4429193
 31
0.0
  0
LINE
  5
57D
  8
0
  6
CONTINUOUS
 62
     7
 10
-61.1521055
 20
11.796147
 30
0.0
 11
-60.9770617
 21
11.607782
 31
0.0
  0
LINE
  5
57E
  8
0
  6
CONTINUOUS
 62
     7
 10
-61.2337916
 20
11.8925471
 30
0.0
 11
-61.1521055
 21
11.796147
 31
0.0
  0
LINE
  5
57F
  8
0
  6
CONTINUOUS
 62
     7
 10
-61.3785529
 20
12.0941944
 30
0.0
 11
-61.2337916
 21
11.8925471
 31
0.0
  0
LINE
  5
580
  8
0
  6
CONTINUOUS
 62
     7
 10
-61.4682634
 20
12.2365553
 30
0.0
 11
-61.3785529
 21
12.0941944
 31
0.0
  0
LINE
  5
581
  8
0
  6
CONTINUOUS
 62
     7
 10
-61.56660310000001
 20
12.4081009
 30
0.0
 11
-61.4682634
 21
12.2365553
 31
0.0
  0
LINE
  5
582
  8
0
  6
CONTINUOUS
 62
     7
 10
-61.6710087
 20
12.6092259
 30
0.0
 11
-61.56660310000001
 21
12.4081009
 31
0.0
  0
LINE
  5
583
  8
0
  6
CONTINUOUS
 62
     7
 10
-61.7801922
 20
12.8429744
 30
0.0
 11
-61.6710087
 21
12.6092259
 31
0.0
  0
LINE
  5
584
  8
0
  6
CONTINUOUS
 62
     7
 10
-61.8909014
 20
13.1085237
 30
0.0
 11
-61.7801922
 21
12.8429744
 31
0.0
  0
LINE
  5
585
  8
0
  6
CONTINUOUS
 62
     7
 10
-62.0003289
 20
13.4054237
 30
0.0
 11
-61.8909014
 21
13.1085237
 31
0.0
  0
LINE
  5
586
  8
0
  6
CONTINUOUS
 62
     7
 10
-62.1063283
 20
13.7349413
 30
0.0
 11
-62.0003289
 21
13.4054237
 31
0.0
  0
LINE
  5
587
  8
0
  6
CONTINUOUS
 62
     7
 10
-62.206192
 20
14.0965536
 30
0.0
 11
-62.1063283
 21
13.7349413
 31
0.0
  0
LINE
  5
588
  8
0
  6
CONTINUOUS
 62
     7
 10
-62.2979625
 20
14.4928739
 30
0.0
 11
-62.206192
 21
14.0965536
 31
0.0
  0
LINE
  5
589
  8
0
  6
CONTINUOUS
 62
     7
 10
-62.37014470635921
 20
14.874065319291
 30
0.0
 11
-62.2979625
 21
14.4928739
 31
0.0
  0
LINE
  5
58A
  8
0
  6
CONTINUOUS
 62
     7
 10
-60.9635276
 20
15.6125977
 30
0.0
 11
-61.326393510266
 21
15.7498765131172
 31
0.0
  0
LINE
  5
58B
  8
0
  6
CONTINUOUS
 62
     7
 10
-60.58916410000001
 20
15.4534011
 30
0.0
 11
-60.9635276
 21
15.6125977
 31
0.0
  0
LINE
  5
58C
  8
0
  6
CONTINUOUS
 62
     7
 10
-60.2503866
 20
15.2922612
 30
0.0
 11
-60.58916410000001
 21
15.4534011
 31
0.0
  0
LINE
  5
58D
  8
0
  6
CONTINUOUS
 62
     7
 10
-59.9442818
 20
15.1306521
 30
0.0
 11
-60.2503866
 21
15.2922612
 31
0.0
  0
LINE
  5
58E
  8
0
  6
CONTINUOUS
 62
     7
 10
-59.6708942
 20
14.9713309
 30
0.0
 11
-59.9442818
 21
15.1306521
 31
0.0
  0
LINE
  5
58F
  8
0
  6
CONTINUOUS
 62
     7
 10
-59.4286037
 20
14.8161914
 30
0.0
 11
-59.6708942
 21
14.9713309
 31
0.0
  0
LINE
  5
590
  8
0
  6
CONTINUOUS
 62
     7
 10
-59.2173658
 20
14.6680767
 30
0.0
 11
-59.4286037
 21
14.8161914
 31
0.0
  0
LINE
  5
591
  8
0
  6
CONTINUOUS
 62
     7
 10
-59.0374263
 20
14.5303323
 30
0.0
 11
-59.2173658
 21
14.6680767
 31
0.0
  0
LINE
  5
592
  8
0
  6
CONTINUOUS
 62
     7
 10
-58.8855633
 20
14.403698
 30
0.0
 11
-59.0374263
 21
14.5303323
 31
0.0
  0
LINE
  5
593
  8
0
  6
CONTINUOUS
 62
     7
 10
-58.7609433
 20
14.2906297
 30
0.0
 11
-58.8855633
 21
14.403698
 31
0.0
  0
LINE
  5
594
  8
0
  6
CONTINUOUS
 62
     7
 10
-58.587497
 20
14.1130519
 30
0.0
 11
-58.7609433
 21
14.2906297
 31
0.0
  0
LINE
  5
595
  8
0
  6
CONTINUOUS
 62
     7
 10
-58.506746
 20
14.0158671
 30
0.0
 11
-58.587497
 21
14.1130519
 31
0.0
  0
LINE
  5
596
  8
0
  6
CONTINUOUS
 62
     7
 10
-58.35163870000001
 20
13.8107734
 30
0.0
 11
-58.506746
 21
14.0158671
 31
0.0
  0
LINE
  5
597
  8
0
  6
CONTINUOUS
 62
     7
 10
-58.2110417
 20
13.6587323
 30
0.0
 11
-58.35163870000001
 21
13.8107734
 31
0.0
  0
LINE
  5
598
  8
0
  6
CONTINUOUS
 62
     7
 10
-58.0753574
 20
13.5422601
 30
0.0
 11
-58.2110417
 21
13.6587323
 31
0.0
  0
LINE
  5
599
  8
0
  6
CONTINUOUS
 62
     7
 10
-57.94730130000001
 20
13.4606205
 30
0.0
 11
-58.0753574
 21
13.5422601
 31
0.0
  0
LINE
  5
59A
  8
0
  6
CONTINUOUS
 62
     7
 10
-57.88697320000001
 20
13.4325891
 30
0.0
 11
-57.94730130000001
 21
13.4606205
 31
0.0
  0
LINE
  5
59B
  8
0
  6
CONTINUOUS
 62
     7
 10
-57.82954380000001
 20
13.4129184
 30
0.0
 11
-57.88697320000001
 21
13.4325891
 31
0.0
  0
LINE
  5
59C
  8
0
  6
CONTINUOUS
 62
     7
 10
-57.7753362
 20
13.4014682
 30
0.0
 11
-57.82954380000001
 21
13.4129184
 31
0.0
  0
LINE
  5
59D
  8
0
  6
CONTINUOUS
 62
     7
 10
-57.7246649
 20
13.398103
 30
0.0
 11
-57.7753362
 21
13.4014682
 31
0.0
  0
LINE
  5
59E
  8
0
  6
CONTINUOUS
 62
     7
 10
-57.67784670000001
 20
13.4026514
 30
0.0
 11
-57.7246649
 21
13.398103
 31
0.0
  0
LINE
  5
59F
  8
0
  6
CONTINUOUS
 62
     7
 10
-57.6351897
 20
13.4149473
 30
0.0
 11
-57.67784670000001
 21
13.4026514
 31
0.0
  0
LINE
  5
5A0
  8
0
  6
CONTINUOUS
 62
     7
 10
-57.5969933
 20
13.4348292
 30
0.0
 11
-57.6351897
 21
13.4149473
 31
0.0
  0
LINE
  5
5A1
  8
0
  6
CONTINUOUS
 62
     7
 10
-56.97499999999999
 20
13.8131052
 30
0.0
 11
-57.5969933
 21
13.4348292
 31
0.0
  0
LINE
  5
5A2
  8
0
  6
CONTINUOUS
 62
     7
 10
-56.3364067
 20
14.1626292
 30
0.0
 11
-56.97499999999999
 21
13.8131052
 31
0.0
  0
LINE
  5
5A3
  8
0
  6
CONTINUOUS
 62
     7
 10
-56.3000903
 20
14.1857673
 30
0.0
 11
-56.3364067
 21
14.1626292
 31
0.0
  0
LINE
  5
5A4
  8
0
  6
CONTINUOUS
 62
     7
 10
-56.2681133
 20
14.2165614
 30
0.0
 11
-56.3000903
 21
14.1857673
 31
0.0
  0
LINE
  5
5A5
  8
0
  6
CONTINUOUS
 62
     7
 10
-56.2407651
 20
14.254833
 30
0.0
 11
-56.2681133
 21
14.2165614
 31
0.0
  0
LINE
  5
5A6
  8
0
  6
CONTINUOUS
 62
     7
 10
-56.2183438
 20
14.3003982
 30
0.0
 11
-56.2407651
 21
14.254833
 31
0.0
  0
LINE
  5
5A7
  8
0
  6
CONTINUOUS
 62
     7
 10
-56.2011562
 20
14.3530684
 30
0.0
 11
-56.2183438
 21
14.3003982
 31
0.0
  0
LINE
  5
5A8
  8
0
  6
CONTINUOUS
 62
     7
 10
-56.18947680000001
 20
14.4126391
 30
0.0
 11
-56.2011562
 21
14.3530684
 31
0.0
  0
LINE
  5
5A9
  8
0
  6
CONTINUOUS
 62
     7
 10
-56.1835887
 20
14.4789005
 30
0.0
 11
-56.18947680000001
 21
14.4126391
 31
0.0
  0
LINE
  5
5AA
  8
0
  6
CONTINUOUS
 62
     7
 10
-56.1902626
 20
14.6306201
 30
0.0
 11
-56.1835887
 21
14.4789005
 31
0.0
  0
LINE
  5
5AB
  8
0
  6
CONTINUOUS
 62
     7
 10
-56.2232883
 20
14.8063623
 30
0.0
 11
-56.1902626
 21
14.6306201
 31
0.0
  0
LINE
  5
5AC
  8
0
  6
CONTINUOUS
 62
     7
 10
-56.2846613
 20
15.0041434
 30
0.0
 11
-56.2232883
 21
14.8063623
 31
0.0
  0
LINE
  5
5AD
  8
0
  6
CONTINUOUS
 62
     7
 10
-56.384724
 20
15.2410171
 30
0.0
 11
-56.2846613
 21
15.0041434
 31
0.0
  0
LINE
  5
5AE
  8
0
  6
CONTINUOUS
 62
     7
 10
-56.42851300000001
 20
15.3595419
 30
0.0
 11
-56.384724
 21
15.2410171
 31
0.0
  0
LINE
  5
5AF
  8
0
  6
CONTINUOUS
 62
     7
 10
-56.4955767
 20
15.5985397
 30
0.0
 11
-56.42851300000001
 21
15.3595419
 31
0.0
  0
LINE
  5
5B0
  8
0
  6
CONTINUOUS
 62
     7
 10
-56.5311867
 20
15.762998
 30
0.0
 11
-56.4955767
 21
15.5985397
 31
0.0
  0
LINE
  5
5B1
  8
0
  6
CONTINUOUS
 62
     7
 10
-56.56492370000001
 20
15.9578323
 30
0.0
 11
-56.5311867
 21
15.762998
 31
0.0
  0
LINE
  5
5B2
  8
0
  6
CONTINUOUS
 62
     7
 10
-56.5942442
 20
16.1825367
 30
0.0
 11
-56.56492370000001
 21
15.9578323
 31
0.0
  0
LINE
  5
5B3
  8
0
  6
CONTINUOUS
 62
     7
 10
-56.61689629999999
 20
16.4395314
 30
0.0
 11
-56.5942442
 21
16.1825367
 31
0.0
  0
LINE
  5
5B4
  8
0
  6
CONTINUOUS
 62
     7
 10
-56.6301058
 20
16.7269309
 30
0.0
 11
-56.61689629999999
 21
16.4395314
 31
0.0
  0
LINE
  5
5B5
  8
0
  6
CONTINUOUS
 62
     7
 10
-56.63138820000001
 20
17.0433521
 30
0.0
 11
-56.6301058
 21
16.7269309
 31
0.0
  0
LINE
  5
5B6
  8
0
  6
CONTINUOUS
 62
     7
 10
-56.6182934
 20
17.3892512
 30
0.0
 11
-56.63138820000001
 21
17.0433521
 31
0.0
  0
LINE
  5
5B7
  8
0
  6
CONTINUOUS
 62
     7
 10
-56.5884559
 20
17.7632111
 30
0.0
 11
-56.6182934
 21
17.3892512
 31
0.0
  0
LINE
  5
5B8
  8
0
  6
CONTINUOUS
 62
     7
 10
-56.5391424
 20
18.1670177
 30
0.0
 11
-56.5884559
 21
17.7632111
 31
0.0
  0
LINE
  5
5B9
  8
0
  6
CONTINUOUS
 62
     7
 10
-56.4765963803628
 20
18.5499081528097
 30
0.0
 11
-56.5391424
 21
18.1670177
 31
0.0
  0
LINE
  5
5BA
  8
0
  6
CONTINUOUS
 62
     7
 10
-54.9022157
 20
18.7628102
 30
0.0
 11
-55.1962459851352
 21
19.0159175543805
 31
0.0
  0
LINE
  5
5BB
  8
0
  6
CONTINUOUS
 62
     7
 10
-54.60487759999999
 20
18.4851746
 30
0.0
 11
-54.9022157
 21
18.7628102
 31
0.0
  0
LINE
  5
5BC
  8
0
  6
CONTINUOUS
 62
     7
 10
-54.3416439
 20
18.2178839
 30
0.0
 11
-54.60487759999999
 21
18.4851746
 31
0.0
  0
LINE
  5
5BD
  8
0
  6
CONTINUOUS
 62
     7
 10
-54.109273
 20
17.961327
 30
0.0
 11
-54.3416439
 21
18.2178839
 31
0.0
  0
LINE
  5
5BE
  8
0
  6
CONTINUOUS
 62
     7
 10
-53.9068638
 20
17.7181099
 30
0.0
 11
-54.109273
 21
17.961327
 31
0.0
  0
LINE
  5
5BF
  8
0
  6
CONTINUOUS
 62
     7
 10
-53.732246
 20
17.4894583
 30
0.0
 11
-53.9068638
 21
17.7181099
 31
0.0
  0
LINE
  5
5C0
  8
0
  6
CONTINUOUS
 62
     7
 10
-53.5844056
 20
17.2780284
 30
0.0
 11
-53.732246
 21
17.4894583
 31
0.0
  0
LINE
  5
5C1
  8
0
  6
CONTINUOUS
 62
     7
 10
-53.4624291
 20
17.087048
 30
0.0
 11
-53.5844056
 21
17.2780284
 31
0.0
  0
LINE
  5
5C2
  8
0
  6
CONTINUOUS
 62
     7
 10
-53.3630361
 20
16.9161105
 30
0.0
 11
-53.4624291
 21
17.087048
 31
0.0
  0
LINE
  5
5C3
  8
0
  6
CONTINUOUS
 62
     7
 10
-53.2846032
 20
16.7672385
 30
0.0
 11
-53.3630361
 21
16.9161105
 31
0.0
  0
LINE
  5
5C4
  8
0
  6
CONTINUOUS
 62
     7
 10
-53.1823521
 20
16.5410479
 30
0.0
 11
-53.2846032
 21
16.7672385
 31
0.0
  0
LINE
  5
5C5
  8
0
  6
CONTINUOUS
 62
     7
 10
-53.1397102
 20
16.42210560000001
 30
0.0
 11
-53.1823521
 21
16.5410479
 31
0.0
  0
LINE
  5
5C6
  8
0
  6
CONTINUOUS
 62
     7
 10
-53.0641032
 20
16.1763307
 30
0.0
 11
-53.1397102
 21
16.42210560000001
 31
0.0
  0
LINE
  5
5C7
  8
0
  6
CONTINUOUS
 62
     7
 10
-52.9839864
 20
15.9853717
 30
0.0
 11
-53.0641032
 21
16.1763307
 31
0.0
  0
LINE
  5
5C8
  8
0
  6
CONTINUOUS
 62
     7
 10
-52.8963206
 20
15.829517
 30
0.0
 11
-52.9839864
 21
15.9853717
 31
0.0
  0
LINE
  5
5C9
  8
0
  6
CONTINUOUS
 62
     7
 10
-52.8039097
 20
15.7090031
 30
0.0
 11
-52.8963206
 21
15.829517
 31
0.0
  0
LINE
  5
5CA
  8
0
  6
CONTINUOUS
 62
     7
 10
-52.7568071
 20
15.6620287
 30
0.0
 11
-52.8039097
 21
15.7090031
 31
0.0
  0
LINE
  5
5CB
  8
0
  6
CONTINUOUS
 62
     7
 10
-52.7095689
 20
15.6239023
 30
0.0
 11
-52.7568071
 21
15.6620287
 31
0.0
  0
LINE
  5
5CC
  8
0
  6
CONTINUOUS
 62
     7
 10
-52.6625466
 20
15.5946025
 30
0.0
 11
-52.7095689
 21
15.6239023
 31
0.0
  0
LINE
  5
5CD
  8
0
  6
CONTINUOUS
 62
     7
 10
-52.61608219999999
 20
15.5741096
 30
0.0
 11
-52.6625466
 21
15.5946025
 31
0.0
  0
LINE
  5
5CE
  8
0
  6
CONTINUOUS
 62
     7
 10
-52.5705318
 20
15.562371
 30
0.0
 11
-52.61608219999999
 21
15.5741096
 31
0.0
  0
LINE
  5
5CF
  8
0
  6
CONTINUOUS
 62
     7
 10
-52.52624180000001
 20
15.5593358
 30
0.0
 11
-52.5705318
 21
15.562371
 31
0.0
  0
LINE
  5
5D0
  8
0
  6
CONTINUOUS
 62
     7
 10
-52.483549
 20
15.5649547
 30
0.0
 11
-52.52624180000001
 21
15.5593358
 31
0.0
  0
LINE
  5
5D1
  8
0
  6
CONTINUOUS
 62
     7
 10
-51.7696884
 20
15.7076837
 30
0.0
 11
-52.483549
 21
15.5649547
 31
0.0
  0
LINE
  5
5D2
  8
0
  6
CONTINUOUS
 62
     7
 10
-51.0500628
 20
15.817717
 30
0.0
 11
-51.7696884
 21
15.7076837
 31
0.0
  0
LINE
  5
5D3
  8
0
  6
CONTINUOUS
 62
     7
 10
-51.0080228
 20
15.8270388
 30
0.0
 11
-51.0500628
 21
15.817717
 31
0.0
  0
LINE
  5
5D4
  8
0
  6
CONTINUOUS
 62
     7
 10
-50.967442
 20
15.845039
 30
0.0
 11
-51.0080228
 21
15.8270388
 31
0.0
  0
LINE
  5
5D5
  8
0
  6
CONTINUOUS
 62
     7
 10
-50.9286535
 20
15.8716488
 30
0.0
 11
-50.967442
 21
15.845039
 31
0.0
  0
LINE
  5
5D6
  8
0
  6
CONTINUOUS
 62
     7
 10
-50.89200020000001
 20
15.9067976
 30
0.0
 11
-50.9286535
 21
15.8716488
 31
0.0
  0
LINE
  5
5D7
  8
0
  6
CONTINUOUS
 62
     7
 10
-50.8578348
 20
15.950413
 30
0.0
 11
-50.89200020000001
 21
15.9067976
 31
0.0
  0
LINE
  5
5D8
  8
0
  6
CONTINUOUS
 62
     7
 10
-50.8264854
 20
16.0023965
 30
0.0
 11
-50.8578348
 21
15.950413
 31
0.0
  0
LINE
  5
5D9
  8
0
  6
CONTINUOUS
 62
     7
 10
-50.7982896
 20
16.062648
 30
0.0
 11
-50.8264854
 21
16.0023965
 31
0.0
  0
LINE
  5
5DA
  8
0
  6
CONTINUOUS
 62
     7
 10
-50.7526699
 20
16.2075004
 30
0.0
 11
-50.7982896
 21
16.062648
 31
0.0
  0
LINE
  5
5DB
  8
0
  6
CONTINUOUS
 62
     7
 10
-50.7235965
 20
16.3839395
 30
0.0
 11
-50.7526699
 21
16.2075004
 31
0.0
  0
LINE
  5
5DC
  8
0
  6
CONTINUOUS
 62
     7
 10
-50.7136231
 20
16.5907837
 30
0.0
 11
-50.7235965
 21
16.3839395
 31
0.0
  0
LINE
  5
5DD
  8
0
  6
CONTINUOUS
 62
     7
 10
-50.7266358
 20
16.8475957
 30
0.0
 11
-50.7136231
 21
16.5907837
 31
0.0
  0
LINE
  5
5DE
  8
0
  6
CONTINUOUS
 62
     7
 10
-50.7272461
 20
16.9739493
 30
0.0
 11
-50.7266358
 21
16.8475957
 31
0.0
  0
LINE
  5
5DF
  8
0
  6
CONTINUOUS
 62
     7
 10
-50.7085233
 20
17.2214709
 30
0.0
 11
-50.7272461
 21
16.9739493
 31
0.0
  0
LINE
  5
5E0
  8
0
  6
CONTINUOUS
 62
     7
 10
-50.6857377
 20
17.3881904
 30
0.0
 11
-50.7085233
 21
17.2214709
 31
0.0
  0
LINE
  5
5E1
  8
0
  6
CONTINUOUS
 62
     7
 10
-50.6508029
 20
17.5828135
 30
0.0
 11
-50.6857377
 21
17.3881904
 31
0.0
  0
LINE
  5
5E2
  8
0
  6
CONTINUOUS
 62
     7
 10
-50.6015017
 20
17.8039948
 30
0.0
 11
-50.6508029
 21
17.5828135
 31
0.0
  0
LINE
  5
5E3
  8
0
  6
CONTINUOUS
 62
     7
 10
-50.53489039999999
 20
18.0532383
 30
0.0
 11
-50.6015017
 21
17.8039948
 31
0.0
  0
LINE
  5
5E4
  8
0
  6
CONTINUOUS
 62
     7
 10
-50.4490068
 20
18.3278234
 30
0.0
 11
-50.53489039999999
 21
18.0532383
 31
0.0
  0
LINE
  5
5E5
  8
0
  6
CONTINUOUS
 62
     7
 10
-50.3419895
 20
18.6256007
 30
0.0
 11
-50.4490068
 21
18.3278234
 31
0.0
  0
LINE
  5
5E6
  8
0
  6
CONTINUOUS
 62
     7
 10
-50.2113799
 20
18.9461608
 30
0.0
 11
-50.3419895
 21
18.6256007
 31
0.0
  0
LINE
  5
5E7
  8
0
  6
CONTINUOUS
 62
     7
 10
-50.05544
 20
19.2873632
 30
0.0
 11
-50.2113799
 21
18.9461608
 31
0.0
  0
LINE
  5
5E8
  8
0
  6
CONTINUOUS
 62
     7
 10
-49.8709905
 20
19.649951
 30
0.0
 11
-50.05544
 21
19.2873632
 31
0.0
  0
LINE
  5
5E9
  8
0
  6
CONTINUOUS
 62
     7
 10
-49.6812601916864
 20
19.9883584461524
 30
0.0
 11
-49.8709905
 21
19.649951
 31
0.0
  0
LINE
  5
5EA
  8
0
  6
CONTINUOUS
 62
     7
 10
-48.1290095
 20
19.649951
 30
0.0
 11
-48.3187397984385
 21
19.9883584458158
 31
0.0
  0
LINE
  5
5EB
  8
0
  6
CONTINUOUS
 62
     7
 10
-47.94456
 20
19.2873632
 30
0.0
 11
-48.1290095
 21
19.649951
 31
0.0
  0
LINE
  5
5EC
  8
0
  6
CONTINUOUS
 62
     7
 10
-47.7886201
 20
18.9461608
 30
0.0
 11
-47.94456
 21
19.2873632
 31
0.0
  0
LINE
  5
5ED
  8
0
  6
CONTINUOUS
 62
     7
 10
-47.65801050000001
 20
18.6256007
 30
0.0
 11
-47.7886201
 21
18.9461608
 31
0.0
  0
LINE
  5
5EE
  8
0
  6
CONTINUOUS
 62
     7
 10
-47.5509932
 20
18.3278234
 30
0.0
 11
-47.65801050000001
 21
18.6256007
 31
0.0
  0
LINE
  5
5EF
  8
0
  6
CONTINUOUS
 62
     7
 10
-47.4651096
 20
18.0532383
 30
0.0
 11
-47.5509932
 21
18.3278234
 31
0.0
  0
LINE
  5
5F0
  8
0
  6
CONTINUOUS
 62
     7
 10
-47.3984983
 20
17.8039948
 30
0.0
 11
-47.4651096
 21
18.0532383
 31
0.0
  0
LINE
  5
5F1
  8
0
  6
CONTINUOUS
 62
     7
 10
-47.3491971
 20
17.5828135
 30
0.0
 11
-47.3984983
 21
17.8039948
 31
0.0
  0
LINE
  5
5F2
  8
0
  6
CONTINUOUS
 62
     7
 10
-47.31426230000001
 20
17.3881904
 30
0.0
 11
-47.3491971
 21
17.5828135
 31
0.0
  0
LINE
  5
5F3
  8
0
  6
CONTINUOUS
 62
     7
 10
-47.29147670000001
 20
17.2214709
 30
0.0
 11
-47.31426230000001
 21
17.3881904
 31
0.0
  0
LINE
  5
5F4
  8
0
  6
CONTINUOUS
 62
     7
 10
-47.2727539
 20
16.9739493
 30
0.0
 11
-47.29147670000001
 21
17.2214709
 31
0.0
  0
LINE
  5
5F5
  8
0
  6
CONTINUOUS
 62
     7
 10
-47.2733642
 20
16.8475957
 30
0.0
 11
-47.2727539
 21
16.9739493
 31
0.0
  0
LINE
  5
5F6
  8
0
  6
CONTINUOUS
 62
     7
 10
-47.2863769
 20
16.5907837
 30
0.0
 11
-47.2733642
 21
16.8475957
 31
0.0
  0
LINE
  5
5F7
  8
0
  6
CONTINUOUS
 62
     7
 10
-47.2764035
 20
16.3839395
 30
0.0
 11
-47.2863769
 21
16.5907837
 31
0.0
  0
LINE
  5
5F8
  8
0
  6
CONTINUOUS
 62
     7
 10
-47.2473301
 20
16.2075004
 30
0.0
 11
-47.2764035
 21
16.3839395
 31
0.0
  0
LINE
  5
5F9
  8
0
  6
CONTINUOUS
 62
     7
 10
-47.2017104
 20
16.062648
 30
0.0
 11
-47.2473301
 21
16.2075004
 31
0.0
  0
LINE
  5
5FA
  8
0
  6
CONTINUOUS
 62
     7
 10
-47.1735146
 20
16.0023965
 30
0.0
 11
-47.2017104
 21
16.062648
 31
0.0
  0
LINE
  5
5FB
  8
0
  6
CONTINUOUS
 62
     7
 10
-47.1421652
 20
15.950413
 30
0.0
 11
-47.1735146
 21
16.0023965
 31
0.0
  0
LINE
  5
5FC
  8
0
  6
CONTINUOUS
 62
     7
 10
-47.1079998
 20
15.9067976
 30
0.0
 11
-47.1421652
 21
15.950413
 31
0.0
  0
LINE
  5
5FD
  8
0
  6
CONTINUOUS
 62
     7
 10
-47.0713465
 20
15.8716488
 30
0.0
 11
-47.1079998
 21
15.9067976
 31
0.0
  0
LINE
  5
5FE
  8
0
  6
CONTINUOUS
 62
     7
 10
-47.032558
 20
15.845039
 30
0.0
 11
-47.0713465
 21
15.8716488
 31
0.0
  0
LINE
  5
5FF
  8
0
  6
CONTINUOUS
 62
     7
 10
-46.9919772
 20
15.8270388
 30
0.0
 11
-47.032558
 21
15.845039
 31
0.0
  0
LINE
  5
600
  8
0
  6
CONTINUOUS
 62
     7
 10
-46.9499372
 20
15.817717
 30
0.0
 11
-46.9919772
 21
15.8270388
 31
0.0
  0
LINE
  5
601
  8
0
  6
CONTINUOUS
 62
     7
 10
-46.23031160000001
 20
15.7076837
 30
0.0
 11
-46.9499372
 21
15.817717
 31
0.0
  0
LINE
  5
602
  8
0
  6
CONTINUOUS
 62
     7
 10
-45.516451
 20
15.5649547
 30
0.0
 11
-46.23031160000001
 21
15.7076837
 31
0.0
  0
LINE
  5
603
  8
0
  6
CONTINUOUS
 62
     7
 10
-45.4737582
 20
15.5593358
 30
0.0
 11
-45.516451
 21
15.5649547
 31
0.0
  0
LINE
  5
604
  8
0
  6
CONTINUOUS
 62
     7
 10
-45.4294682
 20
15.562371
 30
0.0
 11
-45.4737582
 21
15.5593358
 31
0.0
  0
LINE
  5
605
  8
0
  6
CONTINUOUS
 62
     7
 10
-45.3839178
 20
15.5741096
 30
0.0
 11
-45.4294682
 21
15.562371
 31
0.0
  0
LINE
  5
606
  8
0
  6
CONTINUOUS
 62
     7
 10
-45.33745340000001
 20
15.5946025
 30
0.0
 11
-45.3839178
 21
15.5741096
 31
0.0
  0
LINE
  5
607
  8
0
  6
CONTINUOUS
 62
     7
 10
-45.2904311
 20
15.6239023
 30
0.0
 11
-45.33745340000001
 21
15.5946025
 31
0.0
  0
LINE
  5
608
  8
0
  6
CONTINUOUS
 62
     7
 10
-45.2431929
 20
15.6620287
 30
0.0
 11
-45.2904311
 21
15.6239023
 31
0.0
  0
LINE
  5
609
  8
0
  6
CONTINUOUS
 62
     7
 10
-45.19609030000001
 20
15.7090031
 30
0.0
 11
-45.2431929
 21
15.6620287
 31
0.0
  0
LINE
  5
60A
  8
0
  6
CONTINUOUS
 62
     7
 10
-45.1036794
 20
15.829517
 30
0.0
 11
-45.19609030000001
 21
15.7090031
 31
0.0
  0
LINE
  5
60B
  8
0
  6
CONTINUOUS
 62
     7
 10
-45.0160136
 20
15.9853717
 30
0.0
 11
-45.1036794
 21
15.829517
 31
0.0
  0
LINE
  5
60C
  8
0
  6
CONTINUOUS
 62
     7
 10
-44.9358968
 20
16.1763307
 30
0.0
 11
-45.0160136
 21
15.9853717
 31
0.0
  0
LINE
  5
60D
  8
0
  6
CONTINUOUS
 62
     7
 10
-44.8602898
 20
16.42210560000001
 30
0.0
 11
-44.9358968
 21
16.1763307
 31
0.0
  0
LINE
  5
60E
  8
0
  6
CONTINUOUS
 62
     7
 10
-44.8176479
 20
16.5410479
 30
0.0
 11
-44.8602898
 21
16.42210560000001
 31
0.0
  0
LINE
  5
60F
  8
0
  6
CONTINUOUS
 62
     7
 10
-44.7153968
 20
16.7672385
 30
0.0
 11
-44.8176479
 21
16.5410479
 31
0.0
  0
LINE
  5
610
  8
0
  6
CONTINUOUS
 62
     7
 10
-44.6369639
 20
16.9161105
 30
0.0
 11
-44.7153968
 21
16.7672385
 31
0.0
  0
LINE
  5
611
  8
0
  6
CONTINUOUS
 62
     7
 10
-44.5375709
 20
17.087048
 30
0.0
 11
-44.6369639
 21
16.9161105
 31
0.0
  0
LINE
  5
612
  8
0
  6
CONTINUOUS
 62
     7
 10
-44.4155944
 20
17.2780284
 30
0.0
 11
-44.5375709
 21
17.087048
 31
0.0
  0
LINE
  5
613
  8
0
  6
CONTINUOUS
 62
     7
 10
-44.267754
 20
17.4894583
 30
0.0
 11
-44.4155944
 21
17.2780284
 31
0.0
  0
LINE
  5
614
  8
0
  6
CONTINUOUS
 62
     7
 10
-44.09313620000001
 20
17.7181099
 30
0.0
 11
-44.267754
 21
17.4894583
 31
0.0
  0
LINE
  5
615
  8
0
  6
CONTINUOUS
 62
     7
 10
-43.890727
 20
17.961327
 30
0.0
 11
-44.09313620000001
 21
17.7181099
 31
0.0
  0
LINE
  5
616
  8
0
  6
CONTINUOUS
 62
     7
 10
-43.6583561
 20
18.2178839
 30
0.0
 11
-43.890727
 21
17.961327
 31
0.0
  0
LINE
  5
617
  8
0
  6
CONTINUOUS
 62
     7
 10
-43.3951224
 20
18.4851746
 30
0.0
 11
-43.6583561
 21
18.2178839
 31
0.0
  0
LINE
  5
618
  8
0
  6
CONTINUOUS
 62
     7
 10
-43.0977843
 20
18.7628102
 30
0.0
 11
-43.3951224
 21
18.4851746
 31
0.0
  0
LINE
  5
619
  8
0
  6
CONTINUOUS
 62
     7
 10
-42.80375401207949
 20
19.0159174860574
 30
0.0
 11
-43.0977843
 21
18.7628102
 31
0.0
  0
LINE
  5
61A
  8
0
  6
CONTINUOUS
 62
     7
 10
-41.4608576
 20
18.1670177
 30
0.0
 11
-41.5234036051316
 21
18.54990808726841
 31
0.0
  0
LINE
  5
61B
  8
0
  6
CONTINUOUS
 62
     7
 10
-41.4115441
 20
17.7632111
 30
0.0
 11
-41.4608576
 21
18.1670177
 31
0.0
  0
LINE
  5
61C
  8
0
  6
CONTINUOUS
 62
     7
 10
-41.38170660000001
 20
17.3892512
 30
0.0
 11
-41.4115441
 21
17.7632111
 31
0.0
  0
LINE
  5
61D
  8
0
  6
CONTINUOUS
 62
     7
 10
-41.3686118
 20
17.0433521
 30
0.0
 11
-41.38170660000001
 21
17.3892512
 31
0.0
  0
LINE
  5
61E
  8
0
  6
CONTINUOUS
 62
     7
 10
-41.3698942
 20
16.7269309
 30
0.0
 11
-41.3686118
 21
17.0433521
 31
0.0
  0
LINE
  5
61F
  8
0
  6
CONTINUOUS
 62
     7
 10
-41.3831037
 20
16.4395314
 30
0.0
 11
-41.3698942
 21
16.7269309
 31
0.0
  0
LINE
  5
620
  8
0
  6
CONTINUOUS
 62
     7
 10
-41.4057558
 20
16.1825367
 30
0.0
 11
-41.3831037
 21
16.4395314
 31
0.0
  0
LINE
  5
621
  8
0
  6
CONTINUOUS
 62
     7
 10
-41.4350763
 20
15.9578323
 30
0.0
 11
-41.4057558
 21
16.1825367
 31
0.0
  0
LINE
  5
622
  8
0
  6
CONTINUOUS
 62
     7
 10
-41.4688133
 20
15.762998
 30
0.0
 11
-41.4350763
 21
15.9578323
 31
0.0
  0
LINE
  5
623
  8
0
  6
CONTINUOUS
 62
     7
 10
-41.5044233
 20
15.5985397
 30
0.0
 11
-41.4688133
 21
15.762998
 31
0.0
  0
LINE
  5
624
  8
0
  6
CONTINUOUS
 62
     7
 10
-41.571487
 20
15.3595419
 30
0.0
 11
-41.5044233
 21
15.5985397
 31
0.0
  0
LINE
  5
625
  8
0
  6
CONTINUOUS
 62
     7
 10
-41.615276
 20
15.2410171
 30
0.0
 11
-41.571487
 21
15.3595419
 31
0.0
  0
LINE
  5
626
  8
0
  6
CONTINUOUS
 62
     7
 10
-41.7153387
 20
15.0041434
 30
0.0
 11
-41.615276
 21
15.2410171
 31
0.0
  0
LINE
  5
627
  8
0
  6
CONTINUOUS
 62
     7
 10
-41.77671170000001
 20
14.8063623
 30
0.0
 11
-41.7153387
 21
15.0041434
 31
0.0
  0
LINE
  5
628
  8
0
  6
CONTINUOUS
 62
     7
 10
-41.8097374
 20
14.6306201
 30
0.0
 11
-41.77671170000001
 21
14.8063623
 31
0.0
  0
LINE
  5
629
  8
0
  6
CONTINUOUS
 62
     7
 10
-41.8164113
 20
14.4789005
 30
0.0
 11
-41.8097374
 21
14.6306201
 31
0.0
  0
LINE
  5
62A
  8
0
  6
CONTINUOUS
 62
     7
 10
-41.8105232
 20
14.4126391
 30
0.0
 11
-41.8164113
 21
14.4789005
 31
0.0
  0
LINE
  5
62B
  8
0
  6
CONTINUOUS
 62
     7
 10
-41.7988438
 20
14.3530684
 30
0.0
 11
-41.8105232
 21
14.4126391
 31
0.0
  0
LINE
  5
62C
  8
0
  6
CONTINUOUS
 62
     7
 10
-41.7816562
 20
14.3003982
 30
0.0
 11
-41.7988438
 21
14.3530684
 31
0.0
  0
LINE
  5
62D
  8
0
  6
CONTINUOUS
 62
     7
 10
-41.7592349
 20
14.254833
 30
0.0
 11
-41.7816562
 21
14.3003982
 31
0.0
  0
LINE
  5
62E
  8
0
  6
CONTINUOUS
 62
     7
 10
-41.7318867
 20
14.2165614
 30
0.0
 11
-41.7592349
 21
14.254833
 31
0.0
  0
LINE
  5
62F
  8
0
  6
CONTINUOUS
 62
     7
 10
-41.6999097
 20
14.1857673
 30
0.0
 11
-41.7318867
 21
14.2165614
 31
0.0
  0
LINE
  5
630
  8
0
  6
CONTINUOUS
 62
     7
 10
-41.6635933
 20
14.1626292
 30
0.0
 11
-41.6999097
 21
14.1857673
 31
0.0
  0
LINE
  5
631
  8
0
  6
CONTINUOUS
 62
     7
 10
-41.025
 20
13.8131052
 30
0.0
 11
-41.6635933
 21
14.1626292
 31
0.0
  0
LINE
  5
632
  8
0
  6
CONTINUOUS
 62
     7
 10
-40.4030067
 20
13.4348292
 30
0.0
 11
-41.025
 21
13.8131052
 31
0.0
  0
LINE
  5
633
  8
0
  6
CONTINUOUS
 62
     7
 10
-40.36481029999999
 20
13.4149473
 30
0.0
 11
-40.4030067
 21
13.4348292
 31
0.0
  0
LINE
  5
634
  8
0
  6
CONTINUOUS
 62
     7
 10
-40.3221533
 20
13.4026514
 30
0.0
 11
-40.36481029999999
 21
13.4149473
 31
0.0
  0
LINE
  5
635
  8
0
  6
CONTINUOUS
 62
     7
 10
-40.27533510000001
 20
13.398103
 30
0.0
 11
-40.3221533
 21
13.4026514
 31
0.0
  0
LINE
  5
636
  8
0
  6
CONTINUOUS
 62
     7
 10
-40.22466379999999
 20
13.4014682
 30
0.0
 11
-40.27533510000001
 21
13.398103
 31
0.0
  0
LINE
  5
637
  8
0
  6
CONTINUOUS
 62
     7
 10
-40.1704562
 20
13.4129184
 30
0.0
 11
-40.22466379999999
 21
13.4014682
 31
0.0
  0
LINE
  5
638
  8
0
  6
CONTINUOUS
 62
     7
 10
-40.1130268
 20
13.4325891
 30
0.0
 11
-40.1704562
 21
13.4129184
 31
0.0
  0
LINE
  5
639
  8
0
  6
CONTINUOUS
 62
     7
 10
-40.0526987
 20
13.4606205
 30
0.0
 11
-40.1130268
 21
13.4325891
 31
0.0
  0
LINE
  5
63A
  8
0
  6
CONTINUOUS
 62
     7
 10
-39.9246426
 20
13.5422601
 30
0.0
 11
-40.0526987
 21
13.4606205
 31
0.0
  0
LINE
  5
63B
  8
0
  6
CONTINUOUS
 62
     7
 10
-39.7889583
 20
13.6587323
 30
0.0
 11
-39.9246426
 21
13.5422601
 31
0.0
  0
LINE
  5
63C
  8
0
  6
CONTINUOUS
 62
     7
 10
-39.6483613
 20
13.8107734
 30
0.0
 11
-39.7889583
 21
13.6587323
 31
0.0
  0
LINE
  5
63D
  8
0
  6
CONTINUOUS
 62
     7
 10
-39.493254
 20
14.0158671
 30
0.0
 11
-39.6483613
 21
13.8107734
 31
0.0
  0
LINE
  5
63E
  8
0
  6
CONTINUOUS
 62
     7
 10
-39.412503
 20
14.1130519
 30
0.0
 11
-39.493254
 21
14.0158671
 31
0.0
  0
LINE
  5
63F
  8
0
  6
CONTINUOUS
 62
     7
 10
-39.2390567
 20
14.2906297
 30
0.0
 11
-39.412503
 21
14.1130519
 31
0.0
  0
LINE
  5
640
  8
0
  6
CONTINUOUS
 62
     7
 10
-39.1144367
 20
14.403698
 30
0.0
 11
-39.2390567
 21
14.2906297
 31
0.0
  0
LINE
  5
641
  8
0
  6
CONTINUOUS
 62
     7
 10
-38.9625737
 20
14.5303323
 30
0.0
 11
-39.1144367
 21
14.403698
 31
0.0
  0
LINE
  5
642
  8
0
  6
CONTINUOUS
 62
     7
 10
-38.7826342
 20
14.6680767
 30
0.0
 11
-38.9625737
 21
14.5303323
 31
0.0
  0
LINE
  5
643
  8
0
  6
CONTINUOUS
 62
     7
 10
-38.5713963
 20
14.8161914
 30
0.0
 11
-38.7826342
 21
14.6680767
 31
0.0
  0
LINE
  5
644
  8
0
  6
CONTINUOUS
 62
     7
 10
-38.3291058
 20
14.9713309
 30
0.0
 11
-38.5713963
 21
14.8161914
 31
0.0
  0
LINE
  5
645
  8
0
  6
CONTINUOUS
 62
     7
 10
-38.05571820000001
 20
15.1306521
 30
0.0
 11
-38.3291058
 21
14.9713309
 31
0.0
  0
LINE
  5
646
  8
0
  6
CONTINUOUS
 62
     7
 10
-37.7496134
 20
15.2922612
 30
0.0
 11
-38.05571820000001
 21
15.1306521
 31
0.0
  0
LINE
  5
647
  8
0
  6
CONTINUOUS
 62
     7
 10
-37.4108359
 20
15.4534011
 30
0.0
 11
-37.7496134
 21
15.2922612
 31
0.0
  0
LINE
  5
648
  8
0
  6
CONTINUOUS
 62
     7
 10
-37.0364724
 20
15.6125977
 30
0.0
 11
-37.4108359
 21
15.4534011
 31
0.0
  0
LINE
  5
649
  8
0
  6
CONTINUOUS
 62
     7
 10
-36.6736064864172
 20
15.7498764105213
 30
0.0
 11
-37.0364724
 21
15.6125977
 31
0.0
  0
LINE
  5
64A
  8
0
  6
CONTINUOUS
 62
     7
 10
-35.7020375
 20
14.4928739
 30
0.0
 11
-35.6298552875671
 21
14.8740652138314
 31
0.0
  0
LINE
  5
64B
  8
0
  6
CONTINUOUS
 62
     7
 10
-35.79380800000001
 20
14.0965536
 30
0.0
 11
-35.7020375
 21
14.4928739
 31
0.0
  0
LINE
  5
64C
  8
0
  6
CONTINUOUS
 62
     7
 10
-35.8936717
 20
13.7349413
 30
0.0
 11
-35.79380800000001
 21
14.0965536
 31
0.0
  0
LINE
  5
64D
  8
0
  6
CONTINUOUS
 62
     7
 10
-35.9996711
 20
13.4054237
 30
0.0
 11
-35.8936717
 21
13.7349413
 31
0.0
  0
LINE
  5
64E
  8
0
  6
CONTINUOUS
 62
     7
 10
-36.1090986
 20
13.1085237
 30
0.0
 11
-35.9996711
 21
13.4054237
 31
0.0
  0
LINE
  5
64F
  8
0
  6
CONTINUOUS
 62
     7
 10
-36.21980780000001
 20
12.8429744
 30
0.0
 11
-36.1090986
 21
13.1085237
 31
0.0
  0
LINE
  5
650
  8
0
  6
CONTINUOUS
 62
     7
 10
-36.3289913
 20
12.6092259
 30
0.0
 11
-36.21980780000001
 21
12.8429744
 31
0.0
  0
LINE
  5
651
  8
0
  6
CONTINUOUS
 62
     7
 10
-36.4333969
 20
12.4081009
 30
0.0
 11
-36.3289913
 21
12.6092259
 31
0.0
  0
LINE
  5
652
  8
0
  6
CONTINUOUS
 62
     7
 10
-36.5317366
 20
12.2365553
 30
0.0
 11
-36.4333969
 21
12.4081009
 31
0.0
  0
LINE
  5
653
  8
0
  6
CONTINUOUS
 62
     7
 10
-36.6214471
 20
12.0941944
 30
0.0
 11
-36.5317366
 21
12.2365553
 31
0.0
  0
LINE
  5
654
  8
0
  6
CONTINUOUS
 62
     7
 10
-36.7662084
 20
11.8925471
 30
0.0
 11
-36.6214471
 21
12.0941944
 31
0.0
  0
LINE
  5
655
  8
0
  6
CONTINUOUS
 62
     7
 10
-36.8478945
 20
11.796147
 30
0.0
 11
-36.7662084
 21
11.8925471
 31
0.0
  0
LINE
  5
656
  8
0
  6
CONTINUOUS
 62
     7
 10
-37.0229383
 20
11.607782
 30
0.0
 11
-36.8478945
 21
11.796147
 31
0.0
  0
LINE
  5
657
  8
0
  6
CONTINUOUS
 62
     7
 10
-37.1482552
 20
11.4429193
 30
0.0
 11
-37.0229383
 21
11.607782
 31
0.0
  0
LINE
  5
658
  8
0
  6
CONTINUOUS
 62
     7
 10
-37.2393965
 20
11.2890711
 30
0.0
 11
-37.1482552
 21
11.4429193
 31
0.0
  0
LINE
  5
659
  8
0
  6
CONTINUOUS
 62
     7
 10
-37.2975591
 20
11.148784
 30
0.0
 11
-37.2393965
 21
11.2890711
 31
0.0
  0
LINE
  5
65A
  8
0
  6
CONTINUOUS
 62
     7
 10
-37.3146888
 20
11.0845047
 30
0.0
 11
-37.2975591
 21
11.148784
 31
0.0
  0
LINE
  5
65B
  8
0
  6
CONTINUOUS
 62
     7
 10
-37.3240881
 20
11.024532
 30
0.0
 11
-37.3146888
 21
11.0845047
 31
0.0
  0
LINE
  5
65C
  8
0
  6
CONTINUOUS
 62
     7
 10
-37.3259514
 20
10.9691597
 30
0.0
 11
-37.3240881
 21
11.024532
 31
0.0
  0
LINE
  5
65D
  8
0
  6
CONTINUOUS
 62
     7
 10
-37.3204665
 20
10.9186738
 30
0.0
 11
-37.3259514
 21
10.9691597
 31
0.0
  0
LINE
  5
65E
  8
0
  6
CONTINUOUS
 62
     7
 10
-37.3078572
 20
10.8733567
 30
0.0
 11
-37.3204665
 21
10.9186738
 31
0.0
  0
LINE
  5
65F
  8
0
  6
CONTINUOUS
 62
     7
 10
-37.2883409
 20
10.8334829
 30
0.0
 11
-37.3078572
 21
10.8733567
 31
0.0
  0
LINE
  5
660
  8
0
  6
CONTINUOUS
 62
     7
 10
-37.2621283
 20
10.7993192
 30
0.0
 11
-37.2883409
 21
10.8334829
 31
0.0
  0
LINE
  5
661
  8
0
  6
CONTINUOUS
 62
     7
 10
-36.78159110000001
 20
10.2524624
 30
0.0
 11
-37.2621283
 21
10.7993192
 31
0.0
  0
LINE
  5
662
  8
0
  6
CONTINUOUS
 62
     7
 10
-36.3264866
 20
9.684265000000002
 30
0.0
 11
-36.78159110000001
 21
10.2524624
 31
0.0
  0
LINE
  5
663
  8
0
  6
CONTINUOUS
 62
     7
 10
-36.2973938
 20
9.6525182
 30
0.0
 11
-36.3264866
 21
9.684265000000002
 31
0.0
  0
LINE
  5
664
  8
0
  6
CONTINUOUS
 62
     7
 10
-36.2615147
 20
9.6263743
 30
0.0
 11
-36.2973938
 21
9.6525182
 31
0.0
  0
LINE
  5
665
  8
0
  6
CONTINUOUS
 62
     7
 10
-36.2190756
 20
9.6060873
 30
0.0
 11
-36.2615147
 21
9.6263743
 31
0.0
  0
LINE
  5
666
  8
0
  6
CONTINUOUS
 62
     7
 10
-36.1703092
 20
9.591919
 30
0.0
 11
-36.2190756
 21
9.6060873
 31
0.0
  0
LINE
  5
667
  8
0
  6
CONTINUOUS
 62
     7
 10
-36.1154546
 20
9.584138700000002
 30
0.0
 11
-36.1703092
 21
9.591919
 31
0.0
  0
LINE
  5
668
  8
0
  6
CONTINUOUS
 62
     7
 10
-36.0547608
 20
9.582981
 30
0.0
 11
-36.1154546
 21
9.584138700000002
 31
0.0
  0
LINE
  5
669
  8
0
  6
CONTINUOUS
 62
     7
 10
-35.9884836
 20
9.5886885
 30
0.0
 11
-36.0547608
 21
9.582981
 31
0.0
  0
LINE
  5
66A
  8
0
  6
CONTINUOUS
 62
     7
 10
-35.8402279
 20
9.6216069
 30
0.0
 11
-35.9884836
 21
9.5886885
 31
0.0
  0
LINE
  5
66B
  8
0
  6
CONTINUOUS
 62
     7
 10
-35.6728905
 20
9.6846481
 30
0.0
 11
-35.8402279
 21
9.6216069
 31
0.0
  0
LINE
  5
66C
  8
0
  6
CONTINUOUS
 62
     7
 10
-35.4887714
 20
9.7794331
 30
0.0
 11
-35.6728905
 21
9.6846481
 31
0.0
  0
LINE
  5
66D
  8
0
  6
CONTINUOUS
 62
     7
 10
-35.27287200000001
 20
9.9191083
 30
0.0
 11
-35.4887714
 21
9.7794331
 31
0.0
  0
LINE
  5
66E
  8
0
  6
CONTINUOUS
 62
     7
 10
-35.16375180000001
 20
9.982813700000001
 30
0.0
 11
-35.27287200000001
 21
9.9191083
 31
0.0
  0
LINE
  5
66F
  8
0
  6
CONTINUOUS
 62
     7
 10
-34.9400304
 20
10.0903601
 30
0.0
 11
-35.16375180000001
 21
9.982813700000001
 31
0.0
  0
LINE
  5
670
  8
0
  6
CONTINUOUS
 62
     7
 10
-34.78425420000001
 20
10.1539869
 30
0.0
 11
-34.9400304
 21
10.0903601
 31
0.0
  0
LINE
  5
671
  8
0
  6
CONTINUOUS
 62
     7
 10
-34.5982383
 20
10.221044
 30
0.0
 11
-34.78425420000001
 21
10.1539869
 31
0.0
  0
LINE
  5
672
  8
0
  6
CONTINUOUS
 62
     7
 10
-34.38203900000001
 20
10.2889385
 30
0.0
 11
-34.5982383
 21
10.221044
 31
0.0
  0
LINE
  5
673
  8
0
  6
CONTINUOUS
 62
     7
 10
-34.1328822
 20
10.3558732
 30
0.0
 11
-34.38203900000001
 21
10.2889385
 31
0.0
  0
LINE
  5
674
  8
0
  6
CONTINUOUS
 62
     7
 10
-33.85214269999999
 20
10.4187884
 30
0.0
 11
-34.1328822
 21
10.3558732
 31
0.0
  0
LINE
  5
675
  8
0
  6
CONTINUOUS
 62
     7
 10
-33.5407514
 20
10.4749973
 30
0.0
 11
-33.85214269999999
 21
10.4187884
 31
0.0
  0
LINE
  5
676
  8
0
  6
CONTINUOUS
 62
     7
 10
-33.1978333
 20
10.5221662
 30
0.0
 11
-33.5407514
 21
10.4749973
 31
0.0
  0
LINE
  5
677
  8
0
  6
CONTINUOUS
 62
     7
 10
-32.82437350000001
 20
10.5577194
 30
0.0
 11
-33.1978333
 21
10.5221662
 31
0.0
  0
LINE
  5
678
  8
0
  6
CONTINUOUS
 62
     7
 10
-32.4181385
 20
10.5792754
 30
0.0
 11
-32.82437350000001
 21
10.5577194
 31
0.0
  0
LINE
  5
679
  8
0
  6
CONTINUOUS
 62
     7
 10
-32.0302039754106
 20
10.5841678168098
 30
0.0
 11
-32.4181385
 21
10.5792754
 31
0.0
  0
LINE
  5
67A
  8
0
  6
CONTINUOUS
 62
     7
 10
-31.547148
 20
9.0706756
 30
0.0
 11
-31.3489437721876
 21
9.40419051481802
 31
0.0
  0
LINE
  5
67B
  8
0
  6
CONTINUOUS
 62
     7
 10
-31.7689335
 20
8.729643800000002
 30
0.0
 11
-31.547148
 21
9.0706756
 31
0.0
  0
LINE
  5
67C
  8
0
  6
CONTINUOUS
 62
     7
 10
-31.9864535
 20
8.4239947
 30
0.0
 11
-31.7689335
 21
8.729643800000002
 31
0.0
  0
LINE
  5
67D
  8
0
  6
CONTINUOUS
 62
     7
 10
-32.1987619
 20
8.1506034
 30
0.0
 11
-31.9864535
 21
8.4239947
 31
0.0
  0
LINE
  5
67E
  8
0
  6
CONTINUOUS
 62
     7
 10
-32.4031359
 20
7.909035
 30
0.0
 11
-32.1987619
 21
8.1506034
 31
0.0
  0
LINE
  5
67F
  8
0
  6
CONTINUOUS
 62
     7
 10
-32.5979918
 20
7.6973651
 30
0.0
 11
-32.4031359
 21
7.909035
 31
0.0
  0
LINE
  5
680
  8
0
  6
CONTINUOUS
 62
     7
 10
-32.78053730000001
 20
7.515056299999999
 30
0.0
 11
-32.5979918
 21
7.6973651
 31
0.0
  0
LINE
  5
681
  8
0
  6
CONTINUOUS
 62
     7
 10
-32.9474354
 20
7.3617695
 30
0.0
 11
-32.78053730000001
 21
7.515056299999999
 31
0.0
  0
LINE
  5
682
  8
0
  6
CONTINUOUS
 62
     7
 10
-33.0985165
 20
7.2342035
 30
0.0
 11
-32.9474354
 21
7.3617695
 31
0.0
  0
LINE
  5
683
  8
0
  6
CONTINUOUS
 62
     7
 10
-33.2315071
 20
7.1311108
 30
0.0
 11
-33.0985165
 21
7.2342035
 31
0.0
  0
LINE
  5
684
  8
0
  6
CONTINUOUS
 62
     7
 10
-33.4365057
 20
6.9911356
 30
0.0
 11
-33.2315071
 21
7.1311108
 31
0.0
  0
LINE
  5
685
  8
0
  6
CONTINUOUS
 62
     7
 10
-33.5462363
 20
6.9284874
 30
0.0
 11
-33.4365057
 21
6.9911356
 31
0.0
  0
LINE
  5
686
  8
0
  6
CONTINUOUS
 62
     7
 10
-33.77514820000001
 20
6.811350699999999
 30
0.0
 11
-33.5462363
 21
6.9284874
 31
0.0
  0
LINE
  5
687
  8
0
  6
CONTINUOUS
 62
     7
 10
-33.94929389999999
 20
6.699291300000001
 30
0.0
 11
-33.77514820000001
 21
6.811350699999999
 31
0.0
  0
LINE
  5
688
  8
0
  6
CONTINUOUS
 62
     7
 10
-34.08755799999999
 20
6.5858935
 30
0.0
 11
-33.94929389999999
 21
6.699291300000001
 31
0.0
  0
LINE
  5
689
  8
0
  6
CONTINUOUS
 62
     7
 10
-34.190194
 20
6.4739595
 30
0.0
 11
-34.08755799999999
 21
6.5858935
 31
0.0
  0
LINE
  5
68A
  8
0
  6
CONTINUOUS
 62
     7
 10
-34.2282754
 20
6.4194155
 30
0.0
 11
-34.190194
 21
6.4739595
 31
0.0
  0
LINE
  5
68B
  8
0
  6
CONTINUOUS
 62
     7
 10
-34.2576197
 20
6.366274300000001
 30
0.0
 11
-34.2282754
 21
6.4194155
 31
0.0
  0
LINE
  5
68C
  8
0
  6
CONTINUOUS
 62
     7
 10
-34.2783091
 20
6.314878599999999
 30
0.0
 11
-34.2576197
 21
6.366274300000001
 31
0.0
  0
LINE
  5
68D
  8
0
  6
CONTINUOUS
 62
     7
 10
-34.29042219999999
 20
6.2655615
 30
0.0
 11
-34.2783091
 21
6.314878599999999
 31
0.0
  0
LINE
  5
68E
  8
0
  6
CONTINUOUS
 62
     7
 10
-34.29407269999999
 20
6.218664700000001
 30
0.0
 11
-34.29042219999999
 21
6.2655615
 31
0.0
  0
LINE
  5
68F
  8
0
  6
CONTINUOUS
 62
     7
 10
-34.28937089999999
 20
6.1745206
 30
0.0
 11
-34.29407269999999
 21
6.218664700000001
 31
0.0
  0
LINE
  5
690
  8
0
  6
CONTINUOUS
 62
     7
 10
-34.2764239
 20
6.133452
 30
0.0
 11
-34.28937089999999
 21
6.1745206
 31
0.0
  0
LINE
  5
691
  8
0
  6
CONTINUOUS
 62
     7
 10
-34.0119027
 20
5.4552213
 30
0.0
 11
-34.2764239
 21
6.133452
 31
0.0
  0
LINE
  5
692
  8
0
  6
CONTINUOUS
 62
     7
 10
-33.7785793
 20
4.765635499999999
 30
0.0
 11
-34.0119027
 21
5.4552213
 31
0.0
  0
LINE
  5
693
  8
0
  6
CONTINUOUS
 62
     7
 10
-33.762099
 20
4.7258529
 30
0.0
 11
-33.7785793
 21
4.765635499999999
 31
0.0
  0
LINE
  5
694
  8
0
  6
CONTINUOUS
 62
     7
 10
-33.7373254
 20
4.689014299999999
 30
0.0
 11
-33.762099
 21
4.7258529
 31
0.0
  0
LINE
  5
695
  8
0
  6
CONTINUOUS
 62
     7
 10
-33.7043843
 20
4.655435799999999
 30
0.0
 11
-33.7373254
 21
4.689014299999999
 31
0.0
  0
LINE
  5
696
  8
0
  6
CONTINUOUS
 62
     7
 10
-33.6634048
 20
4.6254428
 30
0.0
 11
-33.7043843
 21
4.655435799999999
 31
0.0
  0
LINE
  5
697
  8
0
  6
CONTINUOUS
 62
     7
 10
-33.6145193
 20
4.599370299999999
 30
0.0
 11
-33.6634048
 21
4.6254428
 31
0.0
  0
LINE
  5
698
  8
0
  6
CONTINUOUS
 62
     7
 10
-33.55788170000001
 20
4.577524
 30
0.0
 11
-33.6145193
 21
4.599370299999999
 31
0.0
  0
LINE
  5
699
  8
0
  6
CONTINUOUS
 62
     7
 10
-33.4936494
 20
4.5602191
 30
0.0
 11
-33.55788170000001
 21
4.577524
 31
0.0
  0
LINE
  5
69A
  8
0
  6
CONTINUOUS
 62
     7
 10
-33.3430759
 20
4.5404458
 30
0.0
 11
-33.4936494
 21
4.5602191
 31
0.0
  0
LINE
  5
69B
  8
0
  6
CONTINUOUS
 62
     7
 10
-33.1642688
 20
4.5424525
 30
0.0
 11
-33.3430759
 21
4.5404458
 31
0.0
  0
LINE
  5
69C
  8
0
  6
CONTINUOUS
 62
     7
 10
-32.9588351
 20
4.5685487
 30
0.0
 11
-33.1642688
 21
4.5424525
 31
0.0
  0
LINE
  5
69D
  8
0
  6
CONTINUOUS
 62
     7
 10
-32.7081843
 20
4.6259586
 30
0.0
 11
-32.9588351
 21
4.5685487
 31
0.0
  0
LINE
  5
69E
  8
0
  6
CONTINUOUS
 62
     7
 10
-32.5838563
 20
4.6485007
 30
0.0
 11
-32.7081843
 21
4.6259586
 31
0.0
  0
LINE
  5
69F
  8
0
  6
CONTINUOUS
 62
     7
 10
-32.33684390000001
 20
4.6730441
 30
0.0
 11
-32.5838563
 21
4.6485007
 31
0.0
  0
LINE
  5
6A0
  8
0
  6
CONTINUOUS
 62
     7
 10
-32.1687006
 20
4.6795552
 30
0.0
 11
-32.33684390000001
 21
4.6730441
 31
0.0
  0
LINE
  5
6A1
  8
0
  6
CONTINUOUS
 62
     7
 10
-31.9709678
 20
4.678947099999999
 30
0.0
 11
-32.1687006
 21
4.6795552
 31
0.0
  0
LINE
  5
6A2
  8
0
  6
CONTINUOUS
 62
     7
 10
-31.7445857
 20
4.6688025
 30
0.0
 11
-31.9709678
 21
4.678947099999999
 31
0.0
  0
LINE
  5
6A3
  8
0
  6
CONTINUOUS
 62
     7
 10
-31.4875618
 20
4.6464839
 30
0.0
 11
-31.7445857
 21
4.6688025
 31
0.0
  0
LINE
  5
6A4
  8
0
  6
CONTINUOUS
 62
     7
 10
-31.2022348
 20
4.6095863
 30
0.0
 11
-31.4875618
 21
4.6464839
 31
0.0
  0
LINE
  5
6A5
  8
0
  6
CONTINUOUS
 62
     7
 10
-30.890398
 20
4.5559032
 30
0.0
 11
-31.2022348
 21
4.6095863
 31
0.0
  0
LINE
  5
6A6
  8
0
  6
CONTINUOUS
 62
     7
 10
-30.5520278
 20
4.4829426
 30
0.0
 11
-30.890398
 21
4.5559032
 31
0.0
  0
LINE
  5
6A7
  8
0
  6
CONTINUOUS
 62
     7
 10
-30.1889305
 20
4.3886209
 30
0.0
 11
-30.5520278
 21
4.4829426
 31
0.0
  0
LINE
  5
6A8
  8
0
  6
CONTINUOUS
 62
     7
 10
-29.7998218
 20
4.269936400000001
 30
0.0
 11
-30.1889305
 21
4.3886209
 31
0.0
  0
LINE
  5
6A9
  8
0
  6
CONTINUOUS
 62
     7
 10
-29.4336093316208
 20
4.14185230859832
 30
0.0
 11
-29.7998218
 21
4.269936400000001
 31
0.0
  0
LINE
  5
6AA
  8
0
  6
CONTINUOUS
 62
     7
 10
-29.49733
 20
2.55442
 30
0.0
 11
-29.1970101294637
 21
2.80003169583402
 31
0.0
  0
LINE
  5
6AB
  8
0
  6
CONTINUOUS
 62
     7
 10
-29.82238
 20
2.30981
 30
0.0
 11
-29.49733
 21
2.55442
 31
0.0
  0
LINE
  5
6AC
  8
0
  6
CONTINUOUS
 62
     7
 10
-30.13132
 20
2.09699
 30
0.0
 11
-29.82238
 21
2.30981
 31
0.0
  0
LINE
  5
6AD
  8
0
  6
CONTINUOUS
 62
     7
 10
-30.42433
 20
1.9127
 30
0.0
 11
-30.13132
 21
2.09699
 31
0.0
  0
LINE
  5
6AE
  8
0
  6
CONTINUOUS
 62
     7
 10
-30.699
 20
1.7556
 30
0.0
 11
-30.42433
 21
1.9127
 31
0.0
  0
LINE
  5
6AF
  8
0
  6
CONTINUOUS
 62
     7
 10
-30.9545
 20
1.62334
 30
0.0
 11
-30.699
 21
1.7556
 31
0.0
  0
LINE
  5
6B0
  8
0
  6
CONTINUOUS
 62
     7
 10
-31.18839
 20
1.51446
 30
0.0
 11
-30.9545
 21
1.62334
 31
0.0
  0
LINE
  5
6B1
  8
0
  6
CONTINUOUS
 62
     7
 10
-31.39765
 20
1.4275
 30
0.0
 11
-31.18839
 21
1.51446
 31
0.0
  0
LINE
  5
6B2
  8
0
  6
CONTINUOUS
 62
     7
 10
-31.58325
 20
1.3593
 30
0.0
 11
-31.39765
 21
1.4275
 31
0.0
  0
LINE
  5
6B3
  8
0
  6
CONTINUOUS
 62
     7
 10
-31.74348
 20
1.30791
 30
0.0
 11
-31.58325
 21
1.3593
 31
0.0
  0
LINE
  5
6B4
  8
0
  6
CONTINUOUS
 62
     7
 10
-31.98399
 20
1.24649
 30
0.0
 11
-31.74348
 21
1.30791
 31
0.0
  0
LINE
  5
6B5
  8
0
  6
CONTINUOUS
 62
     7
 10
-32.10853
 20
1.22515
 30
0.0
 11
-31.98399
 21
1.24649
 31
0.0
  0
LINE
  5
6B6
  8
0
  6
CONTINUOUS
 62
     7
 10
-32.3637
 20
1.19337
 30
0.0
 11
-32.10853
 21
1.22515
 31
0.0
  0
LINE
  5
6B7
  8
0
  6
CONTINUOUS
 62
     7
 10
-32.56567
 20
1.14763
 30
0.0
 11
-32.3637
 21
1.19337
 31
0.0
  0
LINE
  5
6B8
  8
0
  6
CONTINUOUS
 62
     7
 10
-32.73438
 20
1.08836
 30
0.0
 11
-32.56567
 21
1.14763
 31
0.0
  0
LINE
  5
6B9
  8
0
  6
CONTINUOUS
 62
     7
 10
-32.86911
 20
1.01828
 30
0.0
 11
-32.73438
 21
1.08836
 31
0.0
  0
LINE
  5
6BA
  8
0
  6
CONTINUOUS
 62
     7
 10
-32.92355000000001
 20
0.9800500000000001
 30
0.0
 11
-32.86911
 21
1.01828
 31
0.0
  0
LINE
  5
6BB
  8
0
  6
CONTINUOUS
 62
     7
 10
-32.9693
 20
0.9401499999999999
 30
0.0
 11
-32.92355000000001
 21
0.9800500000000001
 31
0.0
  0
LINE
  5
6BC
  8
0
  6
CONTINUOUS
 62
     7
 10
-33.00632
 20
0.89893
 30
0.0
 11
-32.9693
 21
0.9401499999999999
 31
0.0
  0
LINE
  5
6BD
  8
0
  6
CONTINUOUS
 62
     7
 10
-33.03457000000001
 20
0.85673
 30
0.0
 11
-33.00632
 21
0.89893
 31
0.0
  0
LINE
  5
6BE
  8
0
  6
CONTINUOUS
 62
     7
 10
-33.05404
 20
0.81391
 30
0.0
 11
-33.03457000000001
 21
0.85673
 31
0.0
  0
LINE
  5
6BF
  8
0
  6
CONTINUOUS
 62
     7
 10
-33.06472
 20
0.77082
 30
0.0
 11
-33.05404
 21
0.81391
 31
0.0
  0
LINE
  5
6C0
  8
0
  6
CONTINUOUS
 62
     7
 10
-33.0666
 20
0.7278
 30
0.0
 11
-33.06472
 21
0.77082
 31
0.0
  0
LINE
  5
6C1
  8
0
  6
CONTINUOUS
 62
     7
 10
-33.05
 20
0.0
 30
0.0
 11
-33.0666
 21
0.7278
 31
0.0
  0
LINE
  5
6C2
  8
0
  6
CONTINUOUS
 62
     7
 10
-33.0666
 20
-0.7278
 30
0.0
 11
-33.05
 21
0.0
 31
0.0
  0
LINE
  5
6C3
  8
0
  6
CONTINUOUS
 62
     7
 10
-33.06472
 20
-0.77082
 30
0.0
 11
-33.0666
 21
-0.7278
 31
0.0
  0
LINE
  5
6C4
  8
0
  6
CONTINUOUS
 62
     7
 10
-33.05404
 20
-0.81391
 30
0.0
 11
-33.06472
 21
-0.77082
 31
0.0
  0
LINE
  5
6C5
  8
0
  6
CONTINUOUS
 62
     7
 10
-33.03457000000001
 20
-0.85673
 30
0.0
 11
-33.05404
 21
-0.81391
 31
0.0
  0
LINE
  5
6C6
  8
0
  6
CONTINUOUS
 62
     7
 10
-33.00632
 20
-0.89893
 30
0.0
 11
-33.03457000000001
 21
-0.85673
 31
0.0
  0
LINE
  5
6C7
  8
0
  6
CONTINUOUS
 62
     7
 10
-32.9693
 20
-0.9401499999999999
 30
0.0
 11
-33.00632
 21
-0.89893
 31
0.0
  0
LINE
  5
6C8
  8
0
  6
CONTINUOUS
 62
     7
 10
-32.92355000000001
 20
-0.9800500000000001
 30
0.0
 11
-32.9693
 21
-0.9401499999999999
 31
0.0
  0
LINE
  5
6C9
  8
0
  6
CONTINUOUS
 62
     7
 10
-32.86911
 20
-1.01828
 30
0.0
 11
-32.92355000000001
 21
-0.9800500000000001
 31
0.0
  0
LINE
  5
6CA
  8
0
  6
CONTINUOUS
 62
     7
 10
-32.73438
 20
-1.08836
 30
0.0
 11
-32.86911
 21
-1.01828
 31
0.0
  0
LINE
  5
6CB
  8
0
  6
CONTINUOUS
 62
     7
 10
-32.56567
 20
-1.14763
 30
0.0
 11
-32.73438
 21
-1.08836
 31
0.0
  0
LINE
  5
6CC
  8
0
  6
CONTINUOUS
 62
     7
 10
-32.3637
 20
-1.19337
 30
0.0
 11
-32.56567
 21
-1.14763
 31
0.0
  0
LINE
  5
6CD
  8
0
  6
CONTINUOUS
 62
     7
 10
-32.10853
 20
-1.22515
 30
0.0
 11
-32.3637
 21
-1.19337
 31
0.0
  0
LINE
  5
6CE
  8
0
  6
CONTINUOUS
 62
     7
 10
-31.98399
 20
-1.24649
 30
0.0
 11
-32.10853
 21
-1.22515
 31
0.0
  0
LINE
  5
6CF
  8
0
  6
CONTINUOUS
 62
     7
 10
-31.74348
 20
-1.30791
 30
0.0
 11
-31.98399
 21
-1.24649
 31
0.0
  0
LINE
  5
6D0
  8
0
  6
CONTINUOUS
 62
     7
 10
-31.58325
 20
-1.3593
 30
0.0
 11
-31.74348
 21
-1.30791
 31
0.0
  0
LINE
  5
6D1
  8
0
  6
CONTINUOUS
 62
     7
 10
-31.39765
 20
-1.4275
 30
0.0
 11
-31.58325
 21
-1.3593
 31
0.0
  0
LINE
  5
6D2
  8
0
  6
CONTINUOUS
 62
     7
 10
-31.18839
 20
-1.51446
 30
0.0
 11
-31.39765
 21
-1.4275
 31
0.0
  0
LINE
  5
6D3
  8
0
  6
CONTINUOUS
 62
     7
 10
-30.9545
 20
-1.62334
 30
0.0
 11
-31.18839
 21
-1.51446
 31
0.0
  0
LINE
  5
6D4
  8
0
  6
CONTINUOUS
 62
     7
 10
-30.699
 20
-1.7556
 30
0.0
 11
-30.9545
 21
-1.62334
 31
0.0
  0
LINE
  5
6D5
  8
0
  6
CONTINUOUS
 62
     7
 10
-30.42433
 20
-1.9127
 30
0.0
 11
-30.699
 21
-1.7556
 31
0.0
  0
LINE
  5
6D6
  8
0
  6
CONTINUOUS
 62
     7
 10
-30.13132
 20
-2.09699
 30
0.0
 11
-30.42433
 21
-1.9127
 31
0.0
  0
LINE
  5
6D7
  8
0
  6
CONTINUOUS
 62
     7
 10
-29.82238
 20
-2.30981
 30
0.0
 11
-30.13132
 21
-2.09699
 31
0.0
  0
LINE
  5
6D8
  8
0
  6
CONTINUOUS
 62
     7
 10
-29.49733
 20
-2.55442
 30
0.0
 11
-29.82238
 21
-2.30981
 31
0.0
  0
LINE
  5
6D9
  8
0
  6
CONTINUOUS
 62
     7
 10
-29.1970101314819
 20
-2.80003171010786
 30
0.0
 11
-29.49733
 21
-2.55442
 31
0.0
  0
LINE
  5
6DA
  8
0
  6
CONTINUOUS
 62
     7
 10
-29.7998218
 20
-4.269936400000001
 30
0.0
 11
-29.43360932852271
 21
-4.141852293962221
 31
0.0
  0
LINE
  5
6DB
  8
0
  6
CONTINUOUS
 62
     7
 10
-30.1889305
 20
-4.3886209
 30
0.0
 11
-29.7998218
 21
-4.269936400000001
 31
0.0
  0
LINE
  5
6DC
  8
0
  6
CONTINUOUS
 62
     7
 10
-30.5520278
 20
-4.4829426
 30
0.0
 11
-30.1889305
 21
-4.3886209
 31
0.0
  0
LINE
  5
6DD
  8
0
  6
CONTINUOUS
 62
     7
 10
-30.890398
 20
-4.5559032
 30
0.0
 11
-30.5520278
 21
-4.4829426
 31
0.0
  0
LINE
  5
6DE
  8
0
  6
CONTINUOUS
 62
     7
 10
-31.2022348
 20
-4.6095863
 30
0.0
 11
-30.890398
 21
-4.5559032
 31
0.0
  0
LINE
  5
6DF
  8
0
  6
CONTINUOUS
 62
     7
 10
-31.4875618
 20
-4.6464839
 30
0.0
 11
-31.2022348
 21
-4.6095863
 31
0.0
  0
LINE
  5
6E0
  8
0
  6
CONTINUOUS
 62
     7
 10
-31.7445857
 20
-4.6688025
 30
0.0
 11
-31.4875618
 21
-4.6464839
 31
0.0
  0
LINE
  5
6E1
  8
0
  6
CONTINUOUS
 62
     7
 10
-31.9709678
 20
-4.678947099999999
 30
0.0
 11
-31.7445857
 21
-4.6688025
 31
0.0
  0
LINE
  5
6E2
  8
0
  6
CONTINUOUS
 62
     7
 10
-32.1687006
 20
-4.6795552
 30
0.0
 11
-31.9709678
 21
-4.678947099999999
 31
0.0
  0
LINE
  5
6E3
  8
0
  6
CONTINUOUS
 62
     7
 10
-32.33684390000001
 20
-4.6730441
 30
0.0
 11
-32.1687006
 21
-4.6795552
 31
0.0
  0
LINE
  5
6E4
  8
0
  6
CONTINUOUS
 62
     7
 10
-32.5838563
 20
-4.6485007
 30
0.0
 11
-32.33684390000001
 21
-4.6730441
 31
0.0
  0
LINE
  5
6E5
  8
0
  6
CONTINUOUS
 62
     7
 10
-32.7081843
 20
-4.6259586
 30
0.0
 11
-32.5838563
 21
-4.6485007
 31
0.0
  0
LINE
  5
6E6
  8
0
  6
CONTINUOUS
 62
     7
 10
-32.9588351
 20
-4.5685487
 30
0.0
 11
-32.7081843
 21
-4.6259586
 31
0.0
  0
LINE
  5
6E7
  8
0
  6
CONTINUOUS
 62
     7
 10
-33.1642688
 20
-4.5424525
 30
0.0
 11
-32.9588351
 21
-4.5685487
 31
0.0
  0
LINE
  5
6E8
  8
0
  6
CONTINUOUS
 62
     7
 10
-33.3430759
 20
-4.5404458
 30
0.0
 11
-33.1642688
 21
-4.5424525
 31
0.0
  0
LINE
  5
6E9
  8
0
  6
CONTINUOUS
 62
     7
 10
-33.4936494
 20
-4.5602191
 30
0.0
 11
-33.3430759
 21
-4.5404458
 31
0.0
  0
LINE
  5
6EA
  8
0
  6
CONTINUOUS
 62
     7
 10
-33.55788170000001
 20
-4.577524
 30
0.0
 11
-33.4936494
 21
-4.5602191
 31
0.0
  0
LINE
  5
6EB
  8
0
  6
CONTINUOUS
 62
     7
 10
-33.6145193
 20
-4.599370299999999
 30
0.0
 11
-33.55788170000001
 21
-4.577524
 31
0.0
  0
LINE
  5
6EC
  8
0
  6
CONTINUOUS
 62
     7
 10
-33.6634048
 20
-4.6254428
 30
0.0
 11
-33.6145193
 21
-4.599370299999999
 31
0.0
  0
LINE
  5
6ED
  8
0
  6
CONTINUOUS
 62
     7
 10
-33.7043843
 20
-4.655435799999999
 30
0.0
 11
-33.6634048
 21
-4.6254428
 31
0.0
  0
LINE
  5
6EE
  8
0
  6
CONTINUOUS
 62
     7
 10
-33.7373254
 20
-4.689014299999999
 30
0.0
 11
-33.7043843
 21
-4.655435799999999
 31
0.0
  0
LINE
  5
6EF
  8
0
  6
CONTINUOUS
 62
     7
 10
-33.762099
 20
-4.7258529
 30
0.0
 11
-33.7373254
 21
-4.689014299999999
 31
0.0
  0
LINE
  5
6F0
  8
0
  6
CONTINUOUS
 62
     7
 10
-33.7785793
 20
-4.765635499999999
 30
0.0
 11
-33.762099
 21
-4.7258529
 31
0.0
  0
LINE
  5
6F1
  8
0
  6
CONTINUOUS
 62
     7
 10
-34.0119027
 20
-5.4552213
 30
0.0
 11
-33.7785793
 21
-4.765635499999999
 31
0.0
  0
LINE
  5
6F2
  8
0
  6
CONTINUOUS
 62
     7
 10
-34.2764239
 20
-6.133452
 30
0.0
 11
-34.0119027
 21
-5.4552213
 31
0.0
  0
LINE
  5
6F3
  8
0
  6
CONTINUOUS
 62
     7
 10
-34.28937089999999
 20
-6.1745206
 30
0.0
 11
-34.2764239
 21
-6.133452
 31
0.0
  0
LINE
  5
6F4
  8
0
  6
CONTINUOUS
 62
     7
 10
-34.29407269999999
 20
-6.218664700000001
 30
0.0
 11
-34.28937089999999
 21
-6.1745206
 31
0.0
  0
LINE
  5
6F5
  8
0
  6
CONTINUOUS
 62
     7
 10
-34.29042219999999
 20
-6.2655615
 30
0.0
 11
-34.29407269999999
 21
-6.218664700000001
 31
0.0
  0
LINE
  5
6F6
  8
0
  6
CONTINUOUS
 62
     7
 10
-34.2783091
 20
-6.314878599999999
 30
0.0
 11
-34.29042219999999
 21
-6.2655615
 31
0.0
  0
LINE
  5
6F7
  8
0
  6
CONTINUOUS
 62
     7
 10
-34.2576197
 20
-6.366274300000001
 30
0.0
 11
-34.2783091
 21
-6.314878599999999
 31
0.0
  0
LINE
  5
6F8
  8
0
  6
CONTINUOUS
 62
     7
 10
-34.2282754
 20
-6.4194155
 30
0.0
 11
-34.2576197
 21
-6.366274300000001
 31
0.0
  0
LINE
  5
6F9
  8
0
  6
CONTINUOUS
 62
     7
 10
-34.190194
 20
-6.4739595
 30
0.0
 11
-34.2282754
 21
-6.4194155
 31
0.0
  0
LINE
  5
6FA
  8
0
  6
CONTINUOUS
 62
     7
 10
-34.08755799999999
 20
-6.5858935
 30
0.0
 11
-34.190194
 21
-6.4739595
 31
0.0
  0
LINE
  5
6FB
  8
0
  6
CONTINUOUS
 62
     7
 10
-33.94929389999999
 20
-6.699291300000001
 30
0.0
 11
-34.08755799999999
 21
-6.5858935
 31
0.0
  0
LINE
  5
6FC
  8
0
  6
CONTINUOUS
 62
     7
 10
-33.77514820000001
 20
-6.811350699999999
 30
0.0
 11
-33.94929389999999
 21
-6.699291300000001
 31
0.0
  0
LINE
  5
6FD
  8
0
  6
CONTINUOUS
 62
     7
 10
-33.5462363
 20
-6.9284874
 30
0.0
 11
-33.77514820000001
 21
-6.811350699999999
 31
0.0
  0
LINE
  5
6FE
  8
0
  6
CONTINUOUS
 62
     7
 10
-33.4365057
 20
-6.9911356
 30
0.0
 11
-33.5462363
 21
-6.9284874
 31
0.0
  0
LINE
  5
6FF
  8
0
  6
CONTINUOUS
 62
     7
 10
-33.2315071
 20
-7.1311108
 30
0.0
 11
-33.4365057
 21
-6.9911356
 31
0.0
  0
LINE
  5
700
  8
0
  6
CONTINUOUS
 62
     7
 10
-33.0985165
 20
-7.2342035
 30
0.0
 11
-33.2315071
 21
-7.1311108
 31
0.0
  0
LINE
  5
701
  8
0
  6
CONTINUOUS
 62
     7
 10
-32.9474354
 20
-7.3617695
 30
0.0
 11
-33.0985165
 21
-7.2342035
 31
0.0
  0
LINE
  5
702
  8
0
  6
CONTINUOUS
 62
     7
 10
-32.78053730000001
 20
-7.515056299999999
 30
0.0
 11
-32.9474354
 21
-7.3617695
 31
0.0
  0
LINE
  5
703
  8
0
  6
CONTINUOUS
 62
     7
 10
-32.5979918
 20
-7.6973651
 30
0.0
 11
-32.78053730000001
 21
-7.515056299999999
 31
0.0
  0
LINE
  5
704
  8
0
  6
CONTINUOUS
 62
     7
 10
-32.4031359
 20
-7.909035
 30
0.0
 11
-32.5979918
 21
-7.6973651
 31
0.0
  0
LINE
  5
705
  8
0
  6
CONTINUOUS
 62
     7
 10
-32.1987619
 20
-8.1506034
 30
0.0
 11
-32.4031359
 21
-7.909035
 31
0.0
  0
LINE
  5
706
  8
0
  6
CONTINUOUS
 62
     7
 10
-31.9864535
 20
-8.4239947
 30
0.0
 11
-32.1987619
 21
-8.1506034
 31
0.0
  0
LINE
  5
707
  8
0
  6
CONTINUOUS
 62
     7
 10
-31.7689335
 20
-8.729643800000002
 30
0.0
 11
-31.9864535
 21
-8.4239947
 31
0.0
  0
LINE
  5
708
  8
0
  6
CONTINUOUS
 62
     7
 10
-31.547148
 20
-9.0706756
 30
0.0
 11
-31.7689335
 21
-8.729643800000002
 31
0.0
  0
LINE
  5
709
  8
0
  6
CONTINUOUS
 62
     7
 10
-31.3489437734891
 20
-9.40419051726087
 30
0.0
 11
-31.547148
 21
-9.0706756
 31
0.0
  0
LINE
  5
70A
  8
0
  6
CONTINUOUS
 62
     7
 10
-32.4181385
 20
-10.5792754
 30
0.0
 11
-32.03020397474901
 21
-10.5841678157492
 31
0.0
  0
LINE
  5
70B
  8
0
  6
CONTINUOUS
 62
     7
 10
-32.82437350000001
 20
-10.5577194
 30
0.0
 11
-32.4181385
 21
-10.5792754
 31
0.0
  0
LINE
  5
70C
  8
0
  6
CONTINUOUS
 62
     7
 10
-33.1978333
 20
-10.5221662
 30
0.0
 11
-32.82437350000001
 21
-10.5577194
 31
0.0
  0
LINE
  5
70D
  8
0
  6
CONTINUOUS
 62
     7
 10
-33.5407514
 20
-10.4749973
 30
0.0
 11
-33.1978333
 21
-10.5221662
 31
0.0
  0
LINE
  5
70E
  8
0
  6
CONTINUOUS
 62
     7
 10
-33.85214269999999
 20
-10.4187884
 30
0.0
 11
-33.5407514
 21
-10.4749973
 31
0.0
  0
LINE
  5
70F
  8
0
  6
CONTINUOUS
 62
     7
 10
-34.1328822
 20
-10.3558732
 30
0.0
 11
-33.85214269999999
 21
-10.4187884
 31
0.0
  0
LINE
  5
710
  8
0
  6
CONTINUOUS
 62
     7
 10
-34.38203900000001
 20
-10.2889385
 30
0.0
 11
-34.1328822
 21
-10.3558732
 31
0.0
  0
LINE
  5
711
  8
0
  6
CONTINUOUS
 62
     7
 10
-34.5982383
 20
-10.221044
 30
0.0
 11
-34.38203900000001
 21
-10.2889385
 31
0.0
  0
LINE
  5
712
  8
0
  6
CONTINUOUS
 62
     7
 10
-34.78425420000001
 20
-10.1539869
 30
0.0
 11
-34.5982383
 21
-10.221044
 31
0.0
  0
LINE
  5
713
  8
0
  6
CONTINUOUS
 62
     7
 10
-34.9400304
 20
-10.0903601
 30
0.0
 11
-34.78425420000001
 21
-10.1539869
 31
0.0
  0
LINE
  5
714
  8
0
  6
CONTINUOUS
 62
     7
 10
-35.16375180000001
 20
-9.982813700000001
 30
0.0
 11
-34.9400304
 21
-10.0903601
 31
0.0
  0
LINE
  5
715
  8
0
  6
CONTINUOUS
 62
     7
 10
-35.27287200000001
 20
-9.9191083
 30
0.0
 11
-35.16375180000001
 21
-9.982813700000001
 31
0.0
  0
LINE
  5
716
  8
0
  6
CONTINUOUS
 62
     7
 10
-35.4887714
 20
-9.7794331
 30
0.0
 11
-35.27287200000001
 21
-9.9191083
 31
0.0
  0
LINE
  5
717
  8
0
  6
CONTINUOUS
 62
     7
 10
-35.6728905
 20
-9.6846481
 30
0.0
 11
-35.4887714
 21
-9.7794331
 31
0.0
  0
LINE
  5
718
  8
0
  6
CONTINUOUS
 62
     7
 10
-35.8402279
 20
-9.6216069
 30
0.0
 11
-35.6728905
 21
-9.6846481
 31
0.0
  0
LINE
  5
719
  8
0
  6
CONTINUOUS
 62
     7
 10
-35.9884836
 20
-9.5886885
 30
0.0
 11
-35.8402279
 21
-9.6216069
 31
0.0
  0
LINE
  5
71A
  8
0
  6
CONTINUOUS
 62
     7
 10
-36.0547608
 20
-9.582981
 30
0.0
 11
-35.9884836
 21
-9.5886885
 31
0.0
  0
LINE
  5
71B
  8
0
  6
CONTINUOUS
 62
     7
 10
-36.1154546
 20
-9.584138700000002
 30
0.0
 11
-36.0547608
 21
-9.582981
 31
0.0
  0
LINE
  5
71C
  8
0
  6
CONTINUOUS
 62
     7
 10
-36.1703092
 20
-9.591919
 30
0.0
 11
-36.1154546
 21
-9.584138700000002
 31
0.0
  0
LINE
  5
71D
  8
0
  6
CONTINUOUS
 62
     7
 10
-36.2190756
 20
-9.6060873
 30
0.0
 11
-36.1703092
 21
-9.591919
 31
0.0
  0
LINE
  5
71E
  8
0
  6
CONTINUOUS
 62
     7
 10
-36.2615147
 20
-9.6263743
 30
0.0
 11
-36.2190756
 21
-9.6060873
 31
0.0
  0
LINE
  5
71F
  8
0
  6
CONTINUOUS
 62
     7
 10
-36.2973938
 20
-9.6525182
 30
0.0
 11
-36.2615147
 21
-9.6263743
 31
0.0
  0
LINE
  5
720
  8
0
  6
CONTINUOUS
 62
     7
 10
-36.3264866
 20
-9.684265000000002
 30
0.0
 11
-36.2973938
 21
-9.6525182
 31
0.0
  0
LINE
  5
721
  8
0
  6
CONTINUOUS
 62
     7
 10
-36.78159110000001
 20
-10.2524624
 30
0.0
 11
-36.3264866
 21
-9.684265000000002
 31
0.0
  0
LINE
  5
722
  8
0
  6
CONTINUOUS
 62
     7
 10
-37.2621283
 20
-10.7993192
 30
0.0
 11
-36.78159110000001
 21
-10.2524624
 31
0.0
  0
LINE
  5
723
  8
0
  6
CONTINUOUS
 62
     7
 10
-37.2883409
 20
-10.8334829
 30
0.0
 11
-37.2621283
 21
-10.7993192
 31
0.0
  0
LINE
  5
724
  8
0
  6
CONTINUOUS
 62
     7
 10
-37.3078572
 20
-10.8733567
 30
0.0
 11
-37.2883409
 21
-10.8334829
 31
0.0
  0
LINE
  5
725
  8
0
  6
CONTINUOUS
 62
     7
 10
-37.3204665
 20
-10.9186738
 30
0.0
 11
-37.3078572
 21
-10.8733567
 31
0.0
  0
LINE
  5
726
  8
0
  6
CONTINUOUS
 62
     7
 10
-37.3259514
 20
-10.9691597
 30
0.0
 11
-37.3204665
 21
-10.9186738
 31
0.0
  0
LINE
  5
727
  8
0
  6
CONTINUOUS
 62
     7
 10
-37.3240881
 20
-11.024532
 30
0.0
 11
-37.3259514
 21
-10.9691597
 31
0.0
  0
LINE
  5
728
  8
0
  6
CONTINUOUS
 62
     7
 10
-37.3146888
 20
-11.0845047
 30
0.0
 11
-37.3240881
 21
-11.024532
 31
0.0
  0
LINE
  5
729
  8
0
  6
CONTINUOUS
 62
     7
 10
-37.2975591
 20
-11.148784
 30
0.0
 11
-37.3146888
 21
-11.0845047
 31
0.0
  0
LINE
  5
72A
  8
0
  6
CONTINUOUS
 62
     7
 10
-37.2393965
 20
-11.2890711
 30
0.0
 11
-37.2975591
 21
-11.148784
 31
0.0
  0
LINE
  5
72B
  8
0
  6
CONTINUOUS
 62
     7
 10
-37.1482552
 20
-11.4429193
 30
0.0
 11
-37.2393965
 21
-11.2890711
 31
0.0
  0
LINE
  5
72C
  8
0
  6
CONTINUOUS
 62
     7
 10
-37.0229383
 20
-11.607782
 30
0.0
 11
-37.1482552
 21
-11.4429193
 31
0.0
  0
LINE
  5
72D
  8
0
  6
CONTINUOUS
 62
     7
 10
-36.8478945
 20
-11.796147
 30
0.0
 11
-37.0229383
 21
-11.607782
 31
0.0
  0
LINE
  5
72E
  8
0
  6
CONTINUOUS
 62
     7
 10
-36.7662084
 20
-11.8925471
 30
0.0
 11
-36.8478945
 21
-11.796147
 31
0.0
  0
LINE
  5
72F
  8
0
  6
CONTINUOUS
 62
     7
 10
-36.6214471
 20
-12.0941944
 30
0.0
 11
-36.7662084
 21
-11.8925471
 31
0.0
  0
LINE
  5
730
  8
0
  6
CONTINUOUS
 62
     7
 10
-36.5317366
 20
-12.2365553
 30
0.0
 11
-36.6214471
 21
-12.0941944
 31
0.0
  0
LINE
  5
731
  8
0
  6
CONTINUOUS
 62
     7
 10
-36.4333969
 20
-12.4081009
 30
0.0
 11
-36.5317366
 21
-12.2365553
 31
0.0
  0
LINE
  5
732
  8
0
  6
CONTINUOUS
 62
     7
 10
-36.3289913
 20
-12.6092259
 30
0.0
 11
-36.4333969
 21
-12.4081009
 31
0.0
  0
LINE
  5
733
  8
0
  6
CONTINUOUS
 62
     7
 10
-36.21980780000001
 20
-12.8429744
 30
0.0
 11
-36.3289913
 21
-12.6092259
 31
0.0
  0
LINE
  5
734
  8
0
  6
CONTINUOUS
 62
     7
 10
-36.1090986
 20
-13.1085237
 30
0.0
 11
-36.21980780000001
 21
-12.8429744
 31
0.0
  0
LINE
  5
735
  8
0
  6
CONTINUOUS
 62
     7
 10
-35.9996711
 20
-13.4054237
 30
0.0
 11
-36.1090986
 21
-13.1085237
 31
0.0
  0
LINE
  5
736
  8
0
  6
CONTINUOUS
 62
     7
 10
-35.8936717
 20
-13.7349413
 30
0.0
 11
-35.9996711
 21
-13.4054237
 31
0.0
  0
LINE
  5
737
  8
0
  6
CONTINUOUS
 62
     7
 10
-35.79380800000001
 20
-14.0965536
 30
0.0
 11
-35.8936717
 21
-13.7349413
 31
0.0
  0
LINE
  5
738
  8
0
  6
CONTINUOUS
 62
     7
 10
-35.7020375
 20
-14.4928739
 30
0.0
 11
-35.79380800000001
 21
-14.0965536
 31
0.0
  0
LINE
  5
739
  8
0
  6
CONTINUOUS
 62
     7
 10
-35.6298552936408
 20
-14.874065319291
 30
0.0
 11
-35.7020375
 21
-14.4928739
 31
0.0
  0
ARC
  5
73A
  8
0
  6
CONTINUOUS
 62
     7
 10
-49.00001169998652
 20
0.0000333999648845
 30
0.0
 40
19.99999999996245
 50
288.0479543929073
 51
291.9520431000034
  0
ARC
  5
73B
  8
0
  6
CONTINUOUS
 62
     7
 10
-48.99999999999955
 20
0.0000352999683528
 30
0.0
 40
19.99999999996838
 50
268.0479556716907
 51
271.9520443000034
  0
ARC
  5
73C
  8
0
  6
CONTINUOUS
 62
     7
 10
-48.99998839999761
 20
0.0000335000066845
 30
0.0
 40
20.00000000000709
 50
248.0479571640715
 51
251.9520459000011
  0
ARC
  5
73D
  8
0
  6
CONTINUOUS
 62
     7
 10
-48.9999776999911
 20
0.0000275000109049
 30
0.0
 40
20.00000000001409
 50
228.0479572766073
 51
231.9520459000006
  0
ARC
  5
73E
  8
0
  6
CONTINUOUS
 62
     7
 10
-48.99996930003653
 20
0.0000175999783067
 30
0.0
 40
19.99999999995753
 50
208.0479552920663
 51
211.9520440000045
  0
ARC
  5
73F
  8
0
  6
CONTINUOUS
 62
     7
 10
-48.99996520005748
 20
0.0000064999890602
 30
0.0
 40
19.99999999994154
 50
188.0479567586955
 51
191.952045300005
  0
ARC
  5
740
  8
0
  6
CONTINUOUS
 62
     7
 10
-48.99996519995153
 20
-0.0000065000079716
 30
0.0
 40
20.00000000004912
 50
168.0479547428647
 51
171.9520431999969
  0
ARC
  5
741
  8
0
  6
CONTINUOUS
 62
     7
 10
-48.99996929998147
 20
-0.0000176000103203
 30
0.0
 40
20.0000000000212
 50
148.0479560035841
 51
151.9520446999989
  0
ARC
  5
742
  8
0
  6
CONTINUOUS
 62
     7
 10
-48.999977700019
 20
-0.0000273999782158
 30
0.0
 40
19.99999999997114
 50
128.0479540879294
 51
131.9520427000013
  0
ARC
  5
743
  8
0
  6
CONTINUOUS
 62
     7
 10
-48.99998830000938
 20
-0.0000333999748143
 30
0.0
 40
19.99999999997319
 50
108.0479543929083
 51
111.9520431000021
  0
ARC
  5
744
  8
0
  6
CONTINUOUS
 62
     7
 10
-49.00000000000045
 20
-0.000035299968354
 30
0.0
 40
19.99999999996838
 50
88.04795567168907
 51
91.95204430000183
  0
ARC
  5
745
  8
0
  6
CONTINUOUS
 62
     7
 10
-49.00001160000215
 20
-0.0000335000059456
 30
0.0
 40
20.00000000000632
 50
68.04795716406973
 51
71.95204589999946
  0
ARC
  5
746
  8
0
  6
CONTINUOUS
 62
     7
 10
-49.00002230005873
 20
-0.0000275000717949
 30
0.0
 40
20.00000000009269
 50
48.04795727661608
 51
51.95204589999434
  0
ARC
  5
747
  8
0
  6
CONTINUOUS
 62
     7
 10
-49.00003070001048
 20
-0.0000176000064567
 30
0.0
 40
20.00000000001226
 50
28.04795529207264
 51
31.95204399999972
  0
ARC
  5
748
  8
0
  6
CONTINUOUS
 62
     7
 10
-49.00003479992099
 20
-0.0000064999850022
 30
0.0
 40
19.99999999991964
 50
8.047956758690846
 51
11.95204530000484
  0
ARC
  5
749
  8
0
  6
CONTINUOUS
 62
     7
 10
-49.00003479993592
 20
0.000006499989706
 30
0.0
 40
19.99999999993512
 50
348.0479547428508
 51
351.9520432000052
  0
ARC
  5
74A
  8
0
  6
CONTINUOUS
 62
     7
 10
-49.0000307000466
 20
0.0000176000261618
 30
0.0
 40
20.00000000005341
 50
328.0479560035899
 51
331.9520446999983
  0
ARC
  5
74B
  8
0
  6
CONTINUOUS
 62
     7
 10
-49.00002229998032
 20
0.0000273999774082
 30
0.0
 40
19.99999999997009
 50
308.0479540879309
 51
311.952042700003
  0
ENDSEC
  0
EOF
