  0
SECTION
  2
HEADER
  9
$ACADVER
  1
AC1006
  9
$DWGCODEPAGE
  3
ansi_1252
  9
$INSBASE
 10
0.0
 20
0.0
 30
0.0
  9
$EXTMIN
 10
-33.97642782625904
 20
-48.7048057538813
  9
$EXTMAX
 10
63.5821358404076
 20
33.88420446039307
  9
$LIMMIN
 10
0.0
 20
0.0
  9
$LIMMAX
 10
420.0
 20
297.0
  9
$ORTHOMODE
 70
     0
  9
$REGENMODE
 70
     1
  9
$FILLMODE
 70
     1
  9
$QTEXTMODE
 70
     0
  9
$MIRRTEXT
 70
     1
  9
$DRAGMODE
 70
     2
  9
$LTSCALE
 40
1.0
  9
$OSMODE
 70
    37
  9
$ATTMODE
 70
     1
  9
$TEXTSIZE
 40
3.5
  9
$TRACEWID
 40
1.0
  9
$TEXTSTYLE
  7
STANDARD
  9
$CLAYER
  8
0
  9
$CELTYPE
  6
BYLAYER
  9
$CECOLOR
 62
   256
  9
$DIMSCALE
 40
1.0
  9
$DIMASZ
 40
3.556
  9
$DIMEXO
 40
0.0
  9
$DIMDLI
 40
3.75
  9
$DIMRND
 40
0.0
  9
$DIMDLE
 40
0.0
  9
$DIMEXE
 40
1.0
  9
$DIMTP
 40
0.0
  9
$DIMTM
 40
0.0
  9
$DIMTXT
 40
3.5
  9
$DIMCEN
 40
2.5
  9
$DIMTSZ
 40
0.0
  9
$DIMTOL
 70
     0
  9
$DIMLIM
 70
     0
  9
$DIMTIH
 70
     1
  9
$DIMTOH
 70
     1
  9
$DIMSE1
 70
     0
  9
$DIMSE2
 70
     0
  9
$DIMTAD
 70
     1
  9
$DIMZIN
 70
     1
  9
$DIMBLK
  1

  9
$DIMASO
 70
     1
  9
$DIMSHO
 70
     1
  9
$DIMPOST
  1

  9
$DIMAPOST
  1

  9
$DIMALT
 70
     0
  9
$DIMALTD
 70
     3
  9
$DIMALTF
 40
0.0393700787401575
  9
$DIMLFAC
 40
1.0
  9
$DIMTOFL
 70
     1
  9
$DIMTVP
 40
0.0
  9
$DIMTIX
 70
     0
  9
$DIMSOXD
 70
     0
  9
$DIMSAH
 70
     0
  9
$DIMBLK1
  1

  9
$DIMBLK2
  1

  9
$LUNITS
 70
     2
  9
$LUPREC
 70
     2
  9
$SKETCHINC
 40
1.0
  9
$FILLETRAD
 40
0.0
  9
$AUNITS
 70
     0
  9
$AUPREC
 70
     2
  9
$MENU
  1
.
  9
$ELEVATION
 40
0.0
  9
$THICKNESS
 40
0.0
  9
$LIMCHECK
 70
     0
  9
$CHAMFERA
 40
0.0
  9
$CHAMFERB
 40
0.0
  9
$SKPOLY
 70
     0
  9
$TDCREATE
 40
2460780.059486157
  9
$TDUPDATE
 40
2460780.069607454
  9
$TDINDWG
 40
0.0003125116
  9
$TDUSRTIMER
 40
0.0003125116
  9
$USRTIMER
 70
     1
  9
$ANGBASE
 50
0.0
  9
$ANGDIR
 70
     0
  9
$PDMODE
 70
     0
  9
$PDSIZE
 40
-1.0
  9
$PLINEWID
 40
0.0
  9
$COORDS
 70
     1
  9
$SPLFRAME
 70
     0
  9
$SPLINETYPE
 70
     6
  9
$SPLINESEGS
 70
     8
  9
$ATTDIA
 70
     0
  9
$ATTREQ
 70
     1
  9
$HANDLING
 70
     1
  9
$HANDSEED
  5
9D3
  9
$SURFTAB1
 70
     6
  9
$SURFTAB2
 70
     6
  9
$SURFTYPE
 70
     6
  9
$SURFU
 70
     6
  9
$SURFV
 70
     6
  9
$UCSNAME
  2

  9
$UCSORG
 10
0.0
 20
0.0
 30
0.0
  9
$UCSXDIR
 10
1.0
 20
0.0
 30
0.0
  9
$UCSYDIR
 10
0.0
 20
1.0
 30
0.0
  9
$USERI1
 70
     0
  9
$USERI2
 70
     0
  9
$USERI3
 70
     0
  9
$USERI4
 70
     0
  9
$USERI5
 70
     0
  9
$USERR1
 40
0.0
  9
$USERR2
 40
0.0
  9
$USERR3
 40
0.0
  9
$USERR4
 40
0.0
  9
$USERR5
 40
0.0
  9
$WORLDVIEW
 70
     1
  0
ENDSEC
  0
SECTION
  2
TABLES
  0
TABLE
  2
VPORT
 70
     1
  0
VPORT
  2
*ACTIVE
 70
     0
 10
0.0
 20
0.0
 11
1.0
 21
1.0
 12
144.6656483106362
 22
6.306891976768256
 13
0.0
 23
0.0
 14
10.0
 24
10.0
 15
10.0
 25
10.0
 16
0.0
 26
0.0
 36
1.0
 17
0.0
 27
0.0
 37
0.0
 40
152.3889350519387
 41
2.632616487455197
 42
50.0
 43
0.0
 44
0.0
 50
0.0
 51
0.0
 71
     0
 72
   100
 73
     1
 74
     3
 75
     0
 76
     0
 77
     0
 78
     0
  0
ENDTAB
  0
TABLE
  2
LTYPE
 70
     6
  0
LTYPE
  2
CONTINUOUS
 70
     0
  3
Solid line
 72
    65
 73
     0
 40
0.0
  0
LTYPE
  2
HIDDEN
 70
     0
  3
Hidden __ __ __ __ __ __ __ __ __ __ __ __ __ __
 72
    65
 73
     2
 40
1.905
 49
1.27
 49
-0.635
  0
LTYPE
  2
PHANTOM
 70
     0
  3
Phantom ______  __  __  ______  __  __  ______
 72
    65
 73
     6
 40
12.7
 49
6.35
 49
-1.27
 49
1.27
 49
-1.27
 49
1.27
 49
-1.27
  0
LTYPE
  2
CENTER
 70
     0
  3
Center ____ _ ____ _ ____ _ ____ _ ____ _ ____
 72
    65
 73
     4
 40
10.16
 49
6.35
 49
-1.27
 49
1.27
 49
-1.27
  0
LTYPE
  2
CENTERX2
 70
     0
  3
Center (2x) ________  __  ________  __  _____
 72
    65
 73
     4
 40
20.32
 49
12.7
 49
-2.54
 49
2.54
 49
-2.54
  0
LTYPE
  2
DOT2
 70
     0
  3
Dot (.5x) ........................................
 72
    65
 73
     2
 40
0.635
 49
0.0
 49
-0.635
  0
ENDTAB
  0
TABLE
  2
LAYER
 70
     1
  0
LAYER
  2
0
 70
     0
 62
     7
  6
CONTINUOUS
  0
ENDTAB
  0
TABLE
  2
STYLE
 70
     3
  0
STYLE
  2
STANDARD
 70
     0
 40
0.0
 41
1.0
 50
0.0
 71
     0
 42
3.5
  3
txt
  4

  0
STYLE
  2
SLDTEXTSTYLE0
 70
     0
 40
0.0
 41
0.7
 50
0.0
 71
     0
 42
3.5
  3
TXT
  4

  0
STYLE
  2
SLDTEXTSTYLE1
 70
     0
 40
0.0
 41
0.7
 50
0.0
 71
     0
 42
3.5
  3
TXT
  4
bigfont
  0
ENDTAB
  0
TABLE
  2
VIEW
 70
     0
  0
ENDTAB
  0
TABLE
  2
UCS
 70
     0
  0
ENDTAB
  0
ENDSEC
  0
SECTION
  2
BLOCKS
  0
ENDSEC
  0
SECTION
  2
ENTITIES
  0
LINE
  5
4E2
  8
0
  6
CONTINUOUS
 62
     7
 10
-4.080867274321848
 20
3.141500000412342
 30
0.0
 11
4.080867283969062
 21
3.141500000412342
 31
0.0
  0
LINE
  5
4E3
  8
0
  6
CONTINUOUS
 62
     7
 10
4.080831874567326
 20
-3.141545996526742
 30
0.0
 11
-4.080902683205122
 21
-3.141454002249467
 31
0.0
  0
LINE
  5
4E4
  8
0
  6
CONTINUOUS
 62
     7
 10
-14.1012759714374
 20
-30.92689679549315
 30
0.0
 11
-14.1264981991764
 21
-30.33800357158766
 31
0.0
  0
LINE
  5
4E5
  8
0
  6
CONTINUOUS
 62
     7
 10
-14.1264981991764
 20
-30.33800357158766
 30
0.0
 11
-14.12790899017639
 21
-29.74241348758766
 31
0.0
  0
LINE
  5
4E6
  8
0
  6
CONTINUOUS
 62
     7
 10
-14.12790899017639
 20
-29.74241348758766
 30
0.0
 11
-14.1065138301764
 21
-29.20134851358766
 31
0.0
  0
LINE
  5
4E7
  8
0
  6
CONTINUOUS
 62
     7
 10
-14.1065138301764
 20
-29.20134851358766
 30
0.0
 11
-14.06667034017639
 21
-28.71300275058766
 31
0.0
  0
LINE
  5
4E8
  8
0
  6
CONTINUOUS
 62
     7
 10
-14.06667034017639
 20
-28.71300275058766
 30
0.0
 11
-14.01302536517639
 21
-28.28003916058766
 31
0.0
  0
LINE
  5
4E9
  8
0
  6
CONTINUOUS
 62
     7
 10
-14.01302536517639
 20
-28.28003916058766
 30
0.0
 11
-13.95007300117639
 21
-27.90210723458766
 31
0.0
  0
LINE
  5
4EA
  8
0
  6
CONTINUOUS
 62
     7
 10
-13.95007300117639
 20
-27.90210723458766
 30
0.0
 11
-13.8820455181764
 21
-27.57791813358766
 31
0.0
  0
LINE
  5
4EB
  8
0
  6
CONTINUOUS
 62
     7
 10
-13.8820455181764
 20
-27.57791813358766
 30
0.0
 11
-13.81364744117639
 21
-27.30847713758766
 31
0.0
  0
LINE
  5
4EC
  8
0
  6
CONTINUOUS
 62
     7
 10
-13.81364744117639
 20
-27.30847713758766
 30
0.0
 11
-13.70928856217639
 21
-26.95346878858766
 31
0.0
  0
LINE
  5
4ED
  8
0
  6
CONTINUOUS
 62
     7
 10
-13.70928856217639
 20
-26.95346878858766
 30
0.0
 11
-13.6873774751764
 21
-26.84792242258765
 31
0.0
  0
LINE
  5
4EE
  8
0
  6
CONTINUOUS
 62
     7
 10
-13.6873774751764
 20
-26.84792242258765
 30
0.0
 11
-13.67566235817639
 21
-26.75344484858766
 31
0.0
  0
LINE
  5
4EF
  8
0
  6
CONTINUOUS
 62
     7
 10
-13.67566235817639
 20
-26.75344484858766
 30
0.0
 11
-13.67366178917639
 21
-26.67042077158765
 31
0.0
  0
LINE
  5
4F0
  8
0
  6
CONTINUOUS
 62
     7
 10
-13.67366178917639
 20
-26.67042077158765
 30
0.0
 11
-13.68088868117639
 21
-26.59920337858766
 31
0.0
  0
LINE
  5
4F1
  8
0
  6
CONTINUOUS
 62
     7
 10
-13.68088868117639
 20
-26.59920337858766
 30
0.0
 11
-13.6968554321764
 21
-26.54014554758766
 31
0.0
  0
LINE
  5
4F2
  8
0
  6
CONTINUOUS
 62
     7
 10
-13.6968554321764
 20
-26.54014554758766
 30
0.0
 11
-13.72103684517639
 21
-26.49357420058766
 31
0.0
  0
LINE
  5
4F3
  8
0
  6
CONTINUOUS
 62
     7
 10
-13.72103684517639
 20
-26.49357420058766
 30
0.0
 11
-13.75292059817639
 21
-26.45979730758766
 31
0.0
  0
LINE
  5
4F4
  8
0
  6
CONTINUOUS
 62
     7
 10
-13.75292059817639
 20
-26.45979730758766
 30
0.0
 11
-13.85271503217639
 21
-26.40551414458766
 31
0.0
  0
LINE
  5
4F5
  8
0
  6
CONTINUOUS
 62
     7
 10
-13.85271503217639
 20
-26.40551414458766
 30
0.0
 11
-14.47097654917639
 21
-26.07170453458766
 31
0.0
  0
LINE
  5
4F6
  8
0
  6
CONTINUOUS
 62
     7
 10
-14.47097654917639
 20
-26.07170453458766
 30
0.0
 11
-15.0813002681764
 21
-25.72359378658766
 31
0.0
  0
LINE
  5
4F7
  8
0
  6
CONTINUOUS
 62
     7
 10
-15.0813002681764
 20
-25.72359378658766
 30
0.0
 11
-15.18015503317639
 21
-25.66761761258766
 31
0.0
  0
LINE
  5
4F8
  8
0
  6
CONTINUOUS
 62
     7
 10
-15.18015503317639
 20
-25.66761761258766
 30
0.0
 11
-15.22568494717639
 21
-25.65842640758766
 31
0.0
  0
LINE
  5
4F9
  8
0
  6
CONTINUOUS
 62
     7
 10
-15.22568494717639
 20
-25.65842640758766
 30
0.0
 11
-15.2779985441764
 21
-25.66253960958766
 31
0.0
  0
LINE
  5
4FA
  8
0
  6
CONTINUOUS
 62
     7
 10
-15.2779985441764
 20
-25.66253960958766
 30
0.0
 11
-15.33656352017639
 21
-25.68022893258766
 31
0.0
  0
LINE
  5
4FB
  8
0
  6
CONTINUOUS
 62
     7
 10
-15.33656352017639
 20
-25.68022893258766
 30
0.0
 11
-15.40082449917639
 21
-25.71176732658766
 31
0.0
  0
LINE
  5
4FC
  8
0
  6
CONTINUOUS
 62
     7
 10
-15.40082449917639
 20
-25.71176732658766
 30
0.0
 11
-15.47022414817639
 21
-25.75738170058766
 31
0.0
  0
LINE
  5
4FD
  8
0
  6
CONTINUOUS
 62
     7
 10
-15.47022414817639
 20
-25.75738170058766
 30
0.0
 11
-15.54420513417639
 21
-25.81729896358766
 31
0.0
  0
LINE
  5
4FE
  8
0
  6
CONTINUOUS
 62
     7
 10
-15.54420513417639
 20
-25.81729896358766
 30
0.0
 11
-15.62218622817639
 21
-25.89172398258766
 31
0.0
  0
LINE
  5
4FF
  8
0
  6
CONTINUOUS
 62
     7
 10
-15.62218622817639
 20
-25.89172398258766
 30
0.0
 11
-15.86825992317639
 21
-26.16807421858766
 31
0.0
  0
LINE
  5
500
  8
0
  6
CONTINUOUS
 62
     7
 10
-15.86825992317639
 20
-26.16807421858766
 30
0.0
 11
-16.06073942217639
 21
-26.36864436758766
 31
0.0
  0
LINE
  5
501
  8
0
  6
CONTINUOUS
 62
     7
 10
-16.06073942217639
 20
-26.36864436758766
 30
0.0
 11
-16.29987647917639
 21
-26.59785984658766
 31
0.0
  0
LINE
  5
502
  8
0
  6
CONTINUOUS
 62
     7
 10
-16.29987647917639
 20
-26.59785984658766
 30
0.0
 11
-16.58730673417639
 21
-26.85119638058766
 31
0.0
  0
LINE
  5
503
  8
0
  6
CONTINUOUS
 62
     7
 10
-16.58730673417639
 20
-26.85119638058766
 30
0.0
 11
-16.92636254617639
 21
-27.12574401358766
 31
0.0
  0
LINE
  5
504
  8
0
  6
CONTINUOUS
 62
     7
 10
-16.92636254617639
 20
-27.12574401358766
 30
0.0
 11
-17.31971861917639
 21
-27.41787436458766
 31
0.0
  0
LINE
  5
505
  8
0
  6
CONTINUOUS
 62
     7
 10
-17.31971861917639
 20
-27.41787436458766
 30
0.0
 11
-17.76757291917639
 21
-27.72223514158766
 31
0.0
  0
LINE
  5
506
  8
0
  6
CONTINUOUS
 62
     7
 10
-17.76757291917639
 20
-27.72223514158766
 30
0.0
 11
-18.27376343217639
 21
-28.03608366058766
 31
0.0
  0
LINE
  5
507
  8
0
  6
CONTINUOUS
 62
     7
 10
-18.27376343217639
 20
-28.03608366058766
 30
0.0
 11
-18.78686588170846
 21
-28.32618225091247
 31
0.0
  0
LINE
  5
508
  8
0
  6
CONTINUOUS
 62
     7
 10
-20.03816064531424
 20
-27.45525545304642
 30
0.0
 11
-19.94432321317639
 21
-26.87333973258766
 31
0.0
  0
LINE
  5
509
  8
0
  6
CONTINUOUS
 62
     7
 10
-19.94432321317639
 20
-26.87333973258766
 30
0.0
 11
-19.82581367917639
 21
-26.28965727258766
 31
0.0
  0
LINE
  5
50A
  8
0
  6
CONTINUOUS
 62
     7
 10
-19.82581367917639
 20
-26.28965727258766
 30
0.0
 11
-19.69594087617639
 21
-25.76397483358766
 31
0.0
  0
LINE
  5
50B
  8
0
  6
CONTINUOUS
 62
     7
 10
-19.69594087617639
 20
-25.76397483358766
 30
0.0
 11
-19.55860974017639
 21
-25.29364593358766
 31
0.0
  0
LINE
  5
50C
  8
0
  6
CONTINUOUS
 62
     7
 10
-19.55860974017639
 20
-25.29364593358766
 30
0.0
 11
-19.41890785317639
 21
-24.88034380758766
 31
0.0
  0
LINE
  5
50D
  8
0
  6
CONTINUOUS
 62
     7
 10
-19.41890785317639
 20
-24.88034380758766
 30
0.0
 11
-19.28116698317639
 21
-24.52282040458766
 31
0.0
  0
LINE
  5
50E
  8
0
  6
CONTINUOUS
 62
     7
 10
-19.28116698317639
 20
-24.52282040458766
 30
0.0
 11
-19.14927332017639
 21
-24.21896134058766
 31
0.0
  0
LINE
  5
50F
  8
0
  6
CONTINUOUS
 62
     7
 10
-19.14927332017639
 20
-24.21896134058766
 30
0.0
 11
-19.02803737617639
 21
-23.96880421058766
 31
0.0
  0
LINE
  5
510
  8
0
  6
CONTINUOUS
 62
     7
 10
-19.02803737617639
 20
-23.96880421058766
 30
0.0
 11
-18.85435208117639
 21
-23.64207018558766
 31
0.0
  0
LINE
  5
511
  8
0
  6
CONTINUOUS
 62
     7
 10
-18.85435208117639
 20
-23.64207018558766
 30
0.0
 11
-18.81164313117639
 21
-23.54309511658766
 31
0.0
  0
LINE
  5
512
  8
0
  6
CONTINUOUS
 62
     7
 10
-18.81164313117639
 20
-23.54309511658766
 30
0.0
 11
-18.78114956917639
 21
-23.45290965558766
 31
0.0
  0
LINE
  5
513
  8
0
  6
CONTINUOUS
 62
     7
 10
-18.78114956917639
 20
-23.45290965558766
 30
0.0
 11
-18.76247742017639
 21
-23.37198780858766
 31
0.0
  0
LINE
  5
514
  8
0
  6
CONTINUOUS
 62
     7
 10
-18.76247742017639
 20
-23.37198780858766
 30
0.0
 11
-18.75522034917639
 21
-23.30077350558766
 31
0.0
  0
LINE
  5
515
  8
0
  6
CONTINUOUS
 62
     7
 10
-18.75522034917639
 20
-23.30077350558766
 30
0.0
 11
-18.75897202117639
 21
-23.23971047058766
 31
0.0
  0
LINE
  5
516
  8
0
  6
CONTINUOUS
 62
     7
 10
-18.75897202117639
 20
-23.23971047058766
 30
0.0
 11
-18.77328376817639
 21
-23.18922481458766
 31
0.0
  0
LINE
  5
517
  8
0
  6
CONTINUOUS
 62
     7
 10
-18.77328376817639
 20
-23.18922481458766
 30
0.0
 11
-18.79771557417639
 21
-23.14972112158766
 31
0.0
  0
LINE
  5
518
  8
0
  6
CONTINUOUS
 62
     7
 10
-18.79771557417639
 20
-23.14972112158766
 30
0.0
 11
-18.88454014517639
 21
-23.07646072358766
 31
0.0
  0
LINE
  5
519
  8
0
  6
CONTINUOUS
 62
     7
 10
-18.88454014517639
 20
-23.07646072358766
 30
0.0
 11
-19.42295039717639
 21
-22.62502913058766
 31
0.0
  0
LINE
  5
51A
  8
0
  6
CONTINUOUS
 62
     7
 10
-19.42295039717639
 20
-22.62502913058766
 30
0.0
 11
-19.95070653517639
 21
-22.16118686158766
 31
0.0
  0
LINE
  5
51B
  8
0
  6
CONTINUOUS
 62
     7
 10
-19.95070653517639
 20
-22.16118686158766
 30
0.0
 11
-20.03626976817639
 21
-22.08645716858766
 31
0.0
  0
LINE
  5
51C
  8
0
  6
CONTINUOUS
 62
     7
 10
-20.03626976817639
 20
-22.08645716858766
 30
0.0
 11
-20.07901754917639
 21
-22.06828910158766
 31
0.0
  0
LINE
  5
51D
  8
0
  6
CONTINUOUS
 62
     7
 10
-20.07901754917639
 20
-22.06828910158766
 30
0.0
 11
-20.13108827217639
 21
-22.06178732958766
 31
0.0
  0
LINE
  5
51E
  8
0
  6
CONTINUOUS
 62
     7
 10
-20.13108827217639
 20
-22.06178732958766
 30
0.0
 11
-20.19201524417639
 21
-22.06732553658766
 31
0.0
  0
LINE
  5
51F
  8
0
  6
CONTINUOUS
 62
     7
 10
-20.19201524417639
 20
-22.06732553658766
 30
0.0
 11
-20.2613094211764
 21
-22.08528276258766
 31
0.0
  0
LINE
  5
520
  8
0
  6
CONTINUOUS
 62
     7
 10
-20.2613094211764
 20
-22.08528276258766
 30
0.0
 11
-20.33847053217639
 21
-22.11599344858766
 31
0.0
  0
LINE
  5
521
  8
0
  6
CONTINUOUS
 62
     7
 10
-20.33847053217639
 20
-22.11599344858766
 30
0.0
 11
-20.42299840917639
 21
-22.15979193258766
 31
0.0
  0
LINE
  5
522
  8
0
  6
CONTINUOUS
 62
     7
 10
-20.42299840917639
 20
-22.15979193258766
 30
0.0
 11
-20.5143648681764
 21
-22.21699586658766
 31
0.0
  0
LINE
  5
523
  8
0
  6
CONTINUOUS
 62
     7
 10
-20.5143648681764
 20
-22.21699586658766
 30
0.0
 11
-20.81103030917639
 21
-22.43815489158766
 31
0.0
  0
LINE
  5
524
  8
0
  6
CONTINUOUS
 62
     7
 10
-20.81103030917639
 20
-22.43815489158766
 30
0.0
 11
-21.03994420417639
 21
-22.59587353858766
 31
0.0
  0
LINE
  5
525
  8
0
  6
CONTINUOUS
 62
     7
 10
-21.03994420417639
 20
-22.59587353858766
 30
0.0
 11
-21.32032689017639
 21
-22.77225908158766
 31
0.0
  0
LINE
  5
526
  8
0
  6
CONTINUOUS
 62
     7
 10
-21.32032689017639
 20
-22.77225908158766
 30
0.0
 11
-21.65286970317639
 21
-22.96255055158765
 31
0.0
  0
LINE
  5
527
  8
0
  6
CONTINUOUS
 62
     7
 10
-21.65286970317639
 20
-22.96255055158765
 30
0.0
 11
-22.04025105517639
 21
-23.16322679058766
 31
0.0
  0
LINE
  5
528
  8
0
  6
CONTINUOUS
 62
     7
 10
-22.04025105517639
 20
-23.16322679058766
 30
0.0
 11
-22.48436048117639
 21
-23.37019519658766
 31
0.0
  0
LINE
  5
529
  8
0
  6
CONTINUOUS
 62
     7
 10
-22.48436048117639
 20
-23.37019519658766
 30
0.0
 11
-22.98431465317639
 21
-23.57817320858766
 31
0.0
  0
LINE
  5
52A
  8
0
  6
CONTINUOUS
 62
     7
 10
-22.98431465317639
 20
-23.57817320858766
 30
0.0
 11
-23.5433205791764
 21
-23.78370177758766
 31
0.0
  0
LINE
  5
52B
  8
0
  6
CONTINUOUS
 62
     7
 10
-23.5433205791764
 20
-23.78370177758766
 30
0.0
 11
-24.10431629175978
 21
-23.9645753612688
 31
0.0
  0
LINE
  5
52C
  8
0
  6
CONTINUOUS
 62
     7
 10
-25.15468060501499
 20
-22.8595927045243
 30
0.0
 11
-24.94562520317639
 21
-22.30847809758766
 31
0.0
  0
LINE
  5
52D
  8
0
  6
CONTINUOUS
 62
     7
 10
-24.94562520317639
 20
-22.30847809758766
 30
0.0
 11
-24.7120471591764
 21
-21.76059957058766
 31
0.0
  0
LINE
  5
52E
  8
0
  6
CONTINUOUS
 62
     7
 10
-24.7120471591764
 20
-21.76059957058766
 30
0.0
 11
-24.47901388217639
 21
-21.27182100158766
 31
0.0
  0
LINE
  5
52F
  8
0
  6
CONTINUOUS
 62
     7
 10
-24.47901388217639
 20
-21.27182100158766
 30
0.0
 11
-24.2498173551764
 21
-20.83876440258766
 31
0.0
  0
LINE
  5
530
  8
0
  6
CONTINUOUS
 62
     7
 10
-24.2498173551764
 20
-20.83876440258766
 30
0.0
 11
-24.02977814617639
 21
-20.46204427158766
 31
0.0
  0
LINE
  5
531
  8
0
  6
CONTINUOUS
 62
     7
 10
-24.02977814617639
 20
-20.46204427158766
 30
0.0
 11
-23.82288781417639
 21
-20.13956641258766
 31
0.0
  0
LINE
  5
532
  8
0
  6
CONTINUOUS
 62
     7
 10
-23.82288781417639
 20
-20.13956641258766
 30
0.0
 11
-23.63252764317639
 21
-19.86847741658766
 31
0.0
  0
LINE
  5
533
  8
0
  6
CONTINUOUS
 62
     7
 10
-23.63252764317639
 20
-19.86847741658766
 30
0.0
 11
-23.46341709317639
 21
-19.64784564858765
 31
0.0
  0
LINE
  5
534
  8
0
  6
CONTINUOUS
 62
     7
 10
-23.46341709317639
 20
-19.64784564858765
 30
0.0
 11
-23.22751609017639
 21
-19.36276245458766
 31
0.0
  0
LINE
  5
535
  8
0
  6
CONTINUOUS
 62
     7
 10
-23.22751609017639
 20
-19.36276245458766
 30
0.0
 11
-23.16575780517639
 21
-19.27441059958766
 31
0.0
  0
LINE
  5
536
  8
0
  6
CONTINUOUS
 62
     7
 10
-23.16575780517639
 20
-19.27441059958766
 30
0.0
 11
-23.1177343641764
 21
-19.19220959558766
 31
0.0
  0
LINE
  5
537
  8
0
  6
CONTINUOUS
 62
     7
 10
-23.1177343641764
 20
-19.19220959558766
 30
0.0
 11
-23.08315499817639
 21
-19.11670297358766
 31
0.0
  0
LINE
  5
538
  8
0
  6
CONTINUOUS
 62
     7
 10
-23.08315499817639
 20
-19.11670297358766
 30
0.0
 11
-23.06171111917639
 21
-19.04840717558766
 31
0.0
  0
LINE
  5
539
  8
0
  6
CONTINUOUS
 62
     7
 10
-23.06171111917639
 20
-19.04840717558766
 30
0.0
 11
-23.05309413917639
 21
-18.98783895258766
 31
0.0
  0
LINE
  5
53A
  8
0
  6
CONTINUOUS
 62
     7
 10
-23.05309413917639
 20
-18.98783895258766
 30
0.0
 11
-23.05695015017639
 21
-18.93550578558766
 31
0.0
  0
LINE
  5
53B
  8
0
  6
CONTINUOUS
 62
     7
 10
-23.05695015017639
 20
-18.93550578558766
 30
0.0
 11
-23.0729297761764
 21
-18.89189270158766
 31
0.0
  0
LINE
  5
53C
  8
0
  6
CONTINUOUS
 62
     7
 10
-23.0729297761764
 20
-18.89189270158766
 30
0.0
 11
-23.14322985117639
 21
-18.80265422258766
 31
0.0
  0
LINE
  5
53D
  8
0
  6
CONTINUOUS
 62
     7
 10
-23.14322985117639
 20
-18.80265422258766
 30
0.0
 11
-23.57974632317639
 21
-18.25208224558766
 31
0.0
  0
LINE
  5
53E
  8
0
  6
CONTINUOUS
 62
     7
 10
-23.57974632317639
 20
-18.25208224558766
 30
0.0
 11
-24.00332846717639
 21
-17.69149835958766
 31
0.0
  0
LINE
  5
53F
  8
0
  6
CONTINUOUS
 62
     7
 10
-24.00332846717639
 20
-17.69149835958766
 30
0.0
 11
-24.07209734417639
 21
-17.60107465958766
 31
0.0
  0
LINE
  5
540
  8
0
  6
CONTINUOUS
 62
     7
 10
-24.07209734417639
 20
-17.60107465958766
 30
0.0
 11
-24.11031281617639
 21
-17.57467339058766
 31
0.0
  0
LINE
  5
541
  8
0
  6
CONTINUOUS
 62
     7
 10
-24.11031281617639
 20
-17.57467339058766
 30
0.0
 11
-24.16000887417639
 21
-17.55782300258766
 31
0.0
  0
LINE
  5
542
  8
0
  6
CONTINUOUS
 62
     7
 10
-24.16000887417639
 20
-17.55782300258766
 30
0.0
 11
-24.22080349117639
 21
-17.55098339058766
 31
0.0
  0
LINE
  5
543
  8
0
  6
CONTINUOUS
 62
     7
 10
-24.22080349117639
 20
-17.55098339058766
 30
0.0
 11
-24.29229393717639
 21
-17.55462413158766
 31
0.0
  0
LINE
  5
544
  8
0
  6
CONTINUOUS
 62
     7
 10
-24.29229393717639
 20
-17.55462413158766
 30
0.0
 11
-24.3740576031764
 21
-17.56917370558766
 31
0.0
  0
LINE
  5
545
  8
0
  6
CONTINUOUS
 62
     7
 10
-24.3740576031764
 20
-17.56917370558766
 30
0.0
 11
-24.46567177717639
 21
-17.59506028358766
 31
0.0
  0
LINE
  5
546
  8
0
  6
CONTINUOUS
 62
     7
 10
-24.46567177717639
 20
-17.59506028358766
 30
0.0
 11
-24.5666830531764
 21
-17.63270142758766
 31
0.0
  0
LINE
  5
547
  8
0
  6
CONTINUOUS
 62
     7
 10
-24.5666830531764
 20
-17.63270142758766
 30
0.0
 11
-24.90179468617639
 21
-17.78961502658766
 31
0.0
  0
LINE
  5
548
  8
0
  6
CONTINUOUS
 62
     7
 10
-24.90179468617639
 20
-17.78961502658766
 30
0.0
 11
-25.15777121317639
 21
-17.89802510158766
 31
0.0
  0
LINE
  5
549
  8
0
  6
CONTINUOUS
 62
     7
 10
-25.15777121317639
 20
-17.89802510158766
 30
0.0
 11
-25.46792059017639
 21
-18.01435927558766
 31
0.0
  0
LINE
  5
54A
  8
0
  6
CONTINUOUS
 62
     7
 10
-25.46792059017639
 20
-18.01435927558766
 30
0.0
 11
-25.83196162717639
 21
-18.13381517358766
 31
0.0
  0
LINE
  5
54B
  8
0
  6
CONTINUOUS
 62
     7
 10
-25.83196162717639
 20
-18.13381517358766
 30
0.0
 11
-26.25180909417639
 21
-18.25240422358765
 31
0.0
  0
LINE
  5
54C
  8
0
  6
CONTINUOUS
 62
     7
 10
-26.25180909417639
 20
-18.25240422358765
 30
0.0
 11
-26.72849000417639
 21
-18.36573738958766
 31
0.0
  0
LINE
  5
54D
  8
0
  6
CONTINUOUS
 62
     7
 10
-26.72849000417639
 20
-18.36573738958766
 30
0.0
 11
-27.26007568217639
 21
-18.46881803858766
 31
0.0
  0
LINE
  5
54E
  8
0
  6
CONTINUOUS
 62
     7
 10
-27.26007568217639
 20
-18.46881803858766
 30
0.0
 11
-27.84901134817639
 21
-18.55761248458766
 31
0.0
  0
LINE
  5
54F
  8
0
  6
CONTINUOUS
 62
     7
 10
-27.84901134817639
 20
-18.55761248458766
 30
0.0
 11
-28.43493291057688
 21
-18.62185585510793
 31
0.0
  0
LINE
  5
550
  8
0
  6
CONTINUOUS
 62
     7
 10
-29.24136493340616
 20
-17.32805543922026
 30
0.0
 11
-28.92565046917639
 21
-16.83030485358766
 31
0.0
  0
LINE
  5
551
  8
0
  6
CONTINUOUS
 62
     7
 10
-28.92565046917639
 20
-16.83030485358766
 30
0.0
 11
-28.58656664117639
 21
-16.34066026058765
 31
0.0
  0
LINE
  5
552
  8
0
  6
CONTINUOUS
 62
     7
 10
-28.58656664117639
 20
-16.34066026058765
 30
0.0
 11
-28.25991305917639
 21
-15.90879629858766
 31
0.0
  0
LINE
  5
553
  8
0
  6
CONTINUOUS
 62
     7
 10
-28.25991305917639
 20
-15.90879629858766
 30
0.0
 11
-27.94823454417639
 21
-15.53074128758766
 31
0.0
  0
LINE
  5
554
  8
0
  6
CONTINUOUS
 62
     7
 10
-27.94823454417639
 20
-15.53074128758766
 30
0.0
 11
-27.65686639317639
 21
-15.20602626858766
 31
0.0
  0
LINE
  5
555
  8
0
  6
CONTINUOUS
 62
     7
 10
-27.65686639317639
 20
-15.20602626858766
 30
0.0
 11
-27.38929690717639
 21
-14.93179628758766
 31
0.0
  0
LINE
  5
556
  8
0
  6
CONTINUOUS
 62
     7
 10
-27.38929690717639
 20
-14.93179628758766
 30
0.0
 11
-27.1482635171764
 21
-14.70457560958766
 31
0.0
  0
LINE
  5
557
  8
0
  6
CONTINUOUS
 62
     7
 10
-27.1482635171764
 20
-14.70457560958766
 30
0.0
 11
-26.9382018151764
 21
-14.52250189158766
 31
0.0
  0
LINE
  5
558
  8
0
  6
CONTINUOUS
 62
     7
 10
-26.9382018151764
 20
-14.52250189158766
 30
0.0
 11
-26.6497428991764
 21
-14.29074097358766
 31
0.0
  0
LINE
  5
559
  8
0
  6
CONTINUOUS
 62
     7
 10
-26.6497428991764
 20
-14.29074097358766
 30
0.0
 11
-26.57146372317639
 21
-14.21662958958766
 31
0.0
  0
LINE
  5
55A
  8
0
  6
CONTINUOUS
 62
     7
 10
-26.57146372317639
 20
-14.21662958958766
 30
0.0
 11
-26.50787636417639
 21
-14.14577825858766
 31
0.0
  0
LINE
  5
55B
  8
0
  6
CONTINUOUS
 62
     7
 10
-26.50787636417639
 20
-14.14577825858766
 30
0.0
 11
-26.45880541317639
 21
-14.07877799458766
 31
0.0
  0
LINE
  5
55C
  8
0
  6
CONTINUOUS
 62
     7
 10
-26.45880541317639
 20
-14.07877799458766
 30
0.0
 11
-26.42405269817639
 21
-14.01619684258766
 31
0.0
  0
LINE
  5
55D
  8
0
  6
CONTINUOUS
 62
     7
 10
-26.42405269817639
 20
-14.01619684258766
 30
0.0
 11
-26.40341984117639
 21
-13.95860305358766
 31
0.0
  0
LINE
  5
55E
  8
0
  6
CONTINUOUS
 62
     7
 10
-26.40341984117639
 20
-13.95860305358766
 30
0.0
 11
-26.39666232017639
 21
-13.90656487858766
 31
0.0
  0
LINE
  5
55F
  8
0
  6
CONTINUOUS
 62
     7
 10
-26.39666232017639
 20
-13.90656487858766
 30
0.0
 11
-26.40353561317639
 21
-13.86062790858766
 31
0.0
  0
LINE
  5
560
  8
0
  6
CONTINUOUS
 62
     7
 10
-26.40353561317639
 20
-13.86062790858766
 30
0.0
 11
-26.4544330631764
 21
-13.75906486158766
 31
0.0
  0
LINE
  5
561
  8
0
  6
CONTINUOUS
 62
     7
 10
-26.4544330631764
 20
-13.75906486158766
 30
0.0
 11
-26.77118463717639
 21
-13.13189302058766
 31
0.0
  0
LINE
  5
562
  8
0
  6
CONTINUOUS
 62
     7
 10
-26.77118463717639
 20
-13.13189302058766
 30
0.0
 11
-27.0732513981764
 21
-12.49751787458766
 31
0.0
  0
LINE
  5
563
  8
0
  6
CONTINUOUS
 62
     7
 10
-27.0732513981764
 20
-12.49751787458766
 30
0.0
 11
-27.12241031117639
 21
-12.39510209058766
 31
0.0
  0
LINE
  5
564
  8
0
  6
CONTINUOUS
 62
     7
 10
-27.12241031117639
 20
-12.39510209058766
 30
0.0
 11
-27.1545290071764
 21
-12.36154850158766
 31
0.0
  0
LINE
  5
565
  8
0
  6
CONTINUOUS
 62
     7
 10
-27.1545290071764
 20
-12.36154850158766
 30
0.0
 11
-27.19981584117639
 21
-12.33503928858766
 31
0.0
  0
LINE
  5
566
  8
0
  6
CONTINUOUS
 62
     7
 10
-27.19981584117639
 20
-12.33503928858766
 30
0.0
 11
-27.2579891081764
 21
-12.31610181158766
 31
0.0
  0
LINE
  5
567
  8
0
  6
CONTINUOUS
 62
     7
 10
-27.2579891081764
 20
-12.31610181158766
 30
0.0
 11
-27.32874907817639
 21
-12.30527712958766
 31
0.0
  0
LINE
  5
568
  8
0
  6
CONTINUOUS
 62
     7
 10
-27.32874907817639
 20
-12.30527712958766
 30
0.0
 11
-27.41176790217639
 21
-12.30306994258766
 31
0.0
  0
LINE
  5
569
  8
0
  6
CONTINUOUS
 62
     7
 10
-27.41176790217639
 20
-12.30306994258766
 30
0.0
 11
-27.50671762817639
 21
-12.30998484758766
 31
0.0
  0
LINE
  5
56A
  8
0
  6
CONTINUOUS
 62
     7
 10
-27.50671762817639
 20
-12.30998484758766
 30
0.0
 11
-27.61323827117639
 21
-12.32652201258766
 31
0.0
  0
LINE
  5
56B
  8
0
  6
CONTINUOUS
 62
     7
 10
-27.61323827117639
 20
-12.32652201258766
 30
0.0
 11
-27.97307659917639
 21
-12.41276607558766
 31
0.0
  0
LINE
  5
56C
  8
0
  6
CONTINUOUS
 62
     7
 10
-27.97307659917639
 20
-12.41276607558766
 30
0.0
 11
-28.24563612617639
 21
-12.46742930858766
 31
0.0
  0
LINE
  5
56D
  8
0
  6
CONTINUOUS
 62
     7
 10
-28.24563612617639
 20
-12.46742930858766
 30
0.0
 11
-28.57285466317639
 21
-12.51894959958766
 31
0.0
  0
LINE
  5
56E
  8
0
  6
CONTINUOUS
 62
     7
 10
-28.57285466317639
 20
-12.51894959958766
 30
0.0
 11
-28.95348992717639
 21
-12.56267927958766
 31
0.0
  0
LINE
  5
56F
  8
0
  6
CONTINUOUS
 62
     7
 10
-28.95348992717639
 20
-12.56267927958766
 30
0.0
 11
-29.38861497217639
 21
-12.59432613258766
 31
0.0
  0
LINE
  5
570
  8
0
  6
CONTINUOUS
 62
     7
 10
-29.38861497217639
 20
-12.59432613258766
 30
0.0
 11
-29.87835195617639
 21
-12.60938421758766
 31
0.0
  0
LINE
  5
571
  8
0
  6
CONTINUOUS
 62
     7
 10
-29.87835195617639
 20
-12.60938421758766
 30
0.0
 11
-30.4198060641764
 21
-12.60334738758766
 31
0.0
  0
LINE
  5
572
  8
0
  6
CONTINUOUS
 62
     7
 10
-30.4198060641764
 20
-12.60334738758766
 30
0.0
 11
-31.01456040617639
 21
-12.57177222258766
 31
0.0
  0
LINE
  5
573
  8
0
  6
CONTINUOUS
 62
     7
 10
-31.01456040617639
 20
-12.57177222258766
 30
0.0
 11
-31.60142018209591
 21
-12.51675549433173
 31
0.0
  0
LINE
  5
574
  8
0
  6
CONTINUOUS
 62
     7
 10
-32.13090437153669
 20
-11.08710570067623
 30
0.0
 11
-31.72145610117639
 21
-10.66309683558766
 31
0.0
  0
LINE
  5
575
  8
0
  6
CONTINUOUS
 62
     7
 10
-31.72145610117639
 20
-10.66309683558766
 30
0.0
 11
-31.29074862317639
 21
-10.25173244858766
 31
0.0
  0
LINE
  5
576
  8
0
  6
CONTINUOUS
 62
     7
 10
-31.29074862317639
 20
-10.25173244858766
 30
0.0
 11
-30.88384815317639
 21
-9.89446366158766
 31
0.0
  0
LINE
  5
577
  8
0
  6
CONTINUOUS
 62
     7
 10
-30.88384815317639
 20
-9.89446366158766
 30
0.0
 11
-30.50244780517639
 21
-9.586887842587657
 31
0.0
  0
LINE
  5
578
  8
0
  6
CONTINUOUS
 62
     7
 10
-30.50244780517639
 20
-9.586887842587657
 30
0.0
 11
-30.15167924517639
 21
-9.327471733587657
 31
0.0
  0
LINE
  5
579
  8
0
  6
CONTINUOUS
 62
     7
 10
-30.15167924517639
 20
-9.327471733587657
 30
0.0
 11
-29.83438486117639
 21
-9.11271652758766
 31
0.0
  0
LINE
  5
57A
  8
0
  6
CONTINUOUS
 62
     7
 10
-29.83438486117639
 20
-9.11271652758766
 30
0.0
 11
-29.55254627017639
 21
-8.938666818587658
 31
0.0
  0
LINE
  5
57B
  8
0
  6
CONTINUOUS
 62
     7
 10
-29.55254627017639
 20
-8.938666818587658
 30
0.0
 11
-29.31013340117639
 21
-8.80260526058766
 31
0.0
  0
LINE
  5
57C
  8
0
  6
CONTINUOUS
 62
     7
 10
-29.31013340117639
 20
-8.80260526058766
 30
0.0
 11
-28.9809261401764
 21
-8.63365487558766
 31
0.0
  0
LINE
  5
57D
  8
0
  6
CONTINUOUS
 62
     7
 10
-28.9809261401764
 20
-8.63365487558766
 30
0.0
 11
-28.88933081517639
 21
-8.576817930587659
 31
0.0
  0
LINE
  5
57E
  8
0
  6
CONTINUOUS
 62
     7
 10
-28.88933081517639
 20
-8.576817930587659
 30
0.0
 11
-28.81278276017639
 21
-8.52021706158766
 31
0.0
  0
LINE
  5
57F
  8
0
  6
CONTINUOUS
 62
     7
 10
-28.81278276017639
 20
-8.52021706158766
 30
0.0
 11
-28.75122923917639
 21
-8.464466148587658
 31
0.0
  0
LINE
  5
580
  8
0
  6
CONTINUOUS
 62
     7
 10
-28.75122923917639
 20
-8.464466148587658
 30
0.0
 11
-28.7045904271764
 21
-8.410161767587658
 31
0.0
  0
LINE
  5
581
  8
0
  6
CONTINUOUS
 62
     7
 10
-28.7045904271764
 20
-8.410161767587658
 30
0.0
 11
-28.67278639617639
 21
-8.35790028858766
 31
0.0
  0
LINE
  5
582
  8
0
  6
CONTINUOUS
 62
     7
 10
-28.67278639617639
 20
-8.35790028858766
 30
0.0
 11
-28.65569200117639
 21
-8.308287660587661
 31
0.0
  0
LINE
  5
583
  8
0
  6
CONTINUOUS
 62
     7
 10
-28.65569200117639
 20
-8.308287660587661
 30
0.0
 11
-28.65317756517639
 21
-8.261907378587656
 31
0.0
  0
LINE
  5
584
  8
0
  6
CONTINUOUS
 62
     7
 10
-28.65317756517639
 20
-8.261907378587656
 30
0.0
 11
-28.6825887001764
 21
-8.152177770587658
 31
0.0
  0
LINE
  5
585
  8
0
  6
CONTINUOUS
 62
     7
 10
-28.6825887001764
 20
-8.152177770587658
 30
0.0
 11
-28.8666075731764
 21
-7.474082523587659
 31
0.0
  0
LINE
  5
586
  8
0
  6
CONTINUOUS
 62
     7
 10
-28.8666075731764
 20
-7.474082523587659
 30
0.0
 11
-29.03479225617639
 21
-6.791887464587659
 31
0.0
  0
LINE
  5
587
  8
0
  6
CONTINUOUS
 62
     7
 10
-29.03479225617639
 20
-6.791887464587659
 30
0.0
 11
-29.06232868817639
 21
-6.681672520587658
 31
0.0
  0
LINE
  5
588
  8
0
  6
CONTINUOUS
 62
     7
 10
-29.06232868817639
 20
-6.681672520587658
 30
0.0
 11
-29.08703560717639
 21
-6.642340425587661
 31
0.0
  0
LINE
  5
589
  8
0
  6
CONTINUOUS
 62
     7
 10
-29.08703560717639
 20
-6.642340425587661
 30
0.0
 11
-29.12605911417639
 21
-6.60725769858766
 31
0.0
  0
LINE
  5
58A
  8
0
  6
CONTINUOUS
 62
     7
 10
-29.12605911417639
 20
-6.60725769858766
 30
0.0
 11
-29.17922956817639
 21
-6.57699763758766
 31
0.0
  0
LINE
  5
58B
  8
0
  6
CONTINUOUS
 62
     7
 10
-29.17922956817639
 20
-6.57699763758766
 30
0.0
 11
-29.24636208417639
 21
-6.55215063858766
 31
0.0
  0
LINE
  5
58C
  8
0
  6
CONTINUOUS
 62
     7
 10
-29.24636208417639
 20
-6.55215063858766
 30
0.0
 11
-29.3272371691764
 21
-6.533277124587658
 31
0.0
  0
LINE
  5
58D
  8
0
  6
CONTINUOUS
 62
     7
 10
-29.3272371691764
 20
-6.533277124587658
 30
0.0
 11
-29.4216352271764
 21
-6.520937209587658
 31
0.0
  0
LINE
  5
58E
  8
0
  6
CONTINUOUS
 62
     7
 10
-29.4216352271764
 20
-6.520937209587658
 30
0.0
 11
-29.52930432017639
 21
-6.515693376587659
 31
0.0
  0
LINE
  5
58F
  8
0
  6
CONTINUOUS
 62
     7
 10
-29.52930432017639
 20
-6.515693376587659
 30
0.0
 11
-29.8991375621764
 21
-6.527737166587658
 31
0.0
  0
LINE
  5
590
  8
0
  6
CONTINUOUS
 62
     7
 10
-29.8991375621764
 20
-6.527737166587658
 30
0.0
 11
-30.17712137817639
 21
-6.526415573587658
 31
0.0
  0
LINE
  5
591
  8
0
  6
CONTINUOUS
 62
     7
 10
-30.17712137817639
 20
-6.526415573587658
 30
0.0
 11
-30.50801268917639
 21
-6.51101264458766
 31
0.0
  0
LINE
  5
592
  8
0
  6
CONTINUOUS
 62
     7
 10
-30.50801268917639
 20
-6.51101264458766
 30
0.0
 11
-30.88965910417639
 21
-6.477225760587658
 31
0.0
  0
LINE
  5
593
  8
0
  6
CONTINUOUS
 62
     7
 10
-30.88965910417639
 20
-6.477225760587658
 30
0.0
 11
-31.32224746517639
 21
-6.420634779587658
 31
0.0
  0
LINE
  5
594
  8
0
  6
CONTINUOUS
 62
     7
 10
-31.32224746517639
 20
-6.420634779587658
 30
0.0
 11
-31.80499074917639
 21
-6.33680132858766
 31
0.0
  0
LINE
  5
595
  8
0
  6
CONTINUOUS
 62
     7
 10
-31.80499074917639
 20
-6.33680132858766
 30
0.0
 11
-32.33414603917639
 21
-6.221894219587658
 31
0.0
  0
LINE
  5
596
  8
0
  6
CONTINUOUS
 62
     7
 10
-32.33414603917639
 20
-6.221894219587658
 30
0.0
 11
-32.9103696511764
 21
-6.071242196587659
 31
0.0
  0
LINE
  5
597
  8
0
  6
CONTINUOUS
 62
     7
 10
-32.9103696511764
 20
-6.071242196587659
 30
0.0
 11
-33.47414173366899
 21
-5.899217704521152
 31
0.0
  0
LINE
  5
598
  8
0
  6
CONTINUOUS
 62
     7
 10
-33.70500089115507
 20
-4.392248495318098
 30
0.0
 11
-33.21858170117639
 21
-4.059340518587659
 31
0.0
  0
LINE
  5
599
  8
0
  6
CONTINUOUS
 62
     7
 10
-33.21858170117639
 20
-4.059340518587659
 30
0.0
 11
-32.71388376117639
 21
-3.74309745558766
 31
0.0
  0
LINE
  5
59A
  8
0
  6
CONTINUOUS
 62
     7
 10
-32.71388376117639
 20
-3.74309745558766
 30
0.0
 11
-32.24339479917639
 21
-3.475050461587659
 31
0.0
  0
LINE
  5
59B
  8
0
  6
CONTINUOUS
 62
     7
 10
-32.24339479917639
 20
-3.475050461587659
 30
0.0
 11
-31.80788721217639
 21
-3.250546099587659
 31
0.0
  0
LINE
  5
59C
  8
0
  6
CONTINUOUS
 62
     7
 10
-31.80788721217639
 20
-3.250546099587659
 30
0.0
 11
-31.41207891517639
 21
-3.067049436587658
 31
0.0
  0
LINE
  5
59D
  8
0
  6
CONTINUOUS
 62
     7
 10
-31.41207891517639
 20
-3.067049436587658
 30
0.0
 11
-31.05804958117639
 21
-2.920561188587659
 31
0.0
  0
LINE
  5
59E
  8
0
  6
CONTINUOUS
 62
     7
 10
-31.05804958117639
 20
-2.920561188587659
 30
0.0
 11
-30.74694426117639
 21
-2.806807988587658
 31
0.0
  0
LINE
  5
59F
  8
0
  6
CONTINUOUS
 62
     7
 10
-30.74694426117639
 20
-2.806807988587658
 30
0.0
 11
-30.4821046871764
 21
-2.722328933587658
 31
0.0
  0
LINE
  5
5A0
  8
0
  6
CONTINUOUS
 62
     7
 10
-30.4821046871764
 20
-2.722328933587658
 30
0.0
 11
-30.1256268371764
 21
-2.623105943587658
 31
0.0
  0
LINE
  5
5A1
  8
0
  6
CONTINUOUS
 62
     7
 10
-30.1256268371764
 20
-2.623105943587658
 30
0.0
 11
-30.02446528417639
 21
-2.585870413587659
 31
0.0
  0
LINE
  5
5A2
  8
0
  6
CONTINUOUS
 62
     7
 10
-30.02446528417639
 20
-2.585870413587659
 30
0.0
 11
-29.93809051417639
 21
-2.545837197587659
 31
0.0
  0
LINE
  5
5A3
  8
0
  6
CONTINUOUS
 62
     7
 10
-29.93809051417639
 20
-2.545837197587659
 30
0.0
 11
-29.86657442117639
 21
-2.503618115587659
 31
0.0
  0
LINE
  5
5A4
  8
0
  6
CONTINUOUS
 62
     7
 10
-29.86657442117639
 20
-2.503618115587659
 30
0.0
 11
-29.80995892617639
 21
-2.459813657587658
 31
0.0
  0
LINE
  5
5A5
  8
0
  6
CONTINUOUS
 62
     7
 10
-29.80995892617639
 20
-2.459813657587658
 30
0.0
 11
-29.76828574417639
 21
-2.415024107587658
 31
0.0
  0
LINE
  5
5A6
  8
0
  6
CONTINUOUS
 62
     7
 10
-29.76828574417639
 20
-2.415024107587658
 30
0.0
 11
-29.74155436017639
 21
-2.369868083587658
 31
0.0
  0
LINE
  5
5A7
  8
0
  6
CONTINUOUS
 62
     7
 10
-29.74155436017639
 20
-2.369868083587658
 30
0.0
 11
-29.72975509217639
 21
-2.324943397587658
 31
0.0
  0
LINE
  5
5A8
  8
0
  6
CONTINUOUS
 62
     7
 10
-29.72975509217639
 20
-2.324943397587658
 30
0.0
 11
-29.73647573917639
 21
-2.211539573587658
 31
0.0
  0
LINE
  5
5A9
  8
0
  6
CONTINUOUS
 62
     7
 10
-29.73647573917639
 20
-2.211539573587658
 30
0.0
 11
-29.78022818217639
 21
-1.510282201587658
 31
0.0
  0
LINE
  5
5AA
  8
0
  6
CONTINUOUS
 62
     7
 10
-29.78022818217639
 20
-1.510282201587658
 30
0.0
 11
-29.8076452371764
 21
-0.808196503587658
 31
0.0
  0
LINE
  5
5AB
  8
0
  6
CONTINUOUS
 62
     7
 10
-29.8076452371764
 20
-0.808196503587658
 30
0.0
 11
-29.8124319561764
 21
-0.6946945205876582
 31
0.0
  0
LINE
  5
5AC
  8
0
  6
CONTINUOUS
 62
     7
 10
-29.8124319561764
 20
-0.6946945205876582
 30
0.0
 11
-29.82871563817639
 21
-0.6511940155876582
 31
0.0
  0
LINE
  5
5AD
  8
0
  6
CONTINUOUS
 62
     7
 10
-29.82871563817639
 20
-0.6511940155876582
 30
0.0
 11
-29.8598781851764
 21
-0.6089741095876594
 31
0.0
  0
LINE
  5
5AE
  8
0
  6
CONTINUOUS
 62
     7
 10
-29.8598781851764
 20
-0.6089741095876594
 30
0.0
 11
-29.9058689211764
 21
-0.5686303485876589
 31
0.0
  0
LINE
  5
5AF
  8
0
  6
CONTINUOUS
 62
     7
 10
-29.9058689211764
 20
-0.5686303485876589
 30
0.0
 11
-29.96662553117639
 21
-0.5307783635876588
 31
0.0
  0
LINE
  5
5B0
  8
0
  6
CONTINUOUS
 62
     7
 10
-29.96662553117639
 20
-0.5307783635876588
 30
0.0
 11
-30.0420459421764
 21
-0.4960111255876588
 31
0.0
  0
LINE
  5
5B1
  8
0
  6
CONTINUOUS
 62
     7
 10
-30.0420459421764
 20
-0.4960111255876588
 30
0.0
 11
-30.1320276691764
 21
-0.4649216055876585
 31
0.0
  0
LINE
  5
5B2
  8
0
  6
CONTINUOUS
 62
     7
 10
-30.1320276691764
 20
-0.4649216055876585
 30
0.0
 11
-30.23643712117639
 21
-0.4381115295876584
 31
0.0
  0
LINE
  5
5B3
  8
0
  6
CONTINUOUS
 62
     7
 10
-30.23643712117639
 20
-0.4381115295876584
 30
0.0
 11
-30.60112427717639
 21
-0.3754617795876585
 31
0.0
  0
LINE
  5
5B4
  8
0
  6
CONTINUOUS
 62
     7
 10
-30.60112427717639
 20
-0.3754617795876585
 30
0.0
 11
-30.87315170617639
 21
-0.3182096415876586
 31
0.0
  0
LINE
  5
5B5
  8
0
  6
CONTINUOUS
 62
     7
 10
-30.87315170617639
 20
-0.3182096415876586
 30
0.0
 11
-31.19416902517639
 21
-0.2365139555876586
 31
0.0
  0
LINE
  5
5B6
  8
0
  6
CONTINUOUS
 62
     7
 10
-31.19416902517639
 20
-0.2365139555876586
 30
0.0
 11
-31.56120190317639
 21
-0.1265939005876586
 31
0.0
  0
LINE
  5
5B7
  8
0
  6
CONTINUOUS
 62
     7
 10
-31.56120190317639
 20
-0.1265939005876586
 30
0.0
 11
-31.97354355417639
 21
0.0159180324123413
 31
0.0
  0
LINE
  5
5B8
  8
0
  6
CONTINUOUS
 62
     7
 10
-31.97354355417639
 20
0.0159180324123413
 30
0.0
 11
-32.4295293951764
 21
0.1952109564123412
 31
0.0
  0
LINE
  5
5B9
  8
0
  6
CONTINUOUS
 62
     7
 10
-32.4295293951764
 20
0.1952109564123412
 30
0.0
 11
-32.92472228917639
 21
0.4142841284123411
 31
0.0
  0
LINE
  5
5BA
  8
0
  6
CONTINUOUS
 62
     7
 10
-32.92472228917639
 20
0.4142841284123411
 30
0.0
 11
-33.45882456617639
 21
0.6778451634123411
 31
0.0
  0
LINE
  5
5BB
  8
0
  6
CONTINUOUS
 62
     7
 10
-33.45882456617639
 20
0.6778451634123411
 30
0.0
 11
-33.97642782625904
 21
0.9598348725993724
 31
0.0
  0
LINE
  5
5BC
  8
0
  6
CONTINUOUS
 62
     7
 10
-33.89921068476156
 20
2.482427909792548
 30
0.0
 11
-33.35573464717639
 21
2.710605783412341
 31
0.0
  0
LINE
  5
5BD
  8
0
  6
CONTINUOUS
 62
     7
 10
-33.35573464717639
 20
2.710605783412341
 30
0.0
 11
-32.7977086631764
 21
2.918780319412342
 31
0.0
  0
LINE
  5
5BE
  8
0
  6
CONTINUOUS
 62
     7
 10
-32.7977086631764
 20
2.918780319412342
 30
0.0
 11
-32.28289313617639
 21
3.086631694412342
 31
0.0
  0
LINE
  5
5BF
  8
0
  6
CONTINUOUS
 62
     7
 10
-32.28289313617639
 20
3.086631694412342
 30
0.0
 11
-31.8111080221764
 21
3.218873394412341
 31
0.0
  0
LINE
  5
5C0
  8
0
  6
CONTINUOUS
 62
     7
 10
-31.8111080221764
 20
3.218873394412341
 30
0.0
 11
-31.38646425717639
 21
3.318938203412342
 31
0.0
  0
LINE
  5
5C1
  8
0
  6
CONTINUOUS
 62
     7
 10
-31.38646425717639
 20
3.318938203412342
 30
0.0
 11
-31.01019413317639
 21
3.391162215412342
 31
0.0
  0
LINE
  5
5C2
  8
0
  6
CONTINUOUS
 62
     7
 10
-31.01019413317639
 20
3.391162215412342
 30
0.0
 11
-30.68255885817639
 21
3.439961967412343
 31
0.0
  0
LINE
  5
5C3
  8
0
  6
CONTINUOUS
 62
     7
 10
-30.68255885817639
 20
3.439961967412343
 30
0.0
 11
-30.40613497717639
 21
3.469399882412342
 31
0.0
  0
LINE
  5
5C4
  8
0
  6
CONTINUOUS
 62
     7
 10
-30.40613497717639
 20
3.469399882412342
 30
0.0
 11
-30.03698081417639
 21
3.494833363412341
 31
0.0
  0
LINE
  5
5C5
  8
0
  6
CONTINUOUS
 62
     7
 10
-30.03698081417639
 20
3.494833363412341
 30
0.0
 11
-29.93039466317639
 21
3.510942872412341
 31
0.0
  0
LINE
  5
5C6
  8
0
  6
CONTINUOUS
 62
     7
 10
-29.93039466317639
 20
3.510942872412341
 30
0.0
 11
-29.83772927117639
 21
3.532769602412342
 31
0.0
  0
LINE
  5
5C7
  8
0
  6
CONTINUOUS
 62
     7
 10
-29.83772927117639
 20
3.532769602412342
 30
0.0
 11
-29.7591785871764
 21
3.559728307412341
 31
0.0
  0
LINE
  5
5C8
  8
0
  6
CONTINUOUS
 62
     7
 10
-29.7591785871764
 20
3.559728307412341
 30
0.0
 11
-29.69490421817639
 21
3.591239406412342
 31
0.0
  0
LINE
  5
5C9
  8
0
  6
CONTINUOUS
 62
     7
 10
-29.69490421817639
 20
3.591239406412342
 30
0.0
 11
-29.64506797717639
 21
3.626723421412342
 31
0.0
  0
LINE
  5
5CA
  8
0
  6
CONTINUOUS
 62
     7
 10
-29.64506797717639
 20
3.626723421412342
 30
0.0
 11
-29.60979387617639
 21
3.665574094412343
 31
0.0
  0
LINE
  5
5CB
  8
0
  6
CONTINUOUS
 62
     7
 10
-29.60979387617639
 20
3.665574094412343
 30
0.0
 11
-29.58919294917639
 21
3.707204016412343
 31
0.0
  0
LINE
  5
5CC
  8
0
  6
CONTINUOUS
 62
     7
 10
-29.58919294917639
 20
3.707204016412343
 30
0.0
 11
-29.57294799517639
 21
3.819639331412342
 31
0.0
  0
LINE
  5
5CD
  8
0
  6
CONTINUOUS
 62
     7
 10
-29.57294799517639
 20
3.819639331412342
 30
0.0
 11
-29.4746427351764
 21
4.515349226412341
 31
0.0
  0
LINE
  5
5CE
  8
0
  6
CONTINUOUS
 62
     7
 10
-29.4746427351764
 20
4.515349226412341
 30
0.0
 11
-29.36016966817639
 21
5.208582280412341
 31
0.0
  0
LINE
  5
5CF
  8
0
  6
CONTINUOUS
 62
     7
 10
-29.36016966817639
 20
5.208582280412341
 30
0.0
 11
-29.34201066517639
 21
5.320724354412342
 31
0.0
  0
LINE
  5
5D0
  8
0
  6
CONTINUOUS
 62
     7
 10
-29.34201066517639
 20
5.320724354412342
 30
0.0
 11
-29.34920439117639
 21
5.366612193412341
 31
0.0
  0
LINE
  5
5D1
  8
0
  6
CONTINUOUS
 62
     7
 10
-29.34920439117639
 20
5.366612193412341
 30
0.0
 11
-29.3712303231764
 21
5.414240938412344
 31
0.0
  0
LINE
  5
5D2
  8
0
  6
CONTINUOUS
 62
     7
 10
-29.3712303231764
 20
5.414240938412344
 30
0.0
 11
-29.40815850117639
 21
5.46301669141234
 31
0.0
  0
LINE
  5
5D3
  8
0
  6
CONTINUOUS
 62
     7
 10
-29.40815850117639
 20
5.46301669141234
 30
0.0
 11
-29.46005185817639
 21
5.512324130412342
 31
0.0
  0
LINE
  5
5D4
  8
0
  6
CONTINUOUS
 62
     7
 10
-29.46005185817639
 20
5.512324130412342
 30
0.0
 11
-29.52692975817639
 21
5.56156163241234
 31
0.0
  0
LINE
  5
5D5
  8
0
  6
CONTINUOUS
 62
     7
 10
-29.52692975817639
 20
5.56156163241234
 30
0.0
 11
-29.60881125617639
 21
5.610127986412342
 31
0.0
  0
LINE
  5
5D6
  8
0
  6
CONTINUOUS
 62
     7
 10
-29.60881125617639
 20
5.610127986412342
 30
0.0
 11
-29.70568667017639
 21
5.657406737412341
 31
0.0
  0
LINE
  5
5D7
  8
0
  6
CONTINUOUS
 62
     7
 10
-29.70568667017639
 20
5.657406737412341
 30
0.0
 11
-30.05029737517639
 21
5.792184915412341
 31
0.0
  0
LINE
  5
5D8
  8
0
  6
CONTINUOUS
 62
     7
 10
-30.05029737517639
 20
5.792184915412341
 30
0.0
 11
-30.3052316451764
 21
5.903023936412342
 31
0.0
  0
LINE
  5
5D9
  8
0
  6
CONTINUOUS
 62
     7
 10
-30.3052316451764
 20
5.903023936412342
 30
0.0
 11
-30.60323248117639
 21
6.047667557412341
 31
0.0
  0
LINE
  5
5DA
  8
0
  6
CONTINUOUS
 62
     7
 10
-30.60323248117639
 20
6.047667557412341
 30
0.0
 11
-30.94062535817639
 21
6.229220713412342
 31
0.0
  0
LINE
  5
5DB
  8
0
  6
CONTINUOUS
 62
     7
 10
-30.94062535817639
 20
6.229220713412342
 30
0.0
 11
-31.31583890817639
 21
6.45181916341234
 31
0.0
  0
LINE
  5
5DC
  8
0
  6
CONTINUOUS
 62
     7
 10
-31.31583890817639
 20
6.45181916341234
 30
0.0
 11
-31.72639938017639
 21
6.719231265412342
 31
0.0
  0
LINE
  5
5DD
  8
0
  6
CONTINUOUS
 62
     7
 10
-31.72639938017639
 20
6.719231265412342
 30
0.0
 11
-32.16735649117639
 21
7.033501569412342
 31
0.0
  0
LINE
  5
5DE
  8
0
  6
CONTINUOUS
 62
     7
 10
-32.16735649117639
 20
7.033501569412342
 30
0.0
 11
-32.63747125417639
 21
7.399181542412341
 31
0.0
  0
LINE
  5
5DF
  8
0
  6
CONTINUOUS
 62
     7
 10
-32.63747125417639
 20
7.399181542412341
 30
0.0
 11
-33.08771494879893
 21
7.779591637039528
 31
0.0
  0
LINE
  5
5E0
  8
0
  6
CONTINUOUS
 62
     7
 10
-32.705582680793
 20
9.255473395685314
 30
0.0
 11
-32.12729979117639
 21
9.369579576412344
 31
0.0
  0
LINE
  5
5E1
  8
0
  6
CONTINUOUS
 62
     7
 10
-32.12729979117639
 20
9.369579576412344
 30
0.0
 11
-31.53879147217639
 21
9.461162953412344
 31
0.0
  0
LINE
  5
5E2
  8
0
  6
CONTINUOUS
 62
     7
 10
-31.53879147217639
 20
9.461162953412344
 30
0.0
 11
-31.0007260641764
 21
9.521946755412342
 31
0.0
  0
LINE
  5
5E3
  8
0
  6
CONTINUOUS
 62
     7
 10
-31.0007260641764
 20
9.521946755412342
 30
0.0
 11
-30.5119782921764
 21
9.556511804412342
 31
0.0
  0
LINE
  5
5E4
  8
0
  6
CONTINUOUS
 62
     7
 10
-30.5119782921764
 20
9.556511804412342
 30
0.0
 11
-30.07588412017639
 21
9.569048243412343
 31
0.0
  0
LINE
  5
5E5
  8
0
  6
CONTINUOUS
 62
     7
 10
-30.07588412017639
 20
9.569048243412343
 30
0.0
 11
-29.69277768017639
 21
9.564051198412342
 31
0.0
  0
LINE
  5
5E6
  8
0
  6
CONTINUOUS
 62
     7
 10
-29.69277768017639
 20
9.564051198412342
 30
0.0
 11
-29.36202583117639
 21
9.545899405412342
 31
0.0
  0
LINE
  5
5E7
  8
0
  6
CONTINUOUS
 62
     7
 10
-29.36202583117639
 20
9.545899405412342
 30
0.0
 11
-29.08533456217639
 21
9.519090977412343
 31
0.0
  0
LINE
  5
5E8
  8
0
  6
CONTINUOUS
 62
     7
 10
-29.08533456217639
 20
9.519090977412343
 30
0.0
 11
-28.71861727617639
 21
9.469693619412341
 31
0.0
  0
LINE
  5
5E9
  8
0
  6
CONTINUOUS
 62
     7
 10
-28.71861727617639
 20
9.469693619412341
 30
0.0
 11
-28.61097012217639
 21
9.464017804412343
 31
0.0
  0
LINE
  5
5EA
  8
0
  6
CONTINUOUS
 62
     7
 10
-28.61097012217639
 20
9.464017804412343
 30
0.0
 11
-28.5158079071764
 21
9.466744317412342
 31
0.0
  0
LINE
  5
5EB
  8
0
  6
CONTINUOUS
 62
     7
 10
-28.5158079071764
 20
9.466744317412342
 30
0.0
 11
-28.43343839517639
 21
9.477339103412342
 31
0.0
  0
LINE
  5
5EC
  8
0
  6
CONTINUOUS
 62
     7
 10
-28.43343839517639
 20
9.477339103412342
 30
0.0
 11
-28.36413659617639
 21
9.495266871412342
 31
0.0
  0
LINE
  5
5ED
  8
0
  6
CONTINUOUS
 62
     7
 10
-28.36413659617639
 20
9.495266871412342
 30
0.0
 11
-28.30817762317639
 21
9.51999253641234
 31
0.0
  0
LINE
  5
5EE
  8
0
  6
CONTINUOUS
 62
     7
 10
-28.30817762317639
 20
9.51999253641234
 30
0.0
 11
-28.26580507117639
 21
9.550947229412342
 31
0.0
  0
LINE
  5
5EF
  8
0
  6
CONTINUOUS
 62
     7
 10
-28.26580507117639
 20
9.550947229412342
 30
0.0
 11
-28.23724574617639
 21
9.587578046412343
 31
0.0
  0
LINE
  5
5F0
  8
0
  6
CONTINUOUS
 62
     7
 10
-28.23724574617639
 20
9.587578046412343
 30
0.0
 11
-28.19870026217639
 21
9.694441782412342
 31
0.0
  0
LINE
  5
5F1
  8
0
  6
CONTINUOUS
 62
     7
 10
-28.19870026217639
 20
9.694441782412342
 30
0.0
 11
-27.9623619211764
 21
10.35612171341234
 31
0.0
  0
LINE
  5
5F2
  8
0
  6
CONTINUOUS
 62
     7
 10
-27.9623619211764
 20
10.35612171341234
 30
0.0
 11
-27.71068543817639
 21
11.01212098841234
 31
0.0
  0
LINE
  5
5F3
  8
0
  6
CONTINUOUS
 62
     7
 10
-27.71068543817639
 20
11.01212098841234
 30
0.0
 11
-27.67032406417639
 21
11.11831213441234
 31
0.0
  0
LINE
  5
5F4
  8
0
  6
CONTINUOUS
 62
     7
 10
-27.67032406417639
 20
11.11831213441234
 30
0.0
 11
-27.66813335717639
 21
11.16470879341234
 31
0.0
  0
LINE
  5
5F5
  8
0
  6
CONTINUOUS
 62
     7
 10
-27.66813335717639
 20
11.16470879341234
 30
0.0
 11
-27.6801208061764
 21
11.21579627841234
 31
0.0
  0
LINE
  5
5F6
  8
0
  6
CONTINUOUS
 62
     7
 10
-27.6801208061764
 20
11.21579627841234
 30
0.0
 11
-27.70647459217639
 21
11.27100726541234
 31
0.0
  0
LINE
  5
5F7
  8
0
  6
CONTINUOUS
 62
     7
 10
-27.70647459217639
 20
11.27100726541234
 30
0.0
 11
-27.74738021817639
 21
11.32975135841234
 31
0.0
  0
LINE
  5
5F8
  8
0
  6
CONTINUOUS
 62
     7
 10
-27.74738021817639
 20
11.32975135841234
 30
0.0
 11
-27.8029776611764
 21
11.39144341441234
 31
0.0
  0
LINE
  5
5F9
  8
0
  6
CONTINUOUS
 62
     7
 10
-27.8029776611764
 20
11.39144341441234
 30
0.0
 11
-27.87340669217639
 21
11.45549818741234
 31
0.0
  0
LINE
  5
5FA
  8
0
  6
CONTINUOUS
 62
     7
 10
-27.87340669217639
 20
11.45549818741234
 30
0.0
 11
-27.95878195017639
 21
11.52131003741234
 31
0.0
  0
LINE
  5
5FB
  8
0
  6
CONTINUOUS
 62
     7
 10
-27.95878195017639
 20
11.52131003741234
 30
0.0
 11
-28.26920777917639
 21
11.72269893341234
 31
0.0
  0
LINE
  5
5FC
  8
0
  6
CONTINUOUS
 62
     7
 10
-28.26920777917639
 20
11.72269893341234
 30
0.0
 11
-28.49661179717639
 21
11.88258696641234
 31
0.0
  0
LINE
  5
5FD
  8
0
  6
CONTINUOUS
 62
     7
 10
-28.49661179717639
 20
11.88258696641234
 30
0.0
 11
-28.75939600617639
 21
12.08425684641234
 31
0.0
  0
LINE
  5
5FE
  8
0
  6
CONTINUOUS
 62
     7
 10
-28.75939600617639
 20
12.08425684641234
 30
0.0
 11
-29.05333606717639
 21
12.33001031441234
 31
0.0
  0
LINE
  5
5FF
  8
0
  6
CONTINUOUS
 62
     7
 10
-29.05333606717639
 20
12.33001031441234
 30
0.0
 11
-29.37606019917639
 21
12.62358215041234
 31
0.0
  0
LINE
  5
600
  8
0
  6
CONTINUOUS
 62
     7
 10
-29.37606019917639
 20
12.62358215041234
 30
0.0
 11
-29.72438683517639
 21
12.96816545741234
 31
0.0
  0
LINE
  5
601
  8
0
  6
CONTINUOUS
 62
     7
 10
-29.72438683517639
 20
12.96816545741234
 30
0.0
 11
-30.0930553531764
 21
13.36476664841235
 31
0.0
  0
LINE
  5
602
  8
0
  6
CONTINUOUS
 62
     7
 10
-30.0930553531764
 20
13.36476664841235
 30
0.0
 11
-30.47993602217639
 21
13.81759450941234
 31
0.0
  0
LINE
  5
603
  8
0
  6
CONTINUOUS
 62
     7
 10
-30.47993602217639
 20
13.81759450941234
 30
0.0
 11
-30.84438723077283
 21
14.28085099996487
 31
0.0
  0
LINE
  5
604
  8
0
  6
CONTINUOUS
 62
     7
 10
-30.17298439610032
 20
15.64959875651402
 30
0.0
 11
-29.58356956117639
 21
15.64496159341234
 31
0.0
  0
LINE
  5
605
  8
0
  6
CONTINUOUS
 62
     7
 10
-29.58356956117639
 20
15.64496159341234
 30
0.0
 11
-28.98867246117639
 21
15.61620440541234
 31
0.0
  0
LINE
  5
606
  8
0
  6
CONTINUOUS
 62
     7
 10
-28.98867246117639
 20
15.61620440541234
 30
0.0
 11
-28.4493855761764
 21
15.56743225741234
 31
0.0
  0
LINE
  5
607
  8
0
  6
CONTINUOUS
 62
     7
 10
-28.4493855761764
 20
15.56743225741234
 30
0.0
 11
-27.96368464717639
 21
15.50290553841234
 31
0.0
  0
LINE
  5
608
  8
0
  6
CONTINUOUS
 62
     7
 10
-27.96368464717639
 20
15.50290553841234
 30
0.0
 11
-27.53399377917639
 21
15.42740015241234
 31
0.0
  0
LINE
  5
609
  8
0
  6
CONTINUOUS
 62
     7
 10
-27.53399377917639
 20
15.42740015241234
 30
0.0
 11
-27.15973545117639
 21
15.34538671141235
 31
0.0
  0
LINE
  5
60A
  8
0
  6
CONTINUOUS
 62
     7
 10
-27.15973545117639
 20
15.34538671141235
 30
0.0
 11
-26.83940802617639
 21
15.26102662141234
 31
0.0
  0
LINE
  5
60B
  8
0
  6
CONTINUOUS
 62
     7
 10
-26.83940802617639
 20
15.26102662141234
 30
0.0
 11
-26.57377710317639
 21
15.17906941841234
 31
0.0
  0
LINE
  5
60C
  8
0
  6
CONTINUOUS
 62
     7
 10
-26.57377710317639
 20
15.17906941841234
 30
0.0
 11
-26.2245101801764
 21
15.05686362641234
 31
0.0
  0
LINE
  5
60D
  8
0
  6
CONTINUOUS
 62
     7
 10
-26.2245101801764
 20
15.05686362641234
 30
0.0
 11
-26.1202090841764
 21
15.02963475241234
 31
0.0
  0
LINE
  5
60E
  8
0
  6
CONTINUOUS
 62
     7
 10
-26.1202090841764
 20
15.02963475241234
 30
0.0
 11
-26.02644602117639
 21
15.01314939641234
 31
0.0
  0
LINE
  5
60F
  8
0
  6
CONTINUOUS
 62
     7
 10
-26.02644602117639
 20
15.01314939641234
 30
0.0
 11
-25.94362990117639
 21
15.00694642741234
 31
0.0
  0
LINE
  5
610
  8
0
  6
CONTINUOUS
 62
     7
 10
-25.94362990117639
 20
15.00694642741234
 30
0.0
 11
-25.87213791017639
 21
15.01055688641234
 31
0.0
  0
LINE
  5
611
  8
0
  6
CONTINUOUS
 62
     7
 10
-25.87213791017639
 20
15.01055688641234
 30
0.0
 11
-25.81234713117639
 21
15.02351191741235
 31
0.0
  0
LINE
  5
612
  8
0
  6
CONTINUOUS
 62
     7
 10
-25.81234713117639
 20
15.02351191741235
 30
0.0
 11
-25.76461075117639
 21
15.04530352441234
 31
0.0
  0
LINE
  5
613
  8
0
  6
CONTINUOUS
 62
     7
 10
-25.76461075117639
 20
15.04530352441234
 30
0.0
 11
-25.72926238717639
 21
15.07543555641234
 31
0.0
  0
LINE
  5
614
  8
0
  6
CONTINUOUS
 62
     7
 10
-25.72926238717639
 20
15.07543555641234
 30
0.0
 11
-25.6699944361764
 21
15.17235258241234
 31
0.0
  0
LINE
  5
615
  8
0
  6
CONTINUOUS
 62
     7
 10
-25.6699944361764
 20
15.17235258241234
 30
0.0
 11
-25.30529883417639
 21
15.77291334341234
 31
0.0
  0
LINE
  5
616
  8
0
  6
CONTINUOUS
 62
     7
 10
-25.30529883417639
 20
15.77291334341234
 30
0.0
 11
-24.92672243717639
 21
16.36482220741234
 31
0.0
  0
LINE
  5
617
  8
0
  6
CONTINUOUS
 62
     7
 10
-24.92672243717639
 20
16.36482220741234
 30
0.0
 11
-24.86581112117639
 21
16.46071489841234
 31
0.0
  0
LINE
  5
618
  8
0
  6
CONTINUOUS
 62
     7
 10
-24.86581112117639
 20
16.46071489841234
 30
0.0
 11
-24.85432569417639
 21
16.50572085141235
 31
0.0
  0
LINE
  5
619
  8
0
  6
CONTINUOUS
 62
     7
 10
-24.85432569417639
 20
16.50572085141235
 30
0.0
 11
-24.85578396817639
 21
16.55817566141234
 31
0.0
  0
LINE
  5
61A
  8
0
  6
CONTINUOUS
 62
     7
 10
-24.85578396817639
 20
16.55817566141234
 30
0.0
 11
-24.87048433417639
 21
16.61756134141235
 31
0.0
  0
LINE
  5
61B
  8
0
  6
CONTINUOUS
 62
     7
 10
-24.87048433417639
 20
16.61756134141235
 30
0.0
 11
-24.89872755217639
 21
16.68333724441234
 31
0.0
  0
LINE
  5
61C
  8
0
  6
CONTINUOUS
 62
     7
 10
-24.89872755217639
 20
16.68333724441234
 30
0.0
 11
-24.94076834117639
 21
16.75495819141235
 31
0.0
  0
LINE
  5
61D
  8
0
  6
CONTINUOUS
 62
     7
 10
-24.94076834117639
 20
16.75495819141235
 30
0.0
 11
-24.99686162617639
 21
16.83187900341234
 31
0.0
  0
LINE
  5
61E
  8
0
  6
CONTINUOUS
 62
     7
 10
-24.99686162617639
 20
16.83187900341234
 30
0.0
 11
-25.06724142317639
 21
16.91352957541234
 31
0.0
  0
LINE
  5
61F
  8
0
  6
CONTINUOUS
 62
     7
 10
-25.06724142317639
 20
16.91352957541234
 30
0.0
 11
-25.33077351517639
 21
17.17328434841234
 31
0.0
  0
LINE
  5
620
  8
0
  6
CONTINUOUS
 62
     7
 10
-25.33077351517639
 20
17.17328434841234
 30
0.0
 11
-25.52133731717639
 21
17.37567543441234
 31
0.0
  0
LINE
  5
621
  8
0
  6
CONTINUOUS
 62
     7
 10
-25.52133731717639
 20
17.37567543441234
 30
0.0
 11
-25.73814644617639
 21
17.62611519641234
 31
0.0
  0
LINE
  5
622
  8
0
  6
CONTINUOUS
 62
     7
 10
-25.73814644617639
 20
17.62611519641234
 30
0.0
 11
-25.97659978917639
 21
17.92600783341234
 31
0.0
  0
LINE
  5
623
  8
0
  6
CONTINUOUS
 62
     7
 10
-25.97659978917639
 20
17.92600783341234
 30
0.0
 11
-26.2336221781764
 21
18.27853408841234
 31
0.0
  0
LINE
  5
624
  8
0
  6
CONTINUOUS
 62
     7
 10
-26.2336221781764
 20
18.27853408841234
 30
0.0
 11
-26.50545431917639
 21
18.68618141141234
 31
0.0
  0
LINE
  5
625
  8
0
  6
CONTINUOUS
 62
     7
 10
-26.50545431917639
 20
18.68618141141234
 30
0.0
 11
-26.78674103617639
 21
19.14887656941234
 31
0.0
  0
LINE
  5
626
  8
0
  6
CONTINUOUS
 62
     7
 10
-26.78674103617639
 20
19.14887656941234
 30
0.0
 11
-27.07454858017639
 21
19.67031355441234
 31
0.0
  0
LINE
  5
627
  8
0
  6
CONTINUOUS
 62
     7
 10
-27.07454858017639
 20
19.67031355441234
 30
0.0
 11
-27.33828664724287
 21
20.19745067961869
 31
0.0
  0
LINE
  5
628
  8
0
  6
CONTINUOUS
 62
     7
 10
-26.40510058862611
 20
21.40302765401245
 30
0.0
 11
-25.82868457917639
 21
21.27983708041234
 31
0.0
  0
LINE
  5
629
  8
0
  6
CONTINUOUS
 62
     7
 10
-25.82868457917639
 20
21.27983708041234
 30
0.0
 11
-25.2517537691764
 21
21.13191661741234
 31
0.0
  0
LINE
  5
62A
  8
0
  6
CONTINUOUS
 62
     7
 10
-25.2517537691764
 20
21.13191661741234
 30
0.0
 11
-24.73332386917639
 21
20.97558517441234
 31
0.0
  0
LINE
  5
62B
  8
0
  6
CONTINUOUS
 62
     7
 10
-24.73332386917639
 20
20.97558517441234
 30
0.0
 11
-24.27055444817639
 21
20.81460853441234
 31
0.0
  0
LINE
  5
62C
  8
0
  6
CONTINUOUS
 62
     7
 10
-24.27055444817639
 20
20.81460853441234
 30
0.0
 11
-23.86485846017639
 21
20.65415255941235
 31
0.0
  0
LINE
  5
62D
  8
0
  6
CONTINUOUS
 62
     7
 10
-23.86485846017639
 20
20.65415255941235
 30
0.0
 11
-23.51477042117639
 21
20.49848021341234
 31
0.0
  0
LINE
  5
62E
  8
0
  6
CONTINUOUS
 62
     7
 10
-23.51477042117639
 20
20.49848021341234
 30
0.0
 11
-23.21798168917639
 21
20.35136562241235
 31
0.0
  0
LINE
  5
62F
  8
0
  6
CONTINUOUS
 62
     7
 10
-23.21798168917639
 20
20.35136562241235
 30
0.0
 11
-22.97428616117639
 21
20.21761497241234
 31
0.0
  0
LINE
  5
630
  8
0
  6
CONTINUOUS
 62
     7
 10
-22.97428616117639
 20
20.21761497241234
 30
0.0
 11
-22.65676847317639
 21
20.02760386841234
 31
0.0
  0
LINE
  5
631
  8
0
  6
CONTINUOUS
 62
     7
 10
-22.65676847317639
 20
20.02760386841234
 30
0.0
 11
-22.56008360917639
 21
19.97993670441235
 31
0.0
  0
LINE
  5
632
  8
0
  6
CONTINUOUS
 62
     7
 10
-22.56008360917639
 20
19.97993670441235
 30
0.0
 11
-22.47155840517639
 21
19.94491443841235
 31
0.0
  0
LINE
  5
633
  8
0
  6
CONTINUOUS
 62
     7
 10
-22.47155840517639
 20
19.94491443841235
 30
0.0
 11
-22.3916861281764
 21
19.92216771241234
 31
0.0
  0
LINE
  5
634
  8
0
  6
CONTINUOUS
 62
     7
 10
-22.3916861281764
 20
19.92216771241234
 30
0.0
 11
-22.32093079317639
 21
19.91131295441235
 31
0.0
  0
LINE
  5
635
  8
0
  6
CONTINUOUS
 62
     7
 10
-22.32093079317639
 20
19.91131295441235
 30
0.0
 11
-22.25975610617639
 21
19.91196710741234
 31
0.0
  0
LINE
  5
636
  8
0
  6
CONTINUOUS
 62
     7
 10
-22.25975610617639
 20
19.91196710741234
 30
0.0
 11
-22.20861032317639
 21
19.92370333941234
 31
0.0
  0
LINE
  5
637
  8
0
  6
CONTINUOUS
 62
     7
 10
-22.20861032317639
 20
19.92370333941234
 30
0.0
 11
-22.16791996717639
 21
19.94610295541234
 31
0.0
  0
LINE
  5
638
  8
0
  6
CONTINUOUS
 62
     7
 10
-22.16791996717639
 20
19.94610295541234
 30
0.0
 11
-22.09035602317639
 21
20.02910550541234
 31
0.0
  0
LINE
  5
639
  8
0
  6
CONTINUOUS
 62
     7
 10
-22.09035602317639
 20
20.02910550541234
 30
0.0
 11
-21.61223373117639
 21
20.54396006941234
 31
0.0
  0
LINE
  5
63A
  8
0
  6
CONTINUOUS
 62
     7
 10
-21.61223373117639
 20
20.54396006941234
 30
0.0
 11
-21.12225644817639
 21
21.04754560941235
 31
0.0
  0
LINE
  5
63B
  8
0
  6
CONTINUOUS
 62
     7
 10
-21.12225644817639
 20
21.04754560941235
 30
0.0
 11
-21.04328892317639
 21
21.12921410341234
 31
0.0
  0
LINE
  5
63C
  8
0
  6
CONTINUOUS
 62
     7
 10
-21.04328892317639
 20
21.12921410341234
 30
0.0
 11
-21.02297907417639
 21
21.17098678341235
 31
0.0
  0
LINE
  5
63D
  8
0
  6
CONTINUOUS
 62
     7
 10
-21.02297907417639
 20
21.17098678341235
 30
0.0
 11
-21.01384833017639
 21
21.22266136841234
 31
0.0
  0
LINE
  5
63E
  8
0
  6
CONTINUOUS
 62
     7
 10
-21.01384833017639
 20
21.22266136841234
 30
0.0
 11
-21.01629355017639
 21
21.28379063241234
 31
0.0
  0
LINE
  5
63F
  8
0
  6
CONTINUOUS
 62
     7
 10
-21.01629355017639
 20
21.28379063241234
 30
0.0
 11
-21.03071797917639
 21
21.35390541041234
 31
0.0
  0
LINE
  5
640
  8
0
  6
CONTINUOUS
 62
     7
 10
-21.03071797917639
 20
21.35390541041234
 30
0.0
 11
-21.05748108717639
 21
21.43252294141234
 31
0.0
  0
LINE
  5
641
  8
0
  6
CONTINUOUS
 62
     7
 10
-21.05748108717639
 20
21.43252294141234
 30
0.0
 11
-21.09694203517639
 21
21.51916067041234
 31
0.0
  0
LINE
  5
642
  8
0
  6
CONTINUOUS
 62
     7
 10
-21.09694203517639
 20
21.51916067041234
 30
0.0
 11
-21.1494450491764
 21
21.61330720241235
 31
0.0
  0
LINE
  5
643
  8
0
  6
CONTINUOUS
 62
     7
 10
-21.1494450491764
 20
21.61330720241235
 30
0.0
 11
-21.35529436017639
 21
21.92079341141235
 31
0.0
  0
LINE
  5
644
  8
0
  6
CONTINUOUS
 62
     7
 10
-21.35529436017639
 20
21.92079341141235
 30
0.0
 11
-21.50121621117639
 21
22.15740181841235
 31
0.0
  0
LINE
  5
645
  8
0
  6
CONTINUOUS
 62
     7
 10
-21.50121621117639
 20
22.15740181841235
 30
0.0
 11
-21.66317413217639
 21
22.44635843041235
 31
0.0
  0
LINE
  5
646
  8
0
  6
CONTINUOUS
 62
     7
 10
-21.66317413217639
 20
22.44635843041235
 30
0.0
 11
-21.83637841717639
 21
22.78811243041234
 31
0.0
  0
LINE
  5
647
  8
0
  6
CONTINUOUS
 62
     7
 10
-21.83637841717639
 20
22.78811243041234
 30
0.0
 11
-22.01717648017639
 21
23.18516074441234
 31
0.0
  0
LINE
  5
648
  8
0
  6
CONTINUOUS
 62
     7
 10
-22.01717648017639
 20
23.18516074441234
 30
0.0
 11
-22.20138549117639
 21
23.63918289041234
 31
0.0
  0
LINE
  5
649
  8
0
  6
CONTINUOUS
 62
     7
 10
-22.20138549117639
 20
23.63918289041234
 30
0.0
 11
-22.38377428617639
 21
24.14902928541234
 31
0.0
  0
LINE
  5
64A
  8
0
  6
CONTINUOUS
 62
     7
 10
-22.38377428617639
 20
24.14902928541234
 30
0.0
 11
-22.5607260201764
 21
24.71772761441234
 31
0.0
  0
LINE
  5
64B
  8
0
  6
CONTINUOUS
 62
     7
 10
-22.5607260201764
 20
24.71772761441234
 30
0.0
 11
-22.71295338497954
 21
25.28716422718429
 31
0.0
  0
LINE
  5
64C
  8
0
  6
CONTINUOUS
 62
     7
 10
-21.55618882842644
 20
26.28021401524454
 30
0.0
 11
-21.01637018217639
 21
26.04351353841235
 31
0.0
  0
LINE
  5
64D
  8
0
  6
CONTINUOUS
 62
     7
 10
-21.01637018217639
 20
26.04351353841235
 30
0.0
 11
-20.48102531317639
 21
25.78248578841235
 31
0.0
  0
LINE
  5
64E
  8
0
  6
CONTINUOUS
 62
     7
 10
-20.48102531317639
 20
25.78248578841235
 30
0.0
 11
-20.0046770931764
 21
25.52499526441234
 31
0.0
  0
LINE
  5
64F
  8
0
  6
CONTINUOUS
 62
     7
 10
-20.0046770931764
 20
25.52499526441234
 30
0.0
 11
-19.58378489717639
 21
25.27415895241235
 31
0.0
  0
LINE
  5
650
  8
0
  6
CONTINUOUS
 62
     7
 10
-19.58378489717639
 20
25.27415895241235
 30
0.0
 11
-19.21869305417639
 21
25.03532162541235
 31
0.0
  0
LINE
  5
651
  8
0
  6
CONTINUOUS
 62
     7
 10
-19.21869305417639
 20
25.03532162541235
 30
0.0
 11
-18.90710796017639
 21
24.81236370541234
 31
0.0
  0
LINE
  5
652
  8
0
  6
CONTINUOUS
 62
     7
 10
-18.90710796017639
 20
24.81236370541234
 30
0.0
 11
-18.64600841917639
 21
24.60851733241234
 31
0.0
  0
LINE
  5
653
  8
0
  6
CONTINUOUS
 62
     7
 10
-18.64600841917639
 20
24.60851733241234
 30
0.0
 11
-18.43422517517639
 21
24.42844902441234
 31
0.0
  0
LINE
  5
654
  8
0
  6
CONTINUOUS
 62
     7
 10
-18.43422517517639
 20
24.42844902441234
 30
0.0
 11
-18.1614561461764
 21
24.17841158041234
 31
0.0
  0
LINE
  5
655
  8
0
  6
CONTINUOUS
 62
     7
 10
-18.1614561461764
 20
24.17841158041234
 30
0.0
 11
-18.0763457011764
 21
24.11225766741235
 31
0.0
  0
LINE
  5
656
  8
0
  6
CONTINUOUS
 62
     7
 10
-18.0763457011764
 20
24.11225766741235
 30
0.0
 11
-17.99668251417639
 21
24.06013235441235
 31
0.0
  0
LINE
  5
657
  8
0
  6
CONTINUOUS
 62
     7
 10
-17.99668251417639
 20
24.06013235441235
 30
0.0
 11
-17.92302412417639
 21
24.02177299141234
 31
0.0
  0
LINE
  5
658
  8
0
  6
CONTINUOUS
 62
     7
 10
-17.92302412417639
 20
24.02177299141234
 30
0.0
 11
-17.8559022171764
 21
23.99689756441234
 31
0.0
  0
LINE
  5
659
  8
0
  6
CONTINUOUS
 62
     7
 10
-17.8559022171764
 20
23.99689756441234
 30
0.0
 11
-17.7958481701764
 21
23.98522385341234
 31
0.0
  0
LINE
  5
65A
  8
0
  6
CONTINUOUS
 62
     7
 10
-17.7958481701764
 20
23.98522385341234
 30
0.0
 11
-17.74338676817639
 21
23.98642431841234
 31
0.0
  0
LINE
  5
65B
  8
0
  6
CONTINUOUS
 62
     7
 10
-17.74338676817639
 20
23.98642431841234
 30
0.0
 11
-17.69902034217639
 21
24.00017450941235
 31
0.0
  0
LINE
  5
65C
  8
0
  6
CONTINUOUS
 62
     7
 10
-17.69902034217639
 20
24.00017450941235
 30
0.0
 11
-17.6063357921764
 21
24.06586451041234
 31
0.0
  0
LINE
  5
65D
  8
0
  6
CONTINUOUS
 62
     7
 10
-17.6063357921764
 20
24.06586451041234
 30
0.0
 11
-17.03436123917639
 21
24.47393464841234
 31
0.0
  0
LINE
  5
65E
  8
0
  6
CONTINUOUS
 62
     7
 10
-17.03436123917639
 20
24.47393464841234
 30
0.0
 11
-16.45304283517639
 21
24.86858007541234
 31
0.0
  0
LINE
  5
65F
  8
0
  6
CONTINUOUS
 62
     7
 10
-16.45304283517639
 20
24.86858007541234
 30
0.0
 11
-16.35925206517639
 21
24.93268078641234
 31
0.0
  0
LINE
  5
660
  8
0
  6
CONTINUOUS
 62
     7
 10
-16.35925206517639
 20
24.93268078641234
 30
0.0
 11
-16.33094910717639
 21
24.96950998141234
 31
0.0
  0
LINE
  5
661
  8
0
  6
CONTINUOUS
 62
     7
 10
-16.33094910717639
 20
24.96950998141234
 30
0.0
 11
-16.31160333817639
 21
25.01828882441234
 31
0.0
  0
LINE
  5
662
  8
0
  6
CONTINUOUS
 62
     7
 10
-16.31160333817639
 20
25.01828882441234
 30
0.0
 11
-16.30169319317639
 21
25.07865897841235
 31
0.0
  0
LINE
  5
663
  8
0
  6
CONTINUOUS
 62
     7
 10
-16.30169319317639
 20
25.07865897841235
 30
0.0
 11
-16.30170843717639
 21
25.15024202141234
 31
0.0
  0
LINE
  5
664
  8
0
  6
CONTINUOUS
 62
     7
 10
-16.30170843717639
 20
25.15024202141234
 30
0.0
 11
-16.31209804717639
 21
25.23263769541234
 31
0.0
  0
LINE
  5
665
  8
0
  6
CONTINUOUS
 62
     7
 10
-16.31209804717639
 20
25.23263769541234
 30
0.0
 11
-16.33331120617639
 21
25.32544543341234
 31
0.0
  0
LINE
  5
666
  8
0
  6
CONTINUOUS
 62
     7
 10
-16.33331120617639
 20
25.32544543341234
 30
0.0
 11
-16.3657879301764
 21
25.42823356241234
 31
0.0
  0
LINE
  5
667
  8
0
  6
CONTINUOUS
 62
     7
 10
-16.3657879301764
 20
25.42823356241234
 30
0.0
 11
-16.50552689717639
 21
25.77086265041234
 31
0.0
  0
LINE
  5
668
  8
0
  6
CONTINUOUS
 62
     7
 10
-16.50552689717639
 20
25.77086265041234
 30
0.0
 11
-16.6008329001764
 21
26.03200153741234
 31
0.0
  0
LINE
  5
669
  8
0
  6
CONTINUOUS
 62
     7
 10
-16.6008329001764
 20
26.03200153741234
 30
0.0
 11
-16.70130898817639
 21
26.34764503741235
 31
0.0
  0
LINE
  5
66A
  8
0
  6
CONTINUOUS
 62
     7
 10
-16.70130898817639
 20
26.34764503741235
 30
0.0
 11
-16.8021731801764
 21
26.71726908641234
 31
0.0
  0
LINE
  5
66B
  8
0
  6
CONTINUOUS
 62
     7
 10
-16.8021731801764
 20
26.71726908641234
 30
0.0
 11
-16.89934502817639
 21
27.14258420541234
 31
0.0
  0
LINE
  5
66C
  8
0
  6
CONTINUOUS
 62
     7
 10
-16.89934502817639
 20
27.14258420541234
 30
0.0
 11
-16.98838924917639
 21
27.62439348541235
 31
0.0
  0
LINE
  5
66D
  8
0
  6
CONTINUOUS
 62
     7
 10
-16.98838924917639
 20
27.62439348541235
 30
0.0
 11
-17.06441334317639
 21
28.16051785841234
 31
0.0
  0
LINE
  5
66E
  8
0
  6
CONTINUOUS
 62
     7
 10
-17.06441334317639
 20
28.16051785841234
 30
0.0
 11
-17.12326465917639
 21
28.75319499941234
 31
0.0
  0
LINE
  5
66F
  8
0
  6
CONTINUOUS
 62
     7
 10
-17.12326465917639
 20
28.75319499941234
 30
0.0
 11
-17.15774916843797
 21
29.34161848949786
 31
0.0
  0
LINE
  5
670
  8
0
  6
CONTINUOUS
 62
     7
 10
-15.82476417430264
 20
30.08148548424144
 30
0.0
 11
-15.3436431221764
 21
29.74096551441234
 31
0.0
  0
LINE
  5
671
  8
0
  6
CONTINUOUS
 62
     7
 10
-15.3436431221764
 20
29.74096551441234
 30
0.0
 11
-14.8718012551764
 21
29.37751683041234
 31
0.0
  0
LINE
  5
672
  8
0
  6
CONTINUOUS
 62
     7
 10
-14.8718012551764
 20
29.37751683041234
 30
0.0
 11
-14.45703632317639
 21
29.02940896641234
 31
0.0
  0
LINE
  5
673
  8
0
  6
CONTINUOUS
 62
     7
 10
-14.45703632317639
 20
29.02940896641234
 30
0.0
 11
-14.09525284017639
 21
28.69898228841235
 31
0.0
  0
LINE
  5
674
  8
0
  6
CONTINUOUS
 62
     7
 10
-14.09525284017639
 20
28.69898228841235
 30
0.0
 11
-13.7857120901764
 21
28.39154160541235
 31
0.0
  0
LINE
  5
675
  8
0
  6
CONTINUOUS
 62
     7
 10
-13.7857120901764
 20
28.39154160541235
 30
0.0
 11
-13.5253862851764
 21
28.11042597141234
 31
0.0
  0
LINE
  5
676
  8
0
  6
CONTINUOUS
 62
     7
 10
-13.5253862851764
 20
28.11042597141234
 30
0.0
 11
-13.31066548117639
 21
27.85819339141234
 31
0.0
  0
LINE
  5
677
  8
0
  6
CONTINUOUS
 62
     7
 10
-13.31066548117639
 20
27.85819339141234
 30
0.0
 11
-13.1394648551764
 21
27.63917944441234
 31
0.0
  0
LINE
  5
678
  8
0
  6
CONTINUOUS
 62
     7
 10
-13.1394648551764
 20
27.63917944441234
 30
0.0
 11
-12.9226115391764
 21
27.33935231541234
 31
0.0
  0
LINE
  5
679
  8
0
  6
CONTINUOUS
 62
     7
 10
-12.9226115391764
 20
27.33935231541234
 30
0.0
 11
-12.8525600031764
 21
27.25741993541234
 31
0.0
  0
LINE
  5
67A
  8
0
  6
CONTINUOUS
 62
     7
 10
-12.8525600031764
 20
27.25741993541234
 30
0.0
 11
-12.78502032817639
 21
27.19032552941234
 31
0.0
  0
LINE
  5
67B
  8
0
  6
CONTINUOUS
 62
     7
 10
-12.78502032817639
 20
27.19032552941234
 30
0.0
 11
-12.7205914591764
 21
27.13792417641234
 31
0.0
  0
LINE
  5
67C
  8
0
  6
CONTINUOUS
 62
     7
 10
-12.7205914591764
 20
27.13792417641234
 30
0.0
 11
-12.65985081417639
 21
27.10004633841234
 31
0.0
  0
LINE
  5
67D
  8
0
  6
CONTINUOUS
 62
     7
 10
-12.65985081417639
 20
27.10004633841234
 30
0.0
 11
-12.60337601717639
 21
27.07652288941235
 31
0.0
  0
LINE
  5
67E
  8
0
  6
CONTINUOUS
 62
     7
 10
-12.60337601717639
 20
27.07652288941235
 30
0.0
 11
-12.55174695817639
 21
27.06713835341234
 31
0.0
  0
LINE
  5
67F
  8
0
  6
CONTINUOUS
 62
     7
 10
-12.55174695817639
 20
27.06713835341234
 30
0.0
 11
-12.5055207641764
 21
27.07167612141234
 31
0.0
  0
LINE
  5
680
  8
0
  6
CONTINUOUS
 62
     7
 10
-12.5055207641764
 20
27.07167612141234
 30
0.0
 11
-12.40151012817639
 21
27.11736414041234
 31
0.0
  0
LINE
  5
681
  8
0
  6
CONTINUOUS
 62
     7
 10
-12.40151012817639
 20
27.11736414041234
 30
0.0
 11
-11.75910005517639
 21
27.40194345841234
 31
0.0
  0
LINE
  5
682
  8
0
  6
CONTINUOUS
 62
     7
 10
-11.75910005517639
 20
27.40194345841234
 30
0.0
 11
-11.11023971017639
 21
27.67149198641235
 31
0.0
  0
LINE
  5
683
  8
0
  6
CONTINUOUS
 62
     7
 10
-11.11023971017639
 20
27.67149198641235
 30
0.0
 11
-11.00546553517639
 21
27.71540057741235
 31
0.0
  0
LINE
  5
684
  8
0
  6
CONTINUOUS
 62
     7
 10
-11.00546553517639
 20
27.71540057741235
 30
0.0
 11
-10.97032821817639
 21
27.74577857341234
 31
0.0
  0
LINE
  5
685
  8
0
  6
CONTINUOUS
 62
     7
 10
-10.97032821817639
 20
27.74577857341234
 30
0.0
 11
-10.94155928817639
 21
27.78966450441234
 31
0.0
  0
LINE
  5
686
  8
0
  6
CONTINUOUS
 62
     7
 10
-10.94155928817639
 20
27.78966450441234
 30
0.0
 11
-10.91969970117639
 21
27.84680406341234
 31
0.0
  0
LINE
  5
687
  8
0
  6
CONTINUOUS
 62
     7
 10
-10.91969970117639
 20
27.84680406341234
 30
0.0
 11
-10.90530493617639
 21
27.91692491841234
 31
0.0
  0
LINE
  5
688
  8
0
  6
CONTINUOUS
 62
     7
 10
-10.90530493617639
 20
27.91692491841234
 30
0.0
 11
-10.89889576117639
 21
27.99972538241234
 31
0.0
  0
LINE
  5
689
  8
0
  6
CONTINUOUS
 62
     7
 10
-10.89889576117639
 20
27.99972538241234
 30
0.0
 11
-10.90099263517639
 21
28.09490345941234
 31
0.0
  0
LINE
  5
68A
  8
0
  6
CONTINUOUS
 62
     7
 10
-10.90099263517639
 20
28.09490345941234
 30
0.0
 11
-10.91211344217639
 21
28.20212501741234
 31
0.0
  0
LINE
  5
68B
  8
0
  6
CONTINUOUS
 62
     7
 10
-10.91211344217639
 20
28.20212501741234
 30
0.0
 11
-10.98002134217639
 21
28.56586972341234
 31
0.0
  0
LINE
  5
68C
  8
0
  6
CONTINUOUS
 62
     7
 10
-10.98002134217639
 20
28.56586972341234
 30
0.0
 11
-11.02080944517639
 21
28.84084799941234
 31
0.0
  0
LINE
  5
68D
  8
0
  6
CONTINUOUS
 62
     7
 10
-11.02080944517639
 20
28.84084799941234
 30
0.0
 11
-11.05569029217639
 21
29.17025600741234
 31
0.0
  0
LINE
  5
68E
  8
0
  6
CONTINUOUS
 62
     7
 10
-11.05569029217639
 20
29.17025600741234
 30
0.0
 11
-11.08008491517639
 21
29.55261765441234
 31
0.0
  0
LINE
  5
68F
  8
0
  6
CONTINUOUS
 62
     7
 10
-11.08008491517639
 20
29.55261765441234
 30
0.0
 11
-11.08965248217639
 21
29.98878701641234
 31
0.0
  0
LINE
  5
690
  8
0
  6
CONTINUOUS
 62
     7
 10
-11.08965248217639
 20
29.98878701641234
 30
0.0
 11
-11.07988643417639
 21
30.47865820941234
 31
0.0
  0
LINE
  5
691
  8
0
  6
CONTINUOUS
 62
     7
 10
-11.07988643417639
 20
30.47865820941234
 30
0.0
 11
-11.04643316717639
 21
31.01911156941234
 31
0.0
  0
LINE
  5
692
  8
0
  6
CONTINUOUS
 62
     7
 10
-11.04643316717639
 20
31.01911156941234
 30
0.0
 11
-10.9847747921764
 21
31.61150329741234
 31
0.0
  0
LINE
  5
693
  8
0
  6
CONTINUOUS
 62
     7
 10
-10.9847747921764
 20
31.61150329741234
 30
0.0
 11
-10.90010466796133
 21
32.19482325666456
 31
0.0
  0
LINE
  5
694
  8
0
  6
CONTINUOUS
 62
     7
 10
-9.445471786603042
 20
32.65121728918854
 30
0.0
 11
-9.042745430176394
 21
32.22081885241234
 31
0.0
  0
LINE
  5
695
  8
0
  6
CONTINUOUS
 62
     7
 10
-9.042745430176394
 20
32.22081885241234
 30
0.0
 11
-8.653724009176395
 21
31.76982892341235
 31
0.0
  0
LINE
  5
696
  8
0
  6
CONTINUOUS
 62
     7
 10
-8.653724009176395
 20
31.76982892341235
 30
0.0
 11
-8.317522945176394
 21
31.34535531441234
 31
0.0
  0
LINE
  5
697
  8
0
  6
CONTINUOUS
 62
     7
 10
-8.317522945176394
 20
31.34535531441234
 30
0.0
 11
-8.029659575176396
 21
30.94886598141234
 31
0.0
  0
LINE
  5
698
  8
0
  6
CONTINUOUS
 62
     7
 10
-8.029659575176396
 20
30.94886598141234
 30
0.0
 11
-7.788342523176394
 21
30.58540854241235
 31
0.0
  0
LINE
  5
699
  8
0
  6
CONTINUOUS
 62
     7
 10
-7.788342523176394
 20
30.58540854241235
 30
0.0
 11
-7.589933623176394
 21
30.25764410541234
 31
0.0
  0
LINE
  5
69A
  8
0
  6
CONTINUOUS
 62
     7
 10
-7.589933623176394
 20
30.25764410541234
 30
0.0
 11
-7.430382194176395
 21
29.96735178941234
 31
0.0
  0
LINE
  5
69B
  8
0
  6
CONTINUOUS
 62
     7
 10
-7.430382194176395
 20
29.96735178941234
 30
0.0
 11
-7.306773336176395
 21
29.71835866241235
 31
0.0
  0
LINE
  5
69C
  8
0
  6
CONTINUOUS
 62
     7
 10
-7.306773336176395
 20
29.71835866241235
 30
0.0
 11
-7.154713818176395
 21
29.38101677041234
 31
0.0
  0
LINE
  5
69D
  8
0
  6
CONTINUOUS
 62
     7
 10
-7.154713818176395
 20
29.38101677041234
 30
0.0
 11
-7.102589123176394
 21
29.28666032441234
 31
0.0
  0
LINE
  5
69E
  8
0
  6
CONTINUOUS
 62
     7
 10
-7.102589123176394
 20
29.28666032441234
 30
0.0
 11
-7.049937892176395
 21
29.20734362941235
 31
0.0
  0
LINE
  5
69F
  8
0
  6
CONTINUOUS
 62
     7
 10
-7.049937892176395
 20
29.20734362941235
 30
0.0
 11
-6.997376271176393
 21
29.14304546741235
 31
0.0
  0
LINE
  5
6A0
  8
0
  6
CONTINUOUS
 62
     7
 10
-6.997376271176393
 20
29.14304546741235
 30
0.0
 11
-6.945503720176394
 21
29.09371608941234
 31
0.0
  0
LINE
  5
6A1
  8
0
  6
CONTINUOUS
 62
     7
 10
-6.945503720176394
 20
29.09371608941234
 30
0.0
 11
-6.894920111176393
 21
29.05930574641234
 31
0.0
  0
LINE
  5
6A2
  8
0
  6
CONTINUOUS
 62
     7
 10
-6.894920111176393
 20
29.05930574641234
 30
0.0
 11
-6.846237058176393
 21
29.03972050241235
 31
0.0
  0
LINE
  5
6A3
  8
0
  6
CONTINUOUS
 62
     7
 10
-6.846237058176393
 20
29.03972050241235
 30
0.0
 11
-6.800043721176393
 21
29.03486013841235
 31
0.0
  0
LINE
  5
6A4
  8
0
  6
CONTINUOUS
 62
     7
 10
-6.800043721176393
 20
29.03486013841235
 30
0.0
 11
-6.688965225176394
 21
29.05867579841234
 31
0.0
  0
LINE
  5
6A5
  8
0
  6
CONTINUOUS
 62
     7
 10
-6.688965225176394
 20
29.05867579841234
 30
0.0
 11
-6.002419961176395
 21
29.20811355441234
 31
0.0
  0
LINE
  5
6A6
  8
0
  6
CONTINUOUS
 62
     7
 10
-6.002419961176395
 20
29.20811355441234
 30
0.0
 11
-5.312582096176393
 21
29.34152976341234
 31
0.0
  0
LINE
  5
6A7
  8
0
  6
CONTINUOUS
 62
     7
 10
-5.312582096176393
 20
29.34152976341234
 30
0.0
 11
-5.201113848176394
 21
29.36344857541234
 31
0.0
  0
LINE
  5
6A8
  8
0
  6
CONTINUOUS
 62
     7
 10
-5.201113848176394
 20
29.36344857541234
 30
0.0
 11
-5.160580773176395
 21
29.38613164741234
 31
0.0
  0
LINE
  5
6A9
  8
0
  6
CONTINUOUS
 62
     7
 10
-5.160580773176395
 20
29.38613164741234
 30
0.0
 11
-5.123566590176394
 21
29.42332814041234
 31
0.0
  0
LINE
  5
6AA
  8
0
  6
CONTINUOUS
 62
     7
 10
-5.123566590176394
 20
29.42332814041234
 30
0.0
 11
-5.090652322176395
 21
29.47489766541234
 31
0.0
  0
LINE
  5
6AB
  8
0
  6
CONTINUOUS
 62
     7
 10
-5.090652322176395
 20
29.47489766541234
 30
0.0
 11
-5.062437120176393
 21
29.54068561941234
 31
0.0
  0
LINE
  5
6AC
  8
0
  6
CONTINUOUS
 62
     7
 10
-5.062437120176393
 20
29.54068561941234
 30
0.0
 11
-5.039491501176393
 21
29.62050093741234
 31
0.0
  0
LINE
  5
6AD
  8
0
  6
CONTINUOUS
 62
     7
 10
-5.039491501176393
 20
29.62050093741234
 30
0.0
 11
-5.022386188176394
 21
29.71415286341234
 31
0.0
  0
LINE
  5
6AE
  8
0
  6
CONTINUOUS
 62
     7
 10
-5.022386188176394
 20
29.71415286341234
 30
0.0
 11
-5.011695818176393
 21
29.82141809341235
 31
0.0
  0
LINE
  5
6AF
  8
0
  6
CONTINUOUS
 62
     7
 10
-5.011695818176393
 20
29.82141809341235
 30
0.0
 11
-5.004992372176393
 21
30.19138667741234
 31
0.0
  0
LINE
  5
6B0
  8
0
  6
CONTINUOUS
 62
     7
 10
-5.004992372176393
 20
30.19138667741234
 30
0.0
 11
-4.989592842176393
 21
30.46894675141234
 31
0.0
  0
LINE
  5
6B1
  8
0
  6
CONTINUOUS
 62
     7
 10
-4.989592842176393
 20
30.46894675141234
 30
0.0
 11
-4.957450250176394
 21
30.79863327141234
 31
0.0
  0
LINE
  5
6B2
  8
0
  6
CONTINUOUS
 62
     7
 10
-4.957450250176394
 20
30.79863327141234
 30
0.0
 11
-4.904376719176394
 21
31.17807847341234
 31
0.0
  0
LINE
  5
6B3
  8
0
  6
CONTINUOUS
 62
     7
 10
-4.904376719176394
 20
31.17807847341234
 30
0.0
 11
-4.825948193176393
 21
31.60724548341235
 31
0.0
  0
LINE
  5
6B4
  8
0
  6
CONTINUOUS
 62
     7
 10
-4.825948193176393
 20
31.60724548341235
 30
0.0
 11
-4.717771722176393
 21
32.08512294441234
 31
0.0
  0
LINE
  5
6B5
  8
0
  6
CONTINUOUS
 62
     7
 10
-4.717771722176393
 20
32.08512294441234
 30
0.0
 11
-4.576210788176395
 21
32.60777924341235
 31
0.0
  0
LINE
  5
6B6
  8
0
  6
CONTINUOUS
 62
     7
 10
-4.576210788176395
 20
32.60777924341235
 30
0.0
 11
-4.396566943176395
 21
33.17563286941235
 31
0.0
  0
LINE
  5
6B7
  8
0
  6
CONTINUOUS
 62
     7
 10
-4.396566943176395
 20
33.17563286941235
 30
0.0
 11
-4.196208555266415
 21
33.72996834752719
 31
0.0
  0
LINE
  5
6B8
  8
0
  6
CONTINUOUS
 62
     7
 10
-2.679480712261763
 20
33.88420445959066
 30
0.0
 11
-2.371636795176394
 21
33.38154810041235
 31
0.0
  0
LINE
  5
6B9
  8
0
  6
CONTINUOUS
 62
     7
 10
-2.371636795176394
 20
33.38154810041235
 30
0.0
 11
-2.081362195176394
 21
32.86148050041234
 31
0.0
  0
LINE
  5
6BA
  8
0
  6
CONTINUOUS
 62
     7
 10
-2.081362195176394
 20
32.86148050041234
 30
0.0
 11
-1.837489095176394
 21
32.37801910041235
 31
0.0
  0
LINE
  5
6BB
  8
0
  6
CONTINUOUS
 62
     7
 10
-1.837489095176394
 20
32.37801910041235
 30
0.0
 11
-1.635330995176394
 21
31.93169950041234
 31
0.0
  0
LINE
  5
6BC
  8
0
  6
CONTINUOUS
 62
     7
 10
-1.635330995176394
 20
31.93169950041234
 30
0.0
 11
-1.472117195176393
 21
31.52710520041234
 31
0.0
  0
LINE
  5
6BD
  8
0
  6
CONTINUOUS
 62
     7
 10
-1.472117195176393
 20
31.52710520041234
 30
0.0
 11
-1.343748295176394
 21
31.16611080041234
 31
0.0
  0
LINE
  5
6BE
  8
0
  6
CONTINUOUS
 62
     7
 10
-1.343748295176394
 20
31.16611080041234
 30
0.0
 11
-1.245898295176393
 21
30.84964330041234
 31
0.0
  0
LINE
  5
6BF
  8
0
  6
CONTINUOUS
 62
     7
 10
-1.245898295176393
 20
30.84964330041234
 30
0.0
 11
-1.174941595176393
 21
30.58086480041234
 31
0.0
  0
LINE
  5
6C0
  8
0
  6
CONTINUOUS
 62
     7
 10
-1.174941595176393
 20
30.58086480041234
 30
0.0
 11
-1.093901195176393
 21
30.21981890041235
 31
0.0
  0
LINE
  5
6C1
  8
0
  6
CONTINUOUS
 62
     7
 10
-1.093901195176393
 20
30.21981890041235
 30
0.0
 11
-1.061837295176393
 21
30.11690130041234
 31
0.0
  0
LINE
  5
6C2
  8
0
  6
CONTINUOUS
 62
     7
 10
-1.061837295176393
 20
30.11690130041234
 30
0.0
 11
-1.026230195176394
 21
30.02860970041234
 31
0.0
  0
LINE
  5
6C3
  8
0
  6
CONTINUOUS
 62
     7
 10
-1.026230195176394
 20
30.02860970041234
 30
0.0
 11
-0.9876875951763939
 21
29.95504710041234
 31
0.0
  0
LINE
  5
6C4
  8
0
  6
CONTINUOUS
 62
     7
 10
-0.9876875951763939
 20
29.95504710041234
 30
0.0
 11
-0.9468068951763944
 21
29.89628560041235
 31
0.0
  0
LINE
  5
6C5
  8
0
  6
CONTINUOUS
 62
     7
 10
-0.9468068951763944
 20
29.89628560041235
 30
0.0
 11
-0.9041854951763929
 21
29.85239730041234
 31
0.0
  0
LINE
  5
6C6
  8
0
  6
CONTINUOUS
 62
     7
 10
-0.9041854951763929
 20
29.85239730041234
 30
0.0
 11
-0.8604413951763928
 21
29.82341310041235
 31
0.0
  0
LINE
  5
6C7
  8
0
  6
CONTINUOUS
 62
     7
 10
-0.8604413951763928
 20
29.82341310041235
 30
0.0
 11
-0.8161719951763928
 21
29.80935360041234
 31
0.0
  0
LINE
  5
6C8
  8
0
  6
CONTINUOUS
 62
     7
 10
-0.8161719951763928
 20
29.80935360041234
 30
0.0
 11
-0.7025732951763929
 21
29.81032180041235
 31
0.0
  0
LINE
  5
6C9
  8
0
  6
CONTINUOUS
 62
     7
 10
-0.7025732951763929
 20
29.81032180041235
 30
0.0
 11
0.0000000048236071
 21
29.81850000041235
 31
0.0
  0
LINE
  5
6CA
  8
0
  6
CONTINUOUS
 62
     7
 10
0.0000000048236071
 20
29.81850000041235
 30
0.0
 11
0.702573304823607
 21
29.81032180041235
 31
0.0
  0
LINE
  5
6CB
  8
0
  6
CONTINUOUS
 62
     7
 10
0.702573304823607
 20
29.81032180041235
 30
0.0
 11
0.8161720048236071
 21
29.80935360041234
 31
0.0
  0
LINE
  5
6CC
  8
0
  6
CONTINUOUS
 62
     7
 10
0.8161720048236071
 20
29.80935360041234
 30
0.0
 11
0.8604414048236071
 21
29.82341310041235
 31
0.0
  0
LINE
  5
6CD
  8
0
  6
CONTINUOUS
 62
     7
 10
0.8604414048236071
 20
29.82341310041235
 30
0.0
 11
0.9041855048236057
 21
29.85239730041234
 31
0.0
  0
LINE
  5
6CE
  8
0
  6
CONTINUOUS
 62
     7
 10
0.9041855048236057
 20
29.85239730041234
 30
0.0
 11
0.9468069048236063
 21
29.89628560041235
 31
0.0
  0
LINE
  5
6CF
  8
0
  6
CONTINUOUS
 62
     7
 10
0.9468069048236063
 20
29.89628560041235
 30
0.0
 11
0.9876876048236065
 21
29.95504710041234
 31
0.0
  0
LINE
  5
6D0
  8
0
  6
CONTINUOUS
 62
     7
 10
0.9876876048236065
 20
29.95504710041234
 30
0.0
 11
1.026230204823606
 21
30.02860970041234
 31
0.0
  0
LINE
  5
6D1
  8
0
  6
CONTINUOUS
 62
     7
 10
1.026230204823606
 20
30.02860970041234
 30
0.0
 11
1.061837304823607
 21
30.11690130041234
 31
0.0
  0
LINE
  5
6D2
  8
0
  6
CONTINUOUS
 62
     7
 10
1.061837304823607
 20
30.11690130041234
 30
0.0
 11
1.093901204823607
 21
30.21981890041235
 31
0.0
  0
LINE
  5
6D3
  8
0
  6
CONTINUOUS
 62
     7
 10
1.093901204823607
 20
30.21981890041235
 30
0.0
 11
1.174941604823607
 21
30.58086480041234
 31
0.0
  0
LINE
  5
6D4
  8
0
  6
CONTINUOUS
 62
     7
 10
1.174941604823607
 20
30.58086480041234
 30
0.0
 11
1.245898304823607
 21
30.84964330041234
 31
0.0
  0
LINE
  5
6D5
  8
0
  6
CONTINUOUS
 62
     7
 10
1.245898304823607
 20
30.84964330041234
 30
0.0
 11
1.343748304823607
 21
31.16611080041234
 31
0.0
  0
LINE
  5
6D6
  8
0
  6
CONTINUOUS
 62
     7
 10
1.343748304823607
 20
31.16611080041234
 30
0.0
 11
1.472117204823606
 21
31.52710520041234
 31
0.0
  0
LINE
  5
6D7
  8
0
  6
CONTINUOUS
 62
     7
 10
1.472117204823606
 20
31.52710520041234
 30
0.0
 11
1.635331004823607
 21
31.93169950041234
 31
0.0
  0
LINE
  5
6D8
  8
0
  6
CONTINUOUS
 62
     7
 10
1.635331004823607
 20
31.93169950041234
 30
0.0
 11
1.837489104823606
 21
32.37801910041235
 31
0.0
  0
LINE
  5
6D9
  8
0
  6
CONTINUOUS
 62
     7
 10
1.837489104823606
 20
32.37801910041235
 30
0.0
 11
2.081362204823606
 21
32.86148050041234
 31
0.0
  0
LINE
  5
6DA
  8
0
  6
CONTINUOUS
 62
     7
 10
2.081362204823606
 20
32.86148050041234
 30
0.0
 11
2.371636804823606
 21
33.38154810041235
 31
0.0
  0
LINE
  5
6DB
  8
0
  6
CONTINUOUS
 62
     7
 10
2.371636804823606
 20
33.38154810041235
 30
0.0
 11
2.679480721267196
 21
33.88420446039307
 31
0.0
  0
LINE
  5
6DC
  8
0
  6
CONTINUOUS
 62
     7
 10
4.196208577783568
 20
33.72996834692277
 30
0.0
 11
4.396566952823606
 21
33.17563286941235
 31
0.0
  0
LINE
  5
6DD
  8
0
  6
CONTINUOUS
 62
     7
 10
4.396566952823606
 20
33.17563286941235
 30
0.0
 11
4.576210797823609
 21
32.60777924341235
 31
0.0
  0
LINE
  5
6DE
  8
0
  6
CONTINUOUS
 62
     7
 10
4.576210797823609
 20
32.60777924341235
 30
0.0
 11
4.717771731823607
 21
32.08512294441234
 31
0.0
  0
LINE
  5
6DF
  8
0
  6
CONTINUOUS
 62
     7
 10
4.717771731823607
 20
32.08512294441234
 30
0.0
 11
4.825948202823607
 21
31.60724548341235
 31
0.0
  0
LINE
  5
6E0
  8
0
  6
CONTINUOUS
 62
     7
 10
4.825948202823607
 20
31.60724548341235
 30
0.0
 11
4.904376728823607
 21
31.17807847341234
 31
0.0
  0
LINE
  5
6E1
  8
0
  6
CONTINUOUS
 62
     7
 10
4.904376728823607
 20
31.17807847341234
 30
0.0
 11
4.957450259823607
 21
30.79863327141234
 31
0.0
  0
LINE
  5
6E2
  8
0
  6
CONTINUOUS
 62
     7
 10
4.957450259823607
 20
30.79863327141234
 30
0.0
 11
4.989592851823606
 21
30.46894675141234
 31
0.0
  0
LINE
  5
6E3
  8
0
  6
CONTINUOUS
 62
     7
 10
4.989592851823606
 20
30.46894675141234
 30
0.0
 11
5.004992381823606
 21
30.19138667741234
 31
0.0
  0
LINE
  5
6E4
  8
0
  6
CONTINUOUS
 62
     7
 10
5.004992381823606
 20
30.19138667741234
 30
0.0
 11
5.011695827823607
 21
29.82141809341235
 31
0.0
  0
LINE
  5
6E5
  8
0
  6
CONTINUOUS
 62
     7
 10
5.011695827823607
 20
29.82141809341235
 30
0.0
 11
5.022386197823606
 21
29.71415286341234
 31
0.0
  0
LINE
  5
6E6
  8
0
  6
CONTINUOUS
 62
     7
 10
5.022386197823606
 20
29.71415286341234
 30
0.0
 11
5.039491510823606
 21
29.62050093741234
 31
0.0
  0
LINE
  5
6E7
  8
0
  6
CONTINUOUS
 62
     7
 10
5.039491510823606
 20
29.62050093741234
 30
0.0
 11
5.062437129823605
 21
29.54068561941234
 31
0.0
  0
LINE
  5
6E8
  8
0
  6
CONTINUOUS
 62
     7
 10
5.062437129823605
 20
29.54068561941234
 30
0.0
 11
5.090652331823606
 21
29.47489766541234
 31
0.0
  0
LINE
  5
6E9
  8
0
  6
CONTINUOUS
 62
     7
 10
5.090652331823606
 20
29.47489766541234
 30
0.0
 11
5.123566599823605
 21
29.42332814041234
 31
0.0
  0
LINE
  5
6EA
  8
0
  6
CONTINUOUS
 62
     7
 10
5.123566599823605
 20
29.42332814041234
 30
0.0
 11
5.160580782823608
 21
29.38613164741234
 31
0.0
  0
LINE
  5
6EB
  8
0
  6
CONTINUOUS
 62
     7
 10
5.160580782823608
 20
29.38613164741234
 30
0.0
 11
5.201113857823606
 21
29.36344857541234
 31
0.0
  0
LINE
  5
6EC
  8
0
  6
CONTINUOUS
 62
     7
 10
5.201113857823606
 20
29.36344857541234
 30
0.0
 11
5.312582105823607
 21
29.34152976341234
 31
0.0
  0
LINE
  5
6ED
  8
0
  6
CONTINUOUS
 62
     7
 10
5.312582105823607
 20
29.34152976341234
 30
0.0
 11
6.002419970823607
 21
29.20811355441234
 31
0.0
  0
LINE
  5
6EE
  8
0
  6
CONTINUOUS
 62
     7
 10
6.002419970823607
 20
29.20811355441234
 30
0.0
 11
6.688965234823606
 21
29.05867579841234
 31
0.0
  0
LINE
  5
6EF
  8
0
  6
CONTINUOUS
 62
     7
 10
6.688965234823606
 20
29.05867579841234
 30
0.0
 11
6.800043730823607
 21
29.03486013841235
 31
0.0
  0
LINE
  5
6F0
  8
0
  6
CONTINUOUS
 62
     7
 10
6.800043730823607
 20
29.03486013841235
 30
0.0
 11
6.846237067823607
 21
29.03972050241235
 31
0.0
  0
LINE
  5
6F1
  8
0
  6
CONTINUOUS
 62
     7
 10
6.846237067823607
 20
29.03972050241235
 30
0.0
 11
6.894920120823606
 21
29.05930574641234
 31
0.0
  0
LINE
  5
6F2
  8
0
  6
CONTINUOUS
 62
     7
 10
6.894920120823606
 20
29.05930574641234
 30
0.0
 11
6.945503729823606
 21
29.09371608941234
 31
0.0
  0
LINE
  5
6F3
  8
0
  6
CONTINUOUS
 62
     7
 10
6.945503729823606
 20
29.09371608941234
 30
0.0
 11
6.997376280823606
 21
29.14304546741235
 31
0.0
  0
LINE
  5
6F4
  8
0
  6
CONTINUOUS
 62
     7
 10
6.997376280823606
 20
29.14304546741235
 30
0.0
 11
7.049937901823605
 21
29.20734362941235
 31
0.0
  0
LINE
  5
6F5
  8
0
  6
CONTINUOUS
 62
     7
 10
7.049937901823605
 20
29.20734362941235
 30
0.0
 11
7.102589132823606
 21
29.28666032441234
 31
0.0
  0
LINE
  5
6F6
  8
0
  6
CONTINUOUS
 62
     7
 10
7.102589132823606
 20
29.28666032441234
 30
0.0
 11
7.154713827823605
 21
29.38101677041234
 31
0.0
  0
LINE
  5
6F7
  8
0
  6
CONTINUOUS
 62
     7
 10
7.154713827823605
 20
29.38101677041234
 30
0.0
 11
7.306773345823606
 21
29.71835866241235
 31
0.0
  0
LINE
  5
6F8
  8
0
  6
CONTINUOUS
 62
     7
 10
7.306773345823606
 20
29.71835866241235
 30
0.0
 11
7.430382203823606
 21
29.96735178941234
 31
0.0
  0
LINE
  5
6F9
  8
0
  6
CONTINUOUS
 62
     7
 10
7.430382203823606
 20
29.96735178941234
 30
0.0
 11
7.589933632823605
 21
30.25764410541234
 31
0.0
  0
LINE
  5
6FA
  8
0
  6
CONTINUOUS
 62
     7
 10
7.589933632823605
 20
30.25764410541234
 30
0.0
 11
7.788342532823606
 21
30.58540854241235
 31
0.0
  0
LINE
  5
6FB
  8
0
  6
CONTINUOUS
 62
     7
 10
7.788342532823606
 20
30.58540854241235
 30
0.0
 11
8.029659584823603
 21
30.94886598141234
 31
0.0
  0
LINE
  5
6FC
  8
0
  6
CONTINUOUS
 62
     7
 10
8.029659584823603
 20
30.94886598141234
 30
0.0
 11
8.317522954823607
 21
31.34535531441234
 31
0.0
  0
LINE
  5
6FD
  8
0
  6
CONTINUOUS
 62
     7
 10
8.317522954823607
 20
31.34535531441234
 30
0.0
 11
8.653724018823606
 21
31.76982892341235
 31
0.0
  0
LINE
  5
6FE
  8
0
  6
CONTINUOUS
 62
     7
 10
8.653724018823606
 20
31.76982892341235
 30
0.0
 11
9.042745439823603
 21
32.22081885241234
 31
0.0
  0
LINE
  5
6FF
  8
0
  6
CONTINUOUS
 62
     7
 10
9.042745439823603
 20
32.22081885241234
 30
0.0
 11
9.445471805214328
 21
32.6512172943042
 31
0.0
  0
LINE
  5
700
  8
0
  6
CONTINUOUS
 62
     7
 10
10.9001046877065
 20
32.19482325988319
 30
0.0
 11
10.98477480182361
 21
31.61150329741234
 31
0.0
  0
LINE
  5
701
  8
0
  6
CONTINUOUS
 62
     7
 10
10.98477480182361
 20
31.61150329741234
 30
0.0
 11
11.04643317682361
 21
31.01911156941234
 31
0.0
  0
LINE
  5
702
  8
0
  6
CONTINUOUS
 62
     7
 10
11.04643317682361
 20
31.01911156941234
 30
0.0
 11
11.07988644382361
 21
30.47865820941234
 31
0.0
  0
LINE
  5
703
  8
0
  6
CONTINUOUS
 62
     7
 10
11.07988644382361
 20
30.47865820941234
 30
0.0
 11
11.08965249182361
 21
29.98878701641234
 31
0.0
  0
LINE
  5
704
  8
0
  6
CONTINUOUS
 62
     7
 10
11.08965249182361
 20
29.98878701641234
 30
0.0
 11
11.08008492482361
 21
29.55261765441234
 31
0.0
  0
LINE
  5
705
  8
0
  6
CONTINUOUS
 62
     7
 10
11.08008492482361
 20
29.55261765441234
 30
0.0
 11
11.05569030182361
 21
29.17025600741234
 31
0.0
  0
LINE
  5
706
  8
0
  6
CONTINUOUS
 62
     7
 10
11.05569030182361
 20
29.17025600741234
 30
0.0
 11
11.02080945482361
 21
28.84084799941234
 31
0.0
  0
LINE
  5
707
  8
0
  6
CONTINUOUS
 62
     7
 10
11.02080945482361
 20
28.84084799941234
 30
0.0
 11
10.98002135182361
 21
28.56586972341234
 31
0.0
  0
LINE
  5
708
  8
0
  6
CONTINUOUS
 62
     7
 10
10.98002135182361
 20
28.56586972341234
 30
0.0
 11
10.91211345182361
 21
28.20212501741234
 31
0.0
  0
LINE
  5
709
  8
0
  6
CONTINUOUS
 62
     7
 10
10.91211345182361
 20
28.20212501741234
 30
0.0
 11
10.90099264482361
 21
28.09490345941234
 31
0.0
  0
LINE
  5
70A
  8
0
  6
CONTINUOUS
 62
     7
 10
10.90099264482361
 20
28.09490345941234
 30
0.0
 11
10.89889577082361
 21
27.99972538241234
 31
0.0
  0
LINE
  5
70B
  8
0
  6
CONTINUOUS
 62
     7
 10
10.89889577082361
 20
27.99972538241234
 30
0.0
 11
10.90530494582361
 21
27.91692491841234
 31
0.0
  0
LINE
  5
70C
  8
0
  6
CONTINUOUS
 62
     7
 10
10.90530494582361
 20
27.91692491841234
 30
0.0
 11
10.91969971082361
 21
27.84680406341234
 31
0.0
  0
LINE
  5
70D
  8
0
  6
CONTINUOUS
 62
     7
 10
10.91969971082361
 20
27.84680406341234
 30
0.0
 11
10.9415592978236
 21
27.78966450441234
 31
0.0
  0
LINE
  5
70E
  8
0
  6
CONTINUOUS
 62
     7
 10
10.9415592978236
 20
27.78966450441234
 30
0.0
 11
10.97032822782361
 21
27.74577857341234
 31
0.0
  0
LINE
  5
70F
  8
0
  6
CONTINUOUS
 62
     7
 10
10.97032822782361
 20
27.74577857341234
 30
0.0
 11
11.00546554482361
 21
27.71540057741235
 31
0.0
  0
LINE
  5
710
  8
0
  6
CONTINUOUS
 62
     7
 10
11.00546554482361
 20
27.71540057741235
 30
0.0
 11
11.11023971982361
 21
27.67149198641235
 31
0.0
  0
LINE
  5
711
  8
0
  6
CONTINUOUS
 62
     7
 10
11.11023971982361
 20
27.67149198641235
 30
0.0
 11
11.75910006482361
 21
27.40194345841234
 31
0.0
  0
LINE
  5
712
  8
0
  6
CONTINUOUS
 62
     7
 10
11.75910006482361
 20
27.40194345841234
 30
0.0
 11
12.40151013782361
 21
27.11736414041234
 31
0.0
  0
LINE
  5
713
  8
0
  6
CONTINUOUS
 62
     7
 10
12.40151013782361
 20
27.11736414041234
 30
0.0
 11
12.50552077382361
 21
27.07167612141234
 31
0.0
  0
LINE
  5
714
  8
0
  6
CONTINUOUS
 62
     7
 10
12.50552077382361
 20
27.07167612141234
 30
0.0
 11
12.55174696782361
 21
27.06713835341234
 31
0.0
  0
LINE
  5
715
  8
0
  6
CONTINUOUS
 62
     7
 10
12.55174696782361
 20
27.06713835341234
 30
0.0
 11
12.60337602682361
 21
27.07652288941235
 31
0.0
  0
LINE
  5
716
  8
0
  6
CONTINUOUS
 62
     7
 10
12.60337602682361
 20
27.07652288941235
 30
0.0
 11
12.65985082382361
 21
27.10004633841234
 31
0.0
  0
LINE
  5
717
  8
0
  6
CONTINUOUS
 62
     7
 10
12.65985082382361
 20
27.10004633841234
 30
0.0
 11
12.72059146882361
 21
27.13792417641234
 31
0.0
  0
LINE
  5
718
  8
0
  6
CONTINUOUS
 62
     7
 10
12.72059146882361
 20
27.13792417641234
 30
0.0
 11
12.78502033782361
 21
27.19032552941234
 31
0.0
  0
LINE
  5
719
  8
0
  6
CONTINUOUS
 62
     7
 10
12.78502033782361
 20
27.19032552941234
 30
0.0
 11
12.8525600128236
 21
27.25741993541234
 31
0.0
  0
LINE
  5
71A
  8
0
  6
CONTINUOUS
 62
     7
 10
12.8525600128236
 20
27.25741993541234
 30
0.0
 11
12.92261154882361
 21
27.33935231541234
 31
0.0
  0
LINE
  5
71B
  8
0
  6
CONTINUOUS
 62
     7
 10
12.92261154882361
 20
27.33935231541234
 30
0.0
 11
13.1394648648236
 21
27.63917944441234
 31
0.0
  0
LINE
  5
71C
  8
0
  6
CONTINUOUS
 62
     7
 10
13.1394648648236
 20
27.63917944441234
 30
0.0
 11
13.3106654908236
 21
27.85819339141234
 31
0.0
  0
LINE
  5
71D
  8
0
  6
CONTINUOUS
 62
     7
 10
13.3106654908236
 20
27.85819339141234
 30
0.0
 11
13.5253862948236
 21
28.11042597141234
 31
0.0
  0
LINE
  5
71E
  8
0
  6
CONTINUOUS
 62
     7
 10
13.5253862948236
 20
28.11042597141234
 30
0.0
 11
13.78571209982361
 21
28.39154160541235
 31
0.0
  0
LINE
  5
71F
  8
0
  6
CONTINUOUS
 62
     7
 10
13.78571209982361
 20
28.39154160541235
 30
0.0
 11
14.09525284982361
 21
28.69898228841235
 31
0.0
  0
LINE
  5
720
  8
0
  6
CONTINUOUS
 62
     7
 10
14.09525284982361
 20
28.69898228841235
 30
0.0
 11
14.45703633282361
 21
29.02940896641234
 31
0.0
  0
LINE
  5
721
  8
0
  6
CONTINUOUS
 62
     7
 10
14.45703633282361
 20
29.02940896641234
 30
0.0
 11
14.87180126482361
 21
29.37751683041234
 31
0.0
  0
LINE
  5
722
  8
0
  6
CONTINUOUS
 62
     7
 10
14.87180126482361
 20
29.37751683041234
 30
0.0
 11
15.34364313182361
 21
29.74096551441234
 31
0.0
  0
LINE
  5
723
  8
0
  6
CONTINUOUS
 62
     7
 10
15.34364313182361
 20
29.74096551441234
 30
0.0
 11
15.82476415270038
 21
30.08148546812356
 31
0.0
  0
LINE
  5
724
  8
0
  6
CONTINUOUS
 62
     7
 10
17.15774917123483
 20
29.341618436365
 30
0.0
 11
17.12326466882361
 21
28.75319499941234
 31
0.0
  0
LINE
  5
725
  8
0
  6
CONTINUOUS
 62
     7
 10
17.12326466882361
 20
28.75319499941234
 30
0.0
 11
17.06441335282361
 21
28.16051785841234
 31
0.0
  0
LINE
  5
726
  8
0
  6
CONTINUOUS
 62
     7
 10
17.06441335282361
 20
28.16051785841234
 30
0.0
 11
16.98838925882361
 21
27.62439348541235
 31
0.0
  0
LINE
  5
727
  8
0
  6
CONTINUOUS
 62
     7
 10
16.98838925882361
 20
27.62439348541235
 30
0.0
 11
16.89934503782361
 21
27.14258420541234
 31
0.0
  0
LINE
  5
728
  8
0
  6
CONTINUOUS
 62
     7
 10
16.89934503782361
 20
27.14258420541234
 30
0.0
 11
16.80217318982361
 21
26.71726908641234
 31
0.0
  0
LINE
  5
729
  8
0
  6
CONTINUOUS
 62
     7
 10
16.80217318982361
 20
26.71726908641234
 30
0.0
 11
16.70130899782361
 21
26.34764503741235
 31
0.0
  0
LINE
  5
72A
  8
0
  6
CONTINUOUS
 62
     7
 10
16.70130899782361
 20
26.34764503741235
 30
0.0
 11
16.60083290982361
 21
26.03200153741234
 31
0.0
  0
LINE
  5
72B
  8
0
  6
CONTINUOUS
 62
     7
 10
16.60083290982361
 20
26.03200153741234
 30
0.0
 11
16.50552690682361
 21
25.77086265041234
 31
0.0
  0
LINE
  5
72C
  8
0
  6
CONTINUOUS
 62
     7
 10
16.50552690682361
 20
25.77086265041234
 30
0.0
 11
16.36578793982361
 21
25.42823356241234
 31
0.0
  0
LINE
  5
72D
  8
0
  6
CONTINUOUS
 62
     7
 10
16.36578793982361
 20
25.42823356241234
 30
0.0
 11
16.33331121582361
 21
25.32544543341234
 31
0.0
  0
LINE
  5
72E
  8
0
  6
CONTINUOUS
 62
     7
 10
16.33331121582361
 20
25.32544543341234
 30
0.0
 11
16.31209805682361
 21
25.23263769541234
 31
0.0
  0
LINE
  5
72F
  8
0
  6
CONTINUOUS
 62
     7
 10
16.31209805682361
 20
25.23263769541234
 30
0.0
 11
16.30170844682361
 21
25.15024202141234
 31
0.0
  0
LINE
  5
730
  8
0
  6
CONTINUOUS
 62
     7
 10
16.30170844682361
 20
25.15024202141234
 30
0.0
 11
16.30169320282361
 21
25.07865897841235
 31
0.0
  0
LINE
  5
731
  8
0
  6
CONTINUOUS
 62
     7
 10
16.30169320282361
 20
25.07865897841235
 30
0.0
 11
16.31160334782361
 21
25.01828882441234
 31
0.0
  0
LINE
  5
732
  8
0
  6
CONTINUOUS
 62
     7
 10
16.31160334782361
 20
25.01828882441234
 30
0.0
 11
16.33094911682361
 21
24.96950998141234
 31
0.0
  0
LINE
  5
733
  8
0
  6
CONTINUOUS
 62
     7
 10
16.33094911682361
 20
24.96950998141234
 30
0.0
 11
16.35925207482362
 21
24.93268078641234
 31
0.0
  0
LINE
  5
734
  8
0
  6
CONTINUOUS
 62
     7
 10
16.35925207482362
 20
24.93268078641234
 30
0.0
 11
16.45304284482361
 21
24.86858007541234
 31
0.0
  0
LINE
  5
735
  8
0
  6
CONTINUOUS
 62
     7
 10
16.45304284482361
 20
24.86858007541234
 30
0.0
 11
17.03436124882361
 21
24.47393464841234
 31
0.0
  0
LINE
  5
736
  8
0
  6
CONTINUOUS
 62
     7
 10
17.03436124882361
 20
24.47393464841234
 30
0.0
 11
17.60633580182361
 21
24.06586451041234
 31
0.0
  0
LINE
  5
737
  8
0
  6
CONTINUOUS
 62
     7
 10
17.60633580182361
 20
24.06586451041234
 30
0.0
 11
17.69902035182361
 21
24.00017450941235
 31
0.0
  0
LINE
  5
738
  8
0
  6
CONTINUOUS
 62
     7
 10
17.69902035182361
 20
24.00017450941235
 30
0.0
 11
17.74338677782361
 21
23.98642431841234
 31
0.0
  0
LINE
  5
739
  8
0
  6
CONTINUOUS
 62
     7
 10
17.74338677782361
 20
23.98642431841234
 30
0.0
 11
17.79584817982361
 21
23.98522385341234
 31
0.0
  0
LINE
  5
73A
  8
0
  6
CONTINUOUS
 62
     7
 10
17.79584817982361
 20
23.98522385341234
 30
0.0
 11
17.85590222682361
 21
23.99689756441234
 31
0.0
  0
LINE
  5
73B
  8
0
  6
CONTINUOUS
 62
     7
 10
17.85590222682361
 20
23.99689756441234
 30
0.0
 11
17.92302413382361
 21
24.02177299141234
 31
0.0
  0
LINE
  5
73C
  8
0
  6
CONTINUOUS
 62
     7
 10
17.92302413382361
 20
24.02177299141234
 30
0.0
 11
17.9966825238236
 21
24.06013235441235
 31
0.0
  0
LINE
  5
73D
  8
0
  6
CONTINUOUS
 62
     7
 10
17.9966825238236
 20
24.06013235441235
 30
0.0
 11
18.07634571082361
 21
24.11225766741235
 31
0.0
  0
LINE
  5
73E
  8
0
  6
CONTINUOUS
 62
     7
 10
18.07634571082361
 20
24.11225766741235
 30
0.0
 11
18.16145615582361
 21
24.17841158041234
 31
0.0
  0
LINE
  5
73F
  8
0
  6
CONTINUOUS
 62
     7
 10
18.16145615582361
 20
24.17841158041234
 30
0.0
 11
18.43422518482361
 21
24.42844902441234
 31
0.0
  0
LINE
  5
740
  8
0
  6
CONTINUOUS
 62
     7
 10
18.43422518482361
 20
24.42844902441234
 30
0.0
 11
18.64600842882361
 21
24.60851733241234
 31
0.0
  0
LINE
  5
741
  8
0
  6
CONTINUOUS
 62
     7
 10
18.64600842882361
 20
24.60851733241234
 30
0.0
 11
18.90710796982361
 21
24.81236370541234
 31
0.0
  0
LINE
  5
742
  8
0
  6
CONTINUOUS
 62
     7
 10
18.90710796982361
 20
24.81236370541234
 30
0.0
 11
19.21869306382361
 21
25.03532162541235
 31
0.0
  0
LINE
  5
743
  8
0
  6
CONTINUOUS
 62
     7
 10
19.21869306382361
 20
25.03532162541235
 30
0.0
 11
19.58378490682361
 21
25.27415895241235
 31
0.0
  0
LINE
  5
744
  8
0
  6
CONTINUOUS
 62
     7
 10
19.58378490682361
 20
25.27415895241235
 30
0.0
 11
20.00467710282361
 21
25.52499526441234
 31
0.0
  0
LINE
  5
745
  8
0
  6
CONTINUOUS
 62
     7
 10
20.00467710282361
 20
25.52499526441234
 30
0.0
 11
20.48102532282361
 21
25.78248578841235
 31
0.0
  0
LINE
  5
746
  8
0
  6
CONTINUOUS
 62
     7
 10
20.48102532282361
 20
25.78248578841235
 30
0.0
 11
21.01637019182361
 21
26.04351353841235
 31
0.0
  0
LINE
  5
747
  8
0
  6
CONTINUOUS
 62
     7
 10
21.01637019182361
 20
26.04351353841235
 30
0.0
 11
21.55618882479162
 21
26.2802140044757
 31
0.0
  0
LINE
  5
748
  8
0
  6
CONTINUOUS
 62
     7
 10
22.7129534290899
 20
25.28716421474208
 30
0.0
 11
22.56072602982361
 21
24.71772761441234
 31
0.0
  0
LINE
  5
749
  8
0
  6
CONTINUOUS
 62
     7
 10
22.56072602982361
 20
24.71772761441234
 30
0.0
 11
22.38377429582361
 21
24.14902928541234
 31
0.0
  0
LINE
  5
74A
  8
0
  6
CONTINUOUS
 62
     7
 10
22.38377429582361
 20
24.14902928541234
 30
0.0
 11
22.20138550082361
 21
23.63918289041234
 31
0.0
  0
LINE
  5
74B
  8
0
  6
CONTINUOUS
 62
     7
 10
22.20138550082361
 20
23.63918289041234
 30
0.0
 11
22.01717648982361
 21
23.18516074441234
 31
0.0
  0
LINE
  5
74C
  8
0
  6
CONTINUOUS
 62
     7
 10
22.01717648982361
 20
23.18516074441234
 30
0.0
 11
21.83637842682361
 21
22.78811243041234
 31
0.0
  0
LINE
  5
74D
  8
0
  6
CONTINUOUS
 62
     7
 10
21.83637842682361
 20
22.78811243041234
 30
0.0
 11
21.66317414182361
 21
22.44635843041235
 31
0.0
  0
LINE
  5
74E
  8
0
  6
CONTINUOUS
 62
     7
 10
21.66317414182361
 20
22.44635843041235
 30
0.0
 11
21.50121622082361
 21
22.15740181841235
 31
0.0
  0
LINE
  5
74F
  8
0
  6
CONTINUOUS
 62
     7
 10
21.50121622082361
 20
22.15740181841235
 30
0.0
 11
21.35529436982361
 21
21.92079341141235
 31
0.0
  0
LINE
  5
750
  8
0
  6
CONTINUOUS
 62
     7
 10
21.35529436982361
 20
21.92079341141235
 30
0.0
 11
21.14944505882361
 21
21.61330720241235
 31
0.0
  0
LINE
  5
751
  8
0
  6
CONTINUOUS
 62
     7
 10
21.14944505882361
 20
21.61330720241235
 30
0.0
 11
21.09694204482361
 21
21.51916067041234
 31
0.0
  0
LINE
  5
752
  8
0
  6
CONTINUOUS
 62
     7
 10
21.09694204482361
 20
21.51916067041234
 30
0.0
 11
21.05748109682361
 21
21.43252294141234
 31
0.0
  0
LINE
  5
753
  8
0
  6
CONTINUOUS
 62
     7
 10
21.05748109682361
 20
21.43252294141234
 30
0.0
 11
21.03071798882361
 21
21.35390541041234
 31
0.0
  0
LINE
  5
754
  8
0
  6
CONTINUOUS
 62
     7
 10
21.03071798882361
 20
21.35390541041234
 30
0.0
 11
21.01629355982361
 21
21.28379063241234
 31
0.0
  0
LINE
  5
755
  8
0
  6
CONTINUOUS
 62
     7
 10
21.01629355982361
 20
21.28379063241234
 30
0.0
 11
21.01384833982361
 21
21.22266136841234
 31
0.0
  0
LINE
  5
756
  8
0
  6
CONTINUOUS
 62
     7
 10
21.01384833982361
 20
21.22266136841234
 30
0.0
 11
21.02297908382361
 21
21.17098678341235
 31
0.0
  0
LINE
  5
757
  8
0
  6
CONTINUOUS
 62
     7
 10
21.02297908382361
 20
21.17098678341235
 30
0.0
 11
21.04328893282361
 21
21.12921410341234
 31
0.0
  0
LINE
  5
758
  8
0
  6
CONTINUOUS
 62
     7
 10
21.04328893282361
 20
21.12921410341234
 30
0.0
 11
21.12225645782361
 21
21.04754560941235
 31
0.0
  0
LINE
  5
759
  8
0
  6
CONTINUOUS
 62
     7
 10
21.12225645782361
 20
21.04754560941235
 30
0.0
 11
21.61223374082361
 21
20.54396006941234
 31
0.0
  0
LINE
  5
75A
  8
0
  6
CONTINUOUS
 62
     7
 10
21.61223374082361
 20
20.54396006941234
 30
0.0
 11
22.09035603282361
 21
20.02910550541234
 31
0.0
  0
LINE
  5
75B
  8
0
  6
CONTINUOUS
 62
     7
 10
22.09035603282361
 20
20.02910550541234
 30
0.0
 11
22.16791997682361
 21
19.94610295541234
 31
0.0
  0
LINE
  5
75C
  8
0
  6
CONTINUOUS
 62
     7
 10
22.16791997682361
 20
19.94610295541234
 30
0.0
 11
22.20861033282361
 21
19.92370333941234
 31
0.0
  0
LINE
  5
75D
  8
0
  6
CONTINUOUS
 62
     7
 10
22.20861033282361
 20
19.92370333941234
 30
0.0
 11
22.25975611582361
 21
19.91196710741234
 31
0.0
  0
LINE
  5
75E
  8
0
  6
CONTINUOUS
 62
     7
 10
22.25975611582361
 20
19.91196710741234
 30
0.0
 11
22.32093080282361
 21
19.91131295441235
 31
0.0
  0
LINE
  5
75F
  8
0
  6
CONTINUOUS
 62
     7
 10
22.32093080282361
 20
19.91131295441235
 30
0.0
 11
22.39168613782361
 21
19.92216771241234
 31
0.0
  0
LINE
  5
760
  8
0
  6
CONTINUOUS
 62
     7
 10
22.39168613782361
 20
19.92216771241234
 30
0.0
 11
22.47155841482361
 21
19.94491443841235
 31
0.0
  0
LINE
  5
761
  8
0
  6
CONTINUOUS
 62
     7
 10
22.47155841482361
 20
19.94491443841235
 30
0.0
 11
22.56008361882361
 21
19.97993670441235
 31
0.0
  0
LINE
  5
762
  8
0
  6
CONTINUOUS
 62
     7
 10
22.56008361882361
 20
19.97993670441235
 30
0.0
 11
22.65676848282361
 21
20.02760386841234
 31
0.0
  0
LINE
  5
763
  8
0
  6
CONTINUOUS
 62
     7
 10
22.65676848282361
 20
20.02760386841234
 30
0.0
 11
22.97428617082361
 21
20.21761497241234
 31
0.0
  0
LINE
  5
764
  8
0
  6
CONTINUOUS
 62
     7
 10
22.97428617082361
 20
20.21761497241234
 30
0.0
 11
23.21798169882361
 21
20.35136562241235
 31
0.0
  0
LINE
  5
765
  8
0
  6
CONTINUOUS
 62
     7
 10
23.21798169882361
 20
20.35136562241235
 30
0.0
 11
23.51477043082361
 21
20.49848021341234
 31
0.0
  0
LINE
  5
766
  8
0
  6
CONTINUOUS
 62
     7
 10
23.51477043082361
 20
20.49848021341234
 30
0.0
 11
23.86485846982361
 21
20.65415255941235
 31
0.0
  0
LINE
  5
767
  8
0
  6
CONTINUOUS
 62
     7
 10
23.86485846982361
 20
20.65415255941235
 30
0.0
 11
24.27055445782361
 21
20.81460853441234
 31
0.0
  0
LINE
  5
768
  8
0
  6
CONTINUOUS
 62
     7
 10
24.27055445782361
 20
20.81460853441234
 30
0.0
 11
24.73332387882361
 21
20.97558517441234
 31
0.0
  0
LINE
  5
769
  8
0
  6
CONTINUOUS
 62
     7
 10
24.73332387882361
 20
20.97558517441234
 30
0.0
 11
25.25175377882361
 21
21.13191661741234
 31
0.0
  0
LINE
  5
76A
  8
0
  6
CONTINUOUS
 62
     7
 10
25.25175377882361
 20
21.13191661741234
 30
0.0
 11
25.82868458882361
 21
21.27983708041234
 31
0.0
  0
LINE
  5
76B
  8
0
  6
CONTINUOUS
 62
     7
 10
25.82868458882361
 20
21.27983708041234
 30
0.0
 11
26.40510058206905
 21
21.40302767009436
 31
0.0
  0
LINE
  5
76C
  8
0
  6
CONTINUOUS
 62
     7
 10
27.33828667890127
 20
20.19745065657142
 30
0.0
 11
27.07454858982361
 21
19.67031355441234
 31
0.0
  0
LINE
  5
76D
  8
0
  6
CONTINUOUS
 62
     7
 10
27.07454858982361
 20
19.67031355441234
 30
0.0
 11
26.78674104582361
 21
19.14887656941234
 31
0.0
  0
LINE
  5
76E
  8
0
  6
CONTINUOUS
 62
     7
 10
26.78674104582361
 20
19.14887656941234
 30
0.0
 11
26.50545432882361
 21
18.68618141141234
 31
0.0
  0
LINE
  5
76F
  8
0
  6
CONTINUOUS
 62
     7
 10
26.50545432882361
 20
18.68618141141234
 30
0.0
 11
26.23362218782361
 21
18.27853408841234
 31
0.0
  0
LINE
  5
770
  8
0
  6
CONTINUOUS
 62
     7
 10
26.23362218782361
 20
18.27853408841234
 30
0.0
 11
25.97659979882361
 21
17.92600783341234
 31
0.0
  0
LINE
  5
771
  8
0
  6
CONTINUOUS
 62
     7
 10
25.97659979882361
 20
17.92600783341234
 30
0.0
 11
25.73814645582361
 21
17.62611519641234
 31
0.0
  0
LINE
  5
772
  8
0
  6
CONTINUOUS
 62
     7
 10
25.73814645582361
 20
17.62611519641234
 30
0.0
 11
25.52133732682361
 21
17.37567543441234
 31
0.0
  0
LINE
  5
773
  8
0
  6
CONTINUOUS
 62
     7
 10
25.52133732682361
 20
17.37567543441234
 30
0.0
 11
25.33077352482361
 21
17.17328434841234
 31
0.0
  0
LINE
  5
774
  8
0
  6
CONTINUOUS
 62
     7
 10
25.33077352482361
 20
17.17328434841234
 30
0.0
 11
25.06724143282361
 21
16.91352957541234
 31
0.0
  0
LINE
  5
775
  8
0
  6
CONTINUOUS
 62
     7
 10
25.06724143282361
 20
16.91352957541234
 30
0.0
 11
24.99686163582361
 21
16.83187900341234
 31
0.0
  0
LINE
  5
776
  8
0
  6
CONTINUOUS
 62
     7
 10
24.99686163582361
 20
16.83187900341234
 30
0.0
 11
24.94076835082361
 21
16.75495819141235
 31
0.0
  0
LINE
  5
777
  8
0
  6
CONTINUOUS
 62
     7
 10
24.94076835082361
 20
16.75495819141235
 30
0.0
 11
24.89872756182362
 21
16.68333724441234
 31
0.0
  0
LINE
  5
778
  8
0
  6
CONTINUOUS
 62
     7
 10
24.89872756182362
 20
16.68333724441234
 30
0.0
 11
24.87048434382361
 21
16.61756134141235
 31
0.0
  0
LINE
  5
779
  8
0
  6
CONTINUOUS
 62
     7
 10
24.87048434382361
 20
16.61756134141235
 30
0.0
 11
24.85578397782361
 21
16.55817566141234
 31
0.0
  0
LINE
  5
77A
  8
0
  6
CONTINUOUS
 62
     7
 10
24.85578397782361
 20
16.55817566141234
 30
0.0
 11
24.85432570382362
 21
16.50572085141235
 31
0.0
  0
LINE
  5
77B
  8
0
  6
CONTINUOUS
 62
     7
 10
24.85432570382362
 20
16.50572085141235
 30
0.0
 11
24.86581113082361
 21
16.46071489841234
 31
0.0
  0
LINE
  5
77C
  8
0
  6
CONTINUOUS
 62
     7
 10
24.86581113082361
 20
16.46071489841234
 30
0.0
 11
24.92672244682361
 21
16.36482220741234
 31
0.0
  0
LINE
  5
77D
  8
0
  6
CONTINUOUS
 62
     7
 10
24.92672244682361
 20
16.36482220741234
 30
0.0
 11
25.30529884382361
 21
15.77291334341234
 31
0.0
  0
LINE
  5
77E
  8
0
  6
CONTINUOUS
 62
     7
 10
25.30529884382361
 20
15.77291334341234
 30
0.0
 11
25.66999444582361
 21
15.17235258241234
 31
0.0
  0
LINE
  5
77F
  8
0
  6
CONTINUOUS
 62
     7
 10
25.66999444582361
 20
15.17235258241234
 30
0.0
 11
25.72926239682361
 21
15.07543555641234
 31
0.0
  0
LINE
  5
780
  8
0
  6
CONTINUOUS
 62
     7
 10
25.72926239682361
 20
15.07543555641234
 30
0.0
 11
25.76461076082361
 21
15.04530352441235
 31
0.0
  0
LINE
  5
781
  8
0
  6
CONTINUOUS
 62
     7
 10
25.76461076082361
 20
15.04530352441235
 30
0.0
 11
25.81234714082361
 21
15.02351191741235
 31
0.0
  0
LINE
  5
782
  8
0
  6
CONTINUOUS
 62
     7
 10
25.81234714082361
 20
15.02351191741235
 30
0.0
 11
25.87213791982361
 21
15.01055688641234
 31
0.0
  0
LINE
  5
783
  8
0
  6
CONTINUOUS
 62
     7
 10
25.87213791982361
 20
15.01055688641234
 30
0.0
 11
25.94362991082361
 21
15.00694642741234
 31
0.0
  0
LINE
  5
784
  8
0
  6
CONTINUOUS
 62
     7
 10
25.94362991082361
 20
15.00694642741234
 30
0.0
 11
26.02644603082361
 21
15.01314939641234
 31
0.0
  0
LINE
  5
785
  8
0
  6
CONTINUOUS
 62
     7
 10
26.02644603082361
 20
15.01314939641234
 30
0.0
 11
26.12020909382361
 21
15.02963475241234
 31
0.0
  0
LINE
  5
786
  8
0
  6
CONTINUOUS
 62
     7
 10
26.12020909382361
 20
15.02963475241234
 30
0.0
 11
26.22451018982361
 21
15.05686362641234
 31
0.0
  0
LINE
  5
787
  8
0
  6
CONTINUOUS
 62
     7
 10
26.22451018982361
 20
15.05686362641234
 30
0.0
 11
26.57377711282361
 21
15.17906941841234
 31
0.0
  0
LINE
  5
788
  8
0
  6
CONTINUOUS
 62
     7
 10
26.57377711282361
 20
15.17906941841234
 30
0.0
 11
26.83940803582361
 21
15.26102662141234
 31
0.0
  0
LINE
  5
789
  8
0
  6
CONTINUOUS
 62
     7
 10
26.83940803582361
 20
15.26102662141234
 30
0.0
 11
27.15973546082361
 21
15.34538671141235
 31
0.0
  0
LINE
  5
78A
  8
0
  6
CONTINUOUS
 62
     7
 10
27.15973546082361
 20
15.34538671141235
 30
0.0
 11
27.53399378882362
 21
15.42740015241234
 31
0.0
  0
LINE
  5
78B
  8
0
  6
CONTINUOUS
 62
     7
 10
27.53399378882362
 20
15.42740015241234
 30
0.0
 11
27.96368465682361
 21
15.50290553841234
 31
0.0
  0
LINE
  5
78C
  8
0
  6
CONTINUOUS
 62
     7
 10
27.96368465682361
 20
15.50290553841234
 30
0.0
 11
28.44938558582361
 21
15.56743225741234
 31
0.0
  0
LINE
  5
78D
  8
0
  6
CONTINUOUS
 62
     7
 10
28.44938558582361
 20
15.56743225741234
 30
0.0
 11
28.98867247082361
 21
15.61620440541234
 31
0.0
  0
LINE
  5
78E
  8
0
  6
CONTINUOUS
 62
     7
 10
28.98867247082361
 20
15.61620440541234
 30
0.0
 11
29.58356957082361
 21
15.64496159341234
 31
0.0
  0
LINE
  5
78F
  8
0
  6
CONTINUOUS
 62
     7
 10
29.58356957082361
 20
15.64496159341234
 30
0.0
 11
30.17298441712568
 21
15.64959874117814
 31
0.0
  0
LINE
  5
790
  8
0
  6
CONTINUOUS
 62
     7
 10
30.84438722007819
 20
14.28085102409148
 30
0.0
 11
30.47993603182361
 21
13.81759450941234
 31
0.0
  0
LINE
  5
791
  8
0
  6
CONTINUOUS
 62
     7
 10
30.47993603182361
 20
13.81759450941234
 30
0.0
 11
30.09305536282361
 21
13.36476664841235
 31
0.0
  0
LINE
  5
792
  8
0
  6
CONTINUOUS
 62
     7
 10
30.09305536282361
 20
13.36476664841235
 30
0.0
 11
29.72438684482361
 21
12.96816545741235
 31
0.0
  0
LINE
  5
793
  8
0
  6
CONTINUOUS
 62
     7
 10
29.72438684482361
 20
12.96816545741235
 30
0.0
 11
29.37606020882361
 21
12.62358215041234
 31
0.0
  0
LINE
  5
794
  8
0
  6
CONTINUOUS
 62
     7
 10
29.37606020882361
 20
12.62358215041234
 30
0.0
 11
29.05333607682361
 21
12.33001031441235
 31
0.0
  0
LINE
  5
795
  8
0
  6
CONTINUOUS
 62
     7
 10
29.05333607682361
 20
12.33001031441235
 30
0.0
 11
28.75939601582361
 21
12.08425684641234
 31
0.0
  0
LINE
  5
796
  8
0
  6
CONTINUOUS
 62
     7
 10
28.75939601582361
 20
12.08425684641234
 30
0.0
 11
28.49661180682361
 21
11.88258696641235
 31
0.0
  0
LINE
  5
797
  8
0
  6
CONTINUOUS
 62
     7
 10
28.49661180682361
 20
11.88258696641235
 30
0.0
 11
28.26920778882361
 21
11.72269893341234
 31
0.0
  0
LINE
  5
798
  8
0
  6
CONTINUOUS
 62
     7
 10
28.26920778882361
 20
11.72269893341234
 30
0.0
 11
27.95878195982361
 21
11.52131003741234
 31
0.0
  0
LINE
  5
799
  8
0
  6
CONTINUOUS
 62
     7
 10
27.95878195982361
 20
11.52131003741234
 30
0.0
 11
27.87340670182361
 21
11.45549818741234
 31
0.0
  0
LINE
  5
79A
  8
0
  6
CONTINUOUS
 62
     7
 10
27.87340670182361
 20
11.45549818741234
 30
0.0
 11
27.80297767082361
 21
11.39144341441234
 31
0.0
  0
LINE
  5
79B
  8
0
  6
CONTINUOUS
 62
     7
 10
27.80297767082361
 20
11.39144341441234
 30
0.0
 11
27.74738022782361
 21
11.32975135841234
 31
0.0
  0
LINE
  5
79C
  8
0
  6
CONTINUOUS
 62
     7
 10
27.74738022782361
 20
11.32975135841234
 30
0.0
 11
27.70647460182361
 21
11.27100726541234
 31
0.0
  0
LINE
  5
79D
  8
0
  6
CONTINUOUS
 62
     7
 10
27.70647460182361
 20
11.27100726541234
 30
0.0
 11
27.68012081582361
 21
11.21579627841234
 31
0.0
  0
LINE
  5
79E
  8
0
  6
CONTINUOUS
 62
     7
 10
27.68012081582361
 20
11.21579627841234
 30
0.0
 11
27.66813336682361
 21
11.16470879341234
 31
0.0
  0
LINE
  5
79F
  8
0
  6
CONTINUOUS
 62
     7
 10
27.66813336682361
 20
11.16470879341234
 30
0.0
 11
27.67032407382361
 21
11.11831213441234
 31
0.0
  0
LINE
  5
7A0
  8
0
  6
CONTINUOUS
 62
     7
 10
27.67032407382361
 20
11.11831213441234
 30
0.0
 11
27.71068544782361
 21
11.01212098841234
 31
0.0
  0
LINE
  5
7A1
  8
0
  6
CONTINUOUS
 62
     7
 10
27.71068544782361
 20
11.01212098841234
 30
0.0
 11
27.96236193082361
 21
10.35612171341234
 31
0.0
  0
LINE
  5
7A2
  8
0
  6
CONTINUOUS
 62
     7
 10
27.96236193082361
 20
10.35612171341234
 30
0.0
 11
28.19870027182361
 21
9.694441782412342
 31
0.0
  0
LINE
  5
7A3
  8
0
  6
CONTINUOUS
 62
     7
 10
28.19870027182361
 20
9.694441782412342
 30
0.0
 11
28.23724575582361
 21
9.587578046412343
 31
0.0
  0
LINE
  5
7A4
  8
0
  6
CONTINUOUS
 62
     7
 10
28.23724575582361
 20
9.587578046412343
 30
0.0
 11
28.26580508082361
 21
9.550947229412344
 31
0.0
  0
LINE
  5
7A5
  8
0
  6
CONTINUOUS
 62
     7
 10
28.26580508082361
 20
9.550947229412344
 30
0.0
 11
28.30817763282361
 21
9.519992536412342
 31
0.0
  0
LINE
  5
7A6
  8
0
  6
CONTINUOUS
 62
     7
 10
28.30817763282361
 20
9.519992536412342
 30
0.0
 11
28.36413660582361
 21
9.495266871412342
 31
0.0
  0
LINE
  5
7A7
  8
0
  6
CONTINUOUS
 62
     7
 10
28.36413660582361
 20
9.495266871412342
 30
0.0
 11
28.43343840482361
 21
9.477339103412342
 31
0.0
  0
LINE
  5
7A8
  8
0
  6
CONTINUOUS
 62
     7
 10
28.43343840482361
 20
9.477339103412342
 30
0.0
 11
28.51580791682361
 21
9.466744317412342
 31
0.0
  0
LINE
  5
7A9
  8
0
  6
CONTINUOUS
 62
     7
 10
28.51580791682361
 20
9.466744317412342
 30
0.0
 11
28.61097013182361
 21
9.464017804412343
 31
0.0
  0
LINE
  5
7AA
  8
0
  6
CONTINUOUS
 62
     7
 10
28.61097013182361
 20
9.464017804412343
 30
0.0
 11
28.71861728582361
 21
9.469693619412341
 31
0.0
  0
LINE
  5
7AB
  8
0
  6
CONTINUOUS
 62
     7
 10
28.71861728582361
 20
9.469693619412341
 30
0.0
 11
29.08533457182361
 21
9.519090977412343
 31
0.0
  0
LINE
  5
7AC
  8
0
  6
CONTINUOUS
 62
     7
 10
29.08533457182361
 20
9.519090977412343
 30
0.0
 11
29.36202584082361
 21
9.545899405412342
 31
0.0
  0
LINE
  5
7AD
  8
0
  6
CONTINUOUS
 62
     7
 10
29.36202584082361
 20
9.545899405412342
 30
0.0
 11
29.69277768982361
 21
9.564051198412342
 31
0.0
  0
LINE
  5
7AE
  8
0
  6
CONTINUOUS
 62
     7
 10
29.69277768982361
 20
9.564051198412342
 30
0.0
 11
30.07588412982361
 21
9.569048243412343
 31
0.0
  0
LINE
  5
7AF
  8
0
  6
CONTINUOUS
 62
     7
 10
30.07588412982361
 20
9.569048243412343
 30
0.0
 11
30.51197830182361
 21
9.556511804412342
 31
0.0
  0
LINE
  5
7B0
  8
0
  6
CONTINUOUS
 62
     7
 10
30.51197830182361
 20
9.556511804412342
 30
0.0
 11
31.00072607382361
 21
9.521946755412342
 31
0.0
  0
LINE
  5
7B1
  8
0
  6
CONTINUOUS
 62
     7
 10
31.00072607382361
 20
9.521946755412342
 30
0.0
 11
31.5387914818236
 21
9.461162953412344
 31
0.0
  0
LINE
  5
7B2
  8
0
  6
CONTINUOUS
 62
     7
 10
31.5387914818236
 20
9.461162953412344
 30
0.0
 11
32.12729980082361
 21
9.369579576412344
 31
0.0
  0
LINE
  5
7B3
  8
0
  6
CONTINUOUS
 62
     7
 10
32.12729980082361
 20
9.369579576412344
 30
0.0
 11
32.70558269798196
 21
9.255473368371106
 31
0.0
  0
LINE
  5
7B4
  8
0
  6
CONTINUOUS
 62
     7
 10
33.08771495587959
 20
7.779591646769834
 30
0.0
 11
32.63747126382362
 21
7.399181542412343
 31
0.0
  0
LINE
  5
7B5
  8
0
  6
CONTINUOUS
 62
     7
 10
32.63747126382362
 20
7.399181542412343
 30
0.0
 11
32.16735650082361
 21
7.033501569412344
 31
0.0
  0
LINE
  5
7B6
  8
0
  6
CONTINUOUS
 62
     7
 10
32.16735650082361
 20
7.033501569412344
 30
0.0
 11
31.72639938982361
 21
6.719231265412343
 31
0.0
  0
LINE
  5
7B7
  8
0
  6
CONTINUOUS
 62
     7
 10
31.72639938982361
 20
6.719231265412343
 30
0.0
 11
31.31583891782361
 21
6.451819163412342
 31
0.0
  0
LINE
  5
7B8
  8
0
  6
CONTINUOUS
 62
     7
 10
31.31583891782361
 20
6.451819163412342
 30
0.0
 11
30.94062536782361
 21
6.229220713412344
 31
0.0
  0
LINE
  5
7B9
  8
0
  6
CONTINUOUS
 62
     7
 10
30.94062536782361
 20
6.229220713412344
 30
0.0
 11
30.60323249082361
 21
6.047667557412343
 31
0.0
  0
LINE
  5
7BA
  8
0
  6
CONTINUOUS
 62
     7
 10
30.60323249082361
 20
6.047667557412343
 30
0.0
 11
30.30523165482361
 21
5.903023936412344
 31
0.0
  0
LINE
  5
7BB
  8
0
  6
CONTINUOUS
 62
     7
 10
30.30523165482361
 20
5.903023936412344
 30
0.0
 11
30.05029738482361
 21
5.792184915412343
 31
0.0
  0
LINE
  5
7BC
  8
0
  6
CONTINUOUS
 62
     7
 10
30.05029738482361
 20
5.792184915412343
 30
0.0
 11
29.70568667982361
 21
5.657406737412343
 31
0.0
  0
LINE
  5
7BD
  8
0
  6
CONTINUOUS
 62
     7
 10
29.70568667982361
 20
5.657406737412343
 30
0.0
 11
29.60881126582361
 21
5.610127986412342
 31
0.0
  0
LINE
  5
7BE
  8
0
  6
CONTINUOUS
 62
     7
 10
29.60881126582361
 20
5.610127986412342
 30
0.0
 11
29.52692976782361
 21
5.561561632412342
 31
0.0
  0
LINE
  5
7BF
  8
0
  6
CONTINUOUS
 62
     7
 10
29.52692976782361
 20
5.561561632412342
 30
0.0
 11
29.46005186782361
 21
5.512324130412343
 31
0.0
  0
LINE
  5
7C0
  8
0
  6
CONTINUOUS
 62
     7
 10
29.46005186782361
 20
5.512324130412343
 30
0.0
 11
29.40815851082361
 21
5.463016691412341
 31
0.0
  0
LINE
  5
7C1
  8
0
  6
CONTINUOUS
 62
     7
 10
29.40815851082361
 20
5.463016691412341
 30
0.0
 11
29.37123033282361
 21
5.414240938412344
 31
0.0
  0
LINE
  5
7C2
  8
0
  6
CONTINUOUS
 62
     7
 10
29.37123033282361
 20
5.414240938412344
 30
0.0
 11
29.34920440082361
 21
5.366612193412341
 31
0.0
  0
LINE
  5
7C3
  8
0
  6
CONTINUOUS
 62
     7
 10
29.34920440082361
 20
5.366612193412341
 30
0.0
 11
29.34201067482361
 21
5.320724354412342
 31
0.0
  0
LINE
  5
7C4
  8
0
  6
CONTINUOUS
 62
     7
 10
29.34201067482361
 20
5.320724354412342
 30
0.0
 11
29.36016967782362
 21
5.208582280412341
 31
0.0
  0
LINE
  5
7C5
  8
0
  6
CONTINUOUS
 62
     7
 10
29.36016967782362
 20
5.208582280412341
 30
0.0
 11
29.47464274482361
 21
4.515349226412341
 31
0.0
  0
LINE
  5
7C6
  8
0
  6
CONTINUOUS
 62
     7
 10
29.47464274482361
 20
4.515349226412341
 30
0.0
 11
29.57294800482361
 21
3.819639331412342
 31
0.0
  0
LINE
  5
7C7
  8
0
  6
CONTINUOUS
 62
     7
 10
29.57294800482361
 20
3.819639331412342
 30
0.0
 11
29.58919295882361
 21
3.707204016412343
 31
0.0
  0
LINE
  5
7C8
  8
0
  6
CONTINUOUS
 62
     7
 10
29.58919295882361
 20
3.707204016412343
 30
0.0
 11
29.60979388582361
 21
3.665574094412343
 31
0.0
  0
LINE
  5
7C9
  8
0
  6
CONTINUOUS
 62
     7
 10
29.60979388582361
 20
3.665574094412343
 30
0.0
 11
29.64506798682361
 21
3.626723421412343
 31
0.0
  0
LINE
  5
7CA
  8
0
  6
CONTINUOUS
 62
     7
 10
29.64506798682361
 20
3.626723421412343
 30
0.0
 11
29.69490422782361
 21
3.591239406412344
 31
0.0
  0
LINE
  5
7CB
  8
0
  6
CONTINUOUS
 62
     7
 10
29.69490422782361
 20
3.591239406412344
 30
0.0
 11
29.75917859682361
 21
3.559728307412342
 31
0.0
  0
LINE
  5
7CC
  8
0
  6
CONTINUOUS
 62
     7
 10
29.75917859682361
 20
3.559728307412342
 30
0.0
 11
29.83772928082362
 21
3.532769602412343
 31
0.0
  0
LINE
  5
7CD
  8
0
  6
CONTINUOUS
 62
     7
 10
29.83772928082362
 20
3.532769602412343
 30
0.0
 11
29.93039467282361
 21
3.510942872412342
 31
0.0
  0
LINE
  5
7CE
  8
0
  6
CONTINUOUS
 62
     7
 10
29.93039467282361
 20
3.510942872412342
 30
0.0
 11
30.03698082382361
 21
3.494833363412342
 31
0.0
  0
LINE
  5
7CF
  8
0
  6
CONTINUOUS
 62
     7
 10
30.03698082382361
 20
3.494833363412342
 30
0.0
 11
30.40613498682361
 21
3.469399882412342
 31
0.0
  0
LINE
  5
7D0
  8
0
  6
CONTINUOUS
 62
     7
 10
30.40613498682361
 20
3.469399882412342
 30
0.0
 11
30.68255886782361
 21
3.439961967412343
 31
0.0
  0
LINE
  5
7D1
  8
0
  6
CONTINUOUS
 62
     7
 10
30.68255886782361
 20
3.439961967412343
 30
0.0
 11
31.01019414282361
 21
3.391162215412343
 31
0.0
  0
LINE
  5
7D2
  8
0
  6
CONTINUOUS
 62
     7
 10
31.01019414282361
 20
3.391162215412343
 30
0.0
 11
31.38646426682361
 21
3.318938203412344
 31
0.0
  0
LINE
  5
7D3
  8
0
  6
CONTINUOUS
 62
     7
 10
31.38646426682361
 20
3.318938203412344
 30
0.0
 11
31.81110803182361
 21
3.218873394412342
 31
0.0
  0
LINE
  5
7D4
  8
0
  6
CONTINUOUS
 62
     7
 10
31.81110803182361
 20
3.218873394412342
 30
0.0
 11
32.28289314582361
 21
3.086631694412342
 31
0.0
  0
LINE
  5
7D5
  8
0
  6
CONTINUOUS
 62
     7
 10
32.28289314582361
 20
3.086631694412342
 30
0.0
 11
32.79770867282361
 21
2.918780319412343
 31
0.0
  0
LINE
  5
7D6
  8
0
  6
CONTINUOUS
 62
     7
 10
32.79770867282361
 20
2.918780319412343
 30
0.0
 11
33.35573465682361
 21
2.710605783412342
 31
0.0
  0
LINE
  5
7D7
  8
0
  6
CONTINUOUS
 62
     7
 10
33.35573465682361
 20
2.710605783412342
 30
0.0
 11
33.89921069376383
 21
2.4824279381174
 31
0.0
  0
LINE
  5
7D8
  8
0
  6
CONTINUOUS
 62
     7
 10
33.97642783636106
 20
0.9598348764075055
 30
0.0
 11
33.45882457582361
 21
0.6778451634123426
 31
0.0
  0
LINE
  5
7D9
  8
0
  6
CONTINUOUS
 62
     7
 10
33.45882457582361
 20
0.6778451634123426
 30
0.0
 11
32.92472229882361
 21
0.4142841284123425
 31
0.0
  0
LINE
  5
7DA
  8
0
  6
CONTINUOUS
 62
     7
 10
32.92472229882361
 20
0.4142841284123425
 30
0.0
 11
32.42952940482361
 21
0.1952109564123424
 31
0.0
  0
LINE
  5
7DB
  8
0
  6
CONTINUOUS
 62
     7
 10
32.42952940482361
 20
0.1952109564123424
 30
0.0
 11
31.97354356382361
 21
0.0159180324123424
 31
0.0
  0
LINE
  5
7DC
  8
0
  6
CONTINUOUS
 62
     7
 10
31.97354356382361
 20
0.0159180324123424
 30
0.0
 11
31.56120191282361
 21
-0.1265939005876577
 31
0.0
  0
LINE
  5
7DD
  8
0
  6
CONTINUOUS
 62
     7
 10
31.56120191282361
 20
-0.1265939005876577
 30
0.0
 11
31.19416903482361
 21
-0.2365139555876578
 31
0.0
  0
LINE
  5
7DE
  8
0
  6
CONTINUOUS
 62
     7
 10
31.19416903482361
 20
-0.2365139555876578
 30
0.0
 11
30.87315171582361
 21
-0.3182096415876579
 31
0.0
  0
LINE
  5
7DF
  8
0
  6
CONTINUOUS
 62
     7
 10
30.87315171582361
 20
-0.3182096415876579
 30
0.0
 11
30.60112428682361
 21
-0.3754617795876579
 31
0.0
  0
LINE
  5
7E0
  8
0
  6
CONTINUOUS
 62
     7
 10
30.60112428682361
 20
-0.3754617795876579
 30
0.0
 11
30.23643713082361
 21
-0.4381115295876578
 31
0.0
  0
LINE
  5
7E1
  8
0
  6
CONTINUOUS
 62
     7
 10
30.23643713082361
 20
-0.4381115295876578
 30
0.0
 11
30.13202767882361
 21
-0.4649216055876577
 31
0.0
  0
LINE
  5
7E2
  8
0
  6
CONTINUOUS
 62
     7
 10
30.13202767882361
 20
-0.4649216055876577
 30
0.0
 11
30.04204595182361
 21
-0.4960111255876575
 31
0.0
  0
LINE
  5
7E3
  8
0
  6
CONTINUOUS
 62
     7
 10
30.04204595182361
 20
-0.4960111255876575
 30
0.0
 11
29.96662554082361
 21
-0.5307783635876574
 31
0.0
  0
LINE
  5
7E4
  8
0
  6
CONTINUOUS
 62
     7
 10
29.96662554082361
 20
-0.5307783635876574
 30
0.0
 11
29.90586893082361
 21
-0.5686303485876569
 31
0.0
  0
LINE
  5
7E5
  8
0
  6
CONTINUOUS
 62
     7
 10
29.90586893082361
 20
-0.5686303485876569
 30
0.0
 11
29.85987819482361
 21
-0.6089741095876582
 31
0.0
  0
LINE
  5
7E6
  8
0
  6
CONTINUOUS
 62
     7
 10
29.85987819482361
 20
-0.6089741095876582
 30
0.0
 11
29.82871564782361
 21
-0.6511940155876582
 31
0.0
  0
LINE
  5
7E7
  8
0
  6
CONTINUOUS
 62
     7
 10
29.82871564782361
 20
-0.6511940155876582
 30
0.0
 11
29.81243196582361
 21
-0.6946945205876582
 31
0.0
  0
LINE
  5
7E8
  8
0
  6
CONTINUOUS
 62
     7
 10
29.81243196582361
 20
-0.6946945205876582
 30
0.0
 11
29.80764524682361
 21
-0.808196503587658
 31
0.0
  0
LINE
  5
7E9
  8
0
  6
CONTINUOUS
 62
     7
 10
29.80764524682361
 20
-0.808196503587658
 30
0.0
 11
29.78022819182361
 21
-1.510282201587658
 31
0.0
  0
LINE
  5
7EA
  8
0
  6
CONTINUOUS
 62
     7
 10
29.78022819182361
 20
-1.510282201587658
 30
0.0
 11
29.73647574882361
 21
-2.211539573587658
 31
0.0
  0
LINE
  5
7EB
  8
0
  6
CONTINUOUS
 62
     7
 10
29.73647574882361
 20
-2.211539573587658
 30
0.0
 11
29.72975510182361
 21
-2.324943397587658
 31
0.0
  0
LINE
  5
7EC
  8
0
  6
CONTINUOUS
 62
     7
 10
29.72975510182361
 20
-2.324943397587658
 30
0.0
 11
29.74155436982361
 21
-2.369868083587658
 31
0.0
  0
LINE
  5
7ED
  8
0
  6
CONTINUOUS
 62
     7
 10
29.74155436982361
 20
-2.369868083587658
 30
0.0
 11
29.76828575382361
 21
-2.415024107587658
 31
0.0
  0
LINE
  5
7EE
  8
0
  6
CONTINUOUS
 62
     7
 10
29.76828575382361
 20
-2.415024107587658
 30
0.0
 11
29.80995893582361
 21
-2.459813657587657
 31
0.0
  0
LINE
  5
7EF
  8
0
  6
CONTINUOUS
 62
     7
 10
29.80995893582361
 20
-2.459813657587657
 30
0.0
 11
29.86657443082361
 21
-2.503618115587657
 31
0.0
  0
LINE
  5
7F0
  8
0
  6
CONTINUOUS
 62
     7
 10
29.86657443082361
 20
-2.503618115587657
 30
0.0
 11
29.93809052382361
 21
-2.545837197587657
 31
0.0
  0
LINE
  5
7F1
  8
0
  6
CONTINUOUS
 62
     7
 10
29.93809052382361
 20
-2.545837197587657
 30
0.0
 11
30.02446529382361
 21
-2.585870413587657
 31
0.0
  0
LINE
  5
7F2
  8
0
  6
CONTINUOUS
 62
     7
 10
30.02446529382361
 20
-2.585870413587657
 30
0.0
 11
30.12562684682361
 21
-2.623105943587658
 31
0.0
  0
LINE
  5
7F3
  8
0
  6
CONTINUOUS
 62
     7
 10
30.12562684682361
 20
-2.623105943587658
 30
0.0
 11
30.48210469682361
 21
-2.722328933587657
 31
0.0
  0
LINE
  5
7F4
  8
0
  6
CONTINUOUS
 62
     7
 10
30.48210469682361
 20
-2.722328933587657
 30
0.0
 11
30.74694427082361
 21
-2.806807988587658
 31
0.0
  0
LINE
  5
7F5
  8
0
  6
CONTINUOUS
 62
     7
 10
30.74694427082361
 20
-2.806807988587658
 30
0.0
 11
31.05804959082361
 21
-2.920561188587658
 31
0.0
  0
LINE
  5
7F6
  8
0
  6
CONTINUOUS
 62
     7
 10
31.05804959082361
 20
-2.920561188587658
 30
0.0
 11
31.41207892482361
 21
-3.067049436587657
 31
0.0
  0
LINE
  5
7F7
  8
0
  6
CONTINUOUS
 62
     7
 10
31.41207892482361
 20
-3.067049436587657
 30
0.0
 11
31.80788722182361
 21
-3.250546099587657
 31
0.0
  0
LINE
  5
7F8
  8
0
  6
CONTINUOUS
 62
     7
 10
31.80788722182361
 20
-3.250546099587657
 30
0.0
 11
32.24339480882361
 21
-3.475050461587657
 31
0.0
  0
LINE
  5
7F9
  8
0
  6
CONTINUOUS
 62
     7
 10
32.24339480882361
 20
-3.475050461587657
 30
0.0
 11
32.71388377082361
 21
-3.743097455587657
 31
0.0
  0
LINE
  5
7FA
  8
0
  6
CONTINUOUS
 62
     7
 10
32.71388377082361
 20
-3.743097455587657
 30
0.0
 11
33.21858171082361
 21
-4.059340518587657
 31
0.0
  0
LINE
  5
7FB
  8
0
  6
CONTINUOUS
 62
     7
 10
33.21858171082361
 20
-4.059340518587657
 30
0.0
 11
33.70500089707264
 21
-4.392248500678173
 31
0.0
  0
LINE
  5
7FC
  8
0
  6
CONTINUOUS
 62
     7
 10
33.47414174747413
 20
-5.899217660878778
 30
0.0
 11
32.9103696608236
 21
-6.071242196587658
 31
0.0
  0
LINE
  5
7FD
  8
0
  6
CONTINUOUS
 62
     7
 10
32.9103696608236
 20
-6.071242196587658
 30
0.0
 11
32.33414604882361
 21
-6.221894219587658
 31
0.0
  0
LINE
  5
7FE
  8
0
  6
CONTINUOUS
 62
     7
 10
32.33414604882361
 20
-6.221894219587658
 30
0.0
 11
31.80499075882361
 21
-6.33680132858766
 31
0.0
  0
LINE
  5
7FF
  8
0
  6
CONTINUOUS
 62
     7
 10
31.80499075882361
 20
-6.33680132858766
 30
0.0
 11
31.32224747482361
 21
-6.420634779587658
 31
0.0
  0
LINE
  5
800
  8
0
  6
CONTINUOUS
 62
     7
 10
31.32224747482361
 20
-6.420634779587658
 30
0.0
 11
30.88965911382361
 21
-6.477225760587658
 31
0.0
  0
LINE
  5
801
  8
0
  6
CONTINUOUS
 62
     7
 10
30.88965911382361
 20
-6.477225760587658
 30
0.0
 11
30.50801269882361
 21
-6.51101264458766
 31
0.0
  0
LINE
  5
802
  8
0
  6
CONTINUOUS
 62
     7
 10
30.50801269882361
 20
-6.51101264458766
 30
0.0
 11
30.17712138782361
 21
-6.526415573587658
 31
0.0
  0
LINE
  5
803
  8
0
  6
CONTINUOUS
 62
     7
 10
30.17712138782361
 20
-6.526415573587658
 30
0.0
 11
29.89913757182361
 21
-6.527737166587658
 31
0.0
  0
LINE
  5
804
  8
0
  6
CONTINUOUS
 62
     7
 10
29.89913757182361
 20
-6.527737166587658
 30
0.0
 11
29.52930432982362
 21
-6.515693376587659
 31
0.0
  0
LINE
  5
805
  8
0
  6
CONTINUOUS
 62
     7
 10
29.52930432982362
 20
-6.515693376587659
 30
0.0
 11
29.42163523682361
 21
-6.520937209587658
 31
0.0
  0
LINE
  5
806
  8
0
  6
CONTINUOUS
 62
     7
 10
29.42163523682361
 20
-6.520937209587658
 30
0.0
 11
29.32723717882361
 21
-6.533277124587658
 31
0.0
  0
LINE
  5
807
  8
0
  6
CONTINUOUS
 62
     7
 10
29.32723717882361
 20
-6.533277124587658
 30
0.0
 11
29.24636209382361
 21
-6.552150638587659
 31
0.0
  0
LINE
  5
808
  8
0
  6
CONTINUOUS
 62
     7
 10
29.24636209382361
 20
-6.552150638587659
 30
0.0
 11
29.17922957782361
 21
-6.576997637587659
 31
0.0
  0
LINE
  5
809
  8
0
  6
CONTINUOUS
 62
     7
 10
29.17922957782361
 20
-6.576997637587659
 30
0.0
 11
29.12605912382361
 21
-6.607257698587658
 31
0.0
  0
LINE
  5
80A
  8
0
  6
CONTINUOUS
 62
     7
 10
29.12605912382361
 20
-6.607257698587658
 30
0.0
 11
29.08703561682361
 21
-6.64234042558766
 31
0.0
  0
LINE
  5
80B
  8
0
  6
CONTINUOUS
 62
     7
 10
29.08703561682361
 20
-6.64234042558766
 30
0.0
 11
29.06232869782361
 21
-6.681672520587658
 31
0.0
  0
LINE
  5
80C
  8
0
  6
CONTINUOUS
 62
     7
 10
29.06232869782361
 20
-6.681672520587658
 30
0.0
 11
29.03479226582362
 21
-6.791887464587659
 31
0.0
  0
LINE
  5
80D
  8
0
  6
CONTINUOUS
 62
     7
 10
29.03479226582362
 20
-6.791887464587659
 30
0.0
 11
28.86660758282361
 21
-7.474082523587659
 31
0.0
  0
LINE
  5
80E
  8
0
  6
CONTINUOUS
 62
     7
 10
28.86660758282361
 20
-7.474082523587659
 30
0.0
 11
28.68258870982361
 21
-8.152177770587658
 31
0.0
  0
LINE
  5
80F
  8
0
  6
CONTINUOUS
 62
     7
 10
28.68258870982361
 20
-8.152177770587658
 30
0.0
 11
28.65317757482361
 21
-8.261907378587656
 31
0.0
  0
LINE
  5
810
  8
0
  6
CONTINUOUS
 62
     7
 10
28.65317757482361
 20
-8.261907378587656
 30
0.0
 11
28.65569201082361
 21
-8.308287660587661
 31
0.0
  0
LINE
  5
811
  8
0
  6
CONTINUOUS
 62
     7
 10
28.65569201082361
 20
-8.308287660587661
 30
0.0
 11
28.67278640582361
 21
-8.35790028858766
 31
0.0
  0
LINE
  5
812
  8
0
  6
CONTINUOUS
 62
     7
 10
28.67278640582361
 20
-8.35790028858766
 30
0.0
 11
28.70459043682361
 21
-8.410161767587658
 31
0.0
  0
LINE
  5
813
  8
0
  6
CONTINUOUS
 62
     7
 10
28.70459043682361
 20
-8.410161767587658
 30
0.0
 11
28.75122924882361
 21
-8.464466148587656
 31
0.0
  0
LINE
  5
814
  8
0
  6
CONTINUOUS
 62
     7
 10
28.75122924882361
 20
-8.464466148587656
 30
0.0
 11
28.81278276982361
 21
-8.520217061587656
 31
0.0
  0
LINE
  5
815
  8
0
  6
CONTINUOUS
 62
     7
 10
28.81278276982361
 20
-8.520217061587656
 30
0.0
 11
28.88933082482361
 21
-8.576817930587659
 31
0.0
  0
LINE
  5
816
  8
0
  6
CONTINUOUS
 62
     7
 10
28.88933082482361
 20
-8.576817930587659
 30
0.0
 11
28.98092614982361
 21
-8.633654875587657
 31
0.0
  0
LINE
  5
817
  8
0
  6
CONTINUOUS
 62
     7
 10
28.98092614982361
 20
-8.633654875587657
 30
0.0
 11
29.31013341082361
 21
-8.80260526058766
 31
0.0
  0
LINE
  5
818
  8
0
  6
CONTINUOUS
 62
     7
 10
29.31013341082361
 20
-8.80260526058766
 30
0.0
 11
29.55254627982362
 21
-8.938666818587656
 31
0.0
  0
LINE
  5
819
  8
0
  6
CONTINUOUS
 62
     7
 10
29.55254627982362
 20
-8.938666818587656
 30
0.0
 11
29.83438487082361
 21
-9.112716527587656
 31
0.0
  0
LINE
  5
81A
  8
0
  6
CONTINUOUS
 62
     7
 10
29.83438487082361
 20
-9.112716527587656
 30
0.0
 11
30.15167925482361
 21
-9.327471733587654
 31
0.0
  0
LINE
  5
81B
  8
0
  6
CONTINUOUS
 62
     7
 10
30.15167925482361
 20
-9.327471733587654
 30
0.0
 11
30.50244781482361
 21
-9.586887842587654
 31
0.0
  0
LINE
  5
81C
  8
0
  6
CONTINUOUS
 62
     7
 10
30.50244781482361
 20
-9.586887842587654
 30
0.0
 11
30.88384816282361
 21
-9.894463661587656
 31
0.0
  0
LINE
  5
81D
  8
0
  6
CONTINUOUS
 62
     7
 10
30.88384816282361
 20
-9.894463661587656
 30
0.0
 11
31.29074863282361
 21
-10.25173244858766
 31
0.0
  0
LINE
  5
81E
  8
0
  6
CONTINUOUS
 62
     7
 10
31.29074863282361
 20
-10.25173244858766
 30
0.0
 11
31.72145611082361
 21
-10.66309683558766
 31
0.0
  0
LINE
  5
81F
  8
0
  6
CONTINUOUS
 62
     7
 10
31.72145611082361
 20
-10.66309683558766
 30
0.0
 11
32.1309043579982
 21
-11.08710572356582
 31
0.0
  0
LINE
  5
820
  8
0
  6
CONTINUOUS
 62
     7
 10
31.60142019580576
 20
-12.51675549583925
 30
0.0
 11
31.01456041582361
 21
-12.57177222258766
 31
0.0
  0
LINE
  5
821
  8
0
  6
CONTINUOUS
 62
     7
 10
31.01456041582361
 20
-12.57177222258766
 30
0.0
 11
30.41980607382361
 21
-12.60334738758766
 31
0.0
  0
LINE
  5
822
  8
0
  6
CONTINUOUS
 62
     7
 10
30.41980607382361
 20
-12.60334738758766
 30
0.0
 11
29.87835196582361
 21
-12.60938421758766
 31
0.0
  0
LINE
  5
823
  8
0
  6
CONTINUOUS
 62
     7
 10
29.87835196582361
 20
-12.60938421758766
 30
0.0
 11
29.38861498182361
 21
-12.59432613258766
 31
0.0
  0
LINE
  5
824
  8
0
  6
CONTINUOUS
 62
     7
 10
29.38861498182361
 20
-12.59432613258766
 30
0.0
 11
28.95348993682361
 21
-12.56267927958766
 31
0.0
  0
LINE
  5
825
  8
0
  6
CONTINUOUS
 62
     7
 10
28.95348993682361
 20
-12.56267927958766
 30
0.0
 11
28.57285467282361
 21
-12.51894959958766
 31
0.0
  0
LINE
  5
826
  8
0
  6
CONTINUOUS
 62
     7
 10
28.57285467282361
 20
-12.51894959958766
 30
0.0
 11
28.24563613582361
 21
-12.46742930858766
 31
0.0
  0
LINE
  5
827
  8
0
  6
CONTINUOUS
 62
     7
 10
28.24563613582361
 20
-12.46742930858766
 30
0.0
 11
27.97307660882361
 21
-12.41276607558766
 31
0.0
  0
LINE
  5
828
  8
0
  6
CONTINUOUS
 62
     7
 10
27.97307660882361
 20
-12.41276607558766
 30
0.0
 11
27.61323828082361
 21
-12.32652201258766
 31
0.0
  0
LINE
  5
829
  8
0
  6
CONTINUOUS
 62
     7
 10
27.61323828082361
 20
-12.32652201258766
 30
0.0
 11
27.50671763782361
 21
-12.30998484758766
 31
0.0
  0
LINE
  5
82A
  8
0
  6
CONTINUOUS
 62
     7
 10
27.50671763782361
 20
-12.30998484758766
 30
0.0
 11
27.41176791182361
 21
-12.30306994258766
 31
0.0
  0
LINE
  5
82B
  8
0
  6
CONTINUOUS
 62
     7
 10
27.41176791182361
 20
-12.30306994258766
 30
0.0
 11
27.32874908782361
 21
-12.30527712958766
 31
0.0
  0
LINE
  5
82C
  8
0
  6
CONTINUOUS
 62
     7
 10
27.32874908782361
 20
-12.30527712958766
 30
0.0
 11
27.25798911782361
 21
-12.31610181158766
 31
0.0
  0
LINE
  5
82D
  8
0
  6
CONTINUOUS
 62
     7
 10
27.25798911782361
 20
-12.31610181158766
 30
0.0
 11
27.19981585082361
 21
-12.33503928858766
 31
0.0
  0
LINE
  5
82E
  8
0
  6
CONTINUOUS
 62
     7
 10
27.19981585082361
 20
-12.33503928858766
 30
0.0
 11
27.15452901682361
 21
-12.36154850158766
 31
0.0
  0
LINE
  5
82F
  8
0
  6
CONTINUOUS
 62
     7
 10
27.15452901682361
 20
-12.36154850158766
 30
0.0
 11
27.12241032082361
 21
-12.39510209058766
 31
0.0
  0
LINE
  5
830
  8
0
  6
CONTINUOUS
 62
     7
 10
27.12241032082361
 20
-12.39510209058766
 30
0.0
 11
27.07325140782361
 21
-12.49751787458766
 31
0.0
  0
LINE
  5
831
  8
0
  6
CONTINUOUS
 62
     7
 10
27.07325140782361
 20
-12.49751787458766
 30
0.0
 11
26.77118464682361
 21
-13.13189302058766
 31
0.0
  0
LINE
  5
832
  8
0
  6
CONTINUOUS
 62
     7
 10
26.77118464682361
 20
-13.13189302058766
 30
0.0
 11
26.45443307282361
 21
-13.75906486158766
 31
0.0
  0
LINE
  5
833
  8
0
  6
CONTINUOUS
 62
     7
 10
26.45443307282361
 20
-13.75906486158766
 30
0.0
 11
26.40353562282361
 21
-13.86062790858766
 31
0.0
  0
LINE
  5
834
  8
0
  6
CONTINUOUS
 62
     7
 10
26.40353562282361
 20
-13.86062790858766
 30
0.0
 11
26.39666232982361
 21
-13.90656487858766
 31
0.0
  0
LINE
  5
835
  8
0
  6
CONTINUOUS
 62
     7
 10
26.39666232982361
 20
-13.90656487858766
 30
0.0
 11
26.40341985082361
 21
-13.95860305358766
 31
0.0
  0
LINE
  5
836
  8
0
  6
CONTINUOUS
 62
     7
 10
26.40341985082361
 20
-13.95860305358766
 30
0.0
 11
26.42405270782361
 21
-14.01619684258766
 31
0.0
  0
LINE
  5
837
  8
0
  6
CONTINUOUS
 62
     7
 10
26.42405270782361
 20
-14.01619684258766
 30
0.0
 11
26.45880542282361
 21
-14.07877799458766
 31
0.0
  0
LINE
  5
838
  8
0
  6
CONTINUOUS
 62
     7
 10
26.45880542282361
 20
-14.07877799458766
 30
0.0
 11
26.50787637382361
 21
-14.14577825858766
 31
0.0
  0
LINE
  5
839
  8
0
  6
CONTINUOUS
 62
     7
 10
26.50787637382361
 20
-14.14577825858766
 30
0.0
 11
26.57146373282361
 21
-14.21662958958766
 31
0.0
  0
LINE
  5
83A
  8
0
  6
CONTINUOUS
 62
     7
 10
26.57146373282361
 20
-14.21662958958766
 30
0.0
 11
26.64974290882361
 21
-14.29074097358766
 31
0.0
  0
LINE
  5
83B
  8
0
  6
CONTINUOUS
 62
     7
 10
26.64974290882361
 20
-14.29074097358766
 30
0.0
 11
26.93820182482361
 21
-14.52250189158766
 31
0.0
  0
LINE
  5
83C
  8
0
  6
CONTINUOUS
 62
     7
 10
26.93820182482361
 20
-14.52250189158766
 30
0.0
 11
27.14826352682361
 21
-14.70457560958766
 31
0.0
  0
LINE
  5
83D
  8
0
  6
CONTINUOUS
 62
     7
 10
27.14826352682361
 20
-14.70457560958766
 30
0.0
 11
27.38929691682361
 21
-14.93179628758766
 31
0.0
  0
LINE
  5
83E
  8
0
  6
CONTINUOUS
 62
     7
 10
27.38929691682361
 20
-14.93179628758766
 30
0.0
 11
27.65686640282361
 21
-15.20602626858766
 31
0.0
  0
LINE
  5
83F
  8
0
  6
CONTINUOUS
 62
     7
 10
27.65686640282361
 20
-15.20602626858766
 30
0.0
 11
27.94823455382361
 21
-15.53074128758766
 31
0.0
  0
LINE
  5
840
  8
0
  6
CONTINUOUS
 62
     7
 10
27.94823455382361
 20
-15.53074128758766
 30
0.0
 11
28.25991306882361
 21
-15.90879629858766
 31
0.0
  0
LINE
  5
841
  8
0
  6
CONTINUOUS
 62
     7
 10
28.25991306882361
 20
-15.90879629858766
 30
0.0
 11
28.58656665082361
 21
-16.34066026058765
 31
0.0
  0
LINE
  5
842
  8
0
  6
CONTINUOUS
 62
     7
 10
28.58656665082361
 20
-16.34066026058765
 30
0.0
 11
28.92565047882361
 21
-16.83030485358766
 31
0.0
  0
LINE
  5
843
  8
0
  6
CONTINUOUS
 62
     7
 10
28.92565047882361
 20
-16.83030485358766
 30
0.0
 11
29.24136494079935
 21
-17.32805543526144
 31
0.0
  0
LINE
  5
844
  8
0
  6
CONTINUOUS
 62
     7
 10
28.43493292667796
 20
-18.62185584969458
 30
0.0
 11
27.84901135782361
 21
-18.55761248458766
 31
0.0
  0
LINE
  5
845
  8
0
  6
CONTINUOUS
 62
     7
 10
27.84901135782361
 20
-18.55761248458766
 30
0.0
 11
27.26007569182361
 21
-18.46881803858766
 31
0.0
  0
LINE
  5
846
  8
0
  6
CONTINUOUS
 62
     7
 10
27.26007569182361
 20
-18.46881803858766
 30
0.0
 11
26.72849001382361
 21
-18.36573738958766
 31
0.0
  0
LINE
  5
847
  8
0
  6
CONTINUOUS
 62
     7
 10
26.72849001382361
 20
-18.36573738958766
 30
0.0
 11
26.25180910382361
 21
-18.25240422358765
 31
0.0
  0
LINE
  5
848
  8
0
  6
CONTINUOUS
 62
     7
 10
26.25180910382361
 20
-18.25240422358765
 30
0.0
 11
25.83196163682361
 21
-18.13381517358766
 31
0.0
  0
LINE
  5
849
  8
0
  6
CONTINUOUS
 62
     7
 10
25.83196163682361
 20
-18.13381517358766
 30
0.0
 11
25.46792059982361
 21
-18.01435927558766
 31
0.0
  0
LINE
  5
84A
  8
0
  6
CONTINUOUS
 62
     7
 10
25.46792059982361
 20
-18.01435927558766
 30
0.0
 11
25.15777122282361
 21
-17.89802510158766
 31
0.0
  0
LINE
  5
84B
  8
0
  6
CONTINUOUS
 62
     7
 10
25.15777122282361
 20
-17.89802510158766
 30
0.0
 11
24.90179469582361
 21
-17.78961502658766
 31
0.0
  0
LINE
  5
84C
  8
0
  6
CONTINUOUS
 62
     7
 10
24.90179469582361
 20
-17.78961502658766
 30
0.0
 11
24.56668306282361
 21
-17.63270142758766
 31
0.0
  0
LINE
  5
84D
  8
0
  6
CONTINUOUS
 62
     7
 10
24.56668306282361
 20
-17.63270142758766
 30
0.0
 11
24.46567178682361
 21
-17.59506028358766
 31
0.0
  0
LINE
  5
84E
  8
0
  6
CONTINUOUS
 62
     7
 10
24.46567178682361
 20
-17.59506028358766
 30
0.0
 11
24.37405761282361
 21
-17.56917370558766
 31
0.0
  0
LINE
  5
84F
  8
0
  6
CONTINUOUS
 62
     7
 10
24.37405761282361
 20
-17.56917370558766
 30
0.0
 11
24.29229394682361
 21
-17.55462413158766
 31
0.0
  0
LINE
  5
850
  8
0
  6
CONTINUOUS
 62
     7
 10
24.29229394682361
 20
-17.55462413158766
 30
0.0
 11
24.22080350082361
 21
-17.55098339058766
 31
0.0
  0
LINE
  5
851
  8
0
  6
CONTINUOUS
 62
     7
 10
24.22080350082361
 20
-17.55098339058766
 30
0.0
 11
24.16000888382361
 21
-17.55782300258766
 31
0.0
  0
LINE
  5
852
  8
0
  6
CONTINUOUS
 62
     7
 10
24.16000888382361
 20
-17.55782300258766
 30
0.0
 11
24.11031282582361
 21
-17.57467339058766
 31
0.0
  0
LINE
  5
853
  8
0
  6
CONTINUOUS
 62
     7
 10
24.11031282582361
 20
-17.57467339058766
 30
0.0
 11
24.07209735382362
 21
-17.60107465958766
 31
0.0
  0
LINE
  5
854
  8
0
  6
CONTINUOUS
 62
     7
 10
24.07209735382362
 20
-17.60107465958766
 30
0.0
 11
24.00332847682361
 21
-17.69149835958766
 31
0.0
  0
LINE
  5
855
  8
0
  6
CONTINUOUS
 62
     7
 10
24.00332847682361
 20
-17.69149835958766
 30
0.0
 11
23.57974633282361
 21
-18.25208224558766
 31
0.0
  0
LINE
  5
856
  8
0
  6
CONTINUOUS
 62
     7
 10
23.57974633282361
 20
-18.25208224558766
 30
0.0
 11
23.14322986082361
 21
-18.80265422258766
 31
0.0
  0
LINE
  5
857
  8
0
  6
CONTINUOUS
 62
     7
 10
23.14322986082361
 20
-18.80265422258766
 30
0.0
 11
23.07292978582361
 21
-18.89189270158766
 31
0.0
  0
LINE
  5
858
  8
0
  6
CONTINUOUS
 62
     7
 10
23.07292978582361
 20
-18.89189270158766
 30
0.0
 11
23.05695015982361
 21
-18.93550578558766
 31
0.0
  0
LINE
  5
859
  8
0
  6
CONTINUOUS
 62
     7
 10
23.05695015982361
 20
-18.93550578558766
 30
0.0
 11
23.05309414882361
 21
-18.98783895258766
 31
0.0
  0
LINE
  5
85A
  8
0
  6
CONTINUOUS
 62
     7
 10
23.05309414882361
 20
-18.98783895258766
 30
0.0
 11
23.06171112882361
 21
-19.04840717558766
 31
0.0
  0
LINE
  5
85B
  8
0
  6
CONTINUOUS
 62
     7
 10
23.06171112882361
 20
-19.04840717558766
 30
0.0
 11
23.08315500782361
 21
-19.11670297358766
 31
0.0
  0
LINE
  5
85C
  8
0
  6
CONTINUOUS
 62
     7
 10
23.08315500782361
 20
-19.11670297358766
 30
0.0
 11
23.11773437382361
 21
-19.19220959558766
 31
0.0
  0
LINE
  5
85D
  8
0
  6
CONTINUOUS
 62
     7
 10
23.11773437382361
 20
-19.19220959558766
 30
0.0
 11
23.16575781482361
 21
-19.27441059958766
 31
0.0
  0
LINE
  5
85E
  8
0
  6
CONTINUOUS
 62
     7
 10
23.16575781482361
 20
-19.27441059958766
 30
0.0
 11
23.22751609982361
 21
-19.36276245458766
 31
0.0
  0
LINE
  5
85F
  8
0
  6
CONTINUOUS
 62
     7
 10
23.22751609982361
 20
-19.36276245458766
 30
0.0
 11
23.46341710282362
 21
-19.64784564858765
 31
0.0
  0
LINE
  5
860
  8
0
  6
CONTINUOUS
 62
     7
 10
23.46341710282362
 20
-19.64784564858765
 30
0.0
 11
23.63252765282361
 21
-19.86847741658766
 31
0.0
  0
LINE
  5
861
  8
0
  6
CONTINUOUS
 62
     7
 10
23.63252765282361
 20
-19.86847741658766
 30
0.0
 11
23.82288782382361
 21
-20.13956641258766
 31
0.0
  0
LINE
  5
862
  8
0
  6
CONTINUOUS
 62
     7
 10
23.82288782382361
 20
-20.13956641258766
 30
0.0
 11
24.02977815582361
 21
-20.46204427158766
 31
0.0
  0
LINE
  5
863
  8
0
  6
CONTINUOUS
 62
     7
 10
24.02977815582361
 20
-20.46204427158766
 30
0.0
 11
24.24981736482361
 21
-20.83876440258766
 31
0.0
  0
LINE
  5
864
  8
0
  6
CONTINUOUS
 62
     7
 10
24.24981736482361
 20
-20.83876440258766
 30
0.0
 11
24.47901389182361
 21
-21.27182100158766
 31
0.0
  0
LINE
  5
865
  8
0
  6
CONTINUOUS
 62
     7
 10
24.47901389182361
 20
-21.27182100158766
 30
0.0
 11
24.71204716882361
 21
-21.76059957058766
 31
0.0
  0
LINE
  5
866
  8
0
  6
CONTINUOUS
 62
     7
 10
24.71204716882361
 20
-21.76059957058766
 30
0.0
 11
24.94562521282361
 21
-22.30847809758766
 31
0.0
  0
LINE
  5
867
  8
0
  6
CONTINUOUS
 62
     7
 10
24.94562521282361
 20
-22.30847809758766
 30
0.0
 11
25.15468054091262
 21
-22.85959269291671
 31
0.0
  0
LINE
  5
868
  8
0
  6
CONTINUOUS
 62
     7
 10
24.10431619305042
 20
-23.964575348366
 30
0.0
 11
23.54332058882361
 21
-23.78370177758766
 31
0.0
  0
LINE
  5
869
  8
0
  6
CONTINUOUS
 62
     7
 10
23.54332058882361
 20
-23.78370177758766
 30
0.0
 11
22.98431466282361
 21
-23.57817320858766
 31
0.0
  0
LINE
  5
86A
  8
0
  6
CONTINUOUS
 62
     7
 10
22.98431466282361
 20
-23.57817320858766
 30
0.0
 11
22.48436049082361
 21
-23.37019519658766
 31
0.0
  0
LINE
  5
86B
  8
0
  6
CONTINUOUS
 62
     7
 10
22.48436049082361
 20
-23.37019519658766
 30
0.0
 11
22.04025106482361
 21
-23.16322679058766
 31
0.0
  0
LINE
  5
86C
  8
0
  6
CONTINUOUS
 62
     7
 10
22.04025106482361
 20
-23.16322679058766
 30
0.0
 11
21.65286971282362
 21
-22.96255055158765
 31
0.0
  0
LINE
  5
86D
  8
0
  6
CONTINUOUS
 62
     7
 10
21.65286971282362
 20
-22.96255055158765
 30
0.0
 11
21.32032689982361
 21
-22.77225908158766
 31
0.0
  0
LINE
  5
86E
  8
0
  6
CONTINUOUS
 62
     7
 10
21.32032689982361
 20
-22.77225908158766
 30
0.0
 11
21.03994421382361
 21
-22.59587353858766
 31
0.0
  0
LINE
  5
86F
  8
0
  6
CONTINUOUS
 62
     7
 10
21.03994421382361
 20
-22.59587353858766
 30
0.0
 11
20.81103031882361
 21
-22.43815489158766
 31
0.0
  0
LINE
  5
870
  8
0
  6
CONTINUOUS
 62
     7
 10
20.81103031882361
 20
-22.43815489158766
 30
0.0
 11
20.51436487782361
 21
-22.21699586658766
 31
0.0
  0
LINE
  5
871
  8
0
  6
CONTINUOUS
 62
     7
 10
20.51436487782361
 20
-22.21699586658766
 30
0.0
 11
20.42299841882361
 21
-22.15979193258766
 31
0.0
  0
LINE
  5
872
  8
0
  6
CONTINUOUS
 62
     7
 10
20.42299841882361
 20
-22.15979193258766
 30
0.0
 11
20.33847054182361
 21
-22.11599344858766
 31
0.0
  0
LINE
  5
873
  8
0
  6
CONTINUOUS
 62
     7
 10
20.33847054182361
 20
-22.11599344858766
 30
0.0
 11
20.26130943082361
 21
-22.08528276258766
 31
0.0
  0
LINE
  5
874
  8
0
  6
CONTINUOUS
 62
     7
 10
20.26130943082361
 20
-22.08528276258766
 30
0.0
 11
20.19201525382361
 21
-22.06732553658766
 31
0.0
  0
LINE
  5
875
  8
0
  6
CONTINUOUS
 62
     7
 10
20.19201525382361
 20
-22.06732553658766
 30
0.0
 11
20.13108828182361
 21
-22.06178732958766
 31
0.0
  0
LINE
  5
876
  8
0
  6
CONTINUOUS
 62
     7
 10
20.13108828182361
 20
-22.06178732958766
 30
0.0
 11
20.07901755882361
 21
-22.06828910158766
 31
0.0
  0
LINE
  5
877
  8
0
  6
CONTINUOUS
 62
     7
 10
20.07901755882361
 20
-22.06828910158766
 30
0.0
 11
20.03626977782361
 21
-22.08645716858766
 31
0.0
  0
LINE
  5
878
  8
0
  6
CONTINUOUS
 62
     7
 10
20.03626977782361
 20
-22.08645716858766
 30
0.0
 11
19.95070654482361
 21
-22.16118686158766
 31
0.0
  0
LINE
  5
879
  8
0
  6
CONTINUOUS
 62
     7
 10
19.95070654482361
 20
-22.16118686158766
 30
0.0
 11
19.42295040682361
 21
-22.62502913058766
 31
0.0
  0
LINE
  5
87A
  8
0
  6
CONTINUOUS
 62
     7
 10
19.42295040682361
 20
-22.62502913058766
 30
0.0
 11
18.88454015482361
 21
-23.07646072358766
 31
0.0
  0
LINE
  5
87B
  8
0
  6
CONTINUOUS
 62
     7
 10
18.88454015482361
 20
-23.07646072358766
 30
0.0
 11
18.79771558382361
 21
-23.14972112158766
 31
0.0
  0
LINE
  5
87C
  8
0
  6
CONTINUOUS
 62
     7
 10
18.79771558382361
 20
-23.14972112158766
 30
0.0
 11
18.77328377782361
 21
-23.18922481458766
 31
0.0
  0
LINE
  5
87D
  8
0
  6
CONTINUOUS
 62
     7
 10
18.77328377782361
 20
-23.18922481458766
 30
0.0
 11
18.75897203082361
 21
-23.23971047058766
 31
0.0
  0
LINE
  5
87E
  8
0
  6
CONTINUOUS
 62
     7
 10
18.75897203082361
 20
-23.23971047058766
 30
0.0
 11
18.75522035882361
 21
-23.30077350558766
 31
0.0
  0
LINE
  5
87F
  8
0
  6
CONTINUOUS
 62
     7
 10
18.75522035882361
 20
-23.30077350558766
 30
0.0
 11
18.76247742982362
 21
-23.37198780858766
 31
0.0
  0
LINE
  5
880
  8
0
  6
CONTINUOUS
 62
     7
 10
18.76247742982362
 20
-23.37198780858766
 30
0.0
 11
18.78114957882361
 21
-23.45290965558766
 31
0.0
  0
LINE
  5
881
  8
0
  6
CONTINUOUS
 62
     7
 10
18.78114957882361
 20
-23.45290965558766
 30
0.0
 11
18.81164314082361
 21
-23.54309511658766
 31
0.0
  0
LINE
  5
882
  8
0
  6
CONTINUOUS
 62
     7
 10
18.81164314082361
 20
-23.54309511658766
 30
0.0
 11
18.85435209082361
 21
-23.64207018558766
 31
0.0
  0
LINE
  5
883
  8
0
  6
CONTINUOUS
 62
     7
 10
18.85435209082361
 20
-23.64207018558766
 30
0.0
 11
19.02803738582361
 21
-23.96880421058766
 31
0.0
  0
LINE
  5
884
  8
0
  6
CONTINUOUS
 62
     7
 10
19.02803738582361
 20
-23.96880421058766
 30
0.0
 11
19.14927332982361
 21
-24.21896134058766
 31
0.0
  0
LINE
  5
885
  8
0
  6
CONTINUOUS
 62
     7
 10
19.14927332982361
 20
-24.21896134058766
 30
0.0
 11
19.28116699282361
 21
-24.52282040458766
 31
0.0
  0
LINE
  5
886
  8
0
  6
CONTINUOUS
 62
     7
 10
19.28116699282361
 20
-24.52282040458766
 30
0.0
 11
19.41890786282361
 21
-24.88034380758766
 31
0.0
  0
LINE
  5
887
  8
0
  6
CONTINUOUS
 62
     7
 10
19.41890786282361
 20
-24.88034380758766
 30
0.0
 11
19.55860974982361
 21
-25.29364593358766
 31
0.0
  0
LINE
  5
888
  8
0
  6
CONTINUOUS
 62
     7
 10
19.55860974982361
 20
-25.29364593358766
 30
0.0
 11
19.69594088582361
 21
-25.76397483358766
 31
0.0
  0
LINE
  5
889
  8
0
  6
CONTINUOUS
 62
     7
 10
19.69594088582361
 20
-25.76397483358766
 30
0.0
 11
19.82581368882361
 21
-26.28965727258766
 31
0.0
  0
LINE
  5
88A
  8
0
  6
CONTINUOUS
 62
     7
 10
19.82581368882361
 20
-26.28965727258766
 30
0.0
 11
19.94432322282361
 21
-26.87333973258766
 31
0.0
  0
LINE
  5
88B
  8
0
  6
CONTINUOUS
 62
     7
 10
19.94432322282361
 20
-26.87333973258766
 30
0.0
 11
20.03816067393439
 21
-27.45525544727407
 31
0.0
  0
LINE
  5
88C
  8
0
  6
CONTINUOUS
 62
     7
 10
18.78686588646513
 20
-28.32618224130033
 30
0.0
 11
18.27376344182361
 21
-28.03608366058766
 31
0.0
  0
LINE
  5
88D
  8
0
  6
CONTINUOUS
 62
     7
 10
18.27376344182361
 20
-28.03608366058766
 30
0.0
 11
17.76757292882361
 21
-27.72223514158766
 31
0.0
  0
LINE
  5
88E
  8
0
  6
CONTINUOUS
 62
     7
 10
17.76757292882361
 20
-27.72223514158766
 30
0.0
 11
17.31971862882361
 21
-27.41787436458766
 31
0.0
  0
LINE
  5
88F
  8
0
  6
CONTINUOUS
 62
     7
 10
17.31971862882361
 20
-27.41787436458766
 30
0.0
 11
16.92636255582361
 21
-27.12574401358766
 31
0.0
  0
LINE
  5
890
  8
0
  6
CONTINUOUS
 62
     7
 10
16.92636255582361
 20
-27.12574401358766
 30
0.0
 11
16.58730674382361
 21
-26.85119638058766
 31
0.0
  0
LINE
  5
891
  8
0
  6
CONTINUOUS
 62
     7
 10
16.58730674382361
 20
-26.85119638058766
 30
0.0
 11
16.29987648882361
 21
-26.59785984658766
 31
0.0
  0
LINE
  5
892
  8
0
  6
CONTINUOUS
 62
     7
 10
16.29987648882361
 20
-26.59785984658766
 30
0.0
 11
16.06073943182361
 21
-26.36864436758766
 31
0.0
  0
LINE
  5
893
  8
0
  6
CONTINUOUS
 62
     7
 10
16.06073943182361
 20
-26.36864436758766
 30
0.0
 11
15.86825993282361
 21
-26.16807421858766
 31
0.0
  0
LINE
  5
894
  8
0
  6
CONTINUOUS
 62
     7
 10
15.86825993282361
 20
-26.16807421858766
 30
0.0
 11
15.62218623782361
 21
-25.89172398258766
 31
0.0
  0
LINE
  5
895
  8
0
  6
CONTINUOUS
 62
     7
 10
15.62218623782361
 20
-25.89172398258766
 30
0.0
 11
15.54420514382361
 21
-25.81729896358766
 31
0.0
  0
LINE
  5
896
  8
0
  6
CONTINUOUS
 62
     7
 10
15.54420514382361
 20
-25.81729896358766
 30
0.0
 11
15.47022415782361
 21
-25.75738170058766
 31
0.0
  0
LINE
  5
897
  8
0
  6
CONTINUOUS
 62
     7
 10
15.47022415782361
 20
-25.75738170058766
 30
0.0
 11
15.40082450882361
 21
-25.71176732658766
 31
0.0
  0
LINE
  5
898
  8
0
  6
CONTINUOUS
 62
     7
 10
15.40082450882361
 20
-25.71176732658766
 30
0.0
 11
15.33656352982361
 21
-25.68022893258766
 31
0.0
  0
LINE
  5
899
  8
0
  6
CONTINUOUS
 62
     7
 10
15.33656352982361
 20
-25.68022893258766
 30
0.0
 11
15.27799855382361
 21
-25.66253960958766
 31
0.0
  0
LINE
  5
89A
  8
0
  6
CONTINUOUS
 62
     7
 10
15.27799855382361
 20
-25.66253960958766
 30
0.0
 11
15.22568495682361
 21
-25.65842640758766
 31
0.0
  0
LINE
  5
89B
  8
0
  6
CONTINUOUS
 62
     7
 10
15.22568495682361
 20
-25.65842640758766
 30
0.0
 11
15.18015504282361
 21
-25.66761761258766
 31
0.0
  0
LINE
  5
89C
  8
0
  6
CONTINUOUS
 62
     7
 10
15.18015504282361
 20
-25.66761761258766
 30
0.0
 11
15.08130027782361
 21
-25.72359378658766
 31
0.0
  0
LINE
  5
89D
  8
0
  6
CONTINUOUS
 62
     7
 10
15.08130027782361
 20
-25.72359378658766
 30
0.0
 11
14.47097655882361
 21
-26.07170453458766
 31
0.0
  0
LINE
  5
89E
  8
0
  6
CONTINUOUS
 62
     7
 10
14.47097655882361
 20
-26.07170453458766
 30
0.0
 11
13.85271504182361
 21
-26.40551414458766
 31
0.0
  0
LINE
  5
89F
  8
0
  6
CONTINUOUS
 62
     7
 10
13.85271504182361
 20
-26.40551414458766
 30
0.0
 11
13.75292060782361
 21
-26.45979730758766
 31
0.0
  0
LINE
  5
8A0
  8
0
  6
CONTINUOUS
 62
     7
 10
13.75292060782361
 20
-26.45979730758766
 30
0.0
 11
13.72103685482361
 21
-26.49357420058766
 31
0.0
  0
LINE
  5
8A1
  8
0
  6
CONTINUOUS
 62
     7
 10
13.72103685482361
 20
-26.49357420058766
 30
0.0
 11
13.69685544182361
 21
-26.54014554758766
 31
0.0
  0
LINE
  5
8A2
  8
0
  6
CONTINUOUS
 62
     7
 10
13.69685544182361
 20
-26.54014554758766
 30
0.0
 11
13.68088869082361
 21
-26.59920337858766
 31
0.0
  0
LINE
  5
8A3
  8
0
  6
CONTINUOUS
 62
     7
 10
13.68088869082361
 20
-26.59920337858766
 30
0.0
 11
13.67366179882361
 21
-26.67042077158765
 31
0.0
  0
LINE
  5
8A4
  8
0
  6
CONTINUOUS
 62
     7
 10
13.67366179882361
 20
-26.67042077158765
 30
0.0
 11
13.67566236782361
 21
-26.75344484858766
 31
0.0
  0
LINE
  5
8A5
  8
0
  6
CONTINUOUS
 62
     7
 10
13.67566236782361
 20
-26.75344484858766
 30
0.0
 11
13.68737748482361
 21
-26.84792242258765
 31
0.0
  0
LINE
  5
8A6
  8
0
  6
CONTINUOUS
 62
     7
 10
13.68737748482361
 20
-26.84792242258765
 30
0.0
 11
13.70928857182361
 21
-26.95346878858766
 31
0.0
  0
LINE
  5
8A7
  8
0
  6
CONTINUOUS
 62
     7
 10
13.70928857182361
 20
-26.95346878858766
 30
0.0
 11
13.81364745082361
 21
-27.30847713758766
 31
0.0
  0
LINE
  5
8A8
  8
0
  6
CONTINUOUS
 62
     7
 10
13.81364745082361
 20
-27.30847713758766
 30
0.0
 11
13.88204552782361
 21
-27.57791813358766
 31
0.0
  0
LINE
  5
8A9
  8
0
  6
CONTINUOUS
 62
     7
 10
13.88204552782361
 20
-27.57791813358766
 30
0.0
 11
13.95007301082361
 21
-27.90210723458766
 31
0.0
  0
LINE
  5
8AA
  8
0
  6
CONTINUOUS
 62
     7
 10
13.95007301082361
 20
-27.90210723458766
 30
0.0
 11
14.01302537482361
 21
-28.28003916058766
 31
0.0
  0
LINE
  5
8AB
  8
0
  6
CONTINUOUS
 62
     7
 10
14.01302537482361
 20
-28.28003916058766
 30
0.0
 11
14.06667034982361
 21
-28.71300275058766
 31
0.0
  0
LINE
  5
8AC
  8
0
  6
CONTINUOUS
 62
     7
 10
14.06667034982361
 20
-28.71300275058766
 30
0.0
 11
14.10651383982361
 21
-29.20134851358766
 31
0.0
  0
LINE
  5
8AD
  8
0
  6
CONTINUOUS
 62
     7
 10
14.10651383982361
 20
-29.20134851358766
 30
0.0
 11
14.12790899982361
 21
-29.74241348758766
 31
0.0
  0
LINE
  5
8AE
  8
0
  6
CONTINUOUS
 62
     7
 10
14.12790899982361
 20
-29.74241348758766
 30
0.0
 11
14.12649820882361
 21
-30.33800357158766
 31
0.0
  0
LINE
  5
8AF
  8
0
  6
CONTINUOUS
 62
     7
 10
14.12649820882361
 20
-30.33800357158766
 30
0.0
 11
14.10127598228971
 21
-30.92689679355757
 31
0.0
  0
LINE
  5
8B0
  8
0
  6
CONTINUOUS
 62
     7
 10
12.70027904165121
 20
-31.52811191882058
 30
0.0
 11
12.25607630082361
 21
-31.14066485558766
 31
0.0
  0
LINE
  5
8B1
  8
0
  6
CONTINUOUS
 62
     7
 10
12.25607630082361
 20
-31.14066485558766
 30
0.0
 11
11.82342480082361
 21
-30.73134543058766
 31
0.0
  0
LINE
  5
8B2
  8
0
  6
CONTINUOUS
 62
     7
 10
11.82342480082361
 20
-30.73134543058766
 30
0.0
 11
11.44600540282361
 21
-30.34306262258766
 31
0.0
  0
LINE
  5
8B3
  8
0
  6
CONTINUOUS
 62
     7
 10
11.44600540282361
 20
-30.34306262258766
 30
0.0
 11
11.11950683582361
 21
-29.97773017158766
 31
0.0
  0
LINE
  5
8B4
  8
0
  6
CONTINUOUS
 62
     7
 10
11.11950683582361
 20
-29.97773017158766
 30
0.0
 11
10.84265746182361
 21
-29.64055112258766
 31
0.0
  0
LINE
  5
8B5
  8
0
  6
CONTINUOUS
 62
     7
 10
10.84265746182361
 20
-29.64055112258766
 30
0.0
 11
10.61210730882361
 21
-29.33454110958766
 31
0.0
  0
LINE
  5
8B6
  8
0
  6
CONTINUOUS
 62
     7
 10
10.61210730882361
 20
-29.33454110958766
 30
0.0
 11
10.42400603082361
 21
-29.06187971558766
 31
0.0
  0
LINE
  5
8B7
  8
0
  6
CONTINUOUS
 62
     7
 10
10.42400603082361
 20
-29.06187971558766
 30
0.0
 11
10.27584114882361
 21
-28.82666943058766
 31
0.0
  0
LINE
  5
8B8
  8
0
  6
CONTINUOUS
 62
     7
 10
10.27584114882361
 20
-28.82666943058766
 30
0.0
 11
10.09043342382361
 21
-28.50644181258766
 31
0.0
  0
LINE
  5
8B9
  8
0
  6
CONTINUOUS
 62
     7
 10
10.09043342382361
 20
-28.50644181258766
 30
0.0
 11
10.02903028282361
 21
-28.41784286058766
 31
0.0
  0
LINE
  5
8BA
  8
0
  6
CONTINUOUS
 62
     7
 10
10.02903028282361
 20
-28.41784286058766
 30
0.0
 11
9.968624902823608
 21
-28.34425986658766
 31
0.0
  0
LINE
  5
8BB
  8
0
  6
CONTINUOUS
 62
     7
 10
9.968624902823608
 20
-28.34425986658766
 30
0.0
 11
9.909827970823606
 21
-28.28560909158766
 31
0.0
  0
LINE
  5
8BC
  8
0
  6
CONTINUOUS
 62
     7
 10
9.909827970823606
 20
-28.28560909158766
 30
0.0
 11
9.853231015823606
 21
-28.24178063458766
 31
0.0
  0
LINE
  5
8BD
  8
0
  6
CONTINUOUS
 62
     7
 10
9.853231015823606
 20
-28.24178063458766
 30
0.0
 11
9.799425772823607
 21
-28.21266438858767
 31
0.0
  0
LINE
  5
8BE
  8
0
  6
CONTINUOUS
 62
     7
 10
9.799425772823607
 20
-28.21266438858767
 30
0.0
 11
9.749010980823607
 21
-28.19810482358766
 31
0.0
  0
LINE
  5
8BF
  8
0
  6
CONTINUOUS
 62
     7
 10
9.749010980823607
 20
-28.19810482358766
 30
0.0
 11
9.702562924823606
 21
-28.19794270158766
 31
0.0
  0
LINE
  5
8C0
  8
0
  6
CONTINUOUS
 62
     7
 10
9.702562924823606
 20
-28.19794270158766
 30
0.0
 11
9.594463806823606
 21
-28.23287370958766
 31
0.0
  0
LINE
  5
8C1
  8
0
  6
CONTINUOUS
 62
     7
 10
9.594463806823606
 20
-28.23287370958766
 30
0.0
 11
8.926559276823607
 21
-28.45100144458766
 31
0.0
  0
LINE
  5
8C2
  8
0
  6
CONTINUOUS
 62
     7
 10
8.926559276823607
 20
-28.45100144458766
 30
0.0
 11
8.253758229823607
 21
-28.65352282558766
 31
0.0
  0
LINE
  5
8C3
  8
0
  6
CONTINUOUS
 62
     7
 10
8.253758229823607
 20
-28.65352282558766
 30
0.0
 11
8.14507942782361
 21
-28.68660632258766
 31
0.0
  0
LINE
  5
8C4
  8
0
  6
CONTINUOUS
 62
     7
 10
8.14507942782361
 20
-28.68660632258766
 30
0.0
 11
8.107049149823608
 21
-28.71327364058766
 31
0.0
  0
LINE
  5
8C5
  8
0
  6
CONTINUOUS
 62
     7
 10
8.107049149823608
 20
-28.71327364058766
 30
0.0
 11
8.073988003823606
 21
-28.75402394258766
 31
0.0
  0
LINE
  5
8C6
  8
0
  6
CONTINUOUS
 62
     7
 10
8.073988003823606
 20
-28.75402394258766
 30
0.0
 11
8.04645981182361
 21
-28.80865874758766
 31
0.0
  0
LINE
  5
8C7
  8
0
  6
CONTINUOUS
 62
     7
 10
8.04645981182361
 20
-28.80865874758766
 30
0.0
 11
8.02504497882361
 21
-28.87696360958765
 31
0.0
  0
LINE
  5
8C8
  8
0
  6
CONTINUOUS
 62
     7
 10
8.02504497882361
 20
-28.87696360958765
 30
0.0
 11
8.010291876823608
 21
-28.95869081358766
 31
0.0
  0
LINE
  5
8C9
  8
0
  6
CONTINUOUS
 62
     7
 10
8.010291876823608
 20
-28.95869081358766
 30
0.0
 11
8.00274898082361
 21
-29.05359274758766
 31
0.0
  0
LINE
  5
8CA
  8
0
  6
CONTINUOUS
 62
     7
 10
8.00274898082361
 20
-29.05359274758766
 30
0.0
 11
8.002965280823606
 21
-29.16138925158766
 31
0.0
  0
LINE
  5
8CB
  8
0
  6
CONTINUOUS
 62
     7
 10
8.002965280823606
 20
-29.16138925158766
 30
0.0
 11
8.033725303823607
 21
-29.53013780058766
 31
0.0
  0
LINE
  5
8CC
  8
0
  6
CONTINUOUS
 62
     7
 10
8.033725303823607
 20
-29.53013780058766
 30
0.0
 11
8.046485046823607
 21
-29.80783177458766
 31
0.0
  0
LINE
  5
8CD
  8
0
  6
CONTINUOUS
 62
     7
 10
8.046485046823607
 20
-29.80783177458766
 30
0.0
 11
8.047861229823608
 21
-30.13907843558766
 31
0.0
  0
LINE
  5
8CE
  8
0
  6
CONTINUOUS
 62
     7
 10
8.047861229823608
 20
-30.13907843558766
 30
0.0
 11
8.033447821823607
 21
-30.52194632758766
 31
0.0
  0
LINE
  5
8CF
  8
0
  6
CONTINUOUS
 62
     7
 10
8.033447821823607
 20
-30.52194632758766
 30
0.0
 11
7.998839821823608
 21
-30.95684580258766
 31
0.0
  0
LINE
  5
8D0
  8
0
  6
CONTINUOUS
 62
     7
 10
7.998839821823608
 20
-30.95684580258766
 30
0.0
 11
7.939564454823607
 21
-31.44321551058766
 31
0.0
  0
LINE
  5
8D1
  8
0
  6
CONTINUOUS
 62
     7
 10
7.939564454823607
 20
-31.44321551058766
 30
0.0
 11
7.851606059823607
 21
-31.97751163358766
 31
0.0
  0
LINE
  5
8D2
  8
0
  6
CONTINUOUS
 62
     7
 10
7.851606059823607
 20
-31.97751163358766
 30
0.0
 11
7.730332726823608
 21
-32.56062604858766
 31
0.0
  0
LINE
  5
8D3
  8
0
  6
CONTINUOUS
 62
     7
 10
7.730332726823608
 20
-32.56062604858766
 30
0.0
 11
7.587083551859846
 21
-33.13238741775932
 31
0.0
  0
LINE
  5
8D4
  8
0
  6
CONTINUOUS
 62
     7
 10
6.093741339185048
 20
-33.43927705526374
 30
0.0
 11
5.736623938823607
 21
-32.97034367158766
 31
0.0
  0
LINE
  5
8D5
  8
0
  6
CONTINUOUS
 62
     7
 10
5.736623938823607
 20
-32.97034367158766
 30
0.0
 11
5.395224258823607
 21
-32.48231092558765
 31
0.0
  0
LINE
  5
8D6
  8
0
  6
CONTINUOUS
 62
     7
 10
5.395224258823607
 20
-32.48231092558765
 30
0.0
 11
5.103691410823608
 21
-32.02600228258766
 31
0.0
  0
LINE
  5
8D7
  8
0
  6
CONTINUOUS
 62
     7
 10
5.103691410823608
 20
-32.02600228258766
 30
0.0
 11
4.857417071823608
 21
-31.60242456758765
 31
0.0
  0
LINE
  5
8D8
  8
0
  6
CONTINUOUS
 62
     7
 10
4.857417071823608
 20
-31.60242456758765
 30
0.0
 11
4.654108564823607
 21
-31.21641816258766
 31
0.0
  0
LINE
  5
8D9
  8
0
  6
CONTINUOUS
 62
     7
 10
4.654108564823607
 20
-31.21641816258766
 30
0.0
 11
4.489877124823608
 21
-30.87026276658766
 31
0.0
  0
LINE
  5
8DA
  8
0
  6
CONTINUOUS
 62
     7
 10
4.489877124823608
 20
-30.87026276658766
 30
0.0
 11
4.360512626823608
 21
-30.56531828858766
 31
0.0
  0
LINE
  5
8DB
  8
0
  6
CONTINUOUS
 62
     7
 10
4.360512626823608
 20
-30.56531828858766
 30
0.0
 11
4.262728134823607
 21
-30.30509744058766
 31
0.0
  0
LINE
  5
8DC
  8
0
  6
CONTINUOUS
 62
     7
 10
4.262728134823607
 20
-30.30509744058766
 30
0.0
 11
4.145577170823608
 21
-29.95410258958766
 31
0.0
  0
LINE
  5
8DD
  8
0
  6
CONTINUOUS
 62
     7
 10
4.145577170823608
 20
-29.95410258958766
 30
0.0
 11
4.103265697823608
 21
-29.85495695258766
 31
0.0
  0
LINE
  5
8DE
  8
0
  6
CONTINUOUS
 62
     7
 10
4.103265697823608
 20
-29.85495695258766
 30
0.0
 11
4.058908953823607
 21
-29.77072066858766
 31
0.0
  0
LINE
  5
8DF
  8
0
  6
CONTINUOUS
 62
     7
 10
4.058908953823607
 20
-29.77072066858766
 30
0.0
 11
4.013121951823608
 21
-29.70143473158766
 31
0.0
  0
LINE
  5
8E0
  8
0
  6
CONTINUOUS
 62
     7
 10
4.013121951823608
 20
-29.70143473158766
 30
0.0
 11
3.966506211823607
 21
-29.64711057458766
 31
0.0
  0
LINE
  5
8E1
  8
0
  6
CONTINUOUS
 62
     7
 10
3.966506211823607
 20
-29.64711057458766
 30
0.0
 11
3.919663356823607
 21
-29.60775942458766
 31
0.0
  0
LINE
  5
8E2
  8
0
  6
CONTINUOUS
 62
     7
 10
3.919663356823607
 20
-29.60775942458766
 30
0.0
 11
3.873211386823607
 21
-29.58334935158766
 31
0.0
  0
LINE
  5
8E3
  8
0
  6
CONTINUOUS
 62
     7
 10
3.873211386823607
 20
-29.58334935158766
 30
0.0
 11
3.827746774823607
 21
-29.57384070058766
 31
0.0
  0
LINE
  5
8E4
  8
0
  6
CONTINUOUS
 62
     7
 10
3.827746774823607
 20
-29.57384070058766
 30
0.0
 11
3.714828904823607
 21
-29.58629649058766
 31
0.0
  0
LINE
  5
8E5
  8
0
  6
CONTINUOUS
 62
     7
 10
3.714828904823607
 20
-29.58629649058766
 30
0.0
 11
3.016687591823607
 21
-29.66551090658766
 31
0.0
  0
LINE
  5
8E6
  8
0
  6
CONTINUOUS
 62
     7
 10
3.016687591823607
 20
-29.66551090658766
 30
0.0
 11
2.316891583823607
 21
-29.72845286758766
 31
0.0
  0
LINE
  5
8E7
  8
0
  6
CONTINUOUS
 62
     7
 10
2.316891583823607
 20
-29.72845286758766
 30
0.0
 11
2.203777807823607
 21
-29.73898224858766
 31
0.0
  0
LINE
  5
8E8
  8
0
  6
CONTINUOUS
 62
     7
 10
2.203777807823607
 20
-29.73898224858766
 30
0.0
 11
2.161157952823607
 21
-29.75744819158766
 31
0.0
  0
LINE
  5
8E9
  8
0
  6
CONTINUOUS
 62
     7
 10
2.161157952823607
 20
-29.75744819158766
 30
0.0
 11
2.120570493823609
 21
-29.79070926058766
 31
0.0
  0
LINE
  5
8EA
  8
0
  6
CONTINUOUS
 62
     7
 10
2.120570493823609
 20
-29.79070926058766
 30
0.0
 11
2.082607886823608
 21
-29.83868429158766
 31
0.0
  0
LINE
  5
8EB
  8
0
  6
CONTINUOUS
 62
     7
 10
2.082607886823608
 20
-29.83868429158766
 30
0.0
 11
2.047881745823608
 21
-29.90128017258766
 31
0.0
  0
LINE
  5
8EC
  8
0
  6
CONTINUOUS
 62
     7
 10
2.047881745823608
 20
-29.90128017258766
 30
0.0
 11
2.016979067823607
 21
-29.97836465158765
 31
0.0
  0
LINE
  5
8ED
  8
0
  6
CONTINUOUS
 62
     7
 10
2.016979067823607
 20
-29.97836465158765
 30
0.0
 11
1.990487055823608
 21
-30.06980547658766
 31
0.0
  0
LINE
  5
8EE
  8
0
  6
CONTINUOUS
 62
     7
 10
1.990487055823608
 20
-30.06980547658766
 30
0.0
 11
1.968999607823607
 21
-30.17543898058766
 31
0.0
  0
LINE
  5
8EF
  8
0
  6
CONTINUOUS
 62
     7
 10
1.968999607823607
 20
-30.17543898058766
 30
0.0
 11
1.924901393823607
 21
-30.54283112258766
 31
0.0
  0
LINE
  5
8F0
  8
0
  6
CONTINUOUS
 62
     7
 10
1.924901393823607
 20
-30.54283112258766
 30
0.0
 11
1.881500695823607
 21
-30.81740924358766
 31
0.0
  0
LINE
  5
8F1
  8
0
  6
CONTINUOUS
 62
     7
 10
1.881500695823607
 20
-30.81740924358766
 30
0.0
 11
1.816169134823608
 21
-31.14215227858766
 31
0.0
  0
LINE
  5
8F2
  8
0
  6
CONTINUOUS
 62
     7
 10
1.816169134823608
 20
-31.14215227858766
 30
0.0
 11
1.724980041823608
 21
-31.51428149358766
 31
0.0
  0
LINE
  5
8F3
  8
0
  6
CONTINUOUS
 62
     7
 10
1.724980041823608
 20
-31.51428149358766
 30
0.0
 11
1.603535831823608
 21
-31.93331196458766
 31
0.0
  0
LINE
  5
8F4
  8
0
  6
CONTINUOUS
 62
     7
 10
1.603535831823608
 20
-31.93331196458766
 30
0.0
 11
1.447568287823608
 21
-32.39779365758766
 31
0.0
  0
LINE
  5
8F5
  8
0
  6
CONTINUOUS
 62
     7
 10
1.447568287823608
 20
-32.39779365758766
 30
0.0
 11
1.253857423823608
 21
-32.90344681958766
 31
0.0
  0
LINE
  5
8F6
  8
0
  6
CONTINUOUS
 62
     7
 10
1.253857423823608
 20
-32.90344681958766
 30
0.0
 11
1.017686560823608
 21
-33.45021263758765
 31
0.0
  0
LINE
  5
8F7
  8
0
  6
CONTINUOUS
 62
     7
 10
1.017686560823608
 20
-33.45021263758765
 30
0.0
 11
0.7622748813224989
 21
-33.98143406265935
 31
0.0
  0
LINE
  5
8F8
  8
0
  6
CONTINUOUS
 62
     7
 10
-0.7622748978156497
 20
-33.98143406258098
 30
0.0
 11
-1.017686551176392
 21
-33.45021263758765
 31
0.0
  0
LINE
  5
8F9
  8
0
  6
CONTINUOUS
 62
     7
 10
-1.017686551176392
 20
-33.45021263758765
 30
0.0
 11
-1.253857414176392
 21
-32.90344681958766
 31
0.0
  0
LINE
  5
8FA
  8
0
  6
CONTINUOUS
 62
     7
 10
-1.253857414176392
 20
-32.90344681958766
 30
0.0
 11
-1.447568278176393
 21
-32.39779365758766
 31
0.0
  0
LINE
  5
8FB
  8
0
  6
CONTINUOUS
 62
     7
 10
-1.447568278176393
 20
-32.39779365758766
 30
0.0
 11
-1.603535822176393
 21
-31.93331196458766
 31
0.0
  0
LINE
  5
8FC
  8
0
  6
CONTINUOUS
 62
     7
 10
-1.603535822176393
 20
-31.93331196458766
 30
0.0
 11
-1.724980032176392
 21
-31.51428149358766
 31
0.0
  0
LINE
  5
8FD
  8
0
  6
CONTINUOUS
 62
     7
 10
-1.724980032176392
 20
-31.51428149358766
 30
0.0
 11
-1.816169125176393
 21
-31.14215227858766
 31
0.0
  0
LINE
  5
8FE
  8
0
  6
CONTINUOUS
 62
     7
 10
-1.816169125176393
 20
-31.14215227858766
 30
0.0
 11
-1.881500686176393
 21
-30.81740924358766
 31
0.0
  0
LINE
  5
8FF
  8
0
  6
CONTINUOUS
 62
     7
 10
-1.881500686176393
 20
-30.81740924358766
 30
0.0
 11
-1.924901384176393
 21
-30.54283112258766
 31
0.0
  0
LINE
  5
900
  8
0
  6
CONTINUOUS
 62
     7
 10
-1.924901384176393
 20
-30.54283112258766
 30
0.0
 11
-1.968999598176392
 21
-30.17543898058766
 31
0.0
  0
LINE
  5
901
  8
0
  6
CONTINUOUS
 62
     7
 10
-1.968999598176392
 20
-30.17543898058766
 30
0.0
 11
-1.990487046176393
 21
-30.06980547658766
 31
0.0
  0
LINE
  5
902
  8
0
  6
CONTINUOUS
 62
     7
 10
-1.990487046176393
 20
-30.06980547658766
 30
0.0
 11
-2.016979058176392
 21
-29.97836465158765
 31
0.0
  0
LINE
  5
903
  8
0
  6
CONTINUOUS
 62
     7
 10
-2.016979058176392
 20
-29.97836465158765
 30
0.0
 11
-2.047881736176392
 21
-29.90128017258766
 31
0.0
  0
LINE
  5
904
  8
0
  6
CONTINUOUS
 62
     7
 10
-2.047881736176392
 20
-29.90128017258766
 30
0.0
 11
-2.082607877176392
 21
-29.83868429158766
 31
0.0
  0
LINE
  5
905
  8
0
  6
CONTINUOUS
 62
     7
 10
-2.082607877176392
 20
-29.83868429158766
 30
0.0
 11
-2.120570484176393
 21
-29.79070926058766
 31
0.0
  0
LINE
  5
906
  8
0
  6
CONTINUOUS
 62
     7
 10
-2.120570484176393
 20
-29.79070926058766
 30
0.0
 11
-2.161157943176393
 21
-29.75744819158766
 31
0.0
  0
LINE
  5
907
  8
0
  6
CONTINUOUS
 62
     7
 10
-2.161157943176393
 20
-29.75744819158766
 30
0.0
 11
-2.203777798176393
 21
-29.73898224858766
 31
0.0
  0
LINE
  5
908
  8
0
  6
CONTINUOUS
 62
     7
 10
-2.203777798176393
 20
-29.73898224858766
 30
0.0
 11
-2.316891574176393
 21
-29.72845286758766
 31
0.0
  0
LINE
  5
909
  8
0
  6
CONTINUOUS
 62
     7
 10
-2.316891574176393
 20
-29.72845286758766
 30
0.0
 11
-3.016687582176393
 21
-29.66551090658766
 31
0.0
  0
LINE
  5
90A
  8
0
  6
CONTINUOUS
 62
     7
 10
-3.016687582176393
 20
-29.66551090658766
 30
0.0
 11
-3.714828895176393
 21
-29.58629649058766
 31
0.0
  0
LINE
  5
90B
  8
0
  6
CONTINUOUS
 62
     7
 10
-3.714828895176393
 20
-29.58629649058766
 30
0.0
 11
-3.827746765176393
 21
-29.57384070058766
 31
0.0
  0
LINE
  5
90C
  8
0
  6
CONTINUOUS
 62
     7
 10
-3.827746765176393
 20
-29.57384070058766
 30
0.0
 11
-3.873211377176393
 21
-29.58334935158766
 31
0.0
  0
LINE
  5
90D
  8
0
  6
CONTINUOUS
 62
     7
 10
-3.873211377176393
 20
-29.58334935158766
 30
0.0
 11
-3.919663347176393
 21
-29.60775942458766
 31
0.0
  0
LINE
  5
90E
  8
0
  6
CONTINUOUS
 62
     7
 10
-3.919663347176393
 20
-29.60775942458766
 30
0.0
 11
-3.966506202176393
 21
-29.64711057458766
 31
0.0
  0
LINE
  5
90F
  8
0
  6
CONTINUOUS
 62
     7
 10
-3.966506202176393
 20
-29.64711057458766
 30
0.0
 11
-4.013121942176392
 21
-29.70143473158766
 31
0.0
  0
LINE
  5
910
  8
0
  6
CONTINUOUS
 62
     7
 10
-4.013121942176392
 20
-29.70143473158766
 30
0.0
 11
-4.058908944176394
 21
-29.77072066858766
 31
0.0
  0
LINE
  5
911
  8
0
  6
CONTINUOUS
 62
     7
 10
-4.058908944176394
 20
-29.77072066858766
 30
0.0
 11
-4.103265688176393
 21
-29.85495695258766
 31
0.0
  0
LINE
  5
912
  8
0
  6
CONTINUOUS
 62
     7
 10
-4.103265688176393
 20
-29.85495695258766
 30
0.0
 11
-4.145577161176393
 21
-29.95410258958766
 31
0.0
  0
LINE
  5
913
  8
0
  6
CONTINUOUS
 62
     7
 10
-4.145577161176393
 20
-29.95410258958766
 30
0.0
 11
-4.262728125176392
 21
-30.30509744058766
 31
0.0
  0
LINE
  5
914
  8
0
  6
CONTINUOUS
 62
     7
 10
-4.262728125176392
 20
-30.30509744058766
 30
0.0
 11
-4.360512617176393
 21
-30.56531828858766
 31
0.0
  0
LINE
  5
915
  8
0
  6
CONTINUOUS
 62
     7
 10
-4.360512617176393
 20
-30.56531828858766
 30
0.0
 11
-4.489877115176393
 21
-30.87026276658766
 31
0.0
  0
LINE
  5
916
  8
0
  6
CONTINUOUS
 62
     7
 10
-4.489877115176393
 20
-30.87026276658766
 30
0.0
 11
-4.654108555176395
 21
-31.21641816258766
 31
0.0
  0
LINE
  5
917
  8
0
  6
CONTINUOUS
 62
     7
 10
-4.654108555176395
 20
-31.21641816258766
 30
0.0
 11
-4.857417062176393
 21
-31.60242456758765
 31
0.0
  0
LINE
  5
918
  8
0
  6
CONTINUOUS
 62
     7
 10
-4.857417062176393
 20
-31.60242456758765
 30
0.0
 11
-5.103691401176393
 21
-32.02600228258766
 31
0.0
  0
LINE
  5
919
  8
0
  6
CONTINUOUS
 62
     7
 10
-5.103691401176393
 20
-32.02600228258766
 30
0.0
 11
-5.395224249176394
 21
-32.48231092558765
 31
0.0
  0
LINE
  5
91A
  8
0
  6
CONTINUOUS
 62
     7
 10
-5.395224249176394
 20
-32.48231092558765
 30
0.0
 11
-5.736623929176393
 21
-32.97034367158766
 31
0.0
  0
LINE
  5
91B
  8
0
  6
CONTINUOUS
 62
     7
 10
-5.736623929176393
 20
-32.97034367158766
 30
0.0
 11
-6.093741311226472
 21
-33.43927703659219
 31
0.0
  0
LINE
  5
91C
  8
0
  6
CONTINUOUS
 62
     7
 10
-7.587083507814532
 20
-33.13238740101473
 30
0.0
 11
-7.730332717176394
 21
-32.56062604858766
 31
0.0
  0
LINE
  5
91D
  8
0
  6
CONTINUOUS
 62
     7
 10
-7.730332717176394
 20
-32.56062604858766
 30
0.0
 11
-7.851606050176393
 21
-31.97751163358766
 31
0.0
  0
LINE
  5
91E
  8
0
  6
CONTINUOUS
 62
     7
 10
-7.851606050176393
 20
-31.97751163358766
 30
0.0
 11
-7.939564445176393
 21
-31.44321551058766
 31
0.0
  0
LINE
  5
91F
  8
0
  6
CONTINUOUS
 62
     7
 10
-7.939564445176393
 20
-31.44321551058766
 30
0.0
 11
-7.998839812176395
 21
-30.95684580258766
 31
0.0
  0
LINE
  5
920
  8
0
  6
CONTINUOUS
 62
     7
 10
-7.998839812176395
 20
-30.95684580258766
 30
0.0
 11
-8.033447812176393
 21
-30.52194632758766
 31
0.0
  0
LINE
  5
921
  8
0
  6
CONTINUOUS
 62
     7
 10
-8.033447812176393
 20
-30.52194632758766
 30
0.0
 11
-8.047861220176394
 21
-30.13907843558766
 31
0.0
  0
LINE
  5
922
  8
0
  6
CONTINUOUS
 62
     7
 10
-8.047861220176394
 20
-30.13907843558766
 30
0.0
 11
-8.046485037176392
 21
-29.80783177458766
 31
0.0
  0
LINE
  5
923
  8
0
  6
CONTINUOUS
 62
     7
 10
-8.046485037176392
 20
-29.80783177458766
 30
0.0
 11
-8.033725294176394
 21
-29.53013780058766
 31
0.0
  0
LINE
  5
924
  8
0
  6
CONTINUOUS
 62
     7
 10
-8.033725294176394
 20
-29.53013780058766
 30
0.0
 11
-8.002965271176393
 21
-29.16138925158766
 31
0.0
  0
LINE
  5
925
  8
0
  6
CONTINUOUS
 62
     7
 10
-8.002965271176393
 20
-29.16138925158766
 30
0.0
 11
-8.002748971176393
 21
-29.05359274758766
 31
0.0
  0
LINE
  5
926
  8
0
  6
CONTINUOUS
 62
     7
 10
-8.002748971176393
 20
-29.05359274758766
 30
0.0
 11
-8.010291867176393
 21
-28.95869081358766
 31
0.0
  0
LINE
  5
927
  8
0
  6
CONTINUOUS
 62
     7
 10
-8.010291867176393
 20
-28.95869081358766
 30
0.0
 11
-8.025044969176394
 21
-28.87696360958765
 31
0.0
  0
LINE
  5
928
  8
0
  6
CONTINUOUS
 62
     7
 10
-8.025044969176394
 20
-28.87696360958765
 30
0.0
 11
-8.046459802176393
 21
-28.80865874758766
 31
0.0
  0
LINE
  5
929
  8
0
  6
CONTINUOUS
 62
     7
 10
-8.046459802176393
 20
-28.80865874758766
 30
0.0
 11
-8.073987994176392
 21
-28.75402394258766
 31
0.0
  0
LINE
  5
92A
  8
0
  6
CONTINUOUS
 62
     7
 10
-8.073987994176392
 20
-28.75402394258766
 30
0.0
 11
-8.107049140176393
 21
-28.71327364058766
 31
0.0
  0
LINE
  5
92B
  8
0
  6
CONTINUOUS
 62
     7
 10
-8.107049140176393
 20
-28.71327364058766
 30
0.0
 11
-8.145079418176394
 21
-28.68660632258766
 31
0.0
  0
LINE
  5
92C
  8
0
  6
CONTINUOUS
 62
     7
 10
-8.145079418176394
 20
-28.68660632258766
 30
0.0
 11
-8.253758220176394
 21
-28.65352282558766
 31
0.0
  0
LINE
  5
92D
  8
0
  6
CONTINUOUS
 62
     7
 10
-8.253758220176394
 20
-28.65352282558766
 30
0.0
 11
-8.926559267176392
 21
-28.45100144458766
 31
0.0
  0
LINE
  5
92E
  8
0
  6
CONTINUOUS
 62
     7
 10
-8.926559267176392
 20
-28.45100144458766
 30
0.0
 11
-9.594463797176394
 21
-28.23287370958766
 31
0.0
  0
LINE
  5
92F
  8
0
  6
CONTINUOUS
 62
     7
 10
-9.594463797176394
 20
-28.23287370958766
 30
0.0
 11
-9.702562915176392
 21
-28.19794270158766
 31
0.0
  0
LINE
  5
930
  8
0
  6
CONTINUOUS
 62
     7
 10
-9.702562915176392
 20
-28.19794270158766
 30
0.0
 11
-9.749010971176393
 21
-28.19810482358766
 31
0.0
  0
LINE
  5
931
  8
0
  6
CONTINUOUS
 62
     7
 10
-9.749010971176393
 20
-28.19810482358766
 30
0.0
 11
-9.799425763176394
 21
-28.21266438858767
 31
0.0
  0
LINE
  5
932
  8
0
  6
CONTINUOUS
 62
     7
 10
-9.799425763176394
 20
-28.21266438858767
 30
0.0
 11
-9.853231006176394
 21
-28.24178063458766
 31
0.0
  0
LINE
  5
933
  8
0
  6
CONTINUOUS
 62
     7
 10
-9.853231006176394
 20
-28.24178063458766
 30
0.0
 11
-9.909827961176394
 21
-28.28560909158766
 31
0.0
  0
LINE
  5
934
  8
0
  6
CONTINUOUS
 62
     7
 10
-9.909827961176394
 20
-28.28560909158766
 30
0.0
 11
-9.968624893176393
 21
-28.34425986658766
 31
0.0
  0
LINE
  5
935
  8
0
  6
CONTINUOUS
 62
     7
 10
-9.968624893176393
 20
-28.34425986658766
 30
0.0
 11
-10.02903027317639
 21
-28.41784286058766
 31
0.0
  0
LINE
  5
936
  8
0
  6
CONTINUOUS
 62
     7
 10
-10.02903027317639
 20
-28.41784286058766
 30
0.0
 11
-10.09043341417639
 21
-28.50644181258766
 31
0.0
  0
LINE
  5
937
  8
0
  6
CONTINUOUS
 62
     7
 10
-10.09043341417639
 20
-28.50644181258766
 30
0.0
 11
-10.27584113917639
 21
-28.82666943058766
 31
0.0
  0
LINE
  5
938
  8
0
  6
CONTINUOUS
 62
     7
 10
-10.27584113917639
 20
-28.82666943058766
 30
0.0
 11
-10.42400602117639
 21
-29.06187971558766
 31
0.0
  0
LINE
  5
939
  8
0
  6
CONTINUOUS
 62
     7
 10
-10.42400602117639
 20
-29.06187971558766
 30
0.0
 11
-10.61210729917639
 21
-29.33454110958766
 31
0.0
  0
LINE
  5
93A
  8
0
  6
CONTINUOUS
 62
     7
 10
-10.61210729917639
 20
-29.33454110958766
 30
0.0
 11
-10.84265745217639
 21
-29.64055112258766
 31
0.0
  0
LINE
  5
93B
  8
0
  6
CONTINUOUS
 62
     7
 10
-10.84265745217639
 20
-29.64055112258766
 30
0.0
 11
-11.11950682617639
 21
-29.97773017158766
 31
0.0
  0
LINE
  5
93C
  8
0
  6
CONTINUOUS
 62
     7
 10
-11.11950682617639
 20
-29.97773017158766
 30
0.0
 11
-11.44600539317639
 21
-30.34306262258766
 31
0.0
  0
LINE
  5
93D
  8
0
  6
CONTINUOUS
 62
     7
 10
-11.44600539317639
 20
-30.34306262258766
 30
0.0
 11
-11.82342479117639
 21
-30.73134543058766
 31
0.0
  0
LINE
  5
93E
  8
0
  6
CONTINUOUS
 62
     7
 10
-11.82342479117639
 20
-30.73134543058766
 30
0.0
 11
-12.25607629117639
 21
-31.14066485558766
 31
0.0
  0
LINE
  5
93F
  8
0
  6
CONTINUOUS
 62
     7
 10
-12.25607629117639
 20
-31.14066485558766
 30
0.0
 11
-12.70027900710632
 21
-31.528111923742
 31
0.0
  0
ARC
  5
940
  8
0
  6
CONTINUOUS
 62
     7
 10
0.0000000048236188
 20
0.0000000004123447
 30
0.0
 40
5.149999999999992
 50
322.4098512307768
 51
37.5895029648569
  0
ARC
  5
941
  8
0
  6
CONTINUOUS
 62
     7
 10
0.0000000048236162
 20
0.0000000004123443
 30
0.0
 40
5.150000000000009
 50
142.4104970351432
 51
217.5888571604906
  0
ARC
  5
942
  8
0
  6
CONTINUOUS
 62
     7
 10
0.000007676455508
 20
0.0000187925707316
 30
0.0
 40
33.99000306427702
 50
245.4891458664341
 51
248.0592425315409
  0
ARC
  5
943
  8
0
  6
CONTINUOUS
 62
     7
 10
-0.0000001746955055
 20
0.0000017412794584
 30
0.0
 40
33.98998415199469
 50
233.8762431873641
 51
236.4463412540699
  0
ARC
  5
944
  8
0
  6
CONTINUOUS
 62
     7
 10
-0.0000116945418232
 20
-0.0000116513724109
 30
0.0
 40
33.9899663712859
 50
222.2633367562744
 51
224.8334360513179
  0
ARC
  5
945
  8
0
  6
CONTINUOUS
 62
     7
 10
0.0000222294125152
 20
0.0000151526155285
 30
0.0
 40
33.99000961520165
 50
210.6504376159968
 51
213.2205337851833
  0
ARC
  5
946
  8
0
  6
CONTINUOUS
 62
     7
 10
0.0000487864541796
 20
0.0000190899383761
 30
0.0
 40
33.99003511271597
 50
199.037535221194
 51
201.6076294155313
  0
ARC
  5
947
  8
0
  6
CONTINUOUS
 62
     7
 10
0.0000243119642865
 20
0.0000029236070317
 30
0.0
 40
33.99000730317605
 50
187.4246279792614
 51
189.9947243368372
  0
ARC
  5
948
  8
0
  6
CONTINUOUS
 62
     7
 10
0.0000137449580535
 20
0.0000001441057392
 30
0.0
 40
33.98999653645689
 50
175.8117270631996
 51
178.3818241773815
  0
ARC
  5
949
  8
0
  6
CONTINUOUS
 62
     7
 10
0.0000171173792509
 20
-0.0000045348644591
 30
0.0
 40
33.9900004395572
 50
164.1988223756498
 51
166.7689191901792
  0
ARC
  5
94A
  8
0
  6
CONTINUOUS
 62
     7
 10
0.0000087942733783
 20
-0.0000044299109388
 30
0.0
 40
33.98999261486974
 50
152.5859187748233
 51
155.1560162649952
  0
ARC
  5
94B
  8
0
  6
CONTINUOUS
 62
     7
 10
0.0000181584993098
 20
-0.0000144325415251
 30
0.0
 40
33.99000598129684
 50
140.9730157568769
 51
143.5431121663692
  0
ARC
  5
94C
  8
0
  6
CONTINUOUS
 62
     7
 10
0.0000376132888533
 20
-0.0000441299367751
 30
0.0
 40
33.99004069700233
 50
129.3601140736813
 51
131.9302078907683
  0
ARC
  5
94D
  8
0
  6
CONTINUOUS
 62
     7
 10
-0.0000148018674887
 20
0.00002531669841
 30
0.0
 40
33.98995349381733
 50
117.7472067029731
 51
120.3173071390201
  0
ARC
  5
94E
  8
0
  6
CONTINUOUS
 62
     7
 10
0.0000002287278562
 20
0.0000008452202778
 30
0.0
 40
33.98998200739834
 50
106.134306429434
 51
108.7044048019824
  0
ARC
  5
94F
  8
0
  6
CONTINUOUS
 62
     7
 10
0.0000008339996887
 20
-0.0000153908564802
 30
0.0
 40
33.98999817932022
 50
94.52140180419997
 51
97.09149884067737
  0
ARC
  5
950
  8
0
  6
CONTINUOUS
 62
     7
 10
-0.0000012463706143
 20
-0.0000195937313758
 30
0.0
 40
33.99000240313322
 50
82.90850130635786
 51
85.47859804631021
  0
ARC
  5
951
  8
0
  6
CONTINUOUS
 62
     7
 10
-0.0000102025686951
 20
-0.0000308911709936
 30
0.0
 40
33.99001527550186
 50
71.2955963993261
 51
73.86569225872209
  0
ARC
  5
952
  8
0
  6
CONTINUOUS
 62
     7
 10
-0.0000113300627837
 20
-0.0000208391043846
 30
0.0
 40
33.99000648413672
 50
59.68269406028031
 51
62.2527905551342
  0
ARC
  5
953
  8
0
  6
CONTINUOUS
 62
     7
 10
-0.0000323755924801
 20
-0.0000390847000844
 30
0.0
 40
33.99003346381145
 50
48.06979292534587
 51
50.63988735236885
  0
ARC
  5
954
  8
0
  6
CONTINUOUS
 62
     7
 10
-0.0000210328166332
 20
-0.0000168473201908
 30
0.0
 40
33.9900097397946
 50
36.45688816553361
 51
39.02698438239845
  0
ARC
  5
955
  8
0
  6
CONTINUOUS
 62
     7
 10
0.0000026289662121
 20
0.0000014508759728
 30
0.0
 40
33.98997977841758
 50
24.84398287412992
 51
27.41408125178116
  0
ARC
  5
956
  8
0
  6
CONTINUOUS
 62
     7
 10
-0.0000160443636403
 20
-0.0000042574560002
 30
0.0
 40
33.98999934065174
 50
13.23108078183447
 51
15.80117761473127
  0
ARC
  5
957
  8
0
  6
CONTINUOUS
 62
     7
 10
-0.0000185597242037
 20
-0.0000000812885182
 30
0.0
 40
33.99000136587333
 50
1.618175979154112
 51
4.188272769484812
  0
ARC
  5
958
  8
0
  6
CONTINUOUS
 62
     7
 10
-0.0000087239375025
 20
0.0000005477763478
 30
0.0
 40
33.98999154539518
 50
350.0052751233004
 51
352.5753725888906
  0
ARC
  5
959
  8
0
  6
CONTINUOUS
 62
     7
 10
-0.0000258651943786
 20
0.0000101578281774
 30
0.0
 40
33.990010526258
 50
338.3923703608835
 51
340.9624663648296
  0
ARC
  5
95A
  8
0
  6
CONTINUOUS
 62
     7
 10
-0.0000191525507205
 20
0.0000130729146477
 30
0.0
 40
33.99000591231002
 50
326.7794663285384
 51
329.3495627679121
  0
ARC
  5
95B
  8
0
  6
CONTINUOUS
 62
     7
 10
0.0000103480338763
 20
-0.0000096377336926
 30
0.0
 40
33.98996866678922
 50
315.1665630399714
 51
317.7366622000335
  0
ARC
  5
95C
  8
0
  6
CONTINUOUS
 62
     7
 10
0.0000063172523876
 20
-0.0000063974333078
 30
0.0
 40
33.98997396896614
 50
303.5536577154407
 51
306.1237565815749
  0
ARC
  5
95D
  8
0
  6
CONTINUOUS
 62
     7
 10
-0.0000111213370341
 20
0.0000265034074782
 30
0.0
 40
33.99001151213793
 50
291.9407580552701
 51
294.5108540428034
  0
ARC
  5
95E
  8
0
  6
CONTINUOUS
 62
     7
 10
-0.0000052281083534
 20
0.0000243581495525
 30
0.0
 40
33.99000774115099
 50
280.3278554662779
 51
282.8979518270525
  0
ARC
  5
95F
  8
0
  6
CONTINUOUS
 62
     7
 10
-0.0000000064998418
 20
0.000018538528065
 30
0.0
 40
33.99000123405928
 50
268.7149516216825
 51
271.2850483724305
  0
ARC
  5
960
  8
0
  6
CONTINUOUS
 62
     7
 10
0.0000032412744829
 20
0.0000143830618479
 30
0.0
 40
33.98999754809763
 50
257.1020477503693
 51
259.6721448547812
  0
ENDSEC
  0
EOF
